<svg width="391" height="391" viewBox="0 0 391 391" fill="none" xmlns="http://www.w3.org/2000/svg">
<path d="M20.1698 306.997C20.1566 303.735 19.5999 299.172 20.845 296.139C22.2038 292.829 26.3102 290.682 29.4213 289.369C43.3671 283.48 63.1122 283.998 77.0614 289.725L76.8724 290.37C76.6089 291.679 76.2752 293.014 76.1484 294.342C76.1072 294.773 76.0713 295.123 75.9201 295.533C75.4695 297.997 74.9903 300.506 74.7742 303.003C74.6642 303.624 74.5879 304.279 74.366 304.87C74.0923 306.096 73.8173 307.35 73.8208 308.612L73.6119 309.726C73.1251 312.073 72.6386 314.547 72.4206 316.933C72.3381 317.322 72.2877 317.774 72.1563 318.147C71.6768 320.488 71.1342 322.851 70.8638 325.227L70.6737 326.135C70.5778 327.417 70.317 328.679 70.0856 329.942C69.8573 331.421 69.8527 335.296 68.8848 336.278C68.6561 338.144 67.5442 341.915 67.7293 343.526C67.716 344.144 67.7019 344.368 67.3147 344.885C59.2824 349.205 50.4975 350.398 41.4838 350.284C31.7915 350.162 17.9123 348.215 10.9203 340.936C7.95074 337.844 8.13715 335.124 8.21142 331.114C7.90572 330.63 7.59567 330.141 7.33938 329.629C5.87962 326.711 5.8398 319.951 6.92627 316.852C8.85695 311.345 15.4125 309.294 20.1698 306.997Z" fill="black"/>
<path d="M20.0097 312.921C20.947 314.345 20.2614 316.724 22.4796 319.035C30.1261 327.001 45.5908 328.224 56.1348 328.504C53.9091 329.018 51.6845 329.485 49.4099 329.715C41.2585 331.078 30.6538 329.734 22.9111 327.021C19.8637 325.953 15.5685 324.233 14.1514 321.08C13.6716 320.013 13.5238 318.844 13.9749 317.743C14.9746 315.303 17.7378 313.921 20.0097 312.921Z" fill="#FEE5A3"/>
<path d="M7.11129 322.984C7.59824 323.413 9.30856 326.224 10.024 327.059C13.5333 331.153 19.5754 333.681 24.6382 335.134C35.7252 338.315 49.8586 338.565 60.9551 335.216C63.8342 334.347 66.4826 333.112 69.1062 331.656C68.9702 332.956 68.9615 334.294 68.1859 335.395C61.5893 341.065 50.2545 342.387 41.8018 342.315C30.7497 342.221 17.8399 339.735 9.88139 331.493C7.21782 328.735 7.06764 326.604 7.11129 322.984Z" fill="#FEE5A3"/>
<path d="M21.0227 310.215C21.5549 310.766 22.1182 311.284 22.7126 311.767C23.307 312.251 23.9282 312.697 24.5762 313.106C28.6684 315.736 33.3983 317.354 38.1134 318.445C49.662 321.115 60.6432 320.609 72.1563 318.147C71.6767 320.488 71.1341 322.851 70.8638 325.227C66.2401 326.739 61.1445 327.328 56.2822 327.359C46.9601 327.418 30.2186 325.396 23.5276 318.658C21.0098 316.123 21.0241 313.525 21.0227 310.215Z" fill="#FEE5A3"/>
<path d="M21.0912 309.493C21.1174 306.65 21.1644 303.807 21.2325 300.965C23.5493 304.659 28.3902 307.014 32.2646 308.706C43.1196 313.447 62.6421 314.065 73.6118 309.726C73.125 312.073 72.6385 314.547 72.4205 316.933C68.0622 319.162 55.5113 319.587 50.3019 319.296C41.404 318.798 27.1242 316.256 21.0912 309.493Z" fill="#FEE5A3"/>
<path d="M9.01155 331.771C14.5153 337.983 22.0103 340.718 30.0111 342.199C42.6759 344.544 58.075 343.75 68.8848 336.278C68.656 338.144 67.5441 341.915 67.7293 343.526C60.6726 348.702 49.9098 349.579 41.3876 349.469C31.9348 349.346 18.1602 347.404 11.3319 340.301C8.73621 337.601 8.93614 335.21 9.01155 331.771Z" fill="#FEE5A3"/>
<path d="M70.0856 329.942C69.3342 330.512 68.5147 330.994 67.6823 331.436C55.8282 337.733 36.8828 337.659 24.2362 333.828C18.3516 332.045 11.0597 328.743 8.12375 322.945C7.2057 321.133 6.94392 319.103 7.65069 317.173C9.46655 312.212 15.6919 309.877 20.1128 307.948L20.1426 311.415C17.5235 312.572 14.4008 314.141 12.9916 316.768C12.2987 318.06 12.0898 319.538 12.5386 320.946C13.4444 323.786 16.4456 325.513 18.9734 326.73C30.3757 332.217 44.0131 332.359 56.1459 329.623C57.7244 329.267 59.1032 328.52 60.6199 328.136C64.0446 327.271 67.1443 327.388 70.6736 326.135C70.5778 327.417 70.317 328.679 70.0856 329.942Z" fill="#FEE5A3"/>
<path d="M73.8207 308.612C63.8311 313.03 46.4847 312.266 35.9918 309.252C31.8204 308.054 23.849 304.929 21.7253 300.783C21.1301 299.622 21.1211 298.046 21.5322 296.825C22.5147 293.907 25.5869 292.111 28.2091 290.846C39.3092 285.492 54.5254 284.968 66.5017 287.349C70.0638 288.057 73.4499 289.184 76.8723 290.37C76.6089 291.679 76.2751 293.014 76.1484 294.343C76.1071 294.773 76.0712 295.123 75.92 295.533C73.3908 294.305 70.8993 293.163 68.1882 292.377C58.4193 289.547 45.485 289.341 35.8544 292.686C33.3407 293.559 29.6331 295.226 28.4024 297.734C28.1697 298.209 28.0952 298.657 28.2833 299.168C29.1834 301.611 32.6596 303.284 34.9003 304.208C45.3629 308.52 62.387 308.498 72.8268 304.042C73.516 303.748 74.1395 303.399 74.7742 303.003C74.6642 303.624 74.5878 304.279 74.366 304.87C74.0922 306.096 73.8173 307.35 73.8207 308.612Z" fill="#FEE5A3"/>
<path d="M74.366 304.87C71.4308 305.968 68.4823 306.882 65.3947 307.445C56.0737 309.142 42.9187 308.93 34.1903 305.323C31.6713 304.282 27.9864 302.282 26.9855 299.583C26.6285 298.62 26.963 297.514 27.4289 296.645C28.9955 293.722 33.1347 292.216 36.1296 291.316C48.0861 287.72 65.1145 288.443 76.1484 294.342C76.1071 294.773 76.0712 295.123 75.92 295.533C73.3908 294.305 70.8993 293.163 68.1882 292.377C58.4193 289.547 45.485 289.341 35.8544 292.686C33.3407 293.558 29.6331 295.226 28.4024 297.734C28.1697 298.208 28.0952 298.657 28.2833 299.168C29.1834 301.611 32.6595 303.284 34.9003 304.208C45.3628 308.52 62.387 308.498 72.8268 304.041C73.516 303.747 74.1395 303.399 74.7741 303.003C74.6642 303.624 74.5878 304.279 74.366 304.87Z" fill="black"/>
<path d="M74.7742 303.003C74.1396 303.399 73.516 303.747 72.8268 304.041C62.387 308.498 45.3629 308.52 34.9003 304.208C32.6596 303.284 29.1835 301.611 28.2833 299.168C28.0952 298.657 28.1697 298.209 28.4025 297.734C29.6332 295.226 33.3408 293.559 35.8544 292.686C45.4851 289.341 58.4194 289.547 68.1883 292.377C70.8993 293.163 73.3908 294.305 75.9201 295.533C75.4695 297.997 74.9903 300.506 74.7742 303.003Z" fill="#FEE5A3"/>
<path d="M159.205 84.9404C160.074 81.8861 161.045 78.8372 163.078 76.3346C164.872 74.1261 167.303 72.6545 170.172 72.3662C173.139 72.068 180.279 73.0485 182.465 74.9642C185.994 78.0563 187.385 84.2424 187.746 88.6992C195.056 89.8077 202.41 90.5725 209.71 91.7509C210.343 88.7779 211.227 85.8286 213.016 83.3287C214.63 81.0724 216.899 79.4 219.7 79.012C222.142 78.6737 229.635 79.7032 231.498 81.2091C235.22 84.2191 236.476 90.9093 236.983 95.3733L260.341 98.8671C261.032 95.6525 262.037 92.2396 264.163 89.6561C265.736 87.7427 267.982 86.509 270.468 86.3311C271.651 86.2463 279.479 87.1948 280.602 87.5438C281.387 87.7882 282.088 88.2181 282.703 88.7592C286.297 91.9204 287.448 97.9996 287.792 102.516C294.583 103.809 301.599 104.665 308.455 105.556L311.449 106.046C312.408 101.986 313.364 97.147 317.219 94.7811C320.402 92.828 323.789 93.7479 327.2 94.2213C328.242 94.3661 329.331 94.3683 330.35 94.6417C332.56 95.2347 334.129 97.0538 335.173 99C337.428 103.206 337.91 107.956 337.724 112.647C340.121 115.122 342.056 117.54 343.215 120.827C345.583 127.545 344.657 135.738 344.652 142.806L344.745 155.162C344.509 160.586 344.768 166.043 344.789 171.471C344.831 185.08 344.999 198.687 345.295 212.293L345.949 260.988C346.083 269.583 346.101 278.206 346.468 286.795L346.767 305.132C346.833 308.482 347.229 312.165 346.83 315.487C346.742 316.219 346.541 316.823 346.024 317.37C345.313 318.122 344.377 318.394 343.366 318.366C340.131 318.278 336.716 317.565 333.499 317.126C324.636 315.918 315.658 314.271 306.74 313.618C305.657 319.135 304.426 324.649 303.263 330.151C298.701 329.704 294.17 328.976 289.631 328.346L269.015 325.488C250.718 322.887 232.407 320.398 214.08 318.02C219.756 330.507 221.19 342.156 216.269 355.259C216.142 355.595 216.01 355.929 215.875 356.261C215.739 356.593 215.6 356.924 215.457 357.253C215.313 357.582 215.166 357.909 215.014 358.234C214.863 358.559 214.708 358.883 214.548 359.204C214.389 359.526 214.226 359.845 214.059 360.163C213.892 360.481 213.721 360.796 213.546 361.11C213.371 361.423 213.193 361.734 213.011 362.043C212.828 362.352 212.642 362.659 212.452 362.964C212.262 363.268 212.069 363.571 211.872 363.87C211.675 364.17 211.474 364.467 211.27 364.762C211.065 365.057 210.857 365.35 210.646 365.639C210.434 365.929 210.219 366.217 210.001 366.502C209.783 366.786 209.561 367.068 209.335 367.347C209.11 367.627 208.881 367.903 208.649 368.177C208.417 368.45 208.182 368.721 207.943 368.989C207.704 369.257 207.463 369.522 207.217 369.784C206.972 370.046 206.724 370.305 206.472 370.561C206.221 370.817 205.967 371.07 205.709 371.32C205.452 371.57 205.191 371.817 204.927 372.06C204.664 372.304 204.397 372.544 204.128 372.781C203.858 373.018 203.586 373.252 203.311 373.482C203.036 373.712 202.758 373.939 202.477 374.163C202.197 374.387 201.913 374.607 201.627 374.823C201.341 375.04 201.053 375.253 200.762 375.463C200.471 375.673 200.177 375.879 199.88 376.081C199.584 376.284 199.286 376.483 198.985 376.678C198.684 376.873 198.38 377.065 198.075 377.253C197.769 377.44 197.461 377.625 197.151 377.805C196.841 377.986 196.528 378.162 196.214 378.335C195.899 378.508 195.583 378.677 195.264 378.842C194.946 379.007 194.625 379.168 194.303 379.325C193.98 379.483 193.656 379.636 193.329 379.785C192.985 379.942 192.638 380.095 192.29 380.244C191.941 380.392 191.591 380.536 191.239 380.676C190.887 380.816 190.534 380.952 190.178 381.083C189.823 381.214 189.466 381.341 189.108 381.464C188.749 381.586 188.389 381.704 188.028 381.817C187.667 381.932 187.304 382.041 186.94 382.145C186.576 382.249 186.211 382.35 185.845 382.447C185.478 382.541 185.111 382.631 184.742 382.718C184.373 382.804 184.004 382.887 183.633 382.966C183.262 383.042 182.891 383.115 182.518 383.184C182.146 383.252 181.772 383.316 181.398 383.375C181.024 383.436 180.65 383.49 180.274 383.539C179.899 383.59 179.523 383.635 179.146 383.676C178.77 383.717 178.393 383.754 178.015 383.787C177.638 383.818 177.26 383.844 176.882 383.867C176.504 383.89 176.126 383.908 175.747 383.921C175.369 383.933 174.99 383.941 174.611 383.944C174.233 383.949 173.854 383.949 173.475 383.944C173.097 383.936 172.718 383.924 172.339 383.909C171.961 383.896 171.583 383.877 171.205 383.852C170.827 383.829 170.449 383.8 170.072 383.764C169.695 383.731 169.318 383.694 168.942 383.653C168.566 383.61 168.19 383.562 167.815 383.508C167.439 383.457 167.065 383.401 166.691 383.34C166.318 383.279 165.945 383.213 165.572 383.142C165.2 383.073 164.829 382.998 164.459 382.916C164.088 382.837 163.719 382.753 163.351 382.664C162.983 382.578 162.615 382.485 162.249 382.386C161.884 382.289 161.519 382.187 161.155 382.08C160.792 381.973 160.43 381.863 160.069 381.748C159.708 381.632 159.349 381.512 158.992 381.388C158.634 381.264 158.277 381.135 157.923 381.003C148 377.223 141.446 370.791 135.679 362.155C132.29 362.227 128.899 362.057 125.51 362.012L93.984 361.298L77.5837 361.076C74.6077 361.032 71.5496 361.106 68.5892 360.785C67.6419 360.682 66.6877 360.383 66.0007 359.687C64.5669 358.232 66.541 351.352 66.853 349.393C67.092 347.892 67.2325 346.402 67.3146 344.885C67.7018 344.367 67.7159 344.144 67.7293 343.526C67.5441 341.915 68.656 338.143 68.8847 336.278C69.8527 335.296 69.8573 331.421 70.0856 329.942C70.317 328.678 70.5778 327.417 70.6736 326.135L70.8638 325.227C71.1341 322.851 71.6767 320.488 72.1563 318.147C72.2877 317.774 72.3381 317.322 72.4205 316.932C72.6386 314.547 73.125 312.073 73.6119 309.726L73.8207 308.612C73.8173 307.35 74.0922 306.096 74.366 304.87C74.5878 304.279 74.6642 303.624 74.7742 303.003C74.9903 300.506 75.4695 297.996 75.9201 295.532C76.0713 295.123 76.1072 294.773 76.1484 294.342C76.2752 293.014 76.6089 291.679 76.8724 290.37L77.0614 289.725C77.1465 288.851 77.3149 287.975 77.4489 287.107C78.1523 283.78 78.4455 280.322 79.0168 276.964L80.6537 267.532C80.9256 265.959 81.4204 264.182 81.3834 262.587L81.2715 262.463L81.2639 262.122L81.1818 262.318C81.118 260.54 81.7648 258.365 82.0596 256.598L84.3338 243.033C85.0659 238.655 85.7755 234.274 86.4626 229.888C86.857 227.414 87.1384 224.848 87.7383 222.419C87.9357 221.62 88.2816 220.968 88.8551 220.372C89.4302 219.774 90.0194 219.272 90.8319 219.071C93.3505 218.447 96.4327 218.763 99.0185 218.764L112.352 218.779C119.523 189.137 125.411 159.181 132.224 129.456L136.919 108.346C137.676 105 138.248 101.472 139.354 98.2287C140.366 95.2569 142.108 92.6894 144.363 90.5198C148.251 86.7794 153.863 84.861 159.205 84.9404Z" fill="black"/>
<path d="M226.904 80.7926C228.562 80.5963 229.764 80.801 231.116 81.8598C234.694 84.6621 235.658 91.0937 236.238 95.3115L228.383 94.2015C224.946 93.6382 221.502 93.1135 218.052 92.6276C218.487 90.9639 219.011 89.2426 219.706 87.6706C221.237 84.2134 223.332 82.1477 226.904 80.7926Z" fill="#FFFEFE"/>
<path d="M278.652 88.0482C280.047 87.9578 281.094 88.2605 282.174 89.1842C285.661 92.169 286.609 98.1318 287.04 102.411C284.317 102.075 281.598 101.709 278.883 101.312C275.504 100.848 272.13 100.34 268.764 99.7886C269.302 97.3601 269.97 94.7583 271.389 92.6769C273.173 90.0598 275.592 88.6382 278.652 88.0482Z" fill="#FFFEFE"/>
<path d="M328.15 95.3031C328.408 95.2783 328.658 95.2722 328.917 95.2844C330.65 95.3657 332.079 96.071 333.226 97.3734C336.471 101.059 337.241 107.364 337.015 112.062C335.224 110.869 333.49 109.88 331.473 109.118C327.661 108.075 323.51 107.683 319.6 107.084C319.946 104.85 320.364 102.732 321.447 100.723C322.938 97.9561 325.146 96.226 328.15 95.3031Z" fill="#FFFEFE"/>
<path d="M177.315 74.292C177.392 74.2832 177.47 74.2721 177.548 74.266C179.314 74.1282 180.72 74.4802 182.083 75.6578C185.403 78.5258 186.672 84.4431 187.005 88.6005L179.063 87.4703C175.315 86.8918 171.567 86.2728 167.793 85.886C168.272 83.973 168.935 82.0723 169.849 80.3215C171.468 77.2187 174.014 75.329 177.315 74.292Z" fill="#FFFEFE"/>
<path d="M189.652 234.971C192.087 235.12 194.569 235.597 196.967 236.04C195.719 240.625 194.943 245.438 194 250.095L189.884 269.722C189.795 270.122 189.74 270.384 189.479 270.706C188.039 271.24 185.756 270.494 184.251 270.219L189.652 234.971Z" fill="white"/>
<path d="M178.761 219.556C180.194 219.594 181.92 219.504 183.19 220.26C183.863 220.661 184.254 221.265 184.41 222.027C184.539 222.661 184.497 223.366 184.414 224.002C183.728 229.307 173.605 293.084 173.003 293.883C172.847 294.09 172.35 294.071 172.098 294.104C170.713 294.171 169.347 294.295 167.969 294.451C170.962 276.19 174.089 257.953 177.351 239.739C177.947 236.314 180.606 224.589 180.388 221.942C180.299 220.878 179.53 220.2 178.761 219.556Z" fill="#76D3E7"/>
<path d="M184.417 219.959C185.195 220.017 186.008 220.075 186.766 220.265C188.526 220.707 189.452 221.854 190.333 223.345C190.541 227.169 189.294 232.273 188.699 236.107L184.922 260.374C183.536 269.536 182.367 278.745 180.741 287.868C180.382 289.88 180.383 292.253 179.697 294.165L179.32 294.252C177.507 294.177 175.696 294.087 173.885 293.981C177.93 269.99 181.786 245.969 185.454 221.917C185.191 221.208 184.811 220.602 184.417 219.959Z" fill="#76D3E7"/>
<path d="M170.274 193.713C176.775 194.285 183.271 195.419 189.734 196.324C194.869 197.042 200.082 197.507 205.18 198.433C202.781 210.102 200.247 221.742 197.578 233.353C197.466 233.974 197.334 234.524 197.109 235.115C194.776 235.176 192.103 234.497 189.775 234.162C190.203 231.163 190.997 227.946 191.112 224.937C191.166 223.502 190.937 222.317 189.902 221.262C186.468 217.763 170.747 218.663 165.398 218.642C167.203 210.382 168.674 202.018 170.274 193.713Z" fill="white"/>
<path d="M127.527 153.907C132.24 154.311 136.933 155.014 141.617 155.669C140.163 162.242 138.953 168.867 137.605 175.462L130.885 207.881C130.258 210.935 129.958 214.092 129.287 217.115C129.176 217.613 129.054 218.199 128.721 218.6C128.52 218.844 128.073 218.784 127.772 218.807L113.161 218.82C114.309 213.258 115.703 207.74 116.924 202.192L127.527 153.907Z" fill="#FFFEFE"/>
<path d="M135.534 189.194C146.799 190.845 158.172 192.088 169.472 193.514C168.75 197.259 165.541 216.62 164.287 218.652L163.855 218.751L129.611 218.82L135.534 189.194Z" fill="white"/>
<path d="M142.35 155.752C145.791 156.338 149.324 156.662 152.789 157.105L176.18 160.102C173.361 170.816 171.839 181.933 169.499 192.763C163.515 191.935 157.527 191.147 151.533 190.399C146.249 189.751 140.933 189.218 135.673 188.396C136.362 185.696 136.83 182.894 137.388 180.162C139.048 172.025 140.465 163.841 142.35 155.752Z" fill="white"/>
<path d="M213.41 165.164C217.876 165.933 222.419 166.435 226.913 167.019L247.951 169.793C246.883 173.957 241.75 201.821 240.921 202.643C237.393 201.968 233.766 201.554 230.209 201.034L206.209 197.691C208.379 186.813 210.959 175.984 213.41 165.164Z" fill="white"/>
<path d="M248.788 169.88L283.624 174.703C281.724 182.904 280.218 191.297 278.592 199.565C278.248 201.315 277.678 206.277 276.967 207.585C265.393 205.453 253.551 204.529 241.908 202.773C244.301 191.845 246.064 180.725 248.788 169.88Z" fill="white"/>
<path d="M176.863 160.287C181.055 160.672 185.254 161.353 189.428 161.906L212.633 165.045C212.064 168.033 211.29 171.01 210.624 173.98C208.84 181.727 207.127 189.491 205.487 197.271L205.39 197.396C204.451 197.758 174.248 193.37 170.304 192.926L176.863 160.287Z" fill="white"/>
<path d="M284.409 174.806C296.464 176.202 308.611 178.042 320.574 180.09C318.232 190.845 316.251 201.692 313.867 212.441C311.965 212.788 305.256 211.502 302.927 211.185L277.875 207.727C279.984 196.739 282.162 185.766 284.409 174.806Z" fill="white"/>
<path d="M234.112 241.098C238.75 241.599 243.392 242.403 248.022 243.016C255.101 243.954 262.222 244.762 269.262 245.961C268.227 250.751 267.384 255.596 266.426 260.403L262.228 281.093C257.752 280.769 253.203 279.878 248.751 279.242L226.956 276.185C229.581 264.546 231.673 252.779 234.112 241.098Z" fill="#FEE5A3"/>
<path d="M197.801 236.108C209.618 237.805 221.448 239.413 233.289 240.931C232.601 244.112 226.764 275.163 226.176 276.138C223.477 275.635 220.698 275.376 217.978 274.993C208.784 273.701 199.476 272.693 190.334 271.115C191.507 266.555 192.361 261.897 193.303 257.286C194.719 250.209 196.218 243.149 197.801 236.108Z" fill="white"/>
<path d="M270.034 246.036C273.712 246.397 277.422 247.061 281.092 247.549C289.37 248.613 297.636 249.766 305.889 251.009L298.656 285.788C297.035 286.109 266.627 281.846 262.979 281.139C263.724 278.186 264.249 275.151 264.856 272.166C266.623 263.477 268.119 254.687 270.034 246.036Z" fill="#FEE5A3"/>
<path d="M241.808 203.599L277.025 208.383C275.543 214.199 274.506 220.185 273.353 226.076L269.464 245.174C257.769 243.281 245.97 242.018 234.25 240.279C235.704 232.215 237.487 224.173 239.118 216.141C239.927 212.159 240.418 207.361 241.808 203.599Z" fill="white"/>
<path d="M205.972 198.506C210.16 198.972 214.334 199.662 218.508 200.247C226.008 201.264 233.501 202.335 240.985 203.461C239.837 207.98 234.012 239.232 233.242 240.14C221.486 238.581 209.707 237.055 197.975 235.325C199.063 230.919 199.908 226.425 200.863 221.986L205.972 198.506Z" fill="white"/>
<path d="M277.82 208.527C289.784 210.102 301.72 212.016 313.71 213.381C311.785 221.327 310.246 229.912 308.63 237.967C307.812 242.043 307.066 246.15 305.946 250.156C302.099 249.713 298.274 249.032 294.435 248.514L270.263 245.26C273.092 233.1 275.166 220.734 277.82 208.527Z" fill="white"/>
<path d="M94.0756 224.22C103.129 223.978 112.236 224.147 121.294 224.141L172.888 224.111C172.497 227.966 171.704 231.862 171.083 235.689C169.764 243.891 168.299 252.066 166.689 260.215C140.442 260.312 114.196 260.204 87.9509 259.89C89.6127 251.477 90.7872 243.022 92.2114 234.571C92.7915 231.129 93.2665 227.613 94.0756 224.22Z" fill="#76D3E7"/>
<path d="M172.477 294.855C182.906 294.042 193.675 297.993 201.761 304.41C211.108 311.827 216.818 322.56 218.102 334.393C218.143 334.752 218.179 335.112 218.211 335.472C218.244 335.832 218.271 336.192 218.295 336.553C218.318 336.914 218.336 337.275 218.351 337.636C218.365 337.997 218.375 338.359 218.38 338.72C218.385 339.082 218.386 339.443 218.383 339.805C218.379 340.166 218.371 340.527 218.358 340.889C218.346 341.25 218.329 341.611 218.307 341.972C218.286 342.333 218.26 342.693 218.23 343.054C218.199 343.414 218.164 343.774 218.125 344.133C218.086 344.492 218.042 344.851 217.994 345.209C217.945 345.568 217.893 345.925 217.836 346.282C217.779 346.639 217.717 346.995 217.651 347.351C217.586 347.706 217.515 348.061 217.441 348.415C217.366 348.768 217.287 349.121 217.204 349.473C217.12 349.825 217.033 350.176 216.941 350.525C216.849 350.875 216.752 351.223 216.652 351.57C216.551 351.917 216.446 352.263 216.337 352.608C216.228 352.953 216.114 353.296 215.997 353.638C215.879 353.98 215.757 354.32 215.631 354.658C215.505 354.997 215.374 355.334 215.24 355.67C215.105 356.006 214.967 356.34 214.824 356.672C214.681 357.004 214.534 357.334 214.384 357.663C214.233 357.991 214.078 358.318 213.919 358.642C213.76 358.967 213.597 359.29 213.43 359.61C213.263 359.931 213.092 360.249 212.917 360.566C212.742 360.883 212.564 361.197 212.381 361.509C212.198 361.821 212.012 362.13 211.822 362.438C211.631 362.745 211.437 363.05 211.239 363.352C211.042 363.655 210.84 363.955 210.635 364.253C210.429 364.55 210.22 364.845 210.008 365.138C209.795 365.43 209.579 365.72 209.36 366.007C209.14 366.294 208.917 366.578 208.69 366.86C200.319 377.183 189.578 381.751 176.616 383.146C165.115 383.371 154.187 380.042 145.374 372.502C137.098 365.421 131.229 354.255 130.449 343.38C130.419 343.003 130.393 342.625 130.372 342.248C130.351 341.87 130.335 341.493 130.323 341.115C130.311 340.737 130.304 340.359 130.302 339.981C130.3 339.603 130.303 339.225 130.31 338.847C130.317 338.469 130.329 338.091 130.346 337.713C130.363 337.335 130.384 336.958 130.41 336.58C130.437 336.203 130.468 335.827 130.503 335.45C130.539 335.074 130.579 334.698 130.624 334.322C130.669 333.947 130.719 333.572 130.773 333.198C130.828 332.824 130.887 332.45 130.951 332.077C131.014 331.705 131.083 331.333 131.156 330.962C131.229 330.591 131.306 330.221 131.389 329.852C131.471 329.483 131.558 329.115 131.649 328.748C131.741 328.381 131.837 328.015 131.938 327.651C132.038 327.287 132.143 326.923 132.253 326.561C132.363 326.2 132.477 325.839 132.596 325.48C132.715 325.121 132.838 324.764 132.966 324.408C133.093 324.052 133.225 323.698 133.362 323.345C133.498 322.993 133.639 322.642 133.785 322.292C133.93 321.943 134.08 321.596 134.234 321.251C134.388 320.906 134.546 320.562 134.709 320.221C134.871 319.88 135.038 319.54 135.209 319.203C135.38 318.866 135.555 318.531 135.735 318.198C135.914 317.865 136.098 317.535 136.286 317.206C136.473 316.878 136.665 316.552 136.861 316.229C137.057 315.906 137.257 315.585 137.461 315.266C137.664 314.948 137.872 314.632 138.084 314.319C138.296 314.006 138.512 313.695 138.731 313.387C138.951 313.079 139.174 312.774 139.401 312.472C139.629 312.17 139.86 311.87 140.094 311.574C140.329 311.278 140.567 310.984 140.809 310.693C141.051 310.403 141.297 310.116 141.546 309.831C149.372 300.824 160.679 295.636 172.477 294.855Z" fill="#FEE5A3"/>
<path d="M172.388 301.157C172.693 301.141 172.998 301.128 173.304 301.119C173.609 301.11 173.915 301.105 174.221 301.103C174.526 301.102 174.832 301.104 175.137 301.109C175.443 301.115 175.749 301.125 176.054 301.138C176.359 301.151 176.665 301.168 176.97 301.188C177.274 301.209 177.579 301.233 177.884 301.261C178.188 301.289 178.492 301.321 178.796 301.356C179.099 301.391 179.402 301.43 179.705 301.473C180.008 301.516 180.31 301.562 180.611 301.612C180.913 301.662 181.214 301.715 181.514 301.773C181.814 301.83 182.114 301.891 182.413 301.955C182.711 302.02 183.009 302.088 183.306 302.159C183.604 302.231 183.9 302.307 184.195 302.385C184.491 302.464 184.785 302.547 185.078 302.633C185.371 302.719 185.664 302.808 185.955 302.901C186.246 302.995 186.536 303.091 186.825 303.191C187.114 303.291 187.401 303.395 187.687 303.502C187.974 303.609 188.259 303.719 188.542 303.833C188.826 303.947 189.108 304.065 189.389 304.185C189.669 304.306 189.949 304.431 190.226 304.558C190.504 304.686 190.781 304.816 191.055 304.951C191.33 305.085 191.603 305.223 191.874 305.363C192.145 305.504 192.415 305.648 192.682 305.796C192.95 305.943 193.216 306.094 193.48 306.248C193.745 306.401 194.007 306.558 194.267 306.719C194.527 306.879 194.786 307.042 195.042 307.208C195.299 307.375 195.553 307.544 195.805 307.717C196.057 307.89 196.308 308.065 196.556 308.244C196.804 308.422 197.049 308.604 197.293 308.789C197.537 308.973 197.778 309.161 198.017 309.351C198.256 309.542 198.493 309.735 198.727 309.931C198.962 310.127 199.194 310.326 199.423 310.528C199.659 310.735 199.893 310.945 200.124 311.157C200.355 311.37 200.583 311.585 200.808 311.803C201.034 312.022 201.257 312.243 201.476 312.466C201.697 312.69 201.914 312.916 202.129 313.145C202.343 313.374 202.555 313.606 202.764 313.84C202.973 314.074 203.179 314.311 203.382 314.55C203.585 314.789 203.785 315.031 203.983 315.275C204.18 315.519 204.374 315.766 204.565 316.015C204.756 316.263 204.944 316.515 205.13 316.768C205.314 317.022 205.496 317.277 205.675 317.535C205.854 317.793 206.029 318.053 206.202 318.315C206.374 318.578 206.543 318.842 206.709 319.108C206.875 319.375 207.037 319.643 207.197 319.914C207.356 320.184 207.512 320.456 207.665 320.73C207.817 321.005 207.967 321.281 208.112 321.559C208.258 321.836 208.401 322.116 208.54 322.397C208.679 322.678 208.815 322.961 208.947 323.246C209.079 323.531 209.207 323.817 209.332 324.105C209.457 324.393 209.579 324.682 209.697 324.973C209.815 325.264 209.929 325.556 210.04 325.849C210.151 326.143 210.258 326.438 210.362 326.734C210.465 327.03 210.565 327.328 210.662 327.626C210.758 327.925 210.851 328.225 210.94 328.526C211.029 328.827 211.114 329.129 211.196 329.432C211.277 329.735 211.355 330.039 211.429 330.344C211.503 330.649 211.574 330.954 211.641 331.261C211.707 331.568 211.77 331.875 211.829 332.184C211.888 332.492 211.944 332.8 211.995 333.11C212.047 333.419 212.094 333.73 212.138 334.04C212.182 334.351 212.222 334.662 212.259 334.974C212.295 335.286 212.327 335.598 212.356 335.91C212.385 336.223 212.409 336.536 212.431 336.849C212.447 337.164 212.46 337.48 212.47 337.796C212.478 338.112 212.484 338.428 212.485 338.744C212.486 339.06 212.483 339.376 212.477 339.692C212.47 340.009 212.46 340.324 212.446 340.64C212.431 340.956 212.413 341.271 212.391 341.587C212.368 341.902 212.342 342.217 212.312 342.532C212.282 342.846 212.248 343.161 212.21 343.474C212.172 343.788 212.131 344.101 212.085 344.414C212.039 344.727 211.99 345.039 211.937 345.351C211.883 345.662 211.826 345.973 211.765 346.283C211.704 346.593 211.639 346.903 211.571 347.211C211.502 347.52 211.429 347.827 211.353 348.134C211.277 348.441 211.197 348.746 211.113 349.051C211.029 349.356 210.941 349.66 210.85 349.962C210.758 350.265 210.663 350.566 210.565 350.866C210.466 351.167 210.363 351.466 210.257 351.763C210.15 352.061 210.04 352.357 209.927 352.652C209.813 352.947 209.696 353.241 209.575 353.533C209.454 353.825 209.33 354.116 209.202 354.405C209.074 354.693 208.942 354.981 208.807 355.266C208.672 355.552 208.533 355.836 208.391 356.119C208.248 356.401 208.103 356.681 207.954 356.96C207.804 357.239 207.652 357.515 207.496 357.79C207.34 358.065 207.18 358.338 207.018 358.609C206.855 358.88 206.689 359.149 206.519 359.416C206.35 359.683 206.177 359.947 206.001 360.21C205.825 360.472 205.646 360.732 205.463 360.99C205.281 361.249 205.095 361.504 204.907 361.758C204.718 362.011 204.526 362.263 204.331 362.511C204.136 362.76 203.938 363.006 203.737 363.25C203.535 363.494 203.331 363.735 203.124 363.974C202.917 364.213 202.707 364.449 202.494 364.683C196.113 371.773 186.415 376.584 176.837 377.058C176.536 377.08 176.235 377.099 175.933 377.115C175.632 377.13 175.33 377.141 175.028 377.149C174.726 377.157 174.424 377.162 174.123 377.162C173.821 377.163 173.519 377.16 173.217 377.154C172.915 377.147 172.614 377.137 172.312 377.123C172.01 377.109 171.709 377.092 171.408 377.071C171.107 377.05 170.806 377.025 170.505 376.997C170.205 376.968 169.905 376.936 169.605 376.901C169.305 376.865 169.006 376.826 168.707 376.783C168.408 376.74 168.11 376.694 167.812 376.644C167.514 376.594 167.217 376.54 166.921 376.483C166.624 376.426 166.329 376.365 166.034 376.301C165.739 376.236 165.445 376.169 165.151 376.097C164.858 376.026 164.565 375.951 164.274 375.872C163.982 375.794 163.692 375.712 163.403 375.627C163.113 375.541 162.824 375.452 162.537 375.36C162.249 375.267 161.963 375.171 161.678 375.072C161.393 374.973 161.109 374.87 160.827 374.764C160.544 374.658 160.263 374.548 159.983 374.435C159.703 374.322 159.424 374.206 159.147 374.086C158.87 373.967 158.594 373.844 158.32 373.717C158.046 373.591 157.773 373.462 157.502 373.329C157.231 373.196 156.961 373.06 156.694 372.92C156.426 372.781 156.16 372.638 155.896 372.492C155.631 372.347 155.369 372.198 155.108 372.045C154.847 371.893 154.588 371.738 154.331 371.58C154.074 371.421 153.819 371.26 153.566 371.095C153.313 370.931 153.062 370.763 152.813 370.593C152.564 370.422 152.317 370.249 152.072 370.072C151.827 369.895 151.584 369.716 151.343 369.534C151.103 369.351 150.865 369.166 150.629 368.978C150.392 368.79 150.159 368.599 149.927 368.405C149.688 368.204 149.452 368.001 149.218 367.794C148.985 367.588 148.753 367.379 148.525 367.167C148.296 366.955 148.07 366.74 147.847 366.522C147.623 366.304 147.402 366.084 147.184 365.861C146.966 365.638 146.751 365.413 146.539 365.185C146.326 364.956 146.117 364.725 145.91 364.492C145.703 364.258 145.499 364.022 145.298 363.784C145.097 363.546 144.899 363.305 144.704 363.061C144.508 362.818 144.316 362.573 144.127 362.325C143.938 362.077 143.752 361.826 143.569 361.574C143.386 361.321 143.206 361.067 143.03 360.81C142.853 360.553 142.679 360.294 142.509 360.032C142.339 359.771 142.171 359.508 142.007 359.243C141.843 358.978 141.683 358.71 141.525 358.441C141.368 358.172 141.214 357.901 141.063 357.628C140.912 357.355 140.765 357.08 140.621 356.803C140.477 356.527 140.336 356.248 140.199 355.968C140.062 355.688 139.928 355.406 139.798 355.123C139.667 354.84 139.541 354.555 139.417 354.269C139.294 353.982 139.174 353.694 139.058 353.405C138.942 353.115 138.829 352.825 138.72 352.532C138.611 352.24 138.505 351.947 138.403 351.652C138.301 351.357 138.203 351.062 138.108 350.764C138.013 350.467 137.922 350.169 137.835 349.87C137.748 349.57 137.664 349.27 137.584 348.968C137.504 348.667 137.428 348.365 137.355 348.061C137.282 347.758 137.213 347.454 137.148 347.149C137.083 346.844 137.022 346.538 136.964 346.232C136.906 345.925 136.852 345.618 136.802 345.31C136.752 345.003 136.706 344.694 136.663 344.386C136.621 344.076 136.582 343.767 136.547 343.457C136.512 343.147 136.481 342.837 136.453 342.526C136.428 342.211 136.406 341.895 136.388 341.579C136.37 341.263 136.356 340.947 136.346 340.631C136.335 340.315 136.329 339.998 136.326 339.682C136.324 339.366 136.325 339.049 136.33 338.733C136.336 338.417 136.345 338.101 136.357 337.784C136.37 337.468 136.387 337.152 136.408 336.836C136.429 336.521 136.453 336.205 136.482 335.89C136.51 335.575 136.542 335.26 136.578 334.946C136.614 334.631 136.654 334.318 136.698 334.004C136.742 333.691 136.789 333.378 136.841 333.066C136.892 332.754 136.947 332.442 137.006 332.131C137.065 331.82 137.128 331.51 137.195 331.201C137.261 330.891 137.332 330.583 137.406 330.276C137.48 329.968 137.558 329.661 137.639 329.355C137.721 329.05 137.806 328.745 137.895 328.441C137.985 328.138 138.077 327.835 138.174 327.534C138.27 327.233 138.37 326.932 138.474 326.634C138.578 326.334 138.685 326.037 138.796 325.741C138.907 325.445 139.022 325.15 139.14 324.856C139.259 324.563 139.381 324.271 139.506 323.98C139.631 323.689 139.76 323.4 139.893 323.113C140.025 322.826 140.161 322.54 140.301 322.256C140.44 321.972 140.583 321.69 140.729 321.409C140.876 321.129 141.026 320.85 141.179 320.573C141.332 320.296 141.488 320.021 141.648 319.748C141.808 319.475 141.971 319.204 142.138 318.935C142.305 318.666 142.474 318.399 142.647 318.134C142.82 317.869 142.996 317.606 143.176 317.346C143.355 317.085 143.538 316.827 143.724 316.571C143.91 316.315 144.099 316.061 144.29 315.809C144.482 315.558 144.677 315.309 144.875 315.062C145.073 314.815 145.275 314.571 145.479 314.329C152.342 306.192 161.93 302.018 172.388 301.157Z" fill="black"/>
<path d="M173.388 301.922C173.687 301.914 173.985 301.91 174.284 301.91C174.582 301.91 174.881 301.913 175.179 301.92C175.477 301.926 175.776 301.937 176.074 301.951C176.372 301.965 176.67 301.982 176.968 302.004C177.266 302.025 177.563 302.05 177.86 302.078C178.157 302.106 178.454 302.138 178.75 302.174C179.047 302.209 179.343 302.248 179.638 302.291C179.934 302.333 180.229 302.379 180.523 302.429C180.817 302.479 181.111 302.532 181.404 302.588C181.697 302.645 181.989 302.706 182.281 302.769C182.573 302.833 182.864 302.9 183.154 302.971C183.444 303.042 183.733 303.116 184.021 303.194C184.309 303.272 184.596 303.353 184.883 303.437C185.169 303.522 185.454 303.61 185.738 303.702C186.022 303.793 186.305 303.888 186.587 303.986C186.869 304.084 187.15 304.186 187.429 304.291C187.709 304.396 187.987 304.504 188.263 304.616C188.54 304.728 188.816 304.843 189.09 304.961C189.364 305.079 189.637 305.201 189.908 305.326C190.179 305.451 190.448 305.579 190.716 305.71C190.984 305.842 191.251 305.976 191.516 306.114C191.781 306.252 192.044 306.393 192.305 306.537C192.567 306.681 192.826 306.828 193.084 306.978C193.342 307.129 193.598 307.282 193.852 307.439C194.106 307.595 194.359 307.755 194.609 307.917C194.859 308.08 195.108 308.245 195.354 308.414C195.601 308.583 195.845 308.754 196.087 308.928C196.329 309.103 196.569 309.28 196.807 309.46C197.045 309.641 197.281 309.824 197.515 310.009C197.748 310.195 197.98 310.384 198.209 310.575C198.438 310.767 198.665 310.961 198.889 311.158C199.113 311.355 199.335 311.554 199.555 311.756C199.78 311.963 200.003 312.172 200.224 312.383C200.444 312.595 200.662 312.81 200.877 313.027C201.092 313.244 201.305 313.463 201.514 313.686C201.724 313.908 201.931 314.133 202.135 314.36C202.339 314.588 202.541 314.818 202.739 315.05C202.937 315.283 203.133 315.518 203.326 315.755C203.518 315.992 203.708 316.232 203.895 316.474C204.081 316.716 204.265 316.96 204.446 317.207C204.626 317.453 204.804 317.702 204.979 317.953C205.153 318.204 205.324 318.457 205.493 318.712C205.661 318.967 205.826 319.224 205.988 319.484C206.15 319.743 206.309 320.004 206.464 320.267C206.62 320.53 206.772 320.795 206.921 321.062C207.07 321.329 207.215 321.598 207.358 321.868C207.5 322.139 207.639 322.411 207.774 322.685C207.91 322.959 208.042 323.235 208.17 323.512C208.299 323.789 208.425 324.068 208.547 324.348C208.668 324.628 208.786 324.91 208.901 325.194C209.016 325.477 209.128 325.761 209.235 326.047C209.343 326.333 209.448 326.621 209.549 326.909C209.649 327.198 209.746 327.488 209.84 327.779C209.933 328.07 210.023 328.362 210.11 328.655C210.196 328.948 210.279 329.242 210.358 329.538C210.437 329.833 210.512 330.129 210.584 330.426C210.656 330.723 210.724 331.021 210.788 331.32C210.852 331.619 210.913 331.918 210.97 332.219C211.027 332.519 211.08 332.82 211.13 333.121C211.179 333.423 211.225 333.725 211.267 334.028C211.309 334.331 211.348 334.634 211.382 334.938C211.417 335.241 211.447 335.545 211.474 335.85C211.502 336.154 211.525 336.459 211.544 336.764C211.564 337.069 211.58 337.374 211.592 337.68C211.603 337.985 211.611 338.291 211.615 338.597C211.619 338.903 211.62 339.209 211.616 339.514C211.613 339.82 211.606 340.126 211.594 340.432C211.583 340.737 211.569 341.043 211.55 341.348C211.532 341.653 211.509 341.958 211.483 342.263C211.457 342.568 211.427 342.873 211.394 343.176C211.36 343.48 211.323 343.784 211.282 344.087C211.24 344.39 211.195 344.693 211.147 344.995C211.098 345.297 211.046 345.598 210.99 345.899C210.934 346.2 210.874 346.499 210.811 346.799C210.747 347.098 210.68 347.396 210.61 347.694C210.539 347.992 210.464 348.288 210.386 348.584C210.308 348.879 210.226 349.174 210.141 349.468C210.055 349.762 209.966 350.054 209.874 350.346C209.781 350.637 209.685 350.928 209.585 351.217C209.485 351.506 209.382 351.794 209.275 352.08C209.168 352.367 209.058 352.652 208.944 352.936C208.83 353.22 208.713 353.502 208.592 353.783C208.47 354.064 208.346 354.344 208.218 354.622C208.09 354.899 207.959 355.176 207.825 355.45C207.69 355.725 207.552 355.998 207.411 356.269C207.269 356.54 207.124 356.81 206.976 357.078C206.828 357.345 206.677 357.611 206.522 357.875C206.368 358.139 206.21 358.401 206.049 358.661C205.888 358.921 205.724 359.179 205.556 359.435C205.389 359.691 205.218 359.945 205.044 360.196C204.87 360.448 204.694 360.698 204.514 360.945C204.334 361.192 204.151 361.437 203.965 361.68C203.779 361.923 203.59 362.164 203.398 362.402C203.206 362.64 203.012 362.876 202.814 363.109C202.616 363.343 202.416 363.574 202.212 363.802C202.009 364.031 201.803 364.257 201.594 364.48C201.382 364.705 201.167 364.928 200.95 365.148C200.732 365.368 200.512 365.585 200.29 365.799C200.067 366.014 199.842 366.226 199.614 366.435C199.386 366.644 199.155 366.85 198.922 367.053C198.689 367.257 198.454 367.457 198.216 367.655C197.978 367.852 197.738 368.047 197.495 368.239C197.252 368.43 197.007 368.619 196.76 368.805C196.513 368.99 196.263 369.173 196.012 369.353C195.76 369.532 195.506 369.709 195.25 369.882C194.993 370.055 194.735 370.226 194.475 370.393C194.215 370.56 193.952 370.723 193.688 370.884C193.424 371.044 193.157 371.202 192.889 371.356C192.621 371.51 192.351 371.66 192.079 371.808C191.807 371.955 191.534 372.099 191.258 372.24C190.983 372.38 190.706 372.518 190.427 372.652C190.148 372.785 189.868 372.916 189.586 373.043C189.304 373.17 189.02 373.293 188.735 373.413C188.45 373.533 188.164 373.65 187.876 373.763C187.588 373.876 187.299 373.985 187.008 374.091C186.718 374.197 186.426 374.299 186.133 374.398C185.84 374.497 185.546 374.592 185.25 374.683C184.955 374.775 184.658 374.862 184.361 374.947C184.063 375.031 183.765 375.112 183.465 375.188C183.166 375.265 182.865 375.339 182.564 375.408C182.262 375.478 181.96 375.543 181.657 375.605C181.354 375.668 181.051 375.726 180.746 375.781C180.442 375.835 180.137 375.886 179.831 375.933C179.526 375.98 179.219 376.024 178.913 376.064C178.606 376.103 178.299 376.139 177.991 376.171C177.684 376.203 177.376 376.232 177.067 376.256C176.759 376.281 176.45 376.301 176.142 376.318C175.833 376.335 175.524 376.349 175.215 376.358C165.963 376.819 156.668 373.22 149.786 367.122C149.557 366.921 149.33 366.718 149.106 366.512C148.882 366.307 148.66 366.098 148.441 365.887C148.222 365.675 148.005 365.461 147.791 365.245C147.578 365.028 147.367 364.808 147.158 364.586C146.95 364.365 146.744 364.14 146.541 363.913C146.339 363.686 146.139 363.457 145.941 363.225C145.744 362.993 145.55 362.759 145.359 362.522C145.168 362.285 144.979 362.046 144.794 361.804C144.608 361.563 144.426 361.319 144.247 361.074C144.067 360.828 143.891 360.58 143.717 360.329C143.544 360.079 143.374 359.827 143.207 359.572C143.04 359.318 142.876 359.061 142.715 358.803C142.554 358.544 142.397 358.284 142.243 358.021C142.088 357.759 141.937 357.494 141.79 357.228C141.642 356.962 141.498 356.694 141.356 356.425C141.215 356.155 141.078 355.883 140.943 355.61C140.809 355.337 140.678 355.062 140.55 354.786C140.422 354.51 140.298 354.232 140.178 353.952C140.057 353.673 139.939 353.392 139.826 353.11C139.712 352.828 139.601 352.544 139.495 352.259C139.388 351.974 139.285 351.687 139.185 351.4C139.085 351.112 138.989 350.823 138.896 350.533C138.804 350.243 138.715 349.952 138.629 349.66C138.544 349.368 138.462 349.075 138.384 348.781C138.306 348.486 138.231 348.191 138.16 347.895C138.09 347.599 138.022 347.302 137.959 347.004C137.895 346.707 137.836 346.408 137.779 346.109C137.723 345.81 137.671 345.51 137.622 345.21C137.573 344.909 137.528 344.608 137.487 344.307C137.446 344.005 137.408 343.703 137.374 343.401C137.34 343.098 137.31 342.795 137.284 342.492C137.258 342.189 137.235 341.885 137.216 341.581C137.199 341.271 137.185 340.96 137.175 340.65C137.165 340.339 137.159 340.029 137.156 339.718C137.154 339.407 137.155 339.096 137.16 338.785C137.166 338.475 137.174 338.164 137.187 337.854C137.2 337.543 137.216 337.233 137.237 336.923C137.257 336.612 137.281 336.303 137.309 335.993C137.337 335.684 137.369 335.375 137.404 335.066C137.439 334.757 137.478 334.449 137.521 334.141C137.564 333.833 137.611 333.526 137.661 333.219C137.712 332.913 137.766 332.607 137.824 332.301C137.881 331.996 137.943 331.691 138.008 331.388C138.074 331.084 138.143 330.781 138.215 330.479C138.288 330.176 138.364 329.875 138.445 329.575C138.524 329.275 138.608 328.975 138.695 328.677C138.783 328.379 138.874 328.081 138.968 327.785C139.063 327.489 139.161 327.195 139.263 326.901C139.364 326.607 139.47 326.315 139.579 326.024C139.688 325.733 139.8 325.443 139.916 325.155C140.032 324.867 140.151 324.58 140.274 324.294C140.397 324.009 140.524 323.725 140.653 323.442C140.783 323.16 140.917 322.879 141.053 322.6C141.19 322.321 141.33 322.044 141.474 321.768C141.617 321.492 141.764 321.218 141.914 320.946C142.064 320.674 142.218 320.404 142.374 320.136C142.531 319.867 142.691 319.601 142.854 319.337C143.018 319.072 143.184 318.81 143.353 318.549C143.523 318.289 143.696 318.031 143.872 317.774C144.048 317.518 144.227 317.264 144.409 317.012C144.591 316.761 144.776 316.511 144.964 316.264C145.152 316.016 145.344 315.771 145.538 315.529C145.732 315.286 145.929 315.046 146.129 314.808C146.329 314.57 146.532 314.335 146.738 314.102C153.7 306.335 163.122 302.512 173.388 301.922Z" fill="#FEE5A3"/>
<path d="M321.384 180.177C325.229 180.685 329.065 181.256 332.892 181.891C332.5 184.503 331.857 187.123 331.334 189.714C330.252 195.246 329.109 200.765 327.902 206.271C325.916 215.601 324.162 224.985 322.242 234.33L302.582 329.399C280.738 326.055 258.777 323.173 236.873 320.253C229.115 319.218 221.317 318.382 213.576 317.231C210.675 311.945 206.96 307.597 202.297 303.788C195.754 298.555 188.702 295.848 180.531 294.347C181.642 286.618 182.739 278.813 184.089 271.124C188.557 271.615 192.987 272.329 197.438 272.944L226.253 276.923C239.631 278.699 253.001 280.543 266.361 282.454C277.277 283.913 288.275 285.163 299.158 286.836C300.316 282.35 301.13 277.728 302.061 273.191L306.402 252.391L321.384 180.177Z" fill="#FFFEFE"/>
<path d="M81.3834 262.587L144.887 262.722C154.057 262.751 163.244 262.701 172.412 262.901L167.176 294.605C164.716 295.117 162.297 295.778 159.918 296.589C157.216 297.614 154.582 298.794 152.018 300.129L150.493 301.001C147.885 302.978 145.273 304.923 142.913 307.198C141.409 308.789 139.999 310.459 138.681 312.207C137.364 313.955 136.147 315.771 135.032 317.654C132.988 321.691 131.698 325.594 130.508 329.947C130.267 331.566 129.991 333.187 129.819 334.814C129.315 339.352 129.37 343.727 130.273 348.221C131.262 352.927 133.246 358.019 135.679 362.155C132.29 362.227 128.899 362.057 125.51 362.013L93.984 361.298L77.5837 361.076C74.6077 361.032 71.5496 361.106 68.5892 360.785C67.6419 360.683 66.6877 360.384 66.0007 359.687C64.5669 358.232 66.541 351.352 66.853 349.393C67.092 347.892 67.2325 346.402 67.3146 344.885C67.7018 344.367 67.7159 344.144 67.7293 343.526C67.5441 341.915 68.656 338.144 68.8847 336.278C69.8527 335.296 69.8573 331.421 70.0856 329.942C70.317 328.679 70.5778 327.417 70.6736 326.135L70.8638 325.227C71.1341 322.851 71.6767 320.488 72.1563 318.147C72.2877 317.774 72.3381 317.322 72.4205 316.933C72.6386 314.547 73.125 312.073 73.6119 309.726L73.8207 308.612C73.8173 307.35 74.0922 306.096 74.366 304.87C74.5878 304.279 74.6642 303.624 74.7742 303.003C74.9903 300.506 75.4695 297.997 75.9201 295.533C76.0713 295.123 76.1072 294.773 76.1484 294.342C76.2752 293.014 76.6089 291.679 76.8724 290.37L77.0614 289.725C77.1465 288.851 77.3149 287.975 77.4489 287.107C78.1523 283.78 78.4455 280.323 79.0168 276.964L80.6537 267.533C80.9256 265.959 81.4204 264.182 81.3834 262.587Z" fill="#76D3E7"/>
<path d="M142.913 307.198C142.714 306.84 142.56 306.484 142.432 306.093C141.528 303.329 142.103 298.918 143.468 296.379C144.638 294.205 146.646 292.686 149.015 292.037C151.53 291.347 154.941 291.421 157.199 292.781C158.698 293.685 159.5 294.915 159.918 296.589C157.216 297.614 154.582 298.794 152.018 300.129L150.493 301.001C147.885 302.978 145.273 304.923 142.913 307.198Z" fill="#FFFEFE"/>
<path d="M150.493 301.001C149.483 300.722 148.336 300.791 147.293 300.651L147.095 300.301L147.273 299.952C148.483 299.46 150.785 299.71 152.018 300.129L150.493 301.001Z" fill="#2667E1"/>
<path d="M130.272 348.221C129.221 349.423 128.207 350.348 126.674 350.898C124.293 351.753 120.247 351.769 117.987 350.575C116.649 349.869 115.713 348.67 115.3 347.22C114.552 344.595 115.057 340.343 116.389 337.961C117.495 335.986 119.349 334.648 121.522 334.064C124.035 333.388 127.523 333.545 129.819 334.814C129.315 339.352 129.37 343.727 130.272 348.221Z" fill="#FFFEFE"/>
<path d="M120.034 341.928C121.554 341.889 126.484 341.517 127.638 342.2L127.666 342.74C126.498 342.976 121.233 343.205 120.299 342.702C120.032 342.559 120.08 342.201 120.034 341.928Z" fill="#2667E1"/>
<path d="M130.508 329.947C130.213 330.117 129.914 330.284 129.602 330.418C127.387 331.367 123.958 331.097 121.728 330.227C120.334 329.684 119.19 328.729 118.61 327.33C117.614 324.926 118.011 320.298 119.085 317.941C120.02 315.889 121.765 314.351 123.873 313.575C126.039 312.778 129.491 312.427 131.621 313.436C133.382 314.27 134.375 315.889 135.032 317.654C132.988 321.691 131.698 325.594 130.508 329.947Z" fill="#FFFEFE"/>
<path d="M130.053 321.026C130.523 321.062 130.587 321.011 130.985 321.3L130.93 321.617C129.78 322.227 125.236 321.88 123.667 321.875C123.35 321.874 123.484 321.892 123.155 321.813C122.816 321.731 122.866 321.671 122.694 321.39C123.505 320.768 128.715 321.033 130.053 321.026Z" fill="#073498"/>
<path d="M106.824 312.418C108.588 312.296 110.466 312.507 111.917 313.596C113.131 314.506 113.765 315.902 113.935 317.384C114.29 320.484 113.664 324.846 111.661 327.319C109.941 329.443 107.522 330.213 104.916 330.503C102.957 330.447 100.899 330.288 99.2571 329.091C98.0195 328.189 97.3826 326.829 97.2085 325.331C96.853 322.275 97.6648 317.891 99.6767 315.496C101.523 313.297 104.113 312.693 106.824 312.418Z" fill="#FFFEFE"/>
<path d="M101.703 321C102.968 320.721 108.655 320.641 109.839 321.027C110.17 321.135 110.179 321.432 110.306 321.729C108.462 322.008 104.092 322.204 102.336 321.676C101.896 321.544 101.922 321.378 101.703 321Z" fill="#2667E1"/>
<path d="M113.454 270.22C115.261 270.136 117.363 270.281 118.908 271.3C120.042 272.049 120.676 273.238 120.905 274.555C121.443 277.652 120.633 282.559 118.724 285.116C117.144 287.231 114.98 288.076 112.468 288.484C110.366 288.501 108.11 288.462 106.331 287.178C105.195 286.357 104.542 285.142 104.352 283.765C103.973 281.012 104.985 275.29 106.771 273.137C108.451 271.112 110.964 270.498 113.454 270.22Z" fill="#FFFEFE"/>
<path d="M112.237 278.571C113.373 278.521 115.531 278.203 116.474 278.959C115.679 279.618 113.741 279.375 112.746 279.349C111.75 279.4 109.802 279.669 108.971 279.067L109.231 278.791C110.215 278.412 111.203 278.529 112.237 278.571Z" fill="#073498"/>
<path d="M154.002 270.588C156.062 270.482 158.179 270.435 159.955 271.669C161.212 272.541 161.894 273.86 162.121 275.35C162.601 278.508 161.987 283.17 159.98 285.711C158.517 287.563 156.66 288.42 154.358 288.706C152.213 288.825 149.874 288.804 148.04 287.526C146.637 286.549 145.877 285.116 145.62 283.445C145.174 280.553 145.825 276.061 147.619 273.704C149.206 271.616 151.54 270.974 154.002 270.588Z" fill="#FFFEFE"/>
<path d="M157.127 278.755C157.698 278.788 157.907 278.754 158.392 279.078C158.36 279.469 158.451 279.379 158.202 279.573C157.966 279.756 157.769 279.82 157.489 279.909C155.675 279.437 151.446 280.364 150.101 279.29L150.194 278.95C150.916 278.508 155.949 278.77 157.127 278.755Z" fill="#2667E1"/>
<path d="M87.8635 291.011C89.8632 290.895 92.0755 290.778 93.9427 291.617C95.2604 292.208 96.2616 293.285 96.7102 294.664C97.5946 297.382 96.7603 302.612 95.3941 305.084C94.1363 307.359 91.9762 308.367 89.5886 309.046C87.474 309.477 84.8008 309.268 82.9302 308.146C81.6205 307.359 80.7442 306.127 80.4055 304.641C79.7476 301.754 80.5983 296.693 82.2639 294.247C83.6335 292.236 85.5763 291.462 87.8635 291.011Z" fill="#FFFEFE"/>
<path d="M84.86 299.572C86.419 299.463 91.6139 299.098 92.6945 299.78L92.7212 300.347C91.3 300.355 85.8073 300.677 84.8936 300.06L84.86 299.572Z" fill="#2667E1"/>
<path d="M109.709 291.034C111.713 291.045 113.831 291.238 115.49 292.485C116.721 293.408 117.318 294.761 117.462 296.266C117.757 299.356 117.053 304.346 114.964 306.728C113.433 308.475 111.338 309.175 109.08 309.327C106.955 309.419 104.803 309.435 103.016 308.088C101.797 307.169 101.05 305.809 100.843 304.303C100.474 301.616 101.537 295.8 103.227 293.699C104.803 291.74 107.351 291.269 109.709 291.034Z" fill="#FFFEFE"/>
<path d="M105.449 299.419C107.347 299.549 111.553 299.073 113.069 299.576C113.435 299.698 113.392 299.801 113.56 300.125C113.406 300.165 113.144 300.238 112.974 300.265C112.076 300.406 105.868 300.501 105.399 300.135L105.449 299.419Z" fill="#2667E1"/>
<path d="M80.223 333.193C82.5358 332.988 85.2869 332.847 87.3965 333.964C88.6008 334.602 89.4642 335.649 89.8407 336.961C90.6414 339.752 89.7364 345.209 88.2049 347.688C87.0044 349.631 85.3147 350.344 83.2028 350.879C80.7988 351.063 77.8109 351.173 75.6535 349.927C74.5103 349.266 73.7612 348.202 73.4637 346.922C72.9016 344.504 73.6878 337.967 75.0506 335.896C76.2148 334.127 78.2733 333.589 80.223 333.193Z" fill="#FFFEFE"/>
<path d="M77.3867 341.567C78.7613 341.489 85.1678 341.239 86.03 341.808L86.0586 342.366C84.372 342.54 78.9736 342.892 77.7021 342.295C77.4238 342.164 77.4532 341.842 77.3867 341.567Z" fill="#2667E1"/>
<path d="M92.6896 269.826C94.446 269.712 96.3502 269.898 97.899 270.798C99.1995 271.554 100.143 272.758 100.498 274.227C101.213 277.19 100.173 281.953 98.5198 284.483C96.9841 286.834 94.9298 287.736 92.2932 288.291C90.2069 288.34 88.0457 288.351 86.2136 287.187C84.9482 286.383 84.1563 285.148 83.9028 283.674C83.4342 280.951 84.3304 275.423 85.9536 273.194C87.5577 270.99 90.1274 270.221 92.6896 269.826Z" fill="#FFFEFE"/>
<path d="M129.94 291.39C131.891 291.141 134.001 291.415 135.673 292.498C137.065 293.399 137.971 294.746 138.261 296.379C138.798 299.406 137.961 303.763 136.159 306.28C134.632 308.413 132.587 309.315 130.09 309.769C128.187 309.945 126.007 309.69 124.349 308.709C124.173 308.606 124.002 308.495 123.837 308.375C123.672 308.255 123.514 308.126 123.362 307.989C123.211 307.852 123.067 307.708 122.931 307.556C122.794 307.404 122.666 307.246 122.546 307.081C122.426 306.915 122.315 306.744 122.213 306.567C122.111 306.39 122.019 306.209 121.936 306.022C121.853 305.836 121.78 305.645 121.717 305.451C121.654 305.257 121.601 305.06 121.558 304.861C120.93 301.999 121.754 297.539 123.405 295.111C124.982 292.791 127.293 291.863 129.94 291.39Z" fill="#FFFEFE"/>
<path d="M126.055 299.606C127.375 299.524 133.344 299.31 134.158 299.876L134.168 300.411C132.603 300.445 127.372 300.893 126.306 300.264C126.053 300.114 126.101 299.87 126.055 299.606Z" fill="#073498"/>
<path d="M110.659 341.996C110.248 344.121 109.949 346.174 108.804 348.071C107.871 349.619 106.551 350.502 104.807 350.933C102.312 351.55 98.6011 351.573 96.3807 350.187C95.0458 349.354 94.2959 348.135 94.0091 346.6C93.4394 343.552 94.1118 339.042 95.9847 336.524C97.3341 334.71 99.3044 333.752 101.506 333.42C104.407 332.984 107.224 333.294 109.619 335.072C111.141 337.346 110.822 339.418 110.659 341.996Z" fill="#FFFEFE"/>
<path d="M98.8795 341.603C100.461 341.623 105.468 341.253 106.474 342.047L106.34 342.676C103.904 342.832 101.267 342.828 98.8321 342.649C98.7031 342.301 98.8233 341.966 98.8795 341.603Z" fill="#2667E1"/>
<path d="M132.786 270.382C135.092 270.195 137.582 270.208 139.494 271.706C140.693 272.645 141.318 274.043 141.473 275.534C141.817 278.84 141.083 283.17 138.938 285.801C137.518 287.543 135.704 288.412 133.5 288.68C131.447 288.882 129.263 288.886 127.423 287.828C127.239 287.722 127.061 287.609 126.889 287.486C126.717 287.363 126.551 287.232 126.392 287.093C126.232 286.954 126.08 286.807 125.935 286.653C125.79 286.499 125.654 286.338 125.525 286.17C125.396 286.002 125.275 285.828 125.164 285.648C125.052 285.469 124.95 285.284 124.857 285.094C124.764 284.904 124.68 284.71 124.606 284.512C124.532 284.313 124.468 284.112 124.414 283.907C123.689 281.11 124.489 276.902 126.049 274.494C127.652 272.02 129.993 270.933 132.786 270.382Z" fill="#FFFEFE"/>
<path d="M128.906 278.812C130.481 278.541 135.784 278.365 137.161 278.909L137.303 279.438C135.19 279.6 131.782 279.95 129.738 279.52C129.186 279.404 129.188 279.27 128.906 278.812Z" fill="#2667E1"/>
<path d="M84.8891 312.223C87.0796 312.081 89.6261 311.957 91.5605 313.16C92.7205 313.882 93.4227 315.001 93.7232 316.32C94.3754 319.182 93.6468 324.081 92.0206 326.575C90.6261 328.712 88.4879 329.717 86.0781 330.236C85.9088 330.263 85.7391 330.289 85.5691 330.311C83.2498 330.62 80.5384 330.467 78.6457 328.953C77.4242 327.975 76.7174 326.559 76.5505 325.015C76.2225 321.977 77.2382 317.018 79.2104 314.642C80.6404 312.92 82.7748 312.461 84.8891 312.223Z" fill="#FFFEFE"/>
<path d="M80.892 320.788C82.5178 320.573 88.0166 320.328 89.4302 320.936L89.6211 321.45C87.7295 321.562 83.06 321.879 81.3559 321.372C81.034 321.277 81.0321 321.067 80.892 320.788Z" fill="#073498"/>
<path d="M157.451 85.5983C157.94 85.5586 158.442 85.4403 158.878 85.7117C159.2 86.6789 158.009 89.8031 157.723 90.9773C156.025 97.9488 155.552 104.486 156.81 111.59C157.115 113.308 158.114 118.041 159.583 119.058L159.916 118.956C162.462 116.259 166.479 91.7428 167.607 86.6976C170.445 86.832 173.29 87.3464 176.1 87.7538C180.904 88.4368 185.702 89.1537 190.496 89.9047C196.802 90.8509 203.205 91.3389 209.473 92.5122C208.695 95.5005 208.008 98.5096 207.413 101.54C206.136 108.048 206.314 114.47 207.883 120.912C208.247 122.406 208.604 124.078 209.471 125.369C209.914 125.629 209.95 125.619 210.465 125.572C213.095 123.854 216.713 97.9843 217.774 93.3332C221.49 94.1274 225.405 94.4695 229.167 95.0518L260.177 99.6614C259.315 104.332 258.12 108.928 257.633 113.664C257.426 115.557 257.379 117.455 257.491 119.356C257.629 121.744 258.811 130.782 260.487 132.309C260.862 132.651 261.08 132.565 261.526 132.49C264.598 130.006 267.396 105.773 268.483 100.556C274.035 101.622 279.702 102.251 285.304 103.012C290.858 103.766 296.389 104.648 301.936 105.45C305.051 105.9 308.202 106.228 311.292 106.823C310.594 109.324 310.227 111.976 309.779 114.535C308.393 122.447 307.399 129.891 310.075 137.714C310.392 138.64 310.91 140.178 311.886 140.574C312.181 140.693 312.3 140.572 312.577 140.469C314.748 138.095 316.705 124.714 317.363 120.953C318.085 116.591 318.604 112.178 319.477 107.843C322.446 108.35 325.453 108.653 328.409 109.242C333.477 110.252 337.496 112.905 340.364 117.229C340.601 117.582 340.824 117.943 341.033 118.312C341.243 118.681 341.438 119.058 341.62 119.442C341.801 119.826 341.968 120.216 342.121 120.613C342.274 121.009 342.411 121.41 342.534 121.817C342.656 122.224 342.764 122.634 342.856 123.049C342.948 123.463 343.025 123.881 343.086 124.301C343.147 124.721 343.193 125.143 343.222 125.567C343.252 125.99 343.266 126.415 343.264 126.839C343.277 130.906 341.466 137.188 340.666 141.461L333.057 181.044C324.709 179.442 316.138 178.572 307.726 177.308C282.992 173.642 258.222 170.233 233.417 167.079L157.29 156.871C147.447 155.621 137.585 154.097 127.709 153.155C130.846 140.064 133.559 126.848 136.573 113.724C137.719 108.735 138.444 103.353 140.081 98.5181C140.786 96.4364 141.777 94.654 143.155 92.9452C146.714 88.5308 151.891 86.2226 157.451 85.5983Z" fill="#7FBEE0"/>
<g clip-path="url(#clip0_10733_2194)">
<path d="M191.271 339.5H189.083V322.569C189.083 322.16 188.763 321.84 188.354 321.84C187.946 321.84 187.625 322.16 187.625 322.569V339.5H175.375L164.788 323.225C164.146 322.204 162.979 321.767 161.812 322.117C160.66 322.452 159.917 323.458 159.917 324.654V339.5H157.729C157.321 339.5 157 339.821 157 340.229C157 340.638 157.321 340.958 157.729 340.958H159.917V356.431C159.917 356.84 160.238 357.16 160.646 357.16C161.054 357.16 161.375 356.84 161.375 356.431V340.958H174.573L184.198 355.775C184.854 356.781 186.021 357.219 187.173 356.883C188.325 356.548 189.069 355.542 189.069 354.346V340.958H191.256C191.665 340.958 191.985 340.638 191.985 340.229C191.985 339.821 191.665 339.5 191.256 339.5H191.271ZM161.375 339.5V324.654C161.375 323.998 161.812 323.633 162.235 323.517C162.644 323.4 163.213 323.458 163.577 324.013L173.64 339.5H161.375ZM187.625 354.346C187.625 355.002 187.188 355.367 186.765 355.483C186.356 355.6 185.788 355.542 185.423 354.988L176.308 340.958H187.61V354.346H187.625Z" fill="#03100D"/>
</g>
<defs>
<clipPath id="clip0_10733_2194">
<rect width="35" height="35" fill="white" transform="translate(157 322)"/>
</clipPath>
</defs>
</svg>
