<svg width="351" height="351" viewBox="0 0 351 351" fill="none" xmlns="http://www.w3.org/2000/svg">
<path d="M18.1064 275.591C18.0945 272.662 17.5948 268.566 18.7125 265.843C19.9322 262.872 23.6186 260.945 26.4114 259.766C38.9305 254.479 56.6556 254.944 69.1778 260.085L69.0082 260.664C68.7717 261.84 68.4721 263.038 68.3583 264.231C68.3213 264.617 68.289 264.931 68.1533 265.299C67.7488 267.511 67.3186 269.764 67.1246 272.005C67.0259 272.563 66.9574 273.151 66.7582 273.681C66.5124 274.782 66.2656 275.907 66.2687 277.04L66.0812 278.04C65.6442 280.147 65.2075 282.368 65.0118 284.51C64.9377 284.86 64.8925 285.265 64.7746 285.6C64.3441 287.702 63.857 289.823 63.6143 291.955L63.4436 292.771C63.3576 293.922 63.1234 295.054 62.9157 296.188C62.7107 297.516 62.7066 300.994 61.8377 301.876C61.6324 303.551 60.6342 306.936 60.8005 308.383C60.7885 308.937 60.7758 309.138 60.4282 309.603C53.2176 313.481 45.3314 314.552 37.2399 314.45C28.5391 314.34 16.0798 312.592 9.80307 306.057C7.13732 303.282 7.30466 300.84 7.37133 297.24C7.09691 296.806 6.81858 296.367 6.58851 295.907C5.27808 293.287 5.24233 287.22 6.21766 284.438C7.95083 279.494 13.8357 277.652 18.1064 275.591Z" fill="black"/>
<path d="M17.9627 280.909C18.8042 282.187 18.1886 284.323 20.18 286.397C27.0442 293.548 40.9268 294.646 50.3922 294.898C48.3942 295.359 46.3972 295.778 44.3553 295.985C37.0377 297.208 27.5179 296.001 20.5673 293.566C17.8317 292.607 13.9759 291.063 12.7038 288.233C12.273 287.275 12.1403 286.226 12.5453 285.237C13.4427 283.047 15.9233 281.806 17.9627 280.909Z" fill="#FEE5A3"/>
<path d="M6.38382 289.942C6.82096 290.328 8.35631 292.851 8.99856 293.6C12.1488 297.275 17.5728 299.545 22.1177 300.849C32.0705 303.705 44.758 303.93 54.7193 300.923C57.3038 300.143 59.6813 299.035 62.0365 297.727C61.9145 298.894 61.9066 300.095 61.2104 301.084C55.2887 306.173 45.1134 307.361 37.5255 307.296C27.604 307.211 16.0149 304.979 8.87054 297.581C6.47945 295.105 6.34464 293.192 6.38382 289.942Z" fill="#FEE5A3"/>
<path d="M18.8721 278.48C19.3499 278.974 19.8555 279.439 20.3891 279.873C20.9227 280.307 21.4803 280.708 22.062 281.075C25.7356 283.436 29.9816 284.889 34.2143 285.867C44.5815 288.264 54.4393 287.81 64.7746 285.6C64.3441 287.702 63.857 289.823 63.6143 291.956C59.4637 293.313 54.8894 293.842 50.5245 293.87C42.156 293.923 27.1272 292.107 21.1207 286.059C18.8605 283.783 18.8733 281.451 18.8721 278.48Z" fill="#FEE5A3"/>
<path d="M18.9335 277.831C18.957 275.279 18.9993 272.727 19.0604 270.176C21.1402 273.491 25.4859 275.606 28.9639 277.125C38.7084 281.38 56.2337 281.936 66.0812 278.04C65.6442 280.147 65.2075 282.369 65.0118 284.51C61.0994 286.511 49.8324 286.893 45.1559 286.631C37.1683 286.184 24.3494 283.903 18.9335 277.831Z" fill="#FEE5A3"/>
<path d="M8.08962 297.83C13.0303 303.407 19.7586 305.862 26.9409 307.191C38.3101 309.296 52.1338 308.583 61.8377 301.876C61.6324 303.551 60.6342 306.936 60.8005 308.383C54.4657 313.029 44.8039 313.816 37.1536 313.717C28.6678 313.607 16.3024 311.863 10.1726 305.487C7.84245 303.064 8.02192 300.917 8.08962 297.83Z" fill="#FEE5A3"/>
<path d="M62.9157 296.189C62.2411 296.7 61.5056 297.133 60.7583 297.53C50.1169 303.183 33.1096 303.116 21.7568 299.677C16.4742 298.076 9.9283 295.112 7.29268 289.908C6.46855 288.28 6.23355 286.459 6.86802 284.725C8.49811 280.273 14.0866 278.176 18.0553 276.444L18.082 279.557C15.7308 280.596 12.9275 282.004 11.6625 284.363C11.0406 285.522 10.853 286.849 11.2559 288.112C12.0691 290.663 14.7632 292.213 17.0324 293.305C27.2682 298.23 39.5105 298.358 50.4021 295.902C51.8191 295.583 53.0569 294.912 54.4184 294.568C57.4927 293.79 60.2753 293.896 63.4436 292.771C63.3576 293.922 63.1234 295.054 62.9157 296.189Z" fill="#FEE5A3"/>
<path d="M66.2687 277.04C57.3011 281.006 41.7292 280.32 32.3098 277.615C28.5651 276.54 21.4092 273.734 19.5028 270.013C18.9685 268.97 18.9604 267.555 19.3294 266.459C20.2115 263.84 22.9694 262.227 25.3233 261.092C35.2878 256.286 48.9474 255.816 59.6984 257.952C62.8962 258.588 65.9359 259.6 69.0082 260.664C68.7717 261.84 68.4721 263.038 68.3583 264.231C68.3213 264.617 68.289 264.931 68.1533 265.299C65.8828 264.197 63.6462 263.171 61.2125 262.466C52.443 259.926 40.8319 259.741 32.1865 262.743C29.9299 263.527 26.6016 265.024 25.4968 267.275C25.2879 267.701 25.221 268.104 25.3898 268.562C26.1979 270.755 29.3184 272.258 31.3299 273.087C40.7222 276.958 56.0047 276.938 65.3765 272.937C65.9952 272.674 66.555 272.361 67.1246 272.005C67.0259 272.563 66.9574 273.151 66.7582 273.682C66.5124 274.782 66.2656 275.907 66.2687 277.04Z" fill="#FEE5A3"/>
<path d="M66.7582 273.682C64.1233 274.667 61.4764 275.488 58.7048 275.993C50.3373 277.516 38.5281 277.326 30.6926 274.088C28.4313 273.153 25.1234 271.358 24.2249 268.935C23.9044 268.07 24.2047 267.078 24.6229 266.298C26.0293 263.674 29.745 262.322 32.4335 261.514C43.1668 258.286 58.4532 258.935 68.3583 264.231C68.3213 264.617 68.2891 264.931 68.1533 265.299C65.8828 264.197 63.6462 263.171 61.2125 262.466C52.443 259.926 40.8319 259.741 32.1865 262.743C29.93 263.527 26.6016 265.024 25.4968 267.275C25.2879 267.701 25.221 268.104 25.3899 268.562C26.198 270.755 29.3185 272.258 31.33 273.087C40.7222 276.958 56.0047 276.938 65.3765 272.937C65.9952 272.674 66.555 272.361 67.1247 272.005C67.0259 272.563 66.9574 273.151 66.7582 273.682Z" fill="black"/>
<path d="M67.1246 272.005C66.5549 272.361 65.9952 272.673 65.3765 272.937C56.0047 276.938 40.7222 276.958 31.3299 273.086C29.3184 272.258 26.1979 270.755 25.3898 268.562C25.221 268.104 25.2879 267.701 25.4968 267.275C26.6016 265.024 29.9299 263.527 32.1865 262.743C40.8319 259.741 52.443 259.926 61.2125 262.466C63.6462 263.171 65.8828 264.197 68.1533 265.299C67.7488 267.511 67.3186 269.764 67.1246 272.005Z" fill="#FEE5A3"/>
<path d="M142.918 76.251C143.698 73.5091 144.57 70.7721 146.395 68.5255C148.005 66.5429 150.187 65.2219 152.764 64.9631C155.427 64.6954 161.836 65.5756 163.798 67.2953C166.966 70.0711 168.215 75.6244 168.539 79.6252C175.101 80.6203 181.703 81.3069 188.256 82.3647C188.825 79.6958 189.618 77.0483 191.224 74.8041C192.673 72.7787 194.71 71.2773 197.225 70.9291C199.417 70.6254 206.143 71.5495 207.815 72.9014C211.157 75.6035 212.284 81.6092 212.739 85.6166L233.707 88.7529C234.328 85.8671 235.23 82.8034 237.138 80.4842C238.551 78.7666 240.567 77.6591 242.798 77.4993C243.861 77.4233 250.888 78.2747 251.896 78.588C252.601 78.8074 253.23 79.1933 253.782 79.679C257.008 82.5169 258.042 87.9742 258.35 92.0285C264.446 93.1891 270.745 93.958 276.9 94.7573L279.588 95.1971C280.448 91.5531 281.307 87.2087 284.767 85.0849C287.624 83.3316 290.665 84.1574 293.727 84.5824C294.662 84.7123 295.64 84.7144 296.555 84.9598C298.539 85.4921 299.947 87.1251 300.884 88.8722C302.909 92.6475 303.341 96.9116 303.175 101.123C305.326 103.344 307.063 105.516 308.103 108.466C310.23 114.497 309.398 121.852 309.394 128.197L309.477 139.289C309.265 144.158 309.498 149.056 309.517 153.93C309.554 166.146 309.705 178.361 309.97 190.575L310.558 234.288C310.678 242.005 310.694 249.745 311.024 257.455L311.292 273.916C311.352 276.924 311.707 280.23 311.348 283.212C311.269 283.869 311.089 284.412 310.625 284.902C309.987 285.578 309.147 285.822 308.239 285.797C305.335 285.718 302.269 285.078 299.382 284.684C291.425 283.599 283.366 282.121 275.36 281.534C274.388 286.487 273.283 291.437 272.239 296.376C268.144 295.975 264.076 295.321 260.002 294.755L241.494 292.19C225.069 289.856 208.631 287.621 192.179 285.486C197.274 296.696 198.562 307.153 194.144 318.916C194.03 319.217 193.912 319.517 193.79 319.815C193.669 320.113 193.544 320.41 193.415 320.705C193.286 321.001 193.154 321.294 193.018 321.586C192.882 321.878 192.743 322.169 192.6 322.457C192.457 322.746 192.31 323.033 192.16 323.318C192.01 323.603 191.857 323.886 191.7 324.168C191.543 324.449 191.383 324.728 191.219 325.006C191.056 325.283 190.889 325.559 190.718 325.832C190.548 326.105 190.374 326.377 190.197 326.646C190.02 326.915 189.84 327.182 189.657 327.447C189.473 327.711 189.286 327.974 189.096 328.234C188.907 328.494 188.714 328.752 188.518 329.008C188.321 329.263 188.122 329.517 187.92 329.767C187.718 330.018 187.512 330.266 187.304 330.512C187.096 330.757 186.884 331 186.67 331.241C186.456 331.482 186.239 331.719 186.019 331.955C185.799 332.19 185.576 332.422 185.35 332.652C185.124 332.882 184.896 333.109 184.665 333.333C184.433 333.558 184.2 333.779 183.963 333.998C183.726 334.216 183.487 334.432 183.245 334.645C183.003 334.858 182.759 335.067 182.512 335.274C182.265 335.481 182.016 335.685 181.764 335.885C181.512 336.086 181.257 336.284 181.001 336.478C180.744 336.673 180.485 336.864 180.223 337.052C179.962 337.241 179.698 337.426 179.432 337.607C179.167 337.789 178.898 337.968 178.628 338.143C178.358 338.318 178.086 338.49 177.811 338.659C177.537 338.828 177.26 338.993 176.982 339.155C176.703 339.317 176.423 339.476 176.141 339.631C175.858 339.786 175.574 339.937 175.288 340.086C175.002 340.234 174.715 340.378 174.425 340.52C174.136 340.661 173.844 340.799 173.551 340.933C173.242 341.074 172.931 341.211 172.618 341.344C172.305 341.477 171.991 341.607 171.675 341.732C171.359 341.858 171.042 341.98 170.723 342.097C170.404 342.215 170.083 342.329 169.762 342.439C169.44 342.549 169.117 342.655 168.793 342.757C168.468 342.859 168.143 342.957 167.816 343.051C167.489 343.145 167.161 343.235 166.833 343.322C166.504 343.406 166.174 343.487 165.843 343.565C165.512 343.643 165.18 343.717 164.847 343.788C164.514 343.857 164.181 343.922 163.846 343.983C163.512 344.045 163.177 344.102 162.841 344.155C162.505 344.21 162.169 344.259 161.832 344.302C161.495 344.348 161.157 344.389 160.819 344.426C160.481 344.462 160.143 344.495 159.804 344.525C159.465 344.552 159.126 344.576 158.787 344.597C158.447 344.618 158.108 344.634 157.768 344.645C157.428 344.656 157.088 344.663 156.748 344.665C156.408 344.67 156.069 344.67 155.729 344.665C155.388 344.659 155.049 344.648 154.709 344.635C154.369 344.623 154.03 344.606 153.69 344.583C153.351 344.563 153.012 344.536 152.673 344.504C152.335 344.475 151.997 344.442 151.659 344.405C151.321 344.366 150.984 344.323 150.647 344.275C150.31 344.229 149.974 344.179 149.638 344.124C149.303 344.069 148.968 344.01 148.634 343.946C148.3 343.884 147.967 343.817 147.634 343.743C147.302 343.673 146.97 343.597 146.64 343.517C146.309 343.44 145.98 343.356 145.651 343.267C145.323 343.18 144.995 343.089 144.669 342.993C144.343 342.897 144.018 342.797 143.694 342.695C143.37 342.591 143.047 342.483 142.726 342.372C142.405 342.26 142.085 342.145 141.767 342.025C132.859 338.633 126.976 332.859 121.799 325.106C118.757 325.171 115.712 325.018 112.67 324.978L84.3692 324.336L69.6468 324.137C66.9752 324.098 64.2299 324.164 61.5724 323.876C60.722 323.784 59.8654 323.516 59.2488 322.89C57.9616 321.585 59.7338 315.408 60.0138 313.65C60.2284 312.302 60.3545 310.965 60.4282 309.603C60.7758 309.138 60.7885 308.938 60.8005 308.383C60.6342 306.936 61.6324 303.551 61.8377 301.876C62.7067 300.994 62.7108 297.516 62.9157 296.188C63.1235 295.054 63.3576 293.922 63.4436 292.771L63.6143 291.956C63.857 289.823 64.3441 287.702 64.7746 285.6C64.8925 285.265 64.9378 284.86 65.0118 284.51C65.2075 282.368 65.6442 280.147 66.0813 278.04L66.2687 277.04C66.2657 275.907 66.5125 274.782 66.7582 273.682C66.9574 273.151 67.0259 272.563 67.1247 272.005C67.3187 269.764 67.7488 267.511 68.1533 265.299C68.2891 264.931 68.3213 264.617 68.3583 264.231C68.4721 263.038 68.7717 261.84 69.0082 260.664L69.1779 260.085C69.2543 259.301 69.4055 258.515 69.5258 257.735C70.1572 254.748 70.4204 251.645 70.9332 248.63L72.4027 240.163C72.6467 238.751 73.091 237.156 73.0577 235.724L72.9573 235.612L72.9504 235.307L72.8767 235.483C72.8195 233.886 73.4002 231.934 73.6648 230.347L75.7063 218.171C76.3635 214.241 77.0005 210.307 77.6173 206.37C77.9714 204.149 78.224 201.846 78.7625 199.665C78.9397 198.948 79.2503 198.363 79.7651 197.828C80.2813 197.291 80.8102 196.84 81.5397 196.66C83.8006 196.1 86.5674 196.383 88.8887 196.384L100.858 196.397C107.295 169.788 112.581 142.897 118.698 116.213L122.912 97.2623C123.591 94.2586 124.105 91.0917 125.098 88.1798C126.007 85.512 127.57 83.2072 129.594 81.2596C133.085 77.9018 138.123 76.1797 142.918 76.251Z" fill="black"/>
<path d="M203.691 72.5275C205.18 72.3513 206.259 72.535 207.473 73.4855C210.684 76.0011 211.55 81.7748 212.07 85.5611L205.019 84.5646C201.933 84.0589 198.842 83.588 195.745 83.1517C196.135 81.6583 196.606 80.113 197.23 78.7018C198.604 75.5984 200.485 73.744 203.691 72.5275Z" fill="#FFFEFE"/>
<path d="M250.145 79.0408C251.397 78.9596 252.338 79.2314 253.307 80.0606C256.437 82.74 257.288 88.0928 257.676 91.9342C255.231 91.6328 252.79 91.304 250.353 90.9478C247.319 90.5314 244.291 90.0755 241.269 89.5801C241.752 87.4 242.352 85.0644 243.626 83.1959C245.227 80.8466 247.399 79.5704 250.145 79.0408Z" fill="#FFFEFE"/>
<path d="M294.58 85.5535C294.811 85.5312 295.036 85.5258 295.268 85.5367C296.824 85.6097 298.107 86.2428 299.137 87.412C302.049 90.7201 302.74 96.3807 302.538 100.597C300.93 99.527 299.373 98.6396 297.563 97.9547C294.141 97.0189 290.414 96.6666 286.904 96.1295C287.215 94.1235 287.59 92.2222 288.562 90.4192C289.901 87.9351 291.883 86.382 294.58 85.5535Z" fill="#FFFEFE"/>
<path d="M159.175 66.6917C159.245 66.6838 159.314 66.6739 159.384 66.6684C160.97 66.5447 162.232 66.8607 163.456 67.9178C166.436 70.4924 167.575 75.8043 167.874 79.5365L160.745 78.5218C157.38 78.0025 154.016 77.4469 150.628 77.0997C151.058 75.3824 151.652 73.6761 152.473 72.1044C153.927 69.3191 156.212 67.6227 159.175 66.6917Z" fill="#FFFEFE"/>
<path d="M170.25 210.933C172.436 211.067 174.664 211.495 176.817 211.893C175.697 216.008 175 220.329 174.154 224.51L170.459 242.129C170.379 242.488 170.329 242.723 170.095 243.012C168.802 243.491 166.752 242.822 165.402 242.575L170.25 210.933Z" fill="white"/>
<path d="M160.474 197.095C161.76 197.129 163.31 197.048 164.449 197.727C165.053 198.087 165.404 198.63 165.544 199.314C165.661 199.883 165.622 200.515 165.548 201.087C164.932 205.849 155.845 263.101 155.304 263.818C155.164 264.004 154.718 263.987 154.492 264.016C153.249 264.076 152.022 264.188 150.786 264.328C153.472 247.936 156.279 231.564 159.207 215.214C159.743 212.139 162.13 201.614 161.934 199.237C161.855 198.282 161.164 197.673 160.474 197.095Z" fill="#76D3E7"/>
<path d="M165.551 197.457C166.25 197.509 166.979 197.561 167.66 197.731C169.24 198.128 170.071 199.158 170.862 200.496C171.048 203.929 169.929 208.511 169.395 211.953L166.004 233.737C164.76 241.962 163.711 250.228 162.251 258.419C161.929 260.225 161.93 262.355 161.313 264.071L160.975 264.149C159.348 264.082 157.722 264.001 156.097 263.906C159.727 242.369 163.189 220.806 166.482 199.215C166.246 198.578 165.905 198.034 165.551 197.457Z" fill="#76D3E7"/>
<path d="M152.854 173.896C158.691 174.409 164.522 175.428 170.324 176.24C174.934 176.885 179.614 177.301 184.19 178.133C182.036 188.609 179.761 199.058 177.365 209.48C177.265 210.038 177.146 210.532 176.944 211.062C174.85 211.117 172.451 210.508 170.36 210.207C170.745 207.515 171.458 204.627 171.56 201.926C171.61 200.637 171.404 199.574 170.474 198.627C167.392 195.486 153.28 196.293 148.477 196.275C150.098 188.859 151.418 181.352 152.854 173.896Z" fill="white"/>
<path d="M114.48 138.162C118.711 138.525 122.925 139.156 127.13 139.744C125.824 145.645 124.738 151.591 123.528 157.512L117.495 186.615C116.932 189.356 116.663 192.19 116.06 194.904C115.961 195.351 115.852 195.877 115.553 196.237C115.372 196.456 114.971 196.402 114.701 196.422L101.585 196.434C102.615 191.442 103.866 186.488 104.962 181.508L114.48 138.162Z" fill="#FFFEFE"/>
<path d="M121.668 169.839C131.781 171.322 141.991 172.437 152.135 173.717C151.487 177.079 148.606 194.46 147.48 196.284L147.093 196.372L116.351 196.434L121.668 169.839Z" fill="white"/>
<path d="M127.787 139.818C130.876 140.344 134.048 140.635 137.158 141.033L158.157 143.723C155.626 153.341 154.259 163.321 152.158 173.043C146.787 172.299 141.411 171.592 136.031 170.921C131.287 170.339 126.515 169.86 121.793 169.122C122.412 166.699 122.832 164.184 123.333 161.731C124.823 154.427 126.095 147.08 127.787 139.818Z" fill="white"/>
<path d="M191.577 148.267C195.586 148.958 199.665 149.409 203.699 149.933L222.585 152.423C221.626 156.161 217.019 181.174 216.274 181.913C213.107 181.306 209.851 180.935 206.658 180.468L185.113 177.467C187.061 167.702 189.377 157.981 191.577 148.267Z" fill="white"/>
<path d="M223.336 152.5L254.609 156.83C252.903 164.193 251.551 171.727 250.092 179.149C249.783 180.72 249.271 185.175 248.632 186.349C238.243 184.435 227.612 183.605 217.16 182.028C219.309 172.219 220.891 162.236 223.336 152.5Z" fill="white"/>
<path d="M158.769 143.889C162.533 144.235 166.302 144.847 170.05 145.343L190.881 148.161C190.369 150.843 189.674 153.515 189.077 156.182C187.475 163.137 185.938 170.106 184.466 177.09L184.379 177.202C183.536 177.528 156.422 173.588 152.882 173.189L158.769 143.889Z" fill="white"/>
<path d="M255.313 156.923C266.135 158.176 277.04 159.828 287.779 161.666C285.676 171.321 283.898 181.058 281.758 190.707C280.051 191.019 274.028 189.865 271.937 189.58L249.448 186.476C251.341 176.612 253.296 166.761 255.313 156.923Z" fill="white"/>
<path d="M210.162 216.433C214.325 216.883 218.493 217.605 222.648 218.155C229.003 218.997 235.396 219.723 241.716 220.799C240.787 225.099 240.031 229.448 239.17 233.764L235.402 252.336C231.383 252.046 227.3 251.246 223.303 250.675L203.738 247.931C206.095 237.482 207.972 226.919 210.162 216.433Z" fill="#FEE5A3"/>
<path d="M177.566 211.954C188.174 213.477 198.793 214.921 209.423 216.283C208.806 219.139 203.566 247.013 203.038 247.889C200.615 247.437 198.12 247.204 195.678 246.861C187.425 245.701 179.069 244.796 170.863 243.379C171.916 239.286 172.682 235.104 173.528 230.965C174.799 224.612 176.145 218.275 177.566 211.954Z" fill="white"/>
<path d="M242.409 220.866C245.711 221.19 249.042 221.786 252.336 222.225C259.767 223.179 267.188 224.215 274.596 225.33L268.103 256.552C266.648 256.839 239.35 253.012 236.076 252.378C236.744 249.727 237.216 247.003 237.761 244.323C239.347 236.523 240.69 228.632 242.409 220.866Z" fill="#FEE5A3"/>
<path d="M217.071 182.77L248.685 187.066C247.355 192.286 246.424 197.66 245.388 202.948L241.897 220.092C231.398 218.393 220.806 217.259 210.286 215.698C211.591 208.459 213.192 201.24 214.656 194.029C215.382 190.455 215.823 186.148 217.071 182.77Z" fill="white"/>
<path d="M184.901 178.199C188.66 178.617 192.408 179.237 196.154 179.762C202.887 180.674 209.613 181.636 216.332 182.647C215.301 186.703 210.072 214.758 209.381 215.573C198.827 214.173 188.254 212.804 177.722 211.251C178.698 207.296 179.457 203.261 180.314 199.277L184.901 178.199Z" fill="white"/>
<path d="M249.398 187.195C260.138 188.609 270.853 190.327 281.617 191.552C279.889 198.685 278.507 206.392 277.057 213.623C276.323 217.281 275.653 220.969 274.647 224.565C271.194 224.167 267.76 223.556 264.314 223.091L242.614 220.17C245.154 209.254 247.016 198.153 249.398 187.195Z" fill="white"/>
<path d="M84.4515 201.282C92.5783 201.065 100.755 201.216 108.885 201.211L155.201 201.184C154.85 204.645 154.139 208.142 153.581 211.578C152.397 218.941 151.082 226.28 149.636 233.595C126.074 233.682 102.514 233.585 78.9534 233.303C80.4452 225.751 81.4995 218.161 82.7781 210.574C83.2988 207.485 83.7252 204.328 84.4515 201.282Z" fill="#76D3E7"/>
<path d="M154.833 264.691C164.194 263.961 173.862 267.508 181.121 273.269C189.512 279.927 194.637 289.562 195.789 300.184C195.826 300.506 195.859 300.829 195.888 301.153C195.917 301.476 195.942 301.799 195.963 302.123C195.983 302.447 196 302.771 196.013 303.095C196.026 303.42 196.035 303.744 196.039 304.069C196.044 304.393 196.045 304.718 196.042 305.042C196.039 305.367 196.031 305.691 196.02 306.015C196.009 306.339 195.993 306.664 195.974 306.988C195.955 307.312 195.932 307.635 195.904 307.959C195.877 308.282 195.846 308.605 195.81 308.928C195.775 309.25 195.736 309.572 195.692 309.894C195.649 310.216 195.602 310.537 195.551 310.857C195.5 311.178 195.445 311.497 195.385 311.816C195.326 312.135 195.263 312.454 195.196 312.771C195.129 313.089 195.058 313.406 194.984 313.721C194.909 314.037 194.83 314.352 194.747 314.666C194.665 314.979 194.578 315.292 194.488 315.604C194.397 315.916 194.303 316.226 194.205 316.536C194.107 316.845 194.005 317.153 193.9 317.46C193.794 317.767 193.685 318.072 193.571 318.376C193.458 318.68 193.341 318.983 193.22 319.285C193.1 319.586 192.975 319.885 192.847 320.184C192.719 320.482 192.587 320.778 192.452 321.073C192.316 321.368 192.177 321.661 192.034 321.953C191.892 322.244 191.746 322.534 191.596 322.822C191.446 323.109 191.292 323.395 191.135 323.68C190.978 323.964 190.818 324.246 190.654 324.526C190.49 324.806 190.323 325.084 190.152 325.36C189.981 325.636 189.807 325.909 189.629 326.181C189.452 326.453 189.271 326.722 189.087 326.989C188.902 327.256 188.715 327.521 188.524 327.784C188.333 328.046 188.139 328.306 187.942 328.564C187.744 328.822 187.544 329.077 187.34 329.33C179.826 338.597 170.184 342.697 158.547 343.949C148.224 344.151 138.414 341.163 130.502 334.394C123.072 328.038 117.804 318.014 117.104 308.251C117.077 307.913 117.054 307.574 117.035 307.235C117.016 306.897 117.001 306.558 116.991 306.218C116.98 305.879 116.974 305.54 116.972 305.2C116.97 304.861 116.973 304.521 116.979 304.182C116.986 303.843 116.997 303.503 117.012 303.164C117.026 302.825 117.046 302.486 117.069 302.148C117.093 301.809 117.12 301.471 117.152 301.133C117.184 300.795 117.221 300.458 117.261 300.12C117.302 299.783 117.346 299.447 117.395 299.111C117.444 298.775 117.497 298.44 117.554 298.105C117.611 297.771 117.673 297.437 117.738 297.104C117.804 296.771 117.874 296.439 117.947 296.108C118.021 295.776 118.099 295.446 118.181 295.117C118.264 294.787 118.35 294.459 118.44 294.132C118.531 293.805 118.625 293.479 118.723 293.154C118.822 292.829 118.924 292.505 119.031 292.183C119.138 291.861 119.248 291.54 119.363 291.22C119.477 290.901 119.596 290.583 119.719 290.266C119.841 289.95 119.968 289.635 120.098 289.321C120.229 289.008 120.363 288.697 120.501 288.387C120.64 288.077 120.782 287.768 120.928 287.462C121.074 287.155 121.223 286.851 121.377 286.548C121.53 286.245 121.688 285.945 121.849 285.646C122.01 285.347 122.175 285.05 122.343 284.756C122.512 284.461 122.684 284.169 122.86 283.878C123.036 283.588 123.215 283.3 123.398 283.014C123.581 282.728 123.768 282.445 123.958 282.164C124.148 281.882 124.342 281.604 124.539 281.327C124.736 281.051 124.936 280.777 125.14 280.506C125.345 280.234 125.552 279.966 125.763 279.699C125.973 279.433 126.187 279.17 126.404 278.909C126.622 278.648 126.842 278.39 127.066 278.135C134.091 270.049 144.241 265.392 154.833 264.691Z" fill="#FEE5A3"/>
<path d="M154.752 270.348C155.026 270.334 155.3 270.322 155.575 270.314C155.849 270.306 156.123 270.301 156.398 270.3C156.672 270.298 156.946 270.3 157.221 270.305C157.495 270.31 157.769 270.319 158.044 270.331C158.318 270.343 158.591 270.358 158.865 270.376C159.139 270.395 159.413 270.417 159.686 270.442C159.959 270.467 160.232 270.495 160.505 270.527C160.777 270.558 161.049 270.593 161.321 270.632C161.593 270.67 161.864 270.712 162.135 270.756C162.405 270.801 162.675 270.849 162.945 270.901C163.214 270.952 163.483 271.007 163.751 271.064C164.02 271.123 164.287 271.184 164.554 271.248C164.821 271.312 165.086 271.38 165.352 271.451C165.617 271.522 165.881 271.596 166.144 271.673C166.408 271.75 166.67 271.83 166.931 271.914C167.193 271.998 167.453 272.084 167.712 272.174C167.972 272.264 168.23 272.357 168.487 272.453C168.744 272.549 168.999 272.648 169.254 272.751C169.509 272.853 169.762 272.958 170.014 273.067C170.266 273.175 170.517 273.287 170.766 273.401C171.016 273.516 171.263 273.633 171.51 273.754C171.756 273.874 172.001 273.998 172.245 274.124C172.488 274.25 172.73 274.38 172.971 274.512C173.211 274.644 173.45 274.78 173.687 274.918C173.924 275.056 174.16 275.197 174.393 275.341C174.627 275.484 174.859 275.631 175.089 275.78C175.319 275.93 175.547 276.082 175.774 276.237C176 276.392 176.225 276.55 176.448 276.71C176.67 276.87 176.891 277.033 177.11 277.199C177.328 277.365 177.545 277.533 177.76 277.704C177.974 277.875 178.187 278.048 178.397 278.225C178.608 278.401 178.816 278.579 179.022 278.76C179.234 278.946 179.443 279.135 179.651 279.325C179.858 279.516 180.063 279.709 180.265 279.905C180.468 280.101 180.668 280.299 180.865 280.5C181.063 280.701 181.258 280.904 181.451 281.11C181.643 281.315 181.833 281.523 182.021 281.733C182.209 281.944 182.394 282.156 182.576 282.371C182.758 282.586 182.938 282.803 183.115 283.022C183.292 283.241 183.466 283.462 183.638 283.686C183.809 283.909 183.978 284.134 184.144 284.362C184.31 284.59 184.473 284.819 184.634 285.051C184.795 285.282 184.952 285.516 185.107 285.751C185.262 285.987 185.413 286.224 185.562 286.463C185.711 286.702 185.857 286.943 186 287.186C186.143 287.428 186.283 287.673 186.42 287.919C186.557 288.165 186.691 288.413 186.822 288.662C186.953 288.912 187.081 289.163 187.206 289.415C187.331 289.668 187.453 289.922 187.571 290.178C187.69 290.433 187.805 290.69 187.917 290.948C188.03 291.207 188.139 291.466 188.245 291.727C188.35 291.988 188.453 292.251 188.553 292.514C188.652 292.778 188.748 293.042 188.841 293.308C188.934 293.574 189.024 293.841 189.111 294.109C189.197 294.378 189.28 294.647 189.36 294.917C189.44 295.187 189.517 295.458 189.59 295.73C189.663 296.002 189.733 296.275 189.799 296.549C189.866 296.823 189.93 297.097 189.989 297.372C190.049 297.648 190.105 297.924 190.159 298.2C190.212 298.477 190.261 298.754 190.307 299.032C190.354 299.31 190.397 299.588 190.436 299.867C190.476 300.146 190.512 300.426 190.544 300.705C190.577 300.985 190.606 301.266 190.632 301.546C190.657 301.827 190.68 302.107 190.699 302.388C190.714 302.672 190.725 302.955 190.734 303.239C190.742 303.523 190.746 303.806 190.747 304.09C190.748 304.374 190.746 304.658 190.74 304.941C190.734 305.225 190.725 305.509 190.712 305.792C190.699 306.075 190.682 306.359 190.663 306.642C190.642 306.925 190.619 307.208 190.592 307.49C190.565 307.772 190.535 308.055 190.501 308.336C190.467 308.618 190.429 308.899 190.388 309.18C190.347 309.461 190.303 309.741 190.255 310.021C190.207 310.3 190.156 310.579 190.101 310.858C190.046 311.136 189.988 311.414 189.927 311.691C189.865 311.968 189.8 312.244 189.731 312.519C189.663 312.795 189.591 313.069 189.516 313.342C189.44 313.616 189.362 313.889 189.28 314.16C189.197 314.432 189.112 314.703 189.023 314.972C188.935 315.242 188.842 315.51 188.747 315.777C188.652 316.045 188.553 316.311 188.451 316.575C188.349 316.84 188.244 317.104 188.135 317.366C188.027 317.628 187.915 317.889 187.8 318.148C187.685 318.408 187.567 318.665 187.446 318.922C187.324 319.178 187.2 319.433 187.072 319.687C186.944 319.94 186.813 320.192 186.68 320.442C186.546 320.692 186.409 320.941 186.269 321.188C186.129 321.434 185.985 321.679 185.839 321.922C185.693 322.166 185.544 322.407 185.392 322.647C185.24 322.886 185.085 323.124 184.927 323.359C184.769 323.595 184.608 323.829 184.444 324.06C184.28 324.292 184.114 324.522 183.944 324.749C183.775 324.977 183.602 325.202 183.427 325.426C183.252 325.649 183.074 325.87 182.894 326.089C182.713 326.308 182.53 326.524 182.344 326.739C182.158 326.953 181.97 327.165 181.779 327.375C176.05 333.74 167.345 338.059 158.746 338.484C158.476 338.504 158.206 338.521 157.935 338.535C157.664 338.549 157.393 338.559 157.123 338.566C156.852 338.573 156.581 338.577 156.31 338.578C156.038 338.579 155.768 338.576 155.497 338.57C155.226 338.564 154.955 338.555 154.684 338.543C154.414 338.53 154.143 338.515 153.873 338.496C153.602 338.477 153.332 338.454 153.062 338.429C152.793 338.403 152.523 338.375 152.254 338.343C151.985 338.311 151.716 338.276 151.448 338.237C151.18 338.199 150.912 338.157 150.644 338.112C150.377 338.067 150.111 338.019 149.844 337.968C149.578 337.917 149.313 337.862 149.048 337.804C148.783 337.747 148.519 337.686 148.256 337.621C147.993 337.557 147.73 337.49 147.468 337.42C147.207 337.35 146.946 337.276 146.686 337.199C146.426 337.122 146.167 337.043 145.909 336.96C145.651 336.877 145.394 336.791 145.138 336.701C144.882 336.612 144.627 336.52 144.374 336.425C144.12 336.33 143.868 336.231 143.616 336.13C143.365 336.028 143.115 335.924 142.866 335.816C142.617 335.709 142.37 335.599 142.123 335.485C141.877 335.372 141.633 335.256 141.389 335.136C141.146 335.017 140.904 334.895 140.664 334.77C140.423 334.645 140.184 334.517 139.947 334.386C139.71 334.255 139.474 334.121 139.24 333.984C139.006 333.848 138.774 333.709 138.543 333.566C138.312 333.424 138.083 333.279 137.856 333.131C137.629 332.984 137.403 332.834 137.18 332.68C136.956 332.527 136.735 332.371 136.515 332.213C136.295 332.054 136.077 331.893 135.861 331.73C135.645 331.566 135.431 331.399 135.219 331.23C135.007 331.062 134.797 330.89 134.589 330.716C134.375 330.536 134.163 330.354 133.953 330.168C133.743 329.983 133.536 329.795 133.33 329.605C133.125 329.414 132.922 329.221 132.722 329.026C132.521 328.831 132.323 328.633 132.127 328.433C131.931 328.233 131.738 328.03 131.548 327.825C131.357 327.62 131.169 327.413 130.983 327.204C130.797 326.994 130.614 326.782 130.434 326.568C130.253 326.354 130.075 326.138 129.9 325.92C129.725 325.701 129.553 325.481 129.383 325.258C129.213 325.035 129.046 324.811 128.882 324.584C128.718 324.357 128.556 324.129 128.397 323.898C128.239 323.667 128.083 323.435 127.93 323.2C127.777 322.966 127.627 322.73 127.48 322.491C127.332 322.253 127.188 322.013 127.047 321.772C126.906 321.53 126.767 321.287 126.632 321.042C126.497 320.797 126.364 320.55 126.235 320.301C126.106 320.053 125.98 319.803 125.856 319.552C125.733 319.3 125.613 319.048 125.496 318.793C125.379 318.539 125.265 318.283 125.155 318.026C125.044 317.769 124.936 317.511 124.832 317.251C124.728 316.991 124.627 316.73 124.529 316.468C124.431 316.205 124.336 315.942 124.244 315.677C124.153 315.413 124.064 315.147 123.979 314.881C123.894 314.614 123.813 314.346 123.734 314.077C123.656 313.809 123.581 313.539 123.509 313.268C123.437 312.998 123.369 312.726 123.304 312.454C123.238 312.182 123.176 311.909 123.118 311.635C123.059 311.361 123.004 311.087 122.953 310.811C122.901 310.537 122.852 310.261 122.807 309.984C122.762 309.708 122.721 309.431 122.682 309.154C122.644 308.877 122.609 308.599 122.578 308.321C122.547 308.043 122.519 307.764 122.494 307.485C122.471 307.202 122.451 306.919 122.435 306.635C122.419 306.352 122.406 306.068 122.397 305.784C122.388 305.5 122.382 305.216 122.38 304.932C122.378 304.648 122.379 304.364 122.384 304.08C122.388 303.796 122.396 303.512 122.408 303.228C122.419 302.944 122.435 302.661 122.453 302.377C122.472 302.094 122.494 301.811 122.519 301.528C122.545 301.245 122.574 300.962 122.606 300.68C122.638 300.398 122.674 300.116 122.714 299.835C122.753 299.554 122.796 299.273 122.842 298.992C122.888 298.712 122.937 298.433 122.99 298.154C123.043 297.874 123.1 297.596 123.16 297.318C123.219 297.041 123.282 296.764 123.349 296.488C123.415 296.211 123.485 295.936 123.559 295.662C123.632 295.387 123.709 295.114 123.789 294.841C123.869 294.569 123.952 294.297 124.038 294.027C124.125 293.756 124.215 293.487 124.308 293.218C124.401 292.95 124.498 292.683 124.597 292.417C124.697 292.151 124.8 291.886 124.906 291.623C125.012 291.359 125.122 291.097 125.234 290.836C125.347 290.575 125.463 290.316 125.582 290.058C125.7 289.8 125.822 289.544 125.948 289.289C126.073 289.034 126.201 288.78 126.333 288.528C126.464 288.277 126.598 288.026 126.736 287.778C126.873 287.529 127.014 287.283 127.157 287.037C127.301 286.792 127.447 286.549 127.597 286.307C127.747 286.066 127.899 285.826 128.054 285.588C128.209 285.351 128.368 285.115 128.529 284.881C128.69 284.647 128.854 284.415 129.021 284.185C129.187 283.955 129.357 283.727 129.529 283.501C129.702 283.276 129.877 283.052 130.054 282.83C130.232 282.609 130.413 282.389 130.596 282.172C136.757 274.868 145.364 271.121 154.752 270.348Z" fill="black"/>
<path d="M155.65 271.035C155.918 271.028 156.186 271.024 156.454 271.024C156.722 271.024 156.99 271.027 157.258 271.033C157.526 271.039 157.794 271.048 158.061 271.061C158.329 271.073 158.596 271.089 158.864 271.109C159.131 271.127 159.398 271.15 159.665 271.175C159.932 271.2 160.198 271.229 160.464 271.261C160.73 271.293 160.996 271.328 161.261 271.366C161.526 271.404 161.791 271.445 162.055 271.49C162.319 271.535 162.583 271.583 162.846 271.633C163.109 271.684 163.372 271.738 163.634 271.796C163.895 271.853 164.156 271.913 164.417 271.977C164.677 272.04 164.937 272.107 165.195 272.177C165.454 272.247 165.712 272.319 165.969 272.395C166.226 272.471 166.482 272.55 166.737 272.632C166.992 272.715 167.246 272.8 167.499 272.888C167.752 272.976 168.004 273.067 168.255 273.162C168.506 273.256 168.755 273.353 169.004 273.453C169.252 273.554 169.5 273.657 169.746 273.763C169.992 273.869 170.236 273.978 170.48 274.091C170.723 274.203 170.965 274.318 171.206 274.436C171.446 274.554 171.686 274.674 171.923 274.798C172.161 274.922 172.397 275.048 172.632 275.178C172.867 275.307 173.1 275.439 173.331 275.574C173.563 275.709 173.793 275.847 174.021 275.987C174.249 276.128 174.475 276.271 174.7 276.417C174.925 276.563 175.148 276.711 175.369 276.863C175.59 277.014 175.81 277.168 176.027 277.325C176.244 277.481 176.46 277.64 176.674 277.802C176.887 277.964 177.099 278.128 177.308 278.295C177.518 278.462 177.726 278.631 177.932 278.803C178.137 278.975 178.341 279.149 178.542 279.326C178.743 279.503 178.943 279.682 179.14 279.863C179.342 280.048 179.543 280.236 179.74 280.426C179.938 280.616 180.134 280.809 180.327 281.004C180.52 281.198 180.711 281.396 180.899 281.595C181.087 281.795 181.273 281.997 181.456 282.201C181.64 282.405 181.82 282.612 181.998 282.82C182.177 283.029 182.352 283.24 182.525 283.453C182.698 283.666 182.868 283.881 183.036 284.098C183.204 284.316 183.368 284.535 183.531 284.756C183.693 284.977 183.852 285.201 184.009 285.426C184.166 285.651 184.319 285.878 184.47 286.107C184.622 286.336 184.77 286.567 184.915 286.8C185.061 287.033 185.203 287.267 185.342 287.503C185.482 287.74 185.619 287.978 185.752 288.217C185.886 288.457 186.017 288.698 186.145 288.941C186.272 289.184 186.397 289.428 186.518 289.674C186.64 289.92 186.759 290.167 186.874 290.416C186.99 290.665 187.102 290.915 187.212 291.167C187.321 291.419 187.427 291.671 187.53 291.926C187.634 292.18 187.734 292.436 187.83 292.692C187.927 292.949 188.021 293.207 188.111 293.466C188.202 293.725 188.289 293.985 188.373 294.246C188.457 294.508 188.538 294.77 188.615 295.033C188.693 295.296 188.767 295.56 188.838 295.826C188.909 296.09 188.977 296.356 189.041 296.623C189.105 296.89 189.167 297.157 189.224 297.426C189.282 297.694 189.336 297.963 189.387 298.232C189.439 298.502 189.487 298.772 189.531 299.042C189.575 299.313 189.616 299.585 189.654 299.856C189.692 300.128 189.726 300.4 189.757 300.673C189.788 300.946 189.816 301.219 189.84 301.492C189.865 301.765 189.886 302.039 189.903 302.313C189.921 302.586 189.935 302.86 189.946 303.135C189.956 303.409 189.963 303.683 189.967 303.958C189.97 304.233 189.971 304.507 189.967 304.782C189.964 305.056 189.958 305.331 189.948 305.605C189.938 305.879 189.925 306.154 189.908 306.428C189.891 306.702 189.871 306.976 189.848 307.249C189.825 307.523 189.798 307.796 189.768 308.069C189.737 308.342 189.704 308.614 189.667 308.887C189.63 309.159 189.59 309.43 189.546 309.701C189.503 309.972 189.456 310.243 189.405 310.513C189.355 310.783 189.301 311.052 189.245 311.321C189.188 311.589 189.127 311.857 189.064 312.124C189 312.392 188.934 312.658 188.863 312.923C188.793 313.189 188.72 313.453 188.643 313.717C188.566 313.981 188.487 314.243 188.403 314.505C188.32 314.767 188.234 315.027 188.144 315.287C188.055 315.546 187.962 315.805 187.866 316.062C187.77 316.319 187.671 316.575 187.568 316.83C187.466 317.085 187.361 317.339 187.252 317.591C187.144 317.843 187.032 318.094 186.917 318.343C186.802 318.593 186.685 318.841 186.564 319.087C186.443 319.334 186.319 319.579 186.192 319.822C186.065 320.066 185.935 320.308 185.802 320.548C185.669 320.788 185.534 321.027 185.395 321.264C185.256 321.501 185.114 321.736 184.97 321.969C184.825 322.203 184.678 322.434 184.527 322.664C184.377 322.894 184.224 323.122 184.068 323.348C183.912 323.574 183.753 323.798 183.592 324.02C183.43 324.242 183.266 324.462 183.099 324.68C182.932 324.898 182.763 325.114 182.59 325.328C182.418 325.542 182.243 325.753 182.066 325.963C181.888 326.172 181.708 326.38 181.526 326.585C181.343 326.79 181.158 326.993 180.97 327.193C180.78 327.395 180.587 327.595 180.392 327.793C180.197 327.99 180 328.185 179.8 328.378C179.6 328.57 179.397 328.76 179.193 328.948C178.988 329.136 178.781 329.321 178.572 329.503C178.363 329.686 178.152 329.866 177.938 330.043C177.724 330.221 177.509 330.395 177.291 330.567C177.073 330.739 176.853 330.909 176.631 331.076C176.409 331.242 176.185 331.406 175.959 331.568C175.733 331.729 175.505 331.887 175.275 332.043C175.045 332.198 174.814 332.351 174.58 332.501C174.346 332.651 174.111 332.798 173.874 332.942C173.636 333.086 173.397 333.227 173.156 333.365C172.916 333.504 172.673 333.639 172.429 333.771C172.185 333.904 171.939 334.033 171.692 334.159C171.445 334.285 171.196 334.409 170.946 334.529C170.696 334.649 170.444 334.766 170.191 334.88C169.938 334.994 169.683 335.105 169.427 335.213C169.172 335.32 168.914 335.425 168.656 335.526C168.397 335.628 168.138 335.726 167.877 335.821C167.616 335.916 167.354 336.008 167.091 336.097C166.828 336.185 166.564 336.271 166.299 336.353C166.034 336.435 165.767 336.514 165.5 336.589C165.233 336.665 164.965 336.737 164.696 336.806C164.427 336.875 164.158 336.941 163.887 337.003C163.617 337.066 163.345 337.125 163.073 337.18C162.802 337.236 162.529 337.289 162.256 337.338C161.982 337.387 161.709 337.433 161.434 337.475C161.16 337.517 160.885 337.556 160.61 337.592C160.334 337.627 160.059 337.66 159.782 337.688C159.506 337.717 159.23 337.743 158.953 337.765C158.676 337.787 158.399 337.805 158.122 337.82C157.845 337.836 157.568 337.848 157.29 337.856C148.985 338.27 140.641 335.04 134.462 329.565C134.257 329.385 134.053 329.203 133.852 329.018C133.651 328.833 133.452 328.646 133.255 328.456C133.058 328.266 132.864 328.074 132.672 327.88C132.48 327.685 132.291 327.488 132.104 327.289C131.917 327.09 131.732 326.888 131.55 326.684C131.368 326.481 131.189 326.275 131.011 326.066C130.835 325.858 130.66 325.648 130.488 325.435C130.317 325.223 130.148 325.008 129.981 324.791C129.815 324.575 129.651 324.356 129.49 324.135C129.329 323.914 129.17 323.692 129.015 323.467C128.859 323.243 128.706 323.016 128.557 322.787C128.407 322.559 128.26 322.329 128.115 322.097C127.971 321.865 127.829 321.631 127.691 321.395C127.553 321.159 127.417 320.922 127.284 320.683C127.152 320.444 127.022 320.204 126.895 319.962C126.769 319.72 126.645 319.476 126.525 319.231C126.404 318.986 126.286 318.739 126.171 318.491C126.057 318.243 125.946 317.993 125.837 317.742C125.729 317.492 125.623 317.24 125.521 316.986C125.419 316.733 125.32 316.478 125.224 316.222C125.128 315.966 125.036 315.709 124.946 315.451C124.857 315.193 124.77 314.934 124.687 314.673C124.604 314.413 124.524 314.152 124.447 313.889C124.371 313.627 124.297 313.364 124.227 313.1C124.157 312.836 124.09 312.571 124.026 312.305C123.963 312.039 123.903 311.773 123.845 311.505C123.789 311.238 123.735 310.97 123.684 310.702C123.634 310.433 123.587 310.164 123.543 309.894C123.499 309.625 123.459 309.354 123.422 309.084C123.385 308.813 123.351 308.542 123.321 308.27C123.29 307.999 123.263 307.727 123.24 307.454C123.216 307.182 123.196 306.91 123.179 306.637C123.163 306.358 123.151 306.08 123.142 305.801C123.133 305.522 123.127 305.243 123.125 304.964C123.123 304.685 123.124 304.406 123.129 304.127C123.133 303.848 123.141 303.57 123.153 303.291C123.164 303.012 123.179 302.733 123.197 302.455C123.216 302.177 123.237 301.898 123.262 301.621C123.287 301.343 123.316 301.065 123.347 300.788C123.379 300.511 123.414 300.234 123.453 299.958C123.491 299.682 123.533 299.406 123.578 299.131C123.624 298.855 123.672 298.581 123.724 298.307C123.776 298.032 123.831 297.759 123.89 297.486C123.948 297.213 124.01 296.941 124.076 296.67C124.141 296.399 124.209 296.128 124.281 295.859C124.353 295.589 124.428 295.321 124.507 295.053C124.585 294.785 124.667 294.518 124.752 294.253C124.837 293.987 124.925 293.722 125.016 293.459C125.107 293.195 125.202 292.933 125.299 292.671C125.397 292.41 125.498 292.15 125.602 291.891C125.706 291.632 125.814 291.375 125.924 291.119C126.034 290.862 126.148 290.607 126.264 290.354C126.381 290.1 126.501 289.849 126.623 289.598C126.746 289.347 126.872 289.098 127.001 288.851C127.129 288.603 127.261 288.357 127.396 288.113C127.531 287.869 127.669 287.626 127.809 287.385C127.95 287.145 128.093 286.905 128.24 286.668C128.387 286.431 128.536 286.195 128.688 285.961C128.841 285.727 128.996 285.496 129.154 285.266C129.312 285.036 129.472 284.808 129.636 284.582C129.799 284.356 129.965 284.131 130.134 283.909C130.303 283.687 130.475 283.468 130.649 283.25C130.824 283.032 131 282.816 131.18 282.603C131.36 282.389 131.542 282.178 131.726 281.969C137.976 274.997 146.435 271.564 155.65 271.035Z" fill="#FEE5A3"/>
<path d="M288.506 161.745C291.958 162.201 295.401 162.714 298.836 163.283C298.485 165.628 297.907 167.98 297.438 170.306C296.467 175.272 295.44 180.226 294.357 185.169C292.574 193.544 291 201.969 289.276 210.358L271.627 295.701C252.018 292.699 232.304 290.112 212.64 287.49C205.676 286.562 198.676 285.811 191.727 284.778C189.123 280.033 185.787 276.129 181.602 272.71C175.728 268.013 169.397 265.582 162.062 264.235C163.059 257.296 164.045 250.29 165.257 243.387C169.267 243.828 173.244 244.469 177.24 245.021L203.107 248.594C215.117 250.188 227.118 251.843 239.112 253.559C248.911 254.868 258.784 255.991 268.553 257.492C269.593 253.466 270.324 249.316 271.16 245.243L275.057 226.571L288.506 161.745Z" fill="#FFFEFE"/>
<path d="M73.0577 235.724L130.064 235.845C138.297 235.871 146.544 235.827 154.774 236.006L150.074 264.467C147.865 264.926 145.693 265.519 143.558 266.247C141.132 267.168 138.768 268.227 136.467 269.425L135.097 270.208C132.756 271.983 130.411 273.729 128.293 275.771C126.943 277.2 125.677 278.699 124.494 280.268C123.311 281.837 122.219 283.467 121.218 285.158C119.383 288.782 118.225 292.285 117.157 296.193C116.94 297.646 116.693 299.102 116.538 300.562C116.086 304.636 116.135 308.563 116.945 312.597C117.834 316.822 119.615 321.393 121.799 325.106C118.757 325.171 115.712 325.018 112.67 324.978L84.3692 324.336L69.6468 324.137C66.9752 324.098 64.2299 324.164 61.5724 323.876C60.722 323.784 59.8654 323.516 59.2488 322.89C57.9616 321.585 59.7338 315.408 60.0138 313.65C60.2284 312.302 60.3545 310.965 60.4282 309.603C60.7758 309.138 60.7885 308.938 60.8005 308.383C60.6342 306.937 61.6324 303.551 61.8377 301.877C62.7067 300.995 62.7108 297.516 62.9157 296.189C63.1235 295.054 63.3576 293.922 63.4436 292.771L63.6143 291.956C63.857 289.823 64.3441 287.702 64.7746 285.6C64.8925 285.265 64.9378 284.86 65.0118 284.51C65.2075 282.369 65.6442 280.147 66.0813 278.04L66.2687 277.041C66.2657 275.907 66.5125 274.782 66.7582 273.682C66.9574 273.151 67.0259 272.563 67.1247 272.005C67.3187 269.764 67.7488 267.511 68.1533 265.299C68.2891 264.931 68.3213 264.617 68.3583 264.231C68.4721 263.038 68.7717 261.84 69.0082 260.665L69.1779 260.086C69.2543 259.301 69.4055 258.515 69.5258 257.735C70.1572 254.749 70.4204 251.645 70.9332 248.63L72.4027 240.164C72.6467 238.751 73.091 237.156 73.0577 235.724Z" fill="#76D3E7"/>
<path d="M128.293 275.771C128.114 275.45 127.976 275.13 127.861 274.779C127.049 272.298 127.566 268.338 128.791 266.059C129.841 264.107 131.644 262.744 133.771 262.161C136.028 261.542 139.09 261.608 141.117 262.829C142.463 263.64 143.183 264.745 143.558 266.247C141.132 267.167 138.768 268.227 136.467 269.425L135.097 270.208C132.756 271.983 130.411 273.729 128.293 275.771Z" fill="#FFFEFE"/>
<path d="M135.097 270.208C134.191 269.958 133.161 270.02 132.224 269.894L132.047 269.58L132.206 269.266C133.293 268.824 135.359 269.049 136.467 269.425L135.097 270.208Z" fill="#2667E1"/>
<path d="M116.945 312.597C116.001 313.676 115.091 314.507 113.715 315.001C111.578 315.768 107.946 315.783 105.916 314.711C104.716 314.076 103.876 313 103.505 311.699C102.833 309.342 103.286 305.525 104.482 303.387C105.475 301.614 107.139 300.413 109.09 299.889C111.346 299.282 114.477 299.423 116.538 300.562C116.086 304.636 116.135 308.563 116.945 312.597Z" fill="#FFFEFE"/>
<path d="M107.755 306.948C109.119 306.913 113.544 306.579 114.581 307.192L114.605 307.677C113.557 307.889 108.83 308.094 107.992 307.643C107.753 307.514 107.796 307.193 107.755 306.948Z" fill="#2667E1"/>
<path d="M117.157 296.193C116.892 296.346 116.624 296.495 116.343 296.616C114.355 297.467 111.277 297.225 109.275 296.444C108.024 295.957 106.996 295.1 106.476 293.843C105.582 291.686 105.938 287.531 106.902 285.416C107.742 283.573 109.308 282.192 111.2 281.496C113.145 280.781 116.244 280.466 118.156 281.372C119.737 282.12 120.628 283.573 121.218 285.158C119.383 288.782 118.225 292.285 117.157 296.193Z" fill="#FFFEFE"/>
<path d="M116.748 288.185C117.17 288.217 117.228 288.171 117.585 288.431L117.535 288.715C116.503 289.263 112.424 288.951 111.016 288.947C110.731 288.946 110.852 288.962 110.556 288.891C110.251 288.817 110.297 288.764 110.142 288.512C110.87 287.953 115.548 288.191 116.748 288.185Z" fill="#073498"/>
<path d="M95.8953 280.457C97.4793 280.347 99.165 280.537 100.468 281.514C101.558 282.332 102.127 283.585 102.279 284.915C102.598 287.698 102.036 291.614 100.238 293.834C98.6937 295.74 96.5219 296.432 94.1828 296.692C92.4241 296.641 90.5772 296.499 89.1029 295.424C87.992 294.615 87.4203 293.393 87.2639 292.049C86.9448 289.306 87.6736 285.371 89.4796 283.22C91.1373 281.246 93.4623 280.704 95.8953 280.457Z" fill="#FFFEFE"/>
<path d="M91.2991 288.161C92.434 287.911 97.5393 287.839 98.6022 288.186C98.8994 288.282 98.9073 288.549 99.0214 288.816C97.3662 289.066 93.4435 289.242 91.867 288.768C91.4718 288.649 91.4951 288.501 91.2991 288.161Z" fill="#2667E1"/>
<path d="M101.847 242.576C103.47 242.501 105.357 242.631 106.743 243.546C107.761 244.218 108.33 245.285 108.536 246.467C109.019 249.248 108.292 253.653 106.578 255.948C105.16 257.847 103.217 258.606 100.962 258.972C99.0756 258.987 97.0498 258.952 95.4535 257.799C94.4331 257.062 93.8473 255.972 93.6769 254.736C93.3362 252.264 94.2445 247.128 95.8477 245.195C97.3559 243.377 99.612 242.826 101.847 242.576Z" fill="#FFFEFE"/>
<path d="M100.755 250.073C101.775 250.028 103.712 249.742 104.558 250.421C103.845 251.013 102.105 250.794 101.212 250.771C100.317 250.817 98.569 251.059 97.8234 250.518L98.0565 250.27C98.9402 249.93 99.8266 250.035 100.755 250.073Z" fill="#073498"/>
<path d="M138.247 242.906C140.096 242.811 141.997 242.769 143.592 243.877C144.72 244.66 145.332 245.843 145.535 247.181C145.967 250.017 145.416 254.201 143.613 256.483C142.3 258.145 140.633 258.914 138.567 259.171C136.641 259.278 134.542 259.258 132.895 258.112C131.636 257.234 130.954 255.948 130.722 254.448C130.323 251.852 130.907 247.82 132.517 245.704C133.942 243.83 136.038 243.253 138.247 242.906Z" fill="#FFFEFE"/>
<path d="M141.052 250.238C141.565 250.267 141.753 250.237 142.188 250.528C142.159 250.879 142.241 250.798 142.018 250.972C141.806 251.136 141.629 251.194 141.378 251.273C139.749 250.85 135.953 251.682 134.745 250.718L134.829 250.413C135.477 250.016 139.995 250.251 141.052 250.238Z" fill="#2667E1"/>
<path d="M78.8749 261.24C80.67 261.135 82.656 261.031 84.3322 261.784C85.5151 262.315 86.4138 263.282 86.8166 264.519C87.6105 266.96 86.8615 271.654 85.6351 273.873C84.506 275.916 82.5669 276.82 80.4235 277.43C78.5253 277.817 76.1255 277.63 74.4463 276.622C73.2705 275.916 72.4839 274.809 72.1798 273.476C71.5892 270.884 72.3529 266.341 73.8481 264.145C75.0776 262.34 76.8217 261.645 78.8749 261.24Z" fill="#FFFEFE"/>
<path d="M76.1786 268.925C77.5782 268.827 82.2416 268.5 83.2117 269.112L83.2357 269.621C81.9599 269.628 77.0291 269.917 76.2088 269.364L76.1786 268.925Z" fill="#2667E1"/>
<path d="M98.4857 261.26C100.284 261.271 102.186 261.444 103.676 262.563C104.78 263.392 105.316 264.607 105.445 265.958C105.711 268.732 105.079 273.211 103.203 275.35C101.828 276.918 99.948 277.546 97.9211 277.682C96.0129 277.765 94.0817 277.779 92.4775 276.57C91.3834 275.745 90.7123 274.524 90.5265 273.173C90.1954 270.76 91.1496 265.539 92.6664 263.653C94.0814 261.895 96.3691 261.472 98.4857 261.26Z" fill="#FFFEFE"/>
<path d="M94.6613 268.788C96.3652 268.904 100.141 268.477 101.502 268.929C101.83 269.038 101.792 269.131 101.942 269.422C101.804 269.457 101.569 269.523 101.416 269.547C100.61 269.674 95.0377 269.76 94.6168 269.431L94.6613 268.788Z" fill="#2667E1"/>
<path d="M72.016 299.107C74.0922 298.923 76.5619 298.796 78.4557 299.799C79.5368 300.372 80.3118 301.312 80.6498 302.489C81.3686 304.995 80.5562 309.894 79.1813 312.119C78.1037 313.863 76.5869 314.503 74.691 314.983C72.5329 315.149 69.8507 315.247 67.914 314.129C66.8878 313.536 66.2153 312.581 65.9482 311.432C65.4437 309.261 66.1494 303.392 67.3728 301.534C68.4179 299.945 70.2658 299.463 72.016 299.107Z" fill="#FFFEFE"/>
<path d="M69.4699 306.625C70.7039 306.554 76.4549 306.33 77.2289 306.841L77.2546 307.341C75.7406 307.497 70.8945 307.814 69.753 307.278C69.5032 307.16 69.5296 306.871 69.4699 306.625Z" fill="#2667E1"/>
<path d="M83.2072 242.223C84.784 242.12 86.4934 242.287 87.8837 243.095C89.0512 243.774 89.8982 244.854 90.2166 246.173C90.8583 248.833 89.9249 253.109 88.441 255.38C87.0624 257.49 85.2183 258.3 82.8514 258.798C80.9785 258.843 79.0384 258.853 77.3938 257.807C76.2578 257.086 75.5469 255.977 75.3193 254.654C74.8987 252.209 75.7032 247.247 77.1604 245.245C78.6004 243.268 80.9072 242.577 83.2072 242.223Z" fill="#FFFEFE"/>
<path d="M116.647 261.581C118.398 261.357 120.293 261.603 121.793 262.575C123.043 263.384 123.856 264.593 124.116 266.059C124.599 268.776 123.847 272.688 122.23 274.947C120.859 276.862 119.023 277.672 116.782 278.079C115.073 278.237 113.117 278.008 111.628 277.128C111.47 277.035 111.316 276.935 111.168 276.828C111.02 276.72 110.878 276.604 110.742 276.481C110.606 276.358 110.477 276.229 110.355 276.093C110.232 275.956 110.117 275.814 110.009 275.666C109.902 275.517 109.802 275.364 109.711 275.205C109.619 275.046 109.536 274.883 109.462 274.715C109.387 274.548 109.322 274.377 109.265 274.203C109.208 274.029 109.161 273.852 109.123 273.673C108.559 271.104 109.298 267.1 110.781 264.92C112.196 262.838 114.27 262.005 116.647 261.581Z" fill="#FFFEFE"/>
<path d="M113.159 268.956C114.344 268.882 119.702 268.69 120.433 269.199L120.442 269.679C119.037 269.709 114.341 270.111 113.385 269.546C113.157 269.412 113.201 269.193 113.159 268.956Z" fill="#073498"/>
<path d="M99.3388 307.009C98.9693 308.917 98.7009 310.76 97.6736 312.463C96.8352 313.852 95.6509 314.645 94.0848 315.032C91.8458 315.586 88.514 315.607 86.5208 314.363C85.3225 313.615 84.6493 312.52 84.3918 311.143C83.8804 308.406 84.484 304.357 86.1653 302.097C87.3767 300.468 89.1454 299.608 91.1222 299.311C93.7259 298.919 96.2552 299.197 98.4044 300.793C99.771 302.835 99.4845 304.695 99.3388 307.009Z" fill="#FFFEFE"/>
<path d="M88.7639 306.656C90.1834 306.675 94.6785 306.342 95.5817 307.055L95.461 307.62C93.2745 307.76 90.9076 307.756 88.7214 307.595C88.6056 307.283 88.7135 306.982 88.7639 306.656Z" fill="#2667E1"/>
<path d="M119.202 242.722C121.272 242.554 123.507 242.565 125.223 243.91C126.3 244.753 126.861 246.008 127 247.347C127.308 250.314 126.65 254.201 124.725 256.563C123.45 258.127 121.822 258.907 119.843 259.148C118 259.329 116.039 259.332 114.388 258.382C114.223 258.288 114.063 258.186 113.908 258.076C113.753 257.966 113.604 257.848 113.461 257.723C113.318 257.598 113.182 257.466 113.052 257.328C112.922 257.189 112.799 257.045 112.683 256.894C112.567 256.743 112.46 256.587 112.359 256.426C112.259 256.265 112.167 256.099 112.084 255.928C112 255.758 111.925 255.583 111.859 255.406C111.792 255.228 111.735 255.047 111.687 254.863C111.036 252.352 111.753 248.574 113.154 246.413C114.593 244.191 116.694 243.216 119.202 242.722Z" fill="#FFFEFE"/>
<path d="M115.718 250.289C117.133 250.046 121.893 249.888 123.129 250.376L123.257 250.851C121.36 250.997 118.3 251.311 116.465 250.925C115.97 250.82 115.972 250.7 115.718 250.289Z" fill="#2667E1"/>
<path d="M76.2047 280.282C78.1712 280.154 80.4572 280.043 82.1937 281.123C83.235 281.771 83.8654 282.775 84.1351 283.96C84.7206 286.529 84.0666 290.926 82.6067 293.165C81.3549 295.084 79.4354 295.986 77.2721 296.452C77.1202 296.477 76.9678 296.499 76.8152 296.52C74.7332 296.796 72.2992 296.66 70.6 295.3C69.5035 294.423 68.869 293.151 68.7192 291.765C68.4248 289.038 69.3366 284.587 71.107 282.454C72.3907 280.907 74.3068 280.495 76.2047 280.282Z" fill="#FFFEFE"/>
<path d="M72.6166 287.97C74.0761 287.778 79.0124 287.558 80.2813 288.104L80.4527 288.565C78.7546 288.666 74.5628 288.95 73.033 288.496C72.7441 288.41 72.7424 288.221 72.6166 287.97Z" fill="#073498"/>
<path d="M141.344 76.8415C141.782 76.8058 142.233 76.6996 142.624 76.9433C142.914 77.8115 141.844 80.6161 141.587 81.6701C140.064 87.9285 139.638 93.7971 140.768 100.174C141.042 101.717 141.938 105.966 143.258 106.878L143.557 106.787C145.842 104.366 149.448 82.3574 150.461 77.8283C153.008 77.949 155.562 78.4107 158.085 78.7764C162.397 79.3895 166.704 80.0331 171.008 80.7073C176.668 81.5567 182.416 81.9947 188.043 83.0481C187.345 85.7306 186.728 88.4319 186.194 91.1519C185.048 96.9941 185.208 102.76 186.616 108.543C186.943 109.883 187.263 111.385 188.042 112.544C188.44 112.777 188.472 112.768 188.934 112.725C191.295 111.184 194.543 87.9603 195.495 83.785C198.831 84.498 202.346 84.8051 205.723 85.3279L233.56 89.4658C232.787 93.6583 231.714 97.7842 231.276 102.036C231.091 103.736 231.049 105.439 231.149 107.146C231.273 109.289 232.334 117.403 233.839 118.774C234.175 119.081 234.371 119.004 234.771 118.936C237.529 116.706 240.041 94.9522 241.017 90.2693C246 91.2256 251.088 91.7908 256.117 92.4736C261.103 93.1506 266.068 93.9424 271.048 94.6619C273.844 95.066 276.672 95.3605 279.446 95.8952C278.82 98.1404 278.49 100.521 278.088 102.818C276.844 109.92 275.951 116.603 278.354 123.626C278.638 124.456 279.103 125.838 279.979 126.193C280.244 126.3 280.351 126.191 280.599 126.099C282.549 123.967 284.306 111.956 284.896 108.58C285.544 104.663 286.01 100.702 286.794 96.8108C289.459 97.2656 292.158 97.5374 294.812 98.066C299.362 98.9726 302.97 101.355 305.544 105.236C305.757 105.553 305.957 105.877 306.145 106.209C306.333 106.54 306.509 106.878 306.672 107.223C306.834 107.568 306.984 107.918 307.121 108.274C307.258 108.63 307.382 108.99 307.492 109.355C307.602 109.72 307.698 110.088 307.781 110.461C307.864 110.833 307.933 111.207 307.988 111.585C308.043 111.962 308.083 112.341 308.11 112.721C308.137 113.101 308.149 113.482 308.148 113.863C308.159 117.514 306.533 123.154 305.815 126.989L298.984 162.523C291.49 161.085 283.797 160.303 276.245 159.169C254.041 155.878 231.805 152.818 209.538 149.987L141.199 140.823C132.363 139.701 123.51 138.333 114.644 137.487C117.46 125.735 119.896 113.871 122.601 102.09C123.63 97.6108 124.281 92.7794 125.75 88.4395C126.383 86.5707 127.273 84.9707 128.51 83.4368C131.705 79.474 136.353 77.4019 141.344 76.8415Z" fill="#7FBEE0"/>
<g clip-path="url(#clip0_10762_2405)">
<path d="M171.703 304.769H169.74V289.569C169.74 289.203 169.452 288.915 169.085 288.915C168.719 288.915 168.431 289.203 168.431 289.569V304.769H157.434L147.929 290.158C147.353 289.242 146.306 288.849 145.259 289.164C144.225 289.465 143.557 290.368 143.557 291.441V304.769H141.593C141.227 304.769 140.939 305.057 140.939 305.423C140.939 305.79 141.227 306.078 141.593 306.078H143.557V319.968C143.557 320.334 143.845 320.622 144.211 320.622C144.578 320.622 144.866 320.334 144.866 319.968V306.078H156.714L165.354 319.379C165.943 320.282 166.991 320.675 168.025 320.374C169.059 320.072 169.727 319.169 169.727 318.096V306.078H171.69C172.057 306.078 172.345 305.79 172.345 305.423C172.345 305.057 172.057 304.769 171.69 304.769H171.703ZM144.866 304.769V291.441C144.866 290.852 145.259 290.525 145.638 290.42C146.005 290.316 146.516 290.368 146.843 290.865L155.876 304.769H144.866ZM168.431 318.096C168.431 318.685 168.038 319.012 167.658 319.117C167.292 319.221 166.781 319.169 166.454 318.672L158.272 306.078H168.418V318.096H168.431Z" fill="#03100D"/>
</g>
<defs>
<clipPath id="clip0_10762_2405">
<rect width="31.4194" height="31.4194" fill="white" transform="translate(140.939 289.059)"/>
</clipPath>
</defs>
</svg>
