<svg width="84" height="80" viewBox="0 0 84 80" fill="none" xmlns="http://www.w3.org/2000/svg">
<path d="M5.8201 62.0802C0.554104 50.1912 -1.5939 38.7222 3.2161 26.1702C3.45743 25.5462 3.71375 24.9286 3.98508 24.3172C4.25642 23.7059 4.54276 23.1016 4.84409 22.5043C5.14476 21.9069 5.46007 21.3172 5.79007 20.7352C6.12007 20.1532 6.46443 19.5799 6.82309 19.0152C7.18109 18.4499 7.55275 17.8939 7.93808 17.3472C8.32342 16.8006 8.72176 16.2636 9.13309 15.7363C9.54509 15.2096 9.96975 14.6929 10.4071 14.1862C10.8437 13.6796 11.2927 13.1842 11.7541 12.7002C12.2154 12.2156 12.6884 11.7426 13.1731 11.2812C13.6577 10.8206 14.1531 10.3716 14.6591 9.93425C15.1658 9.49759 15.6827 9.07324 16.2101 8.66124C16.7374 8.24991 17.2744 7.85157 17.8211 7.46624C18.3684 7.0809 18.9244 6.70924 19.489 6.35124C20.0544 5.99324 20.6281 5.64957 21.2101 5.32024C21.7921 4.99024 22.3818 4.67458 22.9791 4.37325C23.5764 4.07258 24.1808 3.78658 24.7921 3.51525C34.4091 -0.749754 47.6931 -1.23674 57.5121 2.62026C58.1341 2.86159 58.7498 3.1176 59.3591 3.38826C59.9684 3.6596 60.5707 3.94557 61.166 4.24623C61.7614 4.5469 62.3491 4.86191 62.9291 5.19124C63.5097 5.52057 64.0814 5.86391 64.6441 6.22124C65.2074 6.57857 65.7618 6.94958 66.3071 7.33425C66.8518 7.71891 67.3871 8.11657 67.9131 8.52724C68.4384 8.93791 68.9534 9.36126 69.4581 9.79726C69.9634 10.2333 70.4574 10.6813 70.9401 11.1413C71.4234 11.6013 71.8948 12.0729 72.3541 12.5563C72.8141 13.0389 73.2621 13.5329 73.6981 14.0383C74.1334 14.5436 74.5564 15.0589 74.9671 15.5842C75.3777 16.1102 75.7751 16.6459 76.1591 17.1912C76.5438 17.7366 76.9144 18.2909 77.2711 18.8542C77.6284 19.4176 77.9717 19.9893 78.3011 20.5693C78.6304 21.1493 78.9451 21.7369 79.2451 22.3322C79.5458 22.9282 79.8314 23.5309 80.1021 24.1402C80.3608 24.7469 80.6041 25.3596 80.8321 25.9783C81.0601 26.5969 81.2727 27.2206 81.4701 27.8493C81.6667 28.4786 81.8478 29.1126 82.0131 29.7512C82.1784 30.3892 82.3281 31.0309 82.4621 31.6763C82.5947 32.3223 82.7118 32.9709 82.8131 33.6222C82.9138 34.2742 82.9984 34.9279 83.0671 35.5832C83.1357 36.2392 83.1877 36.8962 83.2231 37.5542C83.2584 38.2129 83.2778 38.8719 83.2811 39.5312C83.2838 40.1906 83.2697 40.8496 83.2391 41.5083C83.2091 42.1669 83.1627 42.8242 83.1001 43.4802C83.0367 44.1369 82.9574 44.7913 82.8621 45.4433C82.7668 46.0959 82.6551 46.7456 82.5271 47.3923C82.3991 48.0389 82.2551 48.6823 82.0951 49.3223C81.9351 49.9616 81.7591 50.5966 81.5671 51.2273C81.3751 51.8586 81.1678 52.4842 80.9451 53.1042C80.7218 53.7249 80.4834 54.3396 80.2301 54.9483C76.3151 64.5353 69.0501 72.6232 59.3981 76.6732C47.5441 81.6472 36.8071 79.6362 25.0901 75.4792C26.1781 70.2706 27.1747 65.0443 28.0801 59.8003C20.6571 60.3653 13.2351 61.3632 5.8201 62.0802Z" fill="#FEAD44"/>
</svg>
