<svg width="30" height="30" viewBox="0 0 30 30" fill="none" xmlns="http://www.w3.org/2000/svg">
<g id="bank-note-02">
<path id="Icon" d="M7.5 12.5V17.5M22.5 12.5V17.5M2.5 10.25L2.5 19.75C2.5 21.1501 2.5 21.8502 2.77248 22.385C3.01217 22.8554 3.39462 23.2378 3.86502 23.4775C4.3998 23.75 5.09987 23.75 6.5 23.75L23.5 23.75C24.9001 23.75 25.6002 23.75 26.135 23.4775C26.6054 23.2378 26.9878 22.8554 27.2275 22.385C27.5 21.8502 27.5 21.1501 27.5 19.75V10.25C27.5 8.84987 27.5 8.1498 27.2275 7.61503C26.9878 7.14462 26.6054 6.76217 26.135 6.52249C25.6002 6.25 24.9001 6.25 23.5 6.25L6.5 6.25C5.09987 6.25 4.3998 6.25 3.86502 6.52248C3.39462 6.76217 3.01217 7.14462 2.77248 7.61502C2.5 8.1498 2.5 8.84987 2.5 10.25ZM18.125 15C18.125 16.7259 16.7259 18.125 15 18.125C13.2741 18.125 11.875 16.7259 11.875 15C11.875 13.2741 13.2741 11.875 15 11.875C16.7259 11.875 18.125 13.2741 18.125 15Z" stroke="#03100D" stroke-width="2" stroke-linecap="round" stroke-linejoin="round"/>
</g>
</svg>
