<svg width="15" height="13" viewBox="0 0 15 13" fill="none" xmlns="http://www.w3.org/2000/svg">
<path d="M11.875 0.25H3.125C1.40188 0.25 0 1.65188 0 3.375V12.125C0 12.4706 0.28 12.75 0.625 12.75C0.97 12.75 1.25 12.4706 1.25 12.125V10.875H13.75V12.125C13.75 12.4706 14.0294 12.75 14.375 12.75C14.7206 12.75 15 12.4706 15 12.125V3.375C15 1.65188 13.5981 0.25 11.875 0.25ZM3.125 1.5H11.875C12.9087 1.5 13.75 2.34125 13.75 3.375V7.125H12.5C12.5 5.74625 11.3787 4.625 10 4.625H9.375C8.62875 4.625 7.95875 4.95375 7.5 5.47313C7.04125 4.95313 6.37125 4.625 5.625 4.625H5C3.62125 4.625 2.5 5.74625 2.5 7.125H1.25V3.375C1.25 2.34125 2.09125 1.5 3.125 1.5ZM8.125 7.125C8.125 6.43563 8.68563 5.875 9.375 5.875H10C10.6894 5.875 11.25 6.43563 11.25 7.125H8.125ZM3.75 7.125C3.75 6.43563 4.31063 5.875 5 5.875H5.625C6.31437 5.875 6.875 6.43563 6.875 7.125H3.75ZM1.25 9.625V8.375H13.75V9.625H1.25Z" fill="#03100D"/>
</svg>
