<svg width="30" height="30" viewBox="0 0 30 30" fill="none" xmlns="http://www.w3.org/2000/svg">
<g id="face-id">
<path id="Icon" d="M10 3.75H9.75C7.6498 3.75 6.5997 3.75 5.79754 4.15873C5.09193 4.51825 4.51825 5.09193 4.15873 5.79754C3.75 6.5997 3.75 7.6498 3.75 9.75V10M10 26.25H9.75C7.6498 26.25 6.5997 26.25 5.79754 25.8413C5.09193 25.4817 4.51825 24.9081 4.15873 24.2025C3.75 23.4003 3.75 22.3502 3.75 20.25V20M26.25 10V9.75C26.25 7.6498 26.25 6.5997 25.8413 5.79754C25.4817 5.09193 24.9081 4.51825 24.2025 4.15873C23.4003 3.75 22.3502 3.75 20.25 3.75H20M26.25 20V20.25C26.25 22.3502 26.25 23.4003 25.8413 24.2025C25.4817 24.9081 24.9081 25.4817 24.2025 25.8413C23.4003 26.25 22.3502 26.25 20.25 26.25H20M9.375 10V11.875M20.625 10V11.875M13.75 15.7501C14.75 15.7501 15.625 14.8751 15.625 13.8751V10M19.0002 18.9999C16.7502 21.2499 13.1252 21.2499 10.8752 18.9999" stroke="#03100D" stroke-width="2" stroke-linecap="round" stroke-linejoin="round"/>
</g>
</svg>
