<svg width="559" height="496" viewBox="0 0 559 496" fill="none" xmlns="http://www.w3.org/2000/svg">
<g clip-path="url(#clip0_10962_3399)">
<path d="M516.022 460.218C519.476 459.987 523.059 460.15 526.527 460.146L546.336 460.138C549.362 460.138 552.844 460.504 555.825 460.145C556.401 460.075 556.784 459.785 557.231 459.452L557.281 459.049C556.563 458.696 555.805 458.643 555.019 458.609C550.576 458.422 546.021 458.654 541.565 458.655L513.407 458.719C513.677 459.505 513.631 459.795 514.371 460.22L516.022 460.218Z" fill="black"/>
<path d="M429.917 81.7587C439.726 80.574 451.178 83.0851 459.371 88.4264C467.38 93.6481 471.981 100.859 473.852 109.907C464.071 109.953 454.291 109.945 444.51 109.883C429.368 109.471 414.151 109.749 399 109.738C399.862 103.803 401.553 98.5807 405.48 93.8207C411.508 86.5158 420.465 82.7593 429.917 81.7587Z" fill="#FEAD44"/>
<path d="M87.3664 484.726C126.711 484.496 167.51 484.658 207.009 484.655L432.628 484.646C467.096 484.646 506.743 485.012 540.701 484.653C547.259 484.584 551.619 484.294 556.712 483.961L557.281 483.557C549.109 483.204 540.47 483.151 531.517 483.118C480.917 482.931 429.037 483.162 378.284 483.164L57.5793 483.227C60.6598 484.014 60.1335 484.304 68.5642 484.728L87.3664 484.726Z" fill="black"/>
<path d="M369.508 376.928C365.604 376.733 361.871 378.291 358.985 380.872C355.519 383.971 353.221 388.867 353.095 393.53C353.068 394.514 353.23 395.07 353.919 395.775C357.494 396.375 364.459 395.921 368.459 395.93C373.558 395.916 378.984 396.366 384.041 395.866C384.468 395.434 384.533 395.118 384.581 394.526C384.909 390.472 383.491 386.284 380.984 383.124C377.977 379.332 374.248 377.509 369.508 376.928Z" fill="black"/>
<path d="M357.774 384.982C357.561 385.056 357.5 385.06 357.301 385.226C355.168 387.007 354.837 391.86 354.812 394.444C357.739 394.622 360.74 394.505 363.676 394.509L367.263 394.511C364.016 391.415 360.937 388.163 357.774 384.982Z" fill="#FDBE50"/>
<path d="M380.376 384.682C377.058 386.698 373.246 391.49 370.499 394.416L373.164 394.46L383.069 394.492C382.98 390.709 382.265 387.962 380.376 384.682Z" fill="#FDBE50"/>
<path d="M367.996 378.499C364 378.817 361.125 380.696 358.426 383.484C360.019 385.011 361.549 386.617 363.107 388.181L368.006 393.029C367.943 388.187 367.992 383.341 367.996 378.499Z" fill="#FDBE50"/>
<path d="M369.875 378.621L369.65 378.741C369.034 380.096 369.504 391.04 369.518 393.294L374.176 388.374C375.836 386.629 377.625 385.004 379.38 383.355C376.607 380.411 373.879 379.066 369.875 378.621Z" fill="#FDBE50"/>
<path d="M264.65 358.74C257.583 358.739 250.257 358.35 243.227 358.926C242.773 363.691 243.051 368.736 243.025 373.534C243.003 377.647 242.533 383.654 243.224 387.469C250.379 387.711 257.65 387.55 264.809 387.475C265.1 383.691 265.356 361.462 264.65 358.74Z" fill="black"/>
<path d="M263.307 360.37L254.986 360.341L255.032 386.048L263.325 386.045C263.479 377.498 263.318 368.921 263.307 360.37Z" fill="#FDBE50"/>
<path d="M253.168 360.311L244.569 360.326L244.534 385.995C247.41 386.014 250.286 385.999 253.162 385.952C253.458 377.448 253.168 368.827 253.168 360.311Z" fill="#FDBE50"/>
<path d="M237.103 421C228.616 421.142 219.918 420.608 211.466 421.209C211.114 429.829 211.337 438.574 211.284 447.206C211.232 455.556 210.872 464.141 211.383 472.469C219.937 472.739 228.585 472.563 237.144 472.474C237.285 463.201 237.153 453.903 237.156 444.627C237.158 436.764 237.328 428.858 237.103 421Z" fill="black"/>
<path d="M223.105 422.552C219.751 422.519 216.406 422.495 213.054 422.608C212.924 430.463 212.993 438.328 212.978 446.184C216.333 446.323 219.745 446.181 223.107 446.163C223.253 438.3 223.131 430.417 223.105 422.552Z" fill="#FEFEFE"/>
<path d="M223.101 447.578C219.698 447.561 216.295 447.575 212.891 447.62C212.503 455.366 212.784 463.252 212.803 471.014C216.195 471.311 219.704 471.138 223.107 471.118C223.256 463.281 223.137 455.417 223.101 447.578Z" fill="#FEFEFE"/>
<path d="M235.684 422.478C232.026 422.38 228.33 422.362 224.673 422.516C224.342 430.317 224.67 438.27 224.698 446.088L235.697 446.074C235.864 438.235 235.835 430.318 235.684 422.478Z" fill="#FEFEFE"/>
<path d="M235.684 447.583L224.648 447.584C224.571 455.415 224.542 463.245 224.559 471.076C228.284 471.102 232.009 471.098 235.734 471.064L235.684 447.583Z" fill="#FEFEFE"/>
<path d="M371.294 420.982C362.621 421.205 353.838 420.607 345.188 421.144L345.16 472.192C353.83 472.687 362.707 472.297 371.404 472.278C371.617 468.621 371.509 464.919 371.518 461.254L371.5 439.804L371.508 427.938C371.51 425.693 371.734 423.182 371.294 420.982Z" fill="black"/>
<path d="M369.948 447.812L359.21 447.814L359.226 470.702L369.977 470.71C370.054 463.077 370.044 455.444 369.948 447.812Z" fill="#FEFEFE"/>
<path d="M357.585 447.749C353.976 447.681 350.367 447.675 346.758 447.732C346.737 455.268 346.261 463.147 346.865 470.639C350.441 470.724 354.027 470.669 357.604 470.661L357.585 447.749Z" fill="#FEFEFE"/>
<path d="M369.879 422.452C366.338 422.365 362.798 422.395 359.26 422.542C359.243 425.899 358.763 445.11 359.507 446.322L369.952 446.3C370.004 438.368 370.175 430.376 369.879 422.452Z" fill="#FEFEFE"/>
<path d="M357.28 422.491C353.779 422.452 350.28 422.39 346.78 422.539C346.784 425.558 346.374 445.007 347.135 446.169C350.646 446.217 354.162 446.181 357.673 446.185L357.71 431.011C357.711 428.362 357.878 425.595 357.62 422.966C357.586 422.621 357.644 422.793 357.28 422.491Z" fill="#FEFEFE"/>
<path d="M295.98 420.644C286.601 420.584 277.166 420.389 267.793 420.653C267.524 432.565 267.687 444.519 267.695 456.434C267.701 465.271 267.441 474.203 267.835 483.028C277.199 482.759 286.614 482.976 295.983 483.023L295.987 451.102C296.041 440.949 296.039 430.797 295.98 420.644Z" fill="#212021"/>
<path d="M493.871 416.127C491.04 421.322 488.997 426.902 486.088 432.058L459.58 432.035C456.054 432.038 451.322 431.588 447.949 432.233C451.525 432.288 485.37 432.212 485.388 432.198L485.824 432.522L485.811 433.16C485.548 433.352 485.386 433.482 485.069 433.576C484.31 436.563 482.611 439.632 481.345 442.454C478.907 447.891 476.499 453.367 473.892 458.726C473.75 459.419 473.691 460.174 473.082 460.63C471.827 464.003 470.131 467.236 468.576 470.479C466.572 474.682 464.604 478.902 462.675 483.14L484.046 483.148C486.824 483.146 491.342 483.579 493.944 482.915L494.111 482.923C497.332 483.333 500.89 483.042 504.141 483.05L524.155 483.172C522.14 477.764 519.6 472.387 517.207 467.132C516.231 464.989 515.098 462.892 514.273 460.687C514.8 460.308 515.392 460.311 516.022 460.218L514.371 460.22C513.631 459.795 513.677 459.505 513.406 458.719C512.112 456.894 511.28 454.207 510.334 452.155C507.511 446.03 504.874 439.696 501.754 433.724C501.475 433.509 501.391 433.283 501.228 432.977L501.345 432.593C504.025 431.405 540.465 432.993 547.425 432.172C539.173 431.839 530.806 432.101 522.541 432.101C515.443 432.102 508.226 431.8 501.145 432.141C498.537 426.863 496.149 421.556 493.871 416.127Z" fill="#9498FB"/>
<path d="M494.845 478.656C494.86 474.847 495.36 450.367 494.557 449.239C494.038 449.011 494.081 448.991 493.556 449.194C492.848 451.655 493.318 457.026 493.33 459.81C493.381 466.388 493.395 472.966 493.371 479.545L493.09 479.32C490.713 477.399 480.236 465.841 478.107 465.841L477.903 466.223C478.46 467.543 480.024 468.717 481.036 469.722C483.366 472.035 493.261 480.926 493.944 482.915L494.111 482.923C494.127 482.844 494.141 482.764 494.158 482.685C495.063 478.491 508.183 468.578 508.451 466.463C508.474 466.279 508.31 466.121 508.239 465.951L507.758 465.686C506.141 466.263 496.472 476.787 494.845 478.656Z" fill="black"/>
<path d="M181.495 289.147C180.089 290.727 178.786 292.265 177.086 293.543C172.352 293.649 167.575 293.832 162.843 293.752C161.152 293.723 160.317 293.693 159.106 292.443L158.109 292.787L158.347 293.422C158.026 293.812 158.008 293.777 157.523 293.813C156.913 293.858 156.274 293.756 155.666 293.693L155.744 293.961C156.289 294.007 156.812 294.033 157.334 294.213C157.081 294.307 156.823 294.394 156.571 294.49C156.42 294.548 156.273 294.613 156.122 294.669C154.892 295.119 129.972 294.75 126.466 294.78C123.628 298.215 121.507 302.44 119.203 306.241L103.225 332.6C99.6763 338.584 96.3385 344.763 92.5904 350.619C92.0416 351.477 91.4502 352.562 90.5827 353.118C90.0537 352.96 90.2882 353.1 89.889 352.683C88.5972 356.934 83.0468 365.493 80.7058 369.558C74.6724 379.895 68.7704 390.307 62.9999 400.795V402.502L63.2905 402.579C64.1043 405.862 63.649 420.338 63.6587 424.841C63.7023 444.351 63.8524 463.886 63.6199 483.393L159.442 483.201L182.746 483.151C185.514 483.146 190.126 482.678 192.737 483.328C193.147 483.254 193.441 483.145 193.812 482.955C193.979 482.661 194.023 482.625 194.103 482.242C194.378 480.936 194.082 471.889 194.085 469.756L194.104 445.981C194.108 441.537 194.232 437.058 194.063 432.619C194.586 425.314 194.168 417.718 194.17 410.379C194.171 407.752 193.849 404.591 194.422 402.047C195.158 398.778 201.239 389.976 203.253 386.471L243.857 316.709C246.177 312.661 248.558 308.65 250.999 304.674C252.676 301.962 254.535 299.264 255.969 296.417L256.076 296.198C255.913 295.913 255.668 295.306 255.446 295.099C253.922 293.685 249.952 295.506 248.188 294.364L248.309 293.94C245.439 293.274 236.93 293.846 233.275 293.628C232.049 292.357 231.049 290.749 230.043 289.3C229.426 290.14 228.745 290.957 227.984 291.671C227.062 292.537 225.834 293.234 224.61 293.555C221.41 294.394 213.348 293.782 209.684 293.731C208.133 292.554 207.288 291.092 206.3 289.455C204.774 290.885 203.131 292.645 201.154 293.413C198.858 294.306 187.584 293.793 184.409 293.702C183.335 292.287 182.461 290.645 181.495 289.147Z" fill="#212021"/>
<path d="M181.399 291.263C180.686 291.997 179.9 292.694 179.415 293.604L179.916 293.761C180.751 293.789 181.534 293.883 182.322 293.553C182.364 292.74 181.781 291.981 181.399 291.263Z" fill="#FEFEFE"/>
<path d="M230.011 291.465C229.314 292.032 228.451 292.855 228.061 293.661L228.596 293.848C229.404 293.876 230.327 294.019 231.052 293.615C231.008 292.794 230.446 292.157 230.011 291.465Z" fill="#FEFEFE"/>
<path d="M206.025 291.485C205.378 292.052 204.201 292.872 203.959 293.699L204.619 293.827C205.413 293.845 206.542 294.02 207.251 293.64C207.262 292.922 206.448 292.064 206.025 291.485Z" fill="#FEFEFE"/>
<path d="M193.961 401.306C177.427 401.172 160.841 401.611 144.304 401.773C138.076 401.834 131.856 401.636 125.63 401.614L104.535 401.732C95.7089 401.739 86.87 401.528 78.0423 401.457C73.6417 401.422 68.8803 400.983 64.5306 401.712C64.9036 401.848 101.037 402.057 103.956 402.081C99.2448 402.271 65.1651 401.947 64.3175 402.439C67.7662 402.965 71.7672 402.575 75.2905 402.573L98.7784 402.565L157.761 402.565C169.4 402.547 181.079 402.341 192.715 402.571L192.666 458.381L192.627 474.815C192.62 477.585 192.382 480.593 192.737 483.328C193.147 483.254 193.441 483.145 193.812 482.955C193.979 482.661 194.023 482.625 194.103 482.242C194.378 480.936 194.083 471.889 194.085 469.756L194.104 445.981C194.108 441.537 194.232 437.058 194.063 432.619C193.6 429.425 193.915 425.778 193.917 422.534L193.961 401.306Z" fill="black"/>
<path d="M64.3175 402.439L63.2906 402.579C64.1044 405.862 63.649 420.338 63.6587 424.841C63.7023 444.351 63.8525 463.886 63.62 483.393L159.442 483.201L182.746 483.15C185.514 483.146 190.126 482.678 192.737 483.328C192.382 480.593 192.62 477.585 192.627 474.815L192.666 458.381L192.715 402.571C181.079 402.341 169.4 402.547 157.761 402.565L98.7783 402.566L75.2905 402.573C71.7672 402.575 67.7662 402.965 64.3175 402.439Z" fill="#7FBEE0"/>
<path d="M147.091 420.527C140.258 420.344 133.393 420.522 126.558 420.548C120.894 420.57 115.166 420.38 109.512 420.69C109.332 432.371 109.409 444.081 109.392 455.763C109.385 459.817 108.921 468.075 109.599 471.76C116.104 471.892 122.634 471.784 129.142 471.784C135.126 471.784 141.14 471.906 147.119 471.701C147.503 468.52 147.268 465.059 147.269 461.846L147.266 443.37L147.268 428.443C147.268 425.887 147.545 423.025 147.091 420.527Z" fill="black"/>
<path d="M126.58 447.192C121.398 447.189 116.216 447.226 111.035 447.302C111.032 450.12 110.679 469.211 111.175 470.126L111.67 470.237C116.911 470.249 122.17 470.345 127.408 470.138C127.502 466.81 127.896 449.305 127.245 447.401L126.58 447.192Z" fill="#FEFEFE"/>
<path d="M127.394 422.244C121.982 422.297 116.571 422.313 111.158 422.292L111.126 445.673L127.44 445.693C127.469 437.916 127.734 430.01 127.394 422.244Z" fill="#FEFEFE"/>
<path d="M144.492 447.192C139.342 447.115 134.193 447.139 129.044 447.265C129.04 454.758 128.738 462.333 129.053 469.813C129.498 470.302 129.758 470.172 130.386 470.209C135.481 470.247 140.576 470.255 145.671 470.232C145.769 467.414 146.127 448.523 145.35 447.325L144.492 447.192Z" fill="#FEFEFE"/>
<path d="M145.652 422.105C140.084 422.036 134.515 422.043 128.946 422.125L129.073 445.682C134.58 445.741 140.095 445.673 145.602 445.666C145.765 437.812 145.781 429.959 145.652 422.105Z" fill="#FEFEFE"/>
<path d="M512.8 201.728C510.326 195.942 506.494 189.184 501.948 184.805C497.236 180.266 491.17 176.879 484.481 177.077C476.317 177.318 470.61 182.505 465.363 188.127C443.076 184.041 413.208 194.288 395.013 206.803C390.786 209.711 387.103 213.001 383.139 216.222C379.413 208.095 375.968 199.844 372.304 191.69C371.033 188.862 369.898 185.905 368.479 183.151L347.983 228.1L340.833 243.95C339.517 246.869 338.294 249.983 336.743 252.777L325.838 233.077C323.537 228.855 321.429 224.414 318.815 220.379C302.936 220.766 286.927 220.195 271.036 220.058L255.503 219.931C252.533 219.916 249.317 220.14 246.382 219.723C245.914 219.237 246.029 219.133 246.041 218.448C246.882 217.686 248.293 217.849 249.394 217.815C249.762 213.514 249.525 209.035 249.478 204.721C240.769 204.432 231.823 204.476 223.112 204.74C223.054 209.052 223.116 213.373 223.12 217.685C223.898 217.675 225.185 217.525 225.824 217.969C226.362 218.343 226.434 218.491 226.495 219.091C226.344 219.297 226.257 219.438 226.049 219.609C225.401 220.141 224.055 219.95 223.255 219.926L218.587 219.73C211.598 219.782 204.369 220.044 197.411 219.496C192.781 225.915 187.871 232.235 183.518 238.841C181.516 241.879 179.785 245.128 177.976 248.285C175.095 253.222 172.31 258.212 169.621 263.255C167.527 267.431 165.277 271.517 163.141 275.67C160.015 281.746 157.001 287.839 153.548 293.74C144.32 293.704 134.961 293.324 125.747 293.666C123.311 297.379 121.093 301.251 118.579 304.905C118.544 301.507 119.095 283.151 117.999 281.53C117.919 281.412 117.793 281.334 117.69 281.236C117.261 281.558 117.206 282.015 117.121 282.529C116.74 284.816 116.984 287.436 116.994 289.764C117.02 295.576 117.245 301.452 117.049 307.257L115.723 309.412C114.044 307.399 105.687 295.75 104.707 295.136C104.556 295.042 104.362 295.046 104.19 295.001L103.609 295.283C103.462 295.96 103.715 296.206 104.104 296.782C105.259 298.49 106.668 300.07 107.906 301.724C110.196 304.782 112.353 307.912 114.765 310.879C112.907 314.242 110.475 319.161 108.259 322.147C102.439 331.828 96.9208 341.826 90.8152 351.318C85.3719 351.299 79.8829 351.129 74.4458 351.372L74.4361 352.245C74.5572 352.362 74.6478 352.523 74.8008 352.594C75.9188 353.104 87.5714 352.672 89.8891 352.683C90.2883 353.1 90.0538 352.96 90.5828 353.118C91.4503 352.562 92.0417 351.477 92.5905 350.619C96.3386 344.763 99.6764 338.584 103.225 332.6L119.204 306.241C121.507 302.44 123.628 298.215 126.466 294.78C129.972 294.75 154.892 295.119 156.122 294.669C156.273 294.613 156.42 294.547 156.571 294.49C156.823 294.394 157.081 294.307 157.334 294.213C156.812 294.033 156.289 294.007 155.744 293.961L155.666 293.693C156.274 293.756 156.914 293.858 157.523 293.813C158.008 293.777 158.026 293.812 158.347 293.422L158.109 292.787L159.106 292.443C160.317 293.693 161.152 293.723 162.843 293.752C167.575 293.832 172.353 293.648 177.086 293.543C178.786 292.265 180.089 290.727 181.496 289.147C182.461 290.645 183.335 292.287 184.409 293.702C187.584 293.793 198.858 294.306 201.154 293.413C203.131 292.645 204.774 290.885 206.3 289.455C207.289 291.092 208.133 292.554 209.684 293.731C213.348 293.782 221.41 294.394 224.61 293.555C225.834 293.234 227.062 292.537 227.984 291.671C228.745 290.957 229.426 290.14 230.044 289.3C231.049 290.749 232.049 292.357 233.275 293.628C236.93 293.846 245.439 293.274 248.309 293.94L248.188 294.364C249.952 295.506 253.922 293.685 255.446 295.099C255.668 295.306 255.913 295.913 256.076 296.198L256.883 295.096C258.682 296.558 267.466 312.034 269.806 315.374C280.957 333.459 291.602 351.894 302.529 370.119L315.081 391.31C317.124 394.762 319.528 398.125 321.237 401.752L313.585 401.737C302.207 383.053 291.017 364.258 280.014 345.352L267.922 325.124C265.549 321.153 263.303 317.036 260.752 313.178C260.289 312.479 259.763 311.632 259.036 311.194L259.171 311.263L258.667 311.588C258.705 312.168 258.827 312.538 259.104 313.051C263.321 320.88 268.36 328.407 272.898 336.065L295.693 374.768C301.168 383.945 306.865 393.013 312.178 402.284L312.04 459.66C312.029 463.968 311.435 480.126 312.265 482.826L312.697 483.088C313.004 483.009 313.356 482.945 313.651 482.832C316.302 482.628 319.037 482.642 321.691 482.802C322.241 482.826 322.53 482.829 323.021 482.568C323.42 480.461 323.206 478.034 323.213 475.883L323.245 463.872L323.199 414.908C323.185 412.453 322.702 403.548 323.33 401.783C324.484 398.545 326.995 395.191 328.789 392.212L342.88 369.221L360.574 339.615C364.582 332.762 368.428 325.601 372.824 318.994C373.048 318.657 373.183 318.474 373.566 318.301C382.652 333.844 391.248 349.715 400.113 365.391C405.62 374.962 411.021 384.593 416.317 394.282C417.945 397.228 419.745 400.109 421.294 403.094C419.328 403.12 417.357 403.176 415.391 403.12C411.608 397.211 408.39 390.859 404.907 384.764L384.898 349.582C382.466 345.142 380.012 340.714 377.537 336.299C376.512 334.453 375.648 332.377 374.363 330.705L373.952 330.69C373.47 331.162 373.499 331.142 373.461 331.819C374.708 334.35 376.246 336.793 377.609 339.27C380.618 344.828 383.702 350.345 386.859 355.819L401.91 382.425C404.291 386.539 406.634 390.674 408.937 394.831C410.492 397.575 412.23 400.349 413.513 403.23C413.969 404.255 414.154 405.216 414.21 406.333C414.511 412.283 414.162 418.362 414.17 424.327L414.178 464.976C414.184 470.147 413.79 475.585 414.113 480.728C414.165 481.563 414.15 482.71 414.96 483.14C415.376 482.838 415.459 482.764 415.561 482.226C415.913 480.368 415.611 477.934 415.612 476.024L415.634 460.204L452.638 460.197C459.301 460.205 466.512 459.679 473.082 460.63C473.691 460.174 473.75 459.419 473.892 458.726C476.499 453.367 478.907 447.891 481.345 442.454C482.611 439.632 484.31 436.563 485.069 433.576C485.386 433.482 485.548 433.352 485.811 433.16L485.824 432.522L485.388 432.198C485.37 432.212 451.525 432.288 447.949 432.233C451.322 431.588 456.054 432.038 459.58 432.035L486.088 432.058C488.997 426.901 491.04 421.322 493.871 416.127C496.149 421.556 498.537 426.863 501.145 432.141C508.226 431.8 515.443 432.102 522.541 432.101C530.806 432.101 539.173 431.839 547.425 432.172C540.465 432.993 504.025 431.405 501.345 432.593L501.228 432.977C501.391 433.283 501.475 433.509 501.754 433.724C514.256 433.574 526.778 433.708 539.282 433.695C544.331 433.69 550.259 434.108 555.207 433.679C556.022 433.608 556.996 433.539 557.627 432.972L557.392 432.725C554.94 431.839 551.673 432.219 549.086 432.25L549.076 351.013C550.986 350.961 554.597 351.513 556.27 350.819C556.618 350.674 556.578 350.471 556.687 350.144C556.159 348.313 554.783 346.452 553.85 344.769L514.22 275.625C519.216 259.828 521.376 240.937 518.857 224.507C517.656 216.673 515.437 209.186 512.8 201.728Z" fill="#212021"/>
<path d="M428.623 346.767C427.341 347.309 426.114 348.703 425.074 349.65L427.433 349.638L431.658 349.657L428.623 346.767Z" fill="#FEFEFE"/>
<path d="M405.644 346.75C404.106 347.161 402.665 348.734 401.472 349.756L404.787 349.799L408.897 349.754C407.876 348.65 406.808 347.7 405.644 346.75Z" fill="#FEFEFE"/>
<path d="M272.425 300.205C268.998 301.546 266.336 301.946 262.697 301.592L265.251 305.396L267.424 308.647L272.425 300.205Z" fill="#FEFEFE"/>
<path d="M218.587 219.73C211.598 219.782 204.369 220.044 197.411 219.496C192.781 225.915 187.871 232.235 183.518 238.842C181.516 241.88 179.785 245.128 177.976 248.285C175.095 253.222 172.31 258.212 169.621 263.255C167.527 267.431 165.277 271.517 163.141 275.67C160.015 281.747 157.001 287.839 153.548 293.74C144.32 293.704 134.961 293.324 125.747 293.666C123.311 297.379 121.093 301.251 118.579 304.905C118.544 301.507 119.095 283.151 117.999 281.53C117.919 281.412 117.793 281.334 117.69 281.236C117.261 281.558 117.206 282.015 117.121 282.529C116.74 284.816 116.984 287.436 116.994 289.764C117.02 295.576 117.245 301.452 117.048 307.258L115.723 309.413C114.044 307.399 105.687 295.75 104.707 295.136C104.556 295.042 104.362 295.046 104.19 295.001L103.609 295.283C103.462 295.961 103.715 296.206 104.104 296.782C105.259 298.49 106.668 300.07 107.906 301.724C110.196 304.782 112.352 307.912 114.765 310.879C112.907 314.242 110.475 319.162 108.259 322.147C102.439 331.828 96.9208 341.826 90.8152 351.318C85.3718 351.299 79.8829 351.129 74.4458 351.372L74.4361 352.245C74.5572 352.362 74.6478 352.523 74.8008 352.594C75.9187 353.104 87.5714 352.672 89.8891 352.683C90.2882 353.1 90.0538 352.96 90.5827 353.118C91.4503 352.562 92.0417 351.477 92.5905 350.619C96.3386 344.763 99.6764 338.585 103.225 332.601L119.203 306.241C121.507 302.44 123.628 298.215 126.466 294.78C129.972 294.75 154.892 295.119 156.122 294.669C156.273 294.613 156.42 294.548 156.571 294.49C156.823 294.394 157.081 294.307 157.334 294.213C156.812 294.033 156.289 294.007 155.744 293.961L155.666 293.693C156.274 293.756 156.914 293.858 157.523 293.813C158.008 293.777 158.026 293.812 158.347 293.422L158.109 292.787L159.106 292.443C158.606 291.606 158.126 290.747 157.589 289.934C159.549 286.31 161.312 282.554 163.378 278.994C165.39 282.188 167.946 284.574 171.766 285.428C171.999 285.482 172.233 285.53 172.469 285.572C172.705 285.614 172.942 285.649 173.179 285.679C173.417 285.709 173.655 285.733 173.893 285.75C174.132 285.768 174.371 285.779 174.61 285.784C174.849 285.79 175.089 285.789 175.328 285.782C175.567 285.775 175.806 285.762 176.045 285.743C176.283 285.723 176.521 285.698 176.758 285.667C176.996 285.635 177.232 285.598 177.468 285.554C177.703 285.511 177.937 285.461 178.169 285.405C178.402 285.35 178.634 285.288 178.863 285.221C179.093 285.153 179.321 285.08 179.546 285.001C179.772 284.922 179.996 284.837 180.218 284.746C180.439 284.656 180.658 284.56 180.875 284.458C181.091 284.356 181.305 284.249 181.516 284.136C181.728 284.023 181.936 283.905 182.141 283.781C182.346 283.658 182.547 283.529 182.746 283.395C184.32 282.343 185.597 281.06 186.83 279.633C189.424 282.973 192.011 285.436 196.424 285.955C200.458 286.43 204.666 285.117 207.769 282.524C208.84 281.628 209.781 280.538 210.727 279.513C213.615 282.773 216.518 285.494 221.128 285.839C225.136 286.138 228.768 284.899 231.765 282.214C232.873 281.221 233.8 280.052 234.773 278.931C237.42 282.307 240.002 285.162 244.522 285.768C248.852 286.349 253.324 285.002 256.741 282.321C258.404 281.017 259.794 279.454 261.206 277.89C263.123 281.205 265.337 284.322 269.229 285.448C274.25 286.901 278.886 284.526 283.137 282.13C280.84 285.874 276.521 294.641 273.816 297.316C272.421 298.696 270.658 299.551 268.757 299.99C266.423 300.528 264.079 300.373 261.739 299.965C260.475 297.962 259.294 295.814 257.8 293.971C256.53 292.404 255.07 291.154 253.878 289.487C252.239 291.175 250.603 293.185 248.309 293.94L248.188 294.364C249.952 295.506 253.922 293.685 255.446 295.099C255.668 295.306 255.913 295.914 256.076 296.198L256.883 295.096C258.682 296.558 267.466 312.034 269.806 315.374L270.087 315.333L270.056 314.909C268.182 312.148 266.622 309.233 264.854 306.413C264.353 305.615 263.69 304.96 263.185 304.181C262.687 303.413 262.361 302.538 261.896 301.749C261.442 300.978 260.813 300.371 260.34 299.624C259.486 298.278 258.87 296.727 257.938 295.439C257.623 295.003 257.237 294.721 256.792 294.432C256.288 294.105 255.976 293.987 255.721 293.419L255.925 293.068L256.483 293.151C256.962 293.529 257.34 293.858 257.66 294.386C257.81 294.632 257.934 294.853 258.128 295.067C259.274 296.334 260.209 299.724 261.74 300.347C263.183 300.934 266.057 300.978 267.548 300.58C269.663 300.016 271.849 299.695 273.575 298.235C274.529 297.427 275.399 296.322 276.076 295.269C276.544 294.538 276.729 293.685 277.157 292.948C278.132 291.271 283.528 282.856 283.628 281.771C282.671 281.304 281.349 282.957 280.347 283.248C278.126 283.891 276.156 285.251 273.816 285.541C269.51 286.075 266.091 283.819 263.512 280.583C262.693 279.556 261.904 278.295 260.854 277.508C260.768 277.589 260.672 277.659 260.597 277.75C259.791 278.729 259.033 279.591 258.093 280.47C254.666 283.674 250.665 285.78 245.843 285.546C242.18 285.368 239.257 283.574 236.933 280.834C236.444 280.258 235.84 279.272 235.251 278.834C235.13 278.745 235.006 278.632 234.857 278.619C234.762 278.611 232.534 280.824 232.194 281.149C229.685 283.545 226.842 285.232 223.321 285.541C217.626 286.042 214.746 282.61 210.831 279.346C210.681 279.331 210.522 279.248 210.38 279.301C208.965 279.831 206.279 284.627 201.374 285.251C199.991 285.427 198.578 285.759 197.183 285.7C192.451 285.503 190.108 282.538 187.135 279.425C186.336 279.426 184.486 281.42 183.761 282.012C180.582 284.604 177.06 285.738 172.961 285.259C169.057 284.803 166.584 282.44 164.231 279.515C163.954 279.172 163.826 279.018 163.461 278.75L163.012 278.909C161.729 281 157.686 287.87 157.245 289.914C157.44 290.312 157.569 290.598 157.664 291.036L157.24 290.851C155.93 291.322 155.357 293.31 154.796 294.5C152.484 294.507 147.615 294.94 145.612 294.378C147.322 293.298 151.676 294.933 153.605 294.051C154.311 292.838 155.28 291.821 155.96 290.603C158.611 285.847 160.932 280.863 163.428 276.025C169.552 264.156 175.815 252.247 182.781 240.848C186.762 234.332 191.699 228.308 196.081 222.051C196.48 221.482 197.115 220.431 197.723 220.103C198.105 219.898 216.973 220.063 219.052 220.116C220.8 220.161 222.947 220.595 224.649 220.293L223.255 219.926L218.587 219.73Z" fill="black"/>
<path d="M158.109 292.787C157.681 292.213 157.561 291.771 156.831 291.633C156.263 292.213 155.995 292.963 155.666 293.693C156.274 293.756 156.914 293.858 157.523 293.813C158.008 293.777 158.026 293.812 158.347 293.422L158.109 292.787Z" fill="#FEFEFE"/>
<path d="M321.669 403.233C319.001 403.173 316.329 403.146 313.663 403.047L313.65 482.832C316.302 482.628 319.037 482.642 321.691 482.802L321.669 403.233Z" fill="#007DC1"/>
<path d="M469.175 269.502C465.477 272.313 463.517 274.319 458.579 274.519C453.936 274.708 450.647 272.701 447.372 269.671C446.896 270.174 446.407 270.664 445.904 271.14C442.227 274.573 438.545 274.563 433.825 274.413C433.8 278.567 433.815 282.722 433.871 286.876C436.152 285.541 437.997 283.897 439.699 281.89C440.862 282.985 441.879 284.221 443.118 285.239C445.863 287.495 448.724 288.081 452.186 287.775C456.111 286.69 458.512 284.899 461.222 281.9C462.736 283.595 464.159 285.16 466.118 286.347C469.17 288.196 472.761 288.428 476.157 287.539C483.149 285.709 486.318 277.825 489.583 272.072C487.12 273.142 484.726 274.099 482.024 274.342C476.695 274.82 473.125 272.809 469.175 269.502Z" fill="#FEFEFE"/>
<path d="M486.704 249.072C486.831 245.127 487.364 217.215 486.524 215.809C486.019 215.706 486.06 215.632 485.566 215.879C484.917 217.759 485.465 244.342 485.189 248.881C482.352 246.589 477.37 240.785 474.675 237.827C473.55 236.593 472.45 235.166 471.168 234.101L470.657 234.221L470.36 234.786C470.568 236.149 483.378 249.227 485.191 250.766L485.103 253.87C473.661 254.14 462.152 253.973 450.703 253.931C447.224 253.898 443.744 253.887 440.265 253.899C440.2 253.94 440.14 253.99 440.071 254.023C438.816 254.604 435.589 254.129 434.088 254.27C445.046 254.603 456.094 254.261 467.064 254.289L478.837 254.326C480.895 254.334 483.127 254.53 485.156 254.19C485.387 253.31 485.849 251.627 485.552 250.754C485.061 249.308 470.83 236.299 471.095 234.745C473.613 236.833 483.207 248.937 485.534 248.938C485.99 244.394 485.175 217.699 486.101 216.163C486.824 218.654 486.364 223.167 486.361 225.827L486.333 243.217C486.323 245.147 485.91 247.426 486.397 249.283L487.039 249.212L487.128 249.442C486.262 250.965 485.63 252.099 486.15 253.906C486.178 254.004 486.216 254.098 486.25 254.194C488.807 254.52 499.899 253.734 501.265 254.443C501.612 254.622 502.02 255.088 502.258 255.393C504.596 258.396 506.427 262.772 508.315 266.153L520.866 288.152L548.63 337.033C551.091 341.454 554.396 345.61 556.408 350.256C555.545 351.078 552.121 350.741 550.914 350.711C550.026 350.689 549.314 350.606 548.46 350.336C548.117 350.227 548.269 350.25 547.869 350.344C548.004 351.246 548.653 351.528 548.77 352.406C549.184 355.535 548.848 359.14 548.839 362.314L548.574 388.149L548.586 422.447C548.59 425.8 548.901 429.217 548.828 432.547C550.43 432.536 555.643 432.17 556.877 432.771L556.937 433.093C556 433.451 505.01 433.525 501.92 433.191L501.836 432.832C501.989 432.734 502.119 432.586 502.295 432.536C503.509 432.196 510.683 432.541 512.408 432.542L547.859 432.547L547.869 373.188C547.87 368.752 548.362 353.161 547.538 350.089C546.911 347.753 544.982 345.534 543.78 343.434L539.09 335.145C535.721 329.238 501.453 269.469 501.402 268.683L501.771 268.662C503.366 271.109 504.569 273.717 506.033 276.232L513.617 289.39L535.587 327.601C538.461 332.763 541.373 337.903 544.321 343.023C545.363 344.831 546.345 346.976 547.52 348.667C548.051 349.431 549.089 349.868 549.968 350.064C551.115 350.32 553.267 349.716 554.59 349.686L554.918 349.404C554.194 346.332 546.542 334.35 544.387 330.583L514.926 278.941L506.41 263.968C504.94 261.351 503.606 258.297 501.775 255.949L501.2 255.827C498.317 257.887 473.232 302.386 469.262 309.142C463.825 318.21 458.486 327.335 453.243 336.517C450.879 340.634 448.252 344.661 446.217 348.951C445.936 349.543 445.908 350.152 445.887 350.796C445.598 359.702 445.898 368.726 445.899 377.64L445.898 432.547C451.061 432.546 483.635 432.038 485.49 433.011C478.137 433.791 469.001 433.278 461.394 433.278L415.383 433.273C415.406 441.836 415.111 450.381 415.141 458.945L453.197 459.193C456.381 459.198 471.244 458.78 473.223 459.349L473.289 459.693C473.165 459.804 473.074 459.973 472.916 460.026C471.891 460.374 466.077 459.889 464.61 459.888L415.141 459.914C415.141 463.161 415.59 480.995 414.851 482.598C414.447 482.041 414.409 481.412 414.383 480.742C414.053 472.353 414.534 463.842 414.644 455.451C414.798 443.767 414.669 432.065 414.662 420.379C414.66 417.058 415.227 405.929 414.064 403.444C410.048 394.867 404.758 386.467 399.983 378.26C396.919 372.993 394.007 367.558 391.097 362.218C387.966 356.471 384.54 350.885 381.431 345.11C379.232 341.027 376.441 337.109 374.624 332.846L374.017 331.435C374.802 331.974 375.411 333.275 375.879 334.1L410.061 394.564C411.158 396.466 413.426 401.888 414.793 403.108C415.662 403.884 419.708 403.448 420.895 403.233C421.092 403.197 421.289 403.157 421.485 403.115L421.614 402.874C420.115 399.271 417.624 395.767 415.729 392.327C410.196 382.265 404.577 372.252 398.872 362.286L382.109 332.648C380.189 329.246 377.765 323.761 375.625 320.916C374.882 319.928 374.373 318.679 373.826 317.57L373.667 317.682L373.566 318.301C382.652 333.844 391.248 349.715 400.113 365.391C405.62 374.962 411.021 384.593 416.317 394.282C417.945 397.228 419.745 400.109 421.294 403.094C419.328 403.12 417.357 403.176 415.391 403.12C411.608 397.211 408.39 390.859 404.907 384.764L384.898 349.582C382.466 345.142 380.012 340.714 377.537 336.299C376.512 334.453 375.648 332.377 374.363 330.705L373.952 330.69C373.47 331.162 373.499 331.142 373.461 331.819C374.708 334.35 376.246 336.793 377.609 339.27C380.618 344.828 383.702 350.345 386.859 355.819L401.91 382.425C404.291 386.539 406.634 390.674 408.937 394.831C410.492 397.574 412.23 400.349 413.513 403.23C413.969 404.255 414.154 405.215 414.21 406.333C414.511 412.283 414.162 418.362 414.17 424.327L414.178 464.976C414.184 470.147 413.79 475.585 414.113 480.728C414.165 481.563 414.15 482.71 414.96 483.14C415.376 482.838 415.459 482.764 415.561 482.226C415.913 480.368 415.611 477.934 415.612 476.024L415.634 460.204L452.638 460.197C459.301 460.205 466.512 459.679 473.082 460.63C473.691 460.174 473.75 459.419 473.892 458.726C454.467 458.822 435.042 458.81 415.618 458.69L415.645 433.654C423.444 433.478 431.275 433.628 439.077 433.629L485.069 433.576C485.386 433.482 485.548 433.352 485.811 433.16L485.824 432.522L485.388 432.198C485.37 432.212 451.525 432.288 447.949 432.233C447.425 432.274 447.057 432.246 446.547 432.115C446.457 431.842 446.435 431.807 446.389 431.478C446.072 429.173 446.36 426.414 446.363 424.059L446.386 406.791L446.325 351.983C446.332 351.139 446.305 350.115 446.549 349.308C447.422 346.432 450.853 341.507 452.468 338.726C457.36 330.165 462.332 321.652 467.385 313.186L488.446 277.019C492.587 269.98 496.682 262.707 501.387 256.032C506.057 263.706 510.313 271.718 514.768 279.525C527.871 302.957 541.193 326.264 554.734 349.445C552.665 349.483 550.592 349.458 548.522 349.459C543.737 341.79 539.51 333.648 535.059 325.773L512.859 287.114C509.743 281.752 506.327 274.674 502.973 269.79C502.474 269.063 501.994 268.512 501.205 268.114L500.885 268.304C500.893 268.949 501.151 269.51 501.442 270.076C502.446 272.034 503.733 273.926 504.823 275.852C507.967 281.439 511.147 287.005 514.364 292.55L539.336 336.491C541.267 339.934 546.247 347.173 547.119 350.509C547.937 353.636 547.472 357.761 547.465 361.003L547.494 373.862C547.572 393.3 547.549 412.736 547.425 432.172C540.465 432.993 504.025 431.405 501.345 432.593L501.228 432.977C501.391 433.283 501.475 433.509 501.754 433.724C514.256 433.574 526.778 433.708 539.282 433.695C544.331 433.69 550.259 434.108 555.207 433.679C556.022 433.608 556.996 433.539 557.627 432.972L557.392 432.725C554.94 431.839 551.673 432.219 549.086 432.25L549.076 351.013C550.986 350.961 554.597 351.513 556.27 350.819C556.618 350.674 556.578 350.47 556.687 350.144C556.159 348.313 554.783 346.452 553.85 344.769L514.22 275.625C510.245 268.341 506.052 261.164 502.01 253.915L486.607 253.916L486.565 250.736C489.478 248.024 492.123 245.014 494.826 242.097C496.612 240.171 498.602 238.284 500.192 236.193C500.662 235.574 501.001 235.111 500.908 234.322L500.45 234.127C498.889 234.61 488.395 247.03 486.704 249.072Z" fill="black"/>
<path d="M414.297 255.603L369.452 255.689C366.805 259.846 364.3 264.087 361.936 268.413L365.698 267.621C367.433 270.001 369.813 271.282 372.494 272.306C374.034 272.654 375.543 272.93 377.128 272.894C381.52 272.795 384.474 270.303 387.346 267.318C390.076 270.213 392.548 272.775 396.841 272.946C401.645 273.138 404.867 270.671 408.171 267.577C410.047 269.648 411.719 271.298 414.208 272.633C414.339 266.963 414.28 261.275 414.297 255.603Z" fill="#FEFEFE"/>
<path d="M364.974 269.506C363.627 269.5 362.358 269.798 361.05 270.078C358.707 274.024 356.553 278.105 354.228 282.07C355.625 282.79 356.412 283.946 357.484 285.034C359.509 287.089 362.416 288.038 365.268 288.001C370.205 287.934 373.127 285.228 376.362 281.967C377.224 282.892 378.082 283.851 379.014 284.706C381.427 286.916 384.452 288.104 387.735 287.902C392.144 287.63 395.031 285.179 397.851 282.085C399.275 283.625 400.682 285.1 402.366 286.359C403.366 286.971 404.431 287.462 405.587 287.685C408.827 288.311 411.561 287.067 414.178 285.302C414.289 281.751 414.22 278.177 414.235 274.623C411.939 273.242 410.05 271.622 408.076 269.813C404.724 272.601 401.713 274.59 397.154 274.525C392.838 274.462 390.278 272.526 387.395 269.588C384.8 272.061 382.018 273.976 378.346 274.379C373.027 274.962 368.986 272.732 364.974 269.506Z" fill="#FEFEFE"/>
<path d="M267.75 233.521C267.084 234.356 266.394 235.179 265.602 235.898C265.423 236.06 265.24 236.217 265.053 236.37C264.865 236.523 264.674 236.671 264.48 236.814C264.285 236.958 264.087 237.096 263.885 237.229C263.684 237.363 263.479 237.491 263.271 237.614C263.063 237.737 262.852 237.855 262.638 237.968C262.424 238.08 262.207 238.187 261.988 238.289C261.769 238.39 261.547 238.486 261.323 238.577C261.098 238.668 260.872 238.753 260.644 238.832C260.416 238.911 260.185 238.984 259.953 239.052C259.721 239.12 259.488 239.181 259.252 239.237C259.017 239.293 258.781 239.343 258.543 239.387C258.306 239.431 258.067 239.469 257.827 239.502C257.588 239.534 257.347 239.56 257.107 239.58C256.866 239.6 256.624 239.614 256.383 239.622C256.141 239.63 255.9 239.632 255.658 239.628C255.416 239.623 255.175 239.613 254.934 239.597C251.115 239.347 248.346 237.643 245.844 234.864L245.814 253.363C247.199 253.278 248.646 253.246 249.998 252.913C254.367 251.839 255.666 248.778 257.734 245.269C257.993 246.1 258.251 246.942 258.572 247.751C259.501 250.088 261.441 251.934 263.752 252.888C269.137 255.112 275.002 252.627 278.76 248.596C279.461 247.844 280.402 246.214 281.32 245.841L281.683 246.165C282.818 248.655 283.891 250.786 286.395 252.177C288.893 253.565 291.935 253.741 294.646 252.924C302.579 250.531 305.265 242.975 308.897 236.352C305.008 238.489 301.445 240.219 296.849 239.225C293.522 238.506 291.283 236.616 289.457 233.845C288.39 234.992 287.296 236.1 286.003 236.996C285.817 237.127 285.628 237.253 285.436 237.374C285.244 237.495 285.049 237.611 284.851 237.722C284.653 237.833 284.452 237.939 284.248 238.04C284.045 238.141 283.839 238.237 283.63 238.327C283.422 238.417 283.212 238.502 282.999 238.582C282.786 238.661 282.572 238.735 282.355 238.804C282.139 238.873 281.921 238.936 281.701 238.993C281.481 239.051 281.26 239.103 281.038 239.149C280.816 239.196 280.592 239.236 280.368 239.271C280.143 239.306 279.918 239.335 279.692 239.358C279.466 239.382 279.24 239.399 279.013 239.411C278.786 239.423 278.559 239.429 278.332 239.429C278.105 239.43 277.878 239.424 277.651 239.412C277.425 239.401 277.198 239.384 276.972 239.361C276.746 239.339 276.521 239.31 276.296 239.275C276.072 239.241 275.849 239.201 275.626 239.155C272.093 238.458 269.716 236.417 267.75 233.521Z" fill="#FEFEFE"/>
<path d="M436.484 330.983C435.59 331.438 434.667 332.39 433.862 333.028C431.488 334.908 428.299 336.051 425.263 336.065C420.802 336.085 417.733 333.782 414.701 330.846C411.391 333.488 408.277 335.981 403.795 335.994C399.464 336.007 396.419 333.733 393.498 330.859C390.863 333.302 388.752 334.933 385.293 336.065C387.682 340.693 390.446 345.216 393.134 349.676C395.517 349.621 398.364 349.937 400.453 348.666C402.191 347.449 403.734 346.04 405.306 344.622C407.531 346.034 409.285 348.138 411.434 349.688C415.021 349.755 418.609 349.756 422.196 349.692C424.492 348.26 426.506 346.453 428.478 344.612C428.797 344.875 429.092 345.152 429.391 345.436C435.166 350.914 436.905 349.824 444.468 349.621C446.587 344.614 450.1 339.913 452.673 335.087C451.04 335.642 449.427 336.054 447.694 336.101C442.91 336.233 439.812 334.096 436.484 330.983Z" fill="#FEFEFE"/>
<path d="M499.401 255.611C491.491 255.365 483.517 255.545 475.601 255.556L433.787 255.533C433.776 259.941 433.257 268.407 434.055 272.406C434.226 272.566 434.304 272.661 434.543 272.76C436.791 273.687 441.065 272.352 443.084 271.295C444.675 270.165 446.013 268.837 447.295 267.375C447.949 268.034 448.582 268.714 449.245 269.363C449.397 269.511 449.553 269.655 449.712 269.795C449.872 269.936 450.035 270.072 450.201 270.204C450.367 270.336 450.537 270.464 450.709 270.587C450.882 270.711 451.058 270.83 451.236 270.945C451.415 271.059 451.596 271.17 451.781 271.275C451.965 271.381 452.151 271.482 452.341 271.578C452.53 271.675 452.721 271.766 452.915 271.853C453.109 271.939 453.305 272.021 453.503 272.098C453.701 272.175 453.9 272.247 454.102 272.314C454.303 272.381 454.506 272.443 454.711 272.499C454.915 272.556 455.121 272.608 455.328 272.654C455.536 272.7 455.744 272.741 455.953 272.778C456.162 272.813 456.372 272.844 456.583 272.87C456.794 272.895 457.005 272.915 457.217 272.93C457.429 272.945 457.641 272.955 457.853 272.959C458.065 272.963 458.278 272.962 458.49 272.955C463.033 272.839 466.183 270.33 469.131 267.173C471.299 269.25 473.374 271.256 476.277 272.264C480.041 273.572 484.167 272.988 487.694 271.276C492.264 269.056 493.51 265.48 496.034 261.438C497.198 259.575 498.677 257.699 499.401 255.611Z" fill="#FEFEFE"/>
<path d="M271.088 221.473C262.685 221.231 254.235 221.276 245.828 221.326L245.835 232.407C246.51 233.394 247.175 234.361 248.057 235.179C250.518 237.458 253.667 238.379 256.98 238.136C259.767 237.932 263.306 236.715 265.134 234.481C266.136 233.256 266.91 231.871 267.947 230.664C268.714 231.999 269.453 233.436 270.446 234.619C272.219 236.734 274.796 237.941 277.54 238.091C281.27 238.295 284.444 236.653 287.164 234.261C288.147 233.27 288.932 231.985 289.754 230.852C291.272 232.131 290.798 234.697 293.638 236.475C296.164 238.057 299.618 238.448 302.487 237.75C310.758 235.735 312.929 228.274 316.957 221.84L271.088 221.473Z" fill="#FEFEFE"/>
<path d="M379.107 314.756C377.911 315.365 376.357 317.353 375.286 318.321C376.199 320.222 377.426 322.027 378.474 323.861L384.494 334.558C388.442 333.638 390.745 331.23 393.552 328.545C396.025 331.102 398.473 333.749 402.183 334.309C407.407 335.098 411.17 331.777 414.979 328.846C416.598 330.544 418.2 332.193 420.29 333.315C424.369 335.508 429.006 334.765 432.548 331.903C433.543 331.098 434.953 329.504 436.199 329.204C437.271 328.946 439.577 331.943 440.645 332.595C440.831 332.71 441.02 332.821 441.212 332.926C441.403 333.032 441.597 333.133 441.794 333.229C441.991 333.325 442.189 333.416 442.391 333.502C442.592 333.588 442.795 333.669 443 333.744C443.206 333.82 443.413 333.89 443.622 333.955C443.83 334.02 444.041 334.08 444.253 334.135C444.465 334.19 444.678 334.239 444.892 334.283C445.106 334.327 445.322 334.365 445.538 334.398C445.754 334.431 445.971 334.458 446.189 334.48C446.407 334.503 446.625 334.519 446.843 334.53C447.062 334.541 447.28 334.547 447.499 334.547C447.718 334.547 447.937 334.542 448.155 334.531C448.373 334.52 448.591 334.503 448.809 334.481C449.027 334.459 449.244 334.432 449.46 334.399C449.676 334.366 449.892 334.328 450.106 334.284C450.321 334.24 450.534 334.191 450.746 334.136C452.553 333.667 453.958 332.909 454.918 331.294C457.414 327.305 459.869 323.115 462.004 318.923C460.071 319.757 458.114 320.298 456.004 320.377C451.164 320.559 448.287 318.331 444.941 315.209C441.991 318.251 438.623 320.265 434.263 320.37C429.468 320.485 426.412 318.16 423.124 315.059L422.788 315.383C419.607 318.432 416.1 320.545 411.507 320.374C407.165 320.213 404.227 318.135 401.338 315.126C398.123 318.283 394.718 320.487 390.063 320.467C385.135 320.446 382.37 318.082 379.107 314.756Z" fill="#FEFEFE"/>
<path d="M261.206 277.89C259.794 279.454 258.404 281.017 256.741 282.321C253.324 285.001 248.852 286.348 244.522 285.768C240.002 285.162 237.42 282.307 234.773 278.931C233.8 280.052 232.873 281.221 231.765 282.214C228.768 284.899 225.136 286.138 221.128 285.838C216.518 285.493 213.615 282.773 210.727 279.513C209.781 280.538 208.84 281.628 207.769 282.524C204.666 285.117 200.458 286.43 196.424 285.955C192.011 285.436 189.424 282.973 186.83 279.633C185.597 281.06 184.32 282.343 182.746 283.395C182.547 283.529 182.346 283.658 182.141 283.781C181.936 283.905 181.728 284.023 181.516 284.136C181.305 284.248 181.091 284.356 180.875 284.457C180.658 284.559 180.439 284.656 180.218 284.746C179.996 284.837 179.773 284.922 179.546 285.001C179.321 285.08 179.093 285.153 178.864 285.221C178.634 285.288 178.402 285.35 178.169 285.405C177.937 285.461 177.703 285.51 177.468 285.554C177.232 285.598 176.996 285.635 176.758 285.666C176.521 285.698 176.283 285.723 176.045 285.742C175.806 285.762 175.567 285.775 175.328 285.782C175.089 285.789 174.85 285.79 174.61 285.784C174.371 285.779 174.132 285.768 173.893 285.75C173.655 285.732 173.417 285.709 173.179 285.679C172.942 285.649 172.705 285.613 172.469 285.571C172.234 285.529 171.999 285.482 171.766 285.428C167.946 284.574 165.39 282.188 163.378 278.994C161.312 282.554 159.549 286.31 157.589 289.934C158.126 290.747 158.606 291.606 159.106 292.443C160.317 293.692 161.152 293.723 162.843 293.752C167.575 293.832 172.353 293.648 177.086 293.543C178.786 292.265 180.089 290.727 181.496 289.147C182.461 290.645 183.335 292.287 184.409 293.702C187.584 293.793 198.858 294.306 201.154 293.413C203.131 292.645 204.774 290.885 206.3 289.455C207.289 291.092 208.133 292.554 209.684 293.731C213.348 293.782 221.41 294.394 224.61 293.555C225.834 293.234 227.062 292.537 227.984 291.671C228.745 290.957 229.426 290.14 230.044 289.3C231.049 290.749 232.049 292.357 233.275 293.628C236.93 293.846 245.439 293.274 248.309 293.94C250.603 293.185 252.239 291.175 253.878 289.487C255.07 291.154 256.53 292.404 257.8 293.971C259.294 295.814 260.475 297.962 261.739 299.965C264.079 300.373 266.423 300.528 268.757 299.989C270.658 299.551 272.421 298.696 273.817 297.316C276.521 294.641 280.84 285.874 283.137 282.13C278.886 284.526 274.25 286.901 269.229 285.448C265.337 284.322 263.123 281.204 261.206 277.89Z" fill="#FEFEFE"/>
<path d="M485.069 433.576L439.077 433.629C431.275 433.628 423.444 433.478 415.645 433.654L415.618 458.69C435.042 458.81 454.467 458.822 473.892 458.726C476.499 453.367 478.907 447.891 481.345 442.454C482.611 439.632 484.31 436.563 485.069 433.576Z" fill="#FEFEFE"/>
<path d="M344.695 299.878C341.183 303.827 337.783 311.261 334.666 315.96C340.906 316.06 347.24 316.164 353.474 315.85L355.289 313.355C356.412 314.261 357.519 315.132 358.736 315.912C363.639 316.204 370.617 315.363 375.128 316.32C376.556 315.114 377.805 313.802 379.067 312.427C382.101 315.612 385.215 318.805 389.941 318.88C394.891 318.958 398.08 316.218 401.36 312.953C401.85 313.5 402.346 314.04 402.849 314.574C405.267 317.126 408.218 318.845 411.825 318.884C416.661 318.937 419.96 315.97 423.243 312.872C424.403 314.139 425.577 315.398 426.968 316.418C429.666 318.397 432.677 319.286 436.015 318.704C439.788 318.046 442.514 315.878 444.713 312.869C446.918 314.97 449.017 317.213 451.956 318.276C455.657 319.614 459.01 318.595 462.4 317.006C465.133 315.531 469.815 306.093 471.59 302.99C469.179 304.206 466.751 305.07 464.029 305.154C459.231 305.303 456.176 303.139 452.822 300.036C449.904 302.808 446.788 304.942 442.626 305.173C437.746 305.444 434.649 303.1 431.286 299.986C428.167 302.808 425.146 305.086 420.715 305.22C416.007 305.362 412.822 303.065 409.623 299.971C409.443 300.148 409.262 300.323 409.08 300.498C406.011 303.437 402.534 305.32 398.158 305.195C394.12 305.079 390.817 303.07 388.095 300.194C384.998 303.096 381.579 305.059 377.231 305.102C372.852 305.146 369.904 302.955 366.91 300.065C366.497 300.485 366.071 300.893 365.633 301.288C362.628 304.018 358.844 305.361 354.796 305.133C350.603 304.898 347.442 302.974 344.695 299.878Z" fill="#FEFEFE"/>
<path d="M376.061 284.239C374.924 285.36 373.809 286.513 372.461 287.383C368.373 290.021 362.488 290.393 358.383 287.562C356.998 286.607 355.487 284.764 353.842 284.406C352.238 285.176 346.336 296.376 345.352 298.506C348.087 301.09 350.54 303.138 354.482 303.519C357.791 303.838 361.441 303.05 363.915 300.712C364.839 299.838 365.664 298.763 366.667 297.989C366.738 297.934 366.815 297.885 366.89 297.833C369.807 300.735 372.52 303.482 376.946 303.627C381.799 303.786 384.97 300.909 388.307 297.884C391.095 300.889 393.744 303.521 398.148 303.664C403.109 303.825 406.372 300.874 409.78 297.787C410.482 298.474 411.119 299.233 411.818 299.926C414.166 302.252 417.203 303.744 420.553 303.652C425.252 303.522 428.235 300.787 431.299 297.625C431.874 298.169 432.398 298.782 432.954 299.347C435.431 301.858 438.347 303.611 441.988 303.576C446.691 303.532 449.681 300.82 452.805 297.717C454.403 299.304 455.936 300.937 457.892 302.093C460.705 303.754 464.219 304.132 467.353 303.249C469.271 302.709 471.254 301.689 472.663 300.272C475.349 297.575 478.666 290.684 480.681 287.147C478.002 288.531 475.46 289.539 472.407 289.571C467.529 289.622 464.482 287.534 461.108 284.27C460.43 284.603 459.686 285.521 459.128 286.063C456.805 288.321 453.306 289.385 450.097 289.309C445.64 289.205 442.699 287.258 439.743 284.146C438.574 285.315 437.429 286.45 436.047 287.368C434.863 288.155 433.604 288.704 432.227 289.053C428.881 289.899 420.525 290.059 417.194 289.286C415.655 288.928 415.114 288.416 414.282 287.102C412.136 288.451 410.028 289.383 407.43 289.393C403.371 289.408 400.674 287.206 397.99 284.476C395.219 287.31 391.895 289.188 387.888 289.442C382.863 289.76 379.604 287.417 376.061 284.239Z" fill="#FEFEFE"/>
<path d="M383.139 216.222C379.413 208.095 375.968 199.844 372.304 191.69C371.033 188.862 369.898 185.905 368.479 183.151L347.983 228.1L340.833 243.95C339.517 246.868 338.294 249.983 336.743 252.777C338.717 256.771 341.07 260.624 343.255 264.508C346.532 270.299 349.715 276.141 352.803 282.036C357.078 273.708 362.054 265.735 366.546 257.524C364.53 254.851 355.382 242.509 355.693 240.058C355.702 239.987 355.727 239.919 355.745 239.85C356.318 239.867 356.1 239.761 356.511 240.187C357.981 241.71 359.117 244.119 360.281 245.923C362.508 249.387 364.825 252.791 367.23 256.133C367.219 251.983 366.658 228.359 367.578 226.094L368.308 226.194C369.322 227.714 368.688 250.881 368.776 254.936C371.916 251.144 380.796 239.694 384.873 238.298L385.415 238.414C385.547 238.74 385.691 238.825 385.504 239.167C385.035 240.025 383.727 240.896 382.974 241.548C378.66 245.281 374.862 249.519 371.392 254.04L400.192 253.982C404.867 253.975 409.74 254.271 414.39 253.889C409.59 253.668 404.693 253.842 399.883 253.834C396.88 248.626 394.814 242.92 392.398 237.428C389.293 230.372 385.938 223.409 383.139 216.222Z" fill="#9498FB"/>
<path d="M444.684 351.216C427.776 350.743 410.741 351.151 393.82 351.173C396.037 354.848 398.002 358.651 400.136 362.371C405.855 372.205 411.405 382.134 416.787 392.157C418.642 395.61 420.94 398.873 422.708 402.354C423.042 403.011 423.322 403.582 423.322 404.338C421.831 405.153 418.282 404.713 416.533 404.698C416.122 404.703 416.047 404.744 415.699 404.93C415.367 407.8 415.625 410.955 415.626 413.853L415.645 432.204C425.324 432.521 435.114 432.216 444.807 432.21L444.848 390.676C444.858 377.534 445.008 364.354 444.684 351.216Z" fill="#E6EBF1"/>
<path d="M465.363 188.127C443.076 184.041 413.208 194.288 395.013 206.804C390.786 209.711 387.103 213.001 383.139 216.222C385.938 223.409 389.293 230.372 392.398 237.429C394.814 242.92 396.88 248.626 399.883 253.834C404.693 253.843 409.59 253.668 414.39 253.889L414.428 251.066C412.488 250.557 411.188 250.212 410.046 248.406C408.817 246.46 408.698 243.658 409.211 241.469C409.579 239.903 410.362 238.448 411.783 237.614C413.938 236.348 431.139 236.412 434.115 237.154C435.478 237.494 436.333 238.101 437.017 239.34C438.063 241.236 438.116 245.483 437.45 247.535C436.852 249.375 435.206 250.104 433.589 250.863L433.707 253.908C435.893 253.892 438.079 253.889 440.265 253.899C443.744 253.887 447.224 253.898 450.703 253.931C450.164 251.634 449.371 249.49 449.002 247.128C446.72 232.51 451.222 213.801 457.689 200.594C459.852 196.175 462.476 192.101 465.363 188.127Z" fill="#D7D8E1"/>
<path d="M318.369 222.335C315.857 225.329 312.88 232.032 310.84 235.841C308.176 240.818 305.307 245.733 302.561 250.668C291.349 270.551 279.932 290.316 268.311 309.962C269.372 311.99 270.679 313.945 271.861 315.908C280.479 316.171 289.135 316.015 297.758 316.024C309.584 316.073 321.41 316.06 333.236 315.986C338.156 307.448 343.136 298.859 348.252 290.44C347.328 288.578 346.311 286.756 345.33 284.923C338.652 272.503 331.56 260.321 324.85 247.916C323.278 245.009 321.411 242.218 319.949 239.264C319.641 238.642 319.345 238.091 319.571 237.414L320.148 237.295C321.329 237.914 346.259 283.446 349.05 288.781C350.228 287.089 351.193 285.15 352.029 283.267C349.193 279.26 345.746 272.047 343.224 267.461C338.522 258.91 333.624 250.459 328.978 241.881C325.466 235.397 322.221 228.618 318.369 222.335Z" fill="#FEFEFE"/>
<path d="M312.843 273.028C312.685 273.028 312.527 273.025 312.368 273.027C308.727 273.075 305.334 274.956 302.876 277.552C298.905 281.748 297.552 287.251 297.671 292.886C302.121 293.2 306.66 293.029 311.121 293.029C316.265 293.038 321.547 293.303 326.671 292.906C326.881 287.9 325.766 282.431 322.635 278.414C320.091 275.15 316.927 273.51 312.843 273.028Z" fill="#212021"/>
<path d="M512.8 201.728C510.326 195.942 506.494 189.184 501.948 184.805C497.236 180.266 491.17 176.879 484.481 177.077C476.317 177.318 470.61 182.505 465.363 188.127C462.476 192.101 459.852 196.175 457.689 200.594C451.222 213.801 446.72 232.51 449.002 247.128C449.371 249.49 450.164 251.634 450.703 253.931C462.152 253.973 473.661 254.14 485.103 253.87L485.191 250.766C483.378 249.227 470.568 236.149 470.36 234.786L470.657 234.221L471.168 234.101C472.45 235.166 473.55 236.593 474.675 237.827C477.37 240.785 482.353 246.589 485.189 248.881C485.465 244.342 484.917 217.759 485.566 215.879C486.06 215.632 486.019 215.706 486.524 215.809C487.364 217.215 486.831 245.127 486.704 249.072C488.395 247.03 498.889 234.61 500.45 234.127L500.908 234.322C501.001 235.111 500.662 235.574 500.192 236.193C498.602 238.284 496.612 240.171 494.826 242.097C492.123 245.014 489.478 248.024 486.565 250.736L486.607 253.916L502.01 253.915C506.052 261.164 510.245 268.341 514.22 275.625C519.216 259.828 521.376 240.937 518.857 224.507C517.656 216.673 515.437 209.186 512.8 201.728Z" fill="#9498FB"/>
<path d="M215.287 221.15C215.38 221.14 215.472 221.13 215.564 221.121C218.094 220.878 220.901 221.421 223.347 220.96C219.377 220.646 215.267 220.891 211.279 220.869C206.853 220.844 202.445 220.598 198.013 220.633C196.235 222.353 190.678 229.413 190.042 231.62C190.275 233.728 191.599 235.304 193.206 236.612C194.877 237.971 197.512 239.123 199.709 238.792C202.125 238.428 203.987 237.004 206.243 236.32C203.855 238.416 201.459 239.476 198.236 239.271C192.858 238.927 190.96 233.034 188.976 233.173C187.532 235.031 182.016 242.198 181.661 244.044C181.61 244.312 181.656 244.819 181.697 245.104C181.779 245.674 183.786 249.833 184.125 250.286C184.544 250.846 185.121 251.316 185.706 251.693C185.88 251.803 186.057 251.908 186.236 252.009C186.416 252.109 186.598 252.205 186.782 252.297C186.966 252.389 187.153 252.476 187.342 252.558C187.531 252.64 187.721 252.717 187.914 252.79C188.107 252.863 188.301 252.93 188.497 252.993C188.693 253.056 188.891 253.114 189.09 253.166C189.288 253.219 189.489 253.267 189.69 253.31C189.891 253.353 190.094 253.39 190.297 253.423C190.5 253.456 190.704 253.483 190.909 253.505C191.114 253.528 191.319 253.545 191.524 253.557C191.73 253.569 191.935 253.575 192.141 253.577C192.347 253.578 192.553 253.575 192.759 253.566C192.964 253.557 193.17 253.543 193.375 253.524C193.58 253.505 193.784 253.481 193.988 253.452C194.191 253.422 194.394 253.388 194.596 253.348C194.798 253.308 194.999 253.263 195.199 253.214C197.629 252.605 200.678 250.884 201.888 248.595C202.108 248.18 202.288 247.744 202.477 247.315C202.654 246.911 202.556 247.069 202.796 246.774L202.972 247.022L203.104 246.642C204.018 247.78 205.132 248.969 205.831 250.246C206.755 251.935 209.111 253.025 210.883 253.524C212.736 254.045 215.624 254.244 217.334 253.18C217.501 253.077 217.597 252.995 217.754 252.878C219.07 251.9 221.113 251.083 221.925 249.629C222.233 249.078 222.713 248.736 223.193 248.34C221.805 251.245 218.161 253.37 215.202 254.46C213.286 255.165 211.156 254.424 209.436 253.53C206.529 252.02 205.243 249.204 203.114 248.046C202.346 248.496 201.897 249.511 201.251 250.143C198.185 253.145 193.234 254.953 188.999 253.878C185.863 253.083 183.975 250.515 182.169 248.049C181.692 247.397 181.431 246.908 181.221 246.127C180.669 246.13 180.421 246.139 180.03 246.615C179.532 247.219 179.378 248.184 179 248.877C177.752 251.161 170.069 263.07 170.488 264.831C170.762 265.987 171.879 267.723 172.959 268.259C175.243 269.394 178.154 269.714 180.553 268.85C184.778 267.328 186.742 263.565 188.677 262.724C191.727 264.772 192.662 267.949 196.72 269.001C197.932 269.315 199.181 269.474 200.416 269.218C203.495 268.578 205.732 267.892 207.966 265.584C208.617 264.911 210.702 262.161 211.443 262.178C214.826 266.274 215.891 268.42 221.563 268.949C226.158 269.378 225.831 267.15 229.042 265.898C228.71 266.914 227.024 267.908 226.106 268.369C223.574 269.638 220.851 269.909 218.176 268.913C214.29 267.466 212.857 263.757 211.472 263.035C211.368 262.982 210.841 263.23 210.832 263.235C210.063 263.659 209.33 264.833 208.694 265.467C206.052 268.103 201.988 270.288 198.157 269.9C192.461 269.326 192.087 265.525 188.924 263.595L188.755 263.927L188.602 263.736C184.947 266.546 181.391 270.608 176.298 269.894C175.108 269.727 173.846 269.382 172.828 268.726C171.972 268.174 170.498 265.681 169.568 266.122C167.5 269.758 165.64 273.509 163.643 277.184C165.36 280.553 167.171 282.996 170.957 284.216C171.165 284.284 171.374 284.346 171.585 284.403C171.796 284.46 172.008 284.512 172.221 284.559C172.434 284.606 172.649 284.647 172.864 284.683C173.08 284.718 173.296 284.749 173.513 284.774C173.73 284.799 173.948 284.818 174.165 284.832C174.383 284.846 174.602 284.855 174.82 284.858C175.038 284.86 175.256 284.858 175.475 284.85C175.693 284.842 175.911 284.829 176.129 284.81C176.346 284.791 176.563 284.767 176.78 284.737C176.996 284.707 177.211 284.672 177.426 284.631C177.641 284.59 177.854 284.544 178.066 284.493C178.279 284.441 178.489 284.385 178.699 284.323C178.908 284.261 179.116 284.194 179.322 284.121C179.528 284.049 179.732 283.971 179.934 283.888C180.137 283.806 180.337 283.718 180.535 283.625C180.732 283.533 180.927 283.435 181.12 283.332C183.389 282.118 185.113 280.118 186.658 278.093C189.763 281.647 191.846 284.652 197.026 284.984C200.61 285.214 205.229 283.975 207.819 281.362C208.724 280.449 209.716 278.175 210.777 277.66C210.83 277.759 210.881 277.859 210.936 277.958C212.575 280.89 215.831 283.668 219.091 284.534C222.424 285.419 226.171 284.903 229.093 283.065C231.4 281.614 233.055 279.489 234.682 277.348C237.412 280.895 239.931 284.204 244.735 284.827C248.846 285.36 253.013 284.066 256.245 281.514C258.097 280.052 259.599 278.247 261.132 276.468L261.184 276.633L261.363 276.38C264.008 279.759 265.149 284.047 270.104 284.701C273.198 285.108 277.021 284.604 279.773 283.079C280.528 282.66 281.151 282.064 281.871 281.595C282.664 281.078 283.562 280.697 284.319 280.124C285.208 279.452 292.259 267.414 292.396 266.412L292.157 266.171C290.907 266.466 289.99 267.335 288.838 267.868C285.491 269.414 280.457 270.165 277.189 268.083C275.921 267.276 273.422 264.762 273.047 263.243C273.031 263.175 273.03 263.105 273.022 263.036C272.703 263.031 272.535 262.942 272.288 263.177C271.682 263.756 271.367 264.692 270.847 265.366C268.933 267.849 264.966 269.458 261.956 269.567C259.44 269.658 256.192 269.082 254.267 267.346C253.699 266.834 253.318 266.217 252.98 265.543C252.378 264.345 250.064 263.07 250.429 261.711L251.071 261.332C252.268 262.455 252.192 264.467 253.571 265.724C255.945 267.889 258.369 269.252 261.695 269.181C264.945 269.111 267.96 267.618 270.105 265.199C270.777 264.441 272.442 261.394 273.127 261.321C274.726 264.5 275.19 266.948 278.974 268.224C282.448 269.394 286.314 268.553 289.476 266.888C290.965 266.103 292.549 265.097 293.693 263.85C294.143 263.359 300.78 252.08 300.882 251.535C300.93 251.277 300.904 251.226 300.862 251.001C299.379 250.811 297.632 252.856 296.246 253.424C291.561 255.341 286.026 254.445 282.848 250.342C282.13 249.414 281.667 248.451 281.236 247.369C277.572 251.092 273.736 254.757 268.113 254.757C265.009 254.757 262.247 253.464 260.027 251.355C259.371 250.732 258.646 249.832 257.875 249.373C257.412 249.098 257.213 249.099 256.802 249.472C255.44 250.711 253.962 252.503 252.272 253.314C250.993 253.927 247.465 253.873 246.653 254.546C243.659 254.955 229.201 255.172 226.767 254.367C225.848 252.261 226.567 243.504 226.576 240.685C226.579 239.905 226.569 239.245 225.999 238.677L225.037 238.916C224.678 238.344 224.489 238.171 223.865 237.912L226.464 237.013C226.516 231.798 226.524 226.583 226.487 221.367C222.782 221.366 218.974 221.508 215.287 221.15Z" fill="black"/>
<path d="M215.287 221.15C209.6 221.202 203.915 221.119 198.231 220.903C195.334 224.198 192.499 228.067 190.229 231.826C191.775 234.556 193.586 237.237 196.793 238.126C199.284 238.816 202 238.122 204.175 236.83C206.956 235.179 208.478 232.71 210.519 230.308C212.267 233.374 213.989 237.106 217.701 238.095C219.717 238.632 221.853 238.278 223.865 237.912L226.464 237.013C226.516 231.798 226.524 226.583 226.487 221.367C222.782 221.366 218.974 221.508 215.287 221.15Z" fill="#FEFEFE"/>
<path d="M231.875 263.758C230.818 265.123 229.674 266.389 228.299 267.442C225.951 269.242 223.073 270.319 220.09 269.855C216.037 269.224 213.55 266.406 211.263 263.287C210.242 264.478 209.227 265.665 208.027 266.682C205.268 269.022 202.004 270.503 198.309 270.146C193.867 269.716 191.319 267.037 188.688 263.77C187.724 264.869 186.712 265.948 185.586 266.883C182.953 269.066 179.658 270.695 176.149 270.281C173.306 269.946 171.57 268.442 169.924 266.257C168.088 269.936 166.025 273.497 164.199 277.183C164.745 278.484 165.382 279.683 166.331 280.741C168.446 283.098 171.387 284.31 174.527 284.423C178.451 284.564 181.43 282.96 184.229 280.385L186.725 277.316C188.641 279.289 189.803 281.745 192.289 283.161C195.215 284.828 198.664 285.03 201.873 284.116C206.051 282.926 208.555 280.169 210.628 276.538C212.309 279.124 213.961 281.502 216.712 283.062C219.528 284.66 222.999 284.955 226.084 284.01C230.004 282.81 232.615 279.85 234.421 276.326C236.017 277.935 237.116 279.971 238.786 281.534C241.075 283.677 243.957 284.757 247.091 284.598C253.684 284.264 257.441 279.927 261.483 275.312C263.282 278.394 264.457 281.529 267.741 283.412C270.21 284.827 273.092 284.797 275.771 284.06C278.58 283.286 282.371 281.506 284.363 279.353C286.785 276.734 289.981 270.016 291.86 266.661L291.016 267.127C287.308 269.151 283.056 270.552 278.839 269.217C275.747 268.237 274.136 266.145 272.713 263.389C271.398 265.328 269.989 266.996 267.973 268.232C267.797 268.34 267.618 268.444 267.436 268.544C267.254 268.643 267.07 268.738 266.883 268.829C266.697 268.919 266.508 269.005 266.317 269.085C266.126 269.166 265.934 269.242 265.739 269.313C265.544 269.385 265.348 269.451 265.15 269.513C264.952 269.574 264.753 269.631 264.552 269.682C264.351 269.734 264.149 269.78 263.946 269.822C263.743 269.863 263.539 269.9 263.335 269.931C263.129 269.962 262.924 269.988 262.718 270.009C262.512 270.03 262.305 270.046 262.098 270.057C261.891 270.068 261.684 270.073 261.476 270.073C261.269 270.074 261.062 270.069 260.855 270.059C260.648 270.049 260.441 270.034 260.235 270.013C260.029 269.993 259.823 269.968 259.618 269.937C259.413 269.906 259.209 269.871 259.006 269.83C258.803 269.789 258.601 269.743 258.4 269.693C254.744 268.779 252.709 266.49 250.884 263.374C249.767 265.066 248.425 266.599 246.78 267.797C244.564 269.412 242.039 270.196 239.309 269.674C235.713 268.988 233.769 266.631 231.875 263.758Z" fill="#FEFEFE"/>
<path d="M210.43 232.614C207.443 236.097 204.527 239.318 199.603 239.653C196.914 239.836 194.464 238.936 192.492 237.109C191.305 236.01 190.397 234.671 189.558 233.298C186.794 236.86 183.921 240.429 181.926 244.497C183.002 247.757 184.505 250.731 187.76 252.302C190.273 253.515 193.349 253.546 195.951 252.587C199.334 251.341 201.345 248.679 203.152 245.724C205.488 249.021 207.798 252.856 212.182 253.525C214.5 253.878 217.089 253.082 218.913 251.65C220.037 250.767 222.228 248.161 223.464 247.885C223.738 248.36 223.746 248.163 223.622 248.635C223.103 250.609 219.435 252.936 217.684 253.851C215.37 255.061 212.868 255.245 210.399 254.395C207.134 253.272 205.217 250.972 203.323 248.239C201.159 251.309 197.903 253.715 194.158 254.365C191.076 254.9 187.937 254.311 185.388 252.461C183.208 250.88 181.946 248.762 180.878 246.351C177.422 252.36 173.706 258.342 170.688 264.584C171.866 266.626 173.082 268.238 175.507 268.871C177.981 269.516 180.587 268.567 182.681 267.26C184.15 266.343 187.904 262.392 188.63 262.139C190.136 262.537 191.219 264.644 192.256 265.749C195.742 269.463 200.466 269.857 204.79 267.34C207.418 265.81 209.305 263.494 211.283 261.243C213.762 264.416 216.359 268.026 220.68 268.632C223.264 268.994 225.607 267.954 227.602 266.382C229.345 265.01 230.723 263.334 232.117 261.621C233.994 264.643 235.857 267.705 239.635 268.506C241.733 268.952 243.769 268.388 245.515 267.187C248.131 265.389 249.772 262.882 251.291 260.154C252.582 263.5 253.816 266.335 257.305 267.91C259.845 269.056 262.959 269.002 265.526 267.971C266.803 267.458 268.139 266.661 269.135 265.697C269.668 265.18 272.613 260.74 272.967 260.728C273.133 260.723 273.28 260.839 273.436 260.894C273.756 261.42 273.888 261.854 274.046 262.451C274.581 264.465 275.791 266.016 277.589 267.074C280.204 268.612 283.31 268.645 286.169 267.848C294.315 265.579 296.427 257.711 300.626 251.378C296.598 253.763 292.827 255.646 287.981 254.358C284.558 253.448 282.698 251.186 280.991 248.28C277.649 251.868 273.732 254.909 268.623 255.056C265.127 255.157 261.828 253.902 259.324 251.456C258.641 250.788 258.03 249.998 257.478 249.223C255.407 251.953 252.766 253.994 249.269 254.449C248.394 254.563 247.532 254.591 246.653 254.546C243.659 254.955 229.201 255.172 226.767 254.367C225.848 252.261 226.567 243.504 226.576 240.685C226.579 239.905 226.569 239.245 225.999 238.677L225.037 238.915C222.18 239.809 218.684 240.278 215.92 238.87C213.332 237.553 211.877 235.005 210.43 232.614Z" fill="#FEFEFE"/>
<path d="M501.387 256.032C496.682 262.707 492.587 269.98 488.446 277.019L467.385 313.186C462.332 321.652 457.36 330.166 452.468 338.726C450.853 341.507 447.422 346.432 446.549 349.309C446.305 350.115 446.332 351.139 446.325 351.983L446.386 406.791L446.363 424.059C446.36 426.414 446.072 429.173 446.389 431.478C446.435 431.807 446.457 431.842 446.547 432.115C447.057 432.246 447.425 432.274 447.949 432.233C451.322 431.588 456.054 432.038 459.58 432.035L486.088 432.058C488.997 426.902 491.04 421.322 493.871 416.127C496.149 421.556 498.537 426.863 501.145 432.141C508.226 431.8 515.443 432.102 522.541 432.101C530.806 432.101 539.173 431.839 547.425 432.173C547.549 412.736 547.572 393.299 547.494 373.862L547.465 361.003C547.472 357.761 547.937 353.636 547.119 350.509C546.247 347.173 541.267 339.934 539.336 336.492L514.364 292.55C511.147 287.005 507.967 281.439 504.823 275.852C503.733 273.926 502.446 272.034 501.442 270.076C501.151 269.51 500.893 268.949 500.885 268.304L501.205 268.114C501.994 268.512 502.474 269.063 502.973 269.79C506.327 274.674 509.743 281.752 512.859 287.114L535.059 325.773C539.51 333.648 543.737 341.791 548.522 349.459C550.592 349.458 552.665 349.483 554.734 349.445C541.193 326.264 527.871 302.957 514.768 279.525C510.313 271.718 506.057 263.706 501.387 256.032Z" fill="#FEFEFE"/>
<path d="M500.189 316.863C499.571 316.798 498.94 316.791 498.318 316.792C494.437 316.801 490.483 318.821 487.812 321.572C483.932 325.57 483.099 330.053 483.216 335.442C487.539 335.496 491.862 335.52 496.185 335.515L513.651 335.502C513.808 331.004 512.955 326.301 510.197 322.633C507.69 319.3 504.288 317.456 500.189 316.863Z" fill="black"/>
<path d="M509.171 323.747C506.106 327.019 503.109 330.502 500.311 334.004L502.804 333.963C505.913 333.957 509.022 333.973 512.13 333.839C511.947 330.064 511.231 326.94 509.171 323.747Z" fill="#FDBE50"/>
<path d="M487.845 323.95C487.724 324.038 487.591 324.109 487.483 324.212C485.105 326.477 484.7 330.895 484.625 333.951C487.638 333.993 490.656 333.96 493.67 333.962L496.813 333.941C494.05 330.47 490.716 327.362 487.845 323.95Z" fill="#FDBE50"/>
<path d="M497.348 318.323C493.949 318.772 491.173 320.46 488.662 322.711C490.079 324.455 491.647 326.098 493.152 327.767L497.496 332.532C497.533 328.582 498.054 321.931 497.348 318.323Z" fill="#FDBE50"/>
<path d="M500.498 318.507L499.423 318.49C498.728 319.338 499.145 330.707 499.153 332.765L502.836 328.573C504.661 326.569 506.675 324.521 508.188 322.273C505.783 320.213 503.572 319.222 500.498 318.507Z" fill="#FDBE50"/>
<path d="M534.015 365.27L509.095 365.236L509.074 397.688C509.059 403.215 508.675 409.024 509.075 414.519C509.103 414.911 509.18 415.116 509.408 415.431C513.191 415.808 517.175 415.57 520.98 415.573C525.149 415.577 529.423 415.799 533.579 415.533C533.997 414.954 534.018 414.433 534.072 413.742C534.304 410.808 534.187 407.781 534.19 404.837C534.213 399.486 534.187 394.136 534.113 388.786C534.032 380.959 534.316 373.088 534.015 365.27Z" fill="black"/>
<path d="M532.56 366.7L522.444 366.71L522.397 388.742C525.775 388.804 529.161 388.754 532.54 388.75L532.56 366.7Z" fill="#FEFEFE"/>
<path d="M520.874 366.744C517.452 366.685 514.031 366.696 510.609 366.777C510.584 374.071 510.428 381.395 510.631 388.685C514.025 388.784 517.434 388.723 520.829 388.718L520.874 366.744Z" fill="#FEFEFE"/>
<path d="M532.597 390.365C529.201 390.304 525.793 390.366 522.395 390.369L522.415 414.012L532.61 413.972C532.734 406.11 532.611 398.229 532.597 390.365Z" fill="#FEFEFE"/>
<path d="M520.851 390.35L510.553 390.296L510.537 413.901C513.959 413.981 517.39 413.945 520.813 413.961C520.839 406.092 520.919 398.219 520.851 390.35Z" fill="#FEFEFE"/>
<path d="M486.12 365.31C481.94 365.17 477.72 365.264 473.537 365.264C469.401 365.264 465.233 365.164 461.103 365.396C460.893 369.119 461.017 372.906 461.006 376.635L460.939 396.462L460.901 408.563C460.897 410.839 460.715 413.294 461.043 415.542C469.083 415.57 478.09 416.012 485.983 415.441C486.523 410.972 486.705 367.06 486.12 365.31Z" fill="black"/>
<path d="M484.859 366.746C481.424 366.68 477.99 366.685 474.555 366.76C474.318 374.014 474.547 381.346 474.581 388.606C478.003 388.66 481.424 388.662 484.846 388.614C484.939 381.329 484.891 374.032 484.859 366.746Z" fill="#FEFEFE"/>
<path d="M473.023 366.766C469.482 366.742 465.945 366.703 462.405 366.843C462.396 374.079 462.257 381.344 462.474 388.576C465.98 388.752 469.513 388.661 473.022 388.648C473.087 381.353 473.087 374.06 473.023 366.766Z" fill="#FEFEFE"/>
<path d="M484.859 390.235C481.404 390.136 477.926 390.216 474.468 390.214L474.471 413.935L484.71 413.932C485.067 406.074 484.86 398.105 484.859 390.235Z" fill="#FEFEFE"/>
<path d="M473.015 390.205L462.409 390.204L462.402 413.934L473.034 413.959L473.015 390.205Z" fill="#FEFEFE"/>
<path d="M503.539 129.001C500.991 128.992 487.23 128.468 485.845 129.263C485.544 129.435 485.549 130.009 485.481 130.328C488.028 130.482 502.264 130.947 503.483 129.983L503.539 129.001Z" fill="black"/>
<path d="M458.282 108.109C454.605 107.983 450.893 108.075 447.212 108.063C443.964 108.052 440.629 107.895 437.394 108.182C436.888 108.609 437.005 108.872 436.94 109.498C439.59 109.618 456.869 109.964 458.073 109.183L458.282 108.109Z" fill="black"/>
<path d="M208.847 176.752C206.123 176.695 188.58 176.37 187.529 176.867C187.361 176.946 187.245 177.106 187.103 177.226L187.093 178.169L187.57 178.18C190.165 178.224 207.697 178.487 208.586 178.011C208.735 177.931 208.829 177.773 208.95 177.655L208.847 176.752Z" fill="black"/>
<path d="M253.355 150.044C250.452 150.007 220.702 149.732 219.775 150.294C219.482 150.471 219.465 151.134 219.4 151.462C222.894 151.573 251.91 151.939 253.202 151.137L253.355 150.044Z" fill="black"/>
<path d="M136.513 232.357C136.192 232.448 135.707 232.472 135.516 232.767C134.927 233.677 135.195 243.631 135.624 245.026C136.375 247.466 138.1 249.701 140.392 250.863C140.629 250.986 140.871 251.096 141.118 251.194C141.365 251.292 141.617 251.377 141.874 251.449C142.13 251.522 142.389 251.581 142.651 251.627C142.913 251.672 143.177 251.705 143.442 251.724C143.708 251.743 143.974 251.748 144.239 251.74C144.505 251.732 144.77 251.711 145.034 251.676C145.298 251.641 145.559 251.592 145.818 251.531C146.077 251.469 146.332 251.394 146.584 251.307C149.443 250.314 151.189 248.2 152.496 245.592C152.837 244.555 153.03 244.163 152.57 243.128C150.786 243.888 150.391 248.481 146.114 249.893C144.209 250.522 142.403 250.183 140.667 249.239C134.002 245.613 138.244 237.848 136.653 232.77C136.61 232.631 136.56 232.495 136.513 232.357Z" fill="black"/>
</g>
<path d="M3.75542 484.682C8.71576 484.451 13.8596 484.613 18.8394 484.61L47.2843 484.602C51.63 484.602 56.6285 484.967 60.9097 484.608C61.7366 484.539 62.2862 484.249 62.9283 483.916L63 483.512C61.9697 483.16 60.8806 483.106 59.7519 483.073C53.3724 482.886 46.8317 483.117 40.433 483.119L-3.8147e-06 483.182C0.388378 483.969 0.322029 484.259 1.38493 484.683L3.75542 484.682Z" fill="black"/>
<path d="M32.922 416.127C30.0908 421.321 28.0473 426.901 25.1386 432.058V432.198C19.6338 444.156 26.3732 437.855 23 438.5C26.5761 438.555 25.1207 432.072 25.1386 432.058L25 432.5L24.5 433C24.2365 433.192 24.4367 433.482 24.12 433.576C23.3609 436.563 21.6613 439.632 20.3961 442.454C17.9572 447.891 15.5499 453.367 12.9425 458.726C12.8011 459.418 12.7415 460.174 12.1326 460.63C10.8771 464.003 9.18183 467.236 7.6265 470.479C5.62215 474.681 3.65511 478.902 1.72536 483.14L23.0965 483.147C25.8744 483.146 30.3926 483.579 32.9942 482.915L33.1618 482.923C36.3824 483.333 39.9401 483.041 43.1917 483.05L63.2058 483.172C61.1904 477.764 58.6508 472.387 56.2575 467.132C55.2819 464.989 54.1488 462.891 53.324 460.687C53.8502 460.308 54.4422 460.311 55.0724 460.218L53.4216 460.22C52.6814 459.795 52.7276 459.505 52.4571 458.719C51.1626 456.894 50.3306 454.207 49.3845 452.155C46.5615 446.03 43.9251 439.696 40.8042 433.724C40.5257 433.509 40.4414 433.283 40.2787 432.976L40.5 434C41.6041 435.407 41.5 435.077 41.5 435.077L40.5 433L40.1954 432.141C37.5875 426.863 35.1995 421.556 32.922 416.127Z" fill="#9498FB"/>
<path d="M33.8953 478.656C33.9104 474.847 34.4112 450.367 33.6076 449.239C33.0889 449.011 33.1315 448.991 32.6064 449.194C31.8988 451.655 32.3691 457.026 32.3807 459.81C32.4317 466.388 32.4453 472.966 32.4214 479.545L32.1405 479.32C29.7636 477.399 19.2871 465.841 17.1583 465.841L16.9534 466.223C17.5109 467.543 19.0744 468.716 20.0868 469.721C22.4171 472.035 32.3114 480.926 32.9944 482.915L33.162 482.923C33.1775 482.844 33.192 482.764 33.209 482.685C34.1143 478.491 47.2341 468.577 47.5019 466.463C47.5252 466.279 47.3605 466.121 47.2898 465.951L46.8088 465.686C45.1919 466.263 35.5228 476.787 33.8953 478.656Z" fill="black"/>
<defs>
<clipPath id="clip0_10962_3399">
<rect width="496" height="496" fill="white" transform="matrix(-1 0 0 1 559 0)"/>
</clipPath>
</defs>
</svg>
