<svg width="356" height="55" viewBox="0 0 356 55" fill="none" xmlns="http://www.w3.org/2000/svg">
<path d="M154.258 10.002C154.781 10.0953 155.224 10.3707 155.588 10.828C155.952 11.2853 156.134 11.8033 156.134 12.382C156.134 12.8767 156.003 13.3247 155.742 13.726C155.49 14.118 155.121 14.4307 154.636 14.664C154.151 14.888 153.586 15 152.942 15H149.05V5.27H152.76C153.423 5.27 153.992 5.382 154.468 5.606C154.944 5.83 155.303 6.13333 155.546 6.516C155.789 6.88933 155.91 7.30933 155.91 7.776C155.91 8.336 155.761 8.80267 155.462 9.176C155.163 9.54933 154.762 9.82467 154.258 10.002ZM150.646 9.358H152.62C153.143 9.358 153.549 9.24133 153.838 9.008C154.137 8.76533 154.286 8.42 154.286 7.972C154.286 7.53333 154.137 7.19267 153.838 6.95C153.549 6.698 153.143 6.572 152.62 6.572H150.646V9.358ZM152.802 13.698C153.343 13.698 153.768 13.5673 154.076 13.306C154.384 13.0447 154.538 12.6807 154.538 12.214C154.538 11.738 154.375 11.36 154.048 11.08C153.721 10.8 153.287 10.66 152.746 10.66H150.646V13.698H152.802ZM157.336 11.108C157.336 10.3333 157.495 9.64733 157.812 9.05C158.139 8.45267 158.578 7.99067 159.128 7.664C159.688 7.328 160.304 7.16 160.976 7.16C161.583 7.16 162.11 7.28133 162.558 7.524C163.016 7.75733 163.38 8.05133 163.65 8.406V7.286H165.26V15H163.65V13.852C163.38 14.216 163.011 14.5193 162.544 14.762C162.078 15.0047 161.546 15.126 160.948 15.126C160.286 15.126 159.679 14.958 159.128 14.622C158.578 14.2767 158.139 13.8007 157.812 13.194C157.495 12.578 157.336 11.8827 157.336 11.108ZM163.65 11.136C163.65 10.604 163.538 10.142 163.314 9.75C163.1 9.358 162.815 9.05933 162.46 8.854C162.106 8.64867 161.723 8.546 161.312 8.546C160.902 8.546 160.519 8.64867 160.164 8.854C159.81 9.05 159.52 9.344 159.296 9.736C159.082 10.1187 158.974 10.576 158.974 11.108C158.974 11.64 159.082 12.1067 159.296 12.508C159.52 12.9093 159.81 13.2173 160.164 13.432C160.528 13.6373 160.911 13.74 161.312 13.74C161.723 13.74 162.106 13.6373 162.46 13.432C162.815 13.2267 163.1 12.928 163.314 12.536C163.538 12.1347 163.65 11.668 163.65 11.136ZM166.825 11.136C166.825 10.3427 166.983 9.64733 167.301 9.05C167.627 8.44333 168.075 7.97667 168.645 7.65C169.214 7.32333 169.867 7.16 170.605 7.16C171.538 7.16 172.308 7.384 172.915 7.832C173.531 8.27067 173.946 8.90067 174.161 9.722H172.439C172.299 9.33933 172.075 9.04067 171.767 8.826C171.459 8.61133 171.071 8.504 170.605 8.504C169.951 8.504 169.429 8.73733 169.037 9.204C168.654 9.66133 168.463 10.3053 168.463 11.136C168.463 11.9667 168.654 12.6153 169.037 13.082C169.429 13.5487 169.951 13.782 170.605 13.782C171.529 13.782 172.14 13.376 172.439 12.564H174.161C173.937 13.348 173.517 13.9733 172.901 14.44C172.285 14.8973 171.519 15.126 170.605 15.126C169.867 15.126 169.214 14.9627 168.645 14.636C168.075 14.3 167.627 13.8333 167.301 13.236C166.983 12.6293 166.825 11.9293 166.825 11.136ZM178.803 11.15L182.359 15H180.203L177.347 11.682V15H175.751V4.64H177.347V10.66L180.147 7.286H182.359L178.803 11.15ZM190.573 10.954C190.573 11.2433 190.554 11.5047 190.517 11.738H184.623C184.67 12.354 184.898 12.8487 185.309 13.222C185.72 13.5953 186.224 13.782 186.821 13.782C187.68 13.782 188.286 13.4227 188.641 12.704H190.363C190.13 13.4133 189.705 13.9967 189.089 14.454C188.482 14.902 187.726 15.126 186.821 15.126C186.084 15.126 185.421 14.9627 184.833 14.636C184.254 14.3 183.797 13.8333 183.461 13.236C183.134 12.6293 182.971 11.9293 182.971 11.136C182.971 10.3427 183.13 9.64733 183.447 9.05C183.774 8.44333 184.226 7.97667 184.805 7.65C185.393 7.32333 186.065 7.16 186.821 7.16C187.549 7.16 188.198 7.31867 188.767 7.636C189.336 7.95333 189.78 8.40133 190.097 8.98C190.414 9.54933 190.573 10.2073 190.573 10.954ZM188.907 10.45C188.898 9.862 188.688 9.39067 188.277 9.036C187.866 8.68133 187.358 8.504 186.751 8.504C186.2 8.504 185.729 8.68133 185.337 9.036C184.945 9.38133 184.712 9.85267 184.637 10.45H188.907ZM191.612 11.108C191.612 10.3333 191.77 9.64733 192.088 9.05C192.414 8.45267 192.853 7.99067 193.404 7.664C193.964 7.328 194.584 7.16 195.266 7.16C195.77 7.16 196.264 7.272 196.75 7.496C197.244 7.71067 197.636 8 197.926 8.364V4.64H199.536V15H197.926V13.838C197.664 14.2113 197.3 14.5193 196.834 14.762C196.376 15.0047 195.849 15.126 195.252 15.126C194.58 15.126 193.964 14.958 193.404 14.622C192.853 14.2767 192.414 13.8007 192.088 13.194C191.77 12.578 191.612 11.8827 191.612 11.108ZM197.926 11.136C197.926 10.604 197.814 10.142 197.59 9.75C197.375 9.358 197.09 9.05933 196.736 8.854C196.381 8.64867 195.998 8.546 195.588 8.546C195.177 8.546 194.794 8.64867 194.44 8.854C194.085 9.05 193.796 9.344 193.572 9.736C193.357 10.1187 193.25 10.576 193.25 11.108C193.25 11.64 193.357 12.1067 193.572 12.508C193.796 12.9093 194.085 13.2173 194.44 13.432C194.804 13.6373 195.186 13.74 195.588 13.74C195.998 13.74 196.381 13.6373 196.736 13.432C197.09 13.2267 197.375 12.928 197.59 12.536C197.814 12.1347 197.926 11.668 197.926 11.136ZM206.865 8.434C207.135 8.06067 207.504 7.75733 207.971 7.524C208.447 7.28133 208.974 7.16 209.553 7.16C210.234 7.16 210.85 7.32333 211.401 7.65C211.951 7.97667 212.385 8.44333 212.703 9.05C213.02 9.64733 213.179 10.3333 213.179 11.108C213.179 11.8827 213.02 12.578 212.703 13.194C212.385 13.8007 211.947 14.2767 211.387 14.622C210.836 14.958 210.225 15.126 209.553 15.126C208.955 15.126 208.423 15.0093 207.957 14.776C207.499 14.5427 207.135 14.244 206.865 13.88V15H205.269V4.64H206.865V8.434ZM211.555 11.108C211.555 10.576 211.443 10.1187 211.219 9.736C211.004 9.344 210.715 9.05 210.351 8.854C209.996 8.64867 209.613 8.546 209.203 8.546C208.801 8.546 208.419 8.64867 208.055 8.854C207.7 9.05933 207.411 9.358 207.187 9.75C206.972 10.142 206.865 10.604 206.865 11.136C206.865 11.668 206.972 12.1347 207.187 12.536C207.411 12.928 207.7 13.2267 208.055 13.432C208.419 13.6373 208.801 13.74 209.203 13.74C209.613 13.74 209.996 13.6373 210.351 13.432C210.715 13.2173 211.004 12.9093 211.219 12.508C211.443 12.1067 211.555 11.64 211.555 11.108ZM221.701 7.286L216.969 18.626H215.317L216.885 14.874L213.847 7.286H215.625L217.795 13.166L220.049 7.286H221.701Z" fill="#BABABA"/>
<path fill-rule="evenodd" clip-rule="evenodd" d="M138.842 36.3044C142.435 36.3044 145.348 39.2243 145.348 42.8262C145.348 46.428 142.435 49.3479 138.842 49.3479C135.25 49.3479 132.337 46.428 132.337 42.8262C132.337 39.2243 135.25 36.3044 138.842 36.3044ZM160.527 36.3044L153.583 48.7168C153.251 49.3098 152.499 49.5227 151.904 49.1923C151.703 49.0811 151.538 48.9164 151.426 48.7168L145.504 38.1318C145.172 37.5388 145.386 36.7902 145.982 36.4598C146.165 36.3579 146.372 36.3044 146.582 36.3044H160.527Z" fill="#BABABA"/>
<path fill-rule="evenodd" clip-rule="evenodd" d="M165.032 41.6522C164.3 41.6522 163.736 41.4426 163.34 41.0233C162.944 40.6039 162.732 40.046 162.706 39.3493L162.696 38.9131L162.706 38.4769C162.732 37.7803 162.947 37.2223 163.349 36.803C163.752 36.3836 164.313 36.174 165.032 36.174C165.75 36.174 166.311 36.3836 166.714 36.803C167.116 37.2223 167.331 37.7803 167.358 38.4769C167.371 38.6257 167.378 38.7711 167.378 38.9131C167.378 39.0551 167.371 39.2006 167.358 39.3493C167.331 40.046 167.12 40.6039 166.724 41.0233C166.328 41.4426 165.764 41.6522 165.032 41.6522ZM165.032 40.8914C165.458 40.8914 165.795 40.7544 166.045 40.4805C166.294 40.2066 166.429 39.8126 166.449 39.2986C166.456 39.231 166.459 39.1025 166.459 38.9131C166.459 38.7237 166.456 38.5952 166.449 38.5276C166.429 38.0136 166.294 37.6196 166.045 37.3457C165.795 37.0718 165.458 36.9349 165.032 36.9349C164.606 36.9349 164.268 37.0718 164.018 37.3457C163.769 37.6196 163.634 38.0136 163.614 38.5276L163.604 38.9131L163.614 39.2986C163.634 39.8126 163.769 40.2066 164.018 40.4805C164.268 40.7544 164.606 40.8914 165.032 40.8914ZM169.544 43.4783C169.484 43.4783 169.434 43.458 169.394 43.4175C169.354 43.3769 169.334 43.3295 169.334 43.2754C169.334 43.2551 169.351 43.1943 169.384 43.0928L170.163 41.2363L168.256 36.6609C168.216 36.5798 168.196 36.5223 168.196 36.4885C168.203 36.4276 168.226 36.3769 168.266 36.3363C168.306 36.2957 168.353 36.2754 168.406 36.2754H168.865C168.972 36.2754 169.051 36.3295 169.105 36.4378L170.642 40.1711L172.219 36.4378C172.273 36.3295 172.352 36.2754 172.459 36.2754H172.908C172.961 36.2754 173.008 36.2957 173.048 36.3363C173.088 36.3769 173.108 36.4242 173.108 36.4783C173.108 36.5257 173.091 36.5865 173.058 36.6609L170.233 43.316C170.199 43.3701 170.165 43.4107 170.128 43.4378C170.091 43.4648 170.043 43.4783 169.983 43.4783H169.544ZM175.893 41.6522C175.434 41.6522 175.046 41.5762 174.73 41.424C174.414 41.2718 174.179 41.0977 174.026 40.9015C173.873 40.7054 173.797 40.5431 173.797 40.4146C173.797 40.3469 173.82 40.2945 173.867 40.2573C173.913 40.2201 173.963 40.2015 174.016 40.2015H174.436C174.475 40.2015 174.507 40.2083 174.53 40.2218C174.554 40.2353 174.585 40.2658 174.625 40.3131C174.778 40.5025 174.95 40.6513 175.139 40.7595C175.329 40.8677 175.584 40.9218 175.903 40.9218C176.262 40.9218 176.55 40.8542 176.767 40.7189C176.983 40.5836 177.091 40.3875 177.091 40.1305C177.091 39.9614 177.044 39.8262 176.951 39.7247C176.858 39.6233 176.703 39.532 176.487 39.4508C176.271 39.3696 175.95 39.2817 175.524 39.187C174.945 39.0585 174.535 38.8725 174.296 38.6291C174.056 38.3856 173.936 38.0711 173.936 37.6856C173.936 37.4353 174.01 37.1936 174.156 36.9602C174.302 36.7269 174.52 36.5375 174.81 36.3921C175.099 36.2467 175.444 36.174 175.843 36.174C176.262 36.174 176.62 36.245 176.916 36.387C177.212 36.5291 177.435 36.6948 177.585 36.8841C177.735 37.0735 177.81 37.2324 177.81 37.3609C177.81 37.4218 177.788 37.4725 177.745 37.5131C177.702 37.5537 177.65 37.574 177.59 37.574H177.211C177.118 37.574 177.051 37.5368 177.011 37.4624C176.898 37.3339 176.803 37.2341 176.727 37.1631C176.65 37.0921 176.539 37.0312 176.392 36.9805C176.246 36.9298 176.063 36.9044 175.843 36.9044C175.517 36.9044 175.267 36.9737 175.094 37.1124C174.921 37.251 174.835 37.4353 174.835 37.6653C174.835 37.8073 174.871 37.9274 174.945 38.0254C175.018 38.1235 175.158 38.2148 175.364 38.2993C175.57 38.3839 175.876 38.4701 176.282 38.558C176.915 38.6933 177.362 38.8861 177.625 39.1363C177.888 39.3865 178.019 39.7078 178.019 40.1001C178.019 40.3909 177.938 40.6547 177.775 40.8914C177.612 41.1281 177.369 41.3141 177.046 41.4493C176.723 41.5846 176.339 41.6522 175.893 41.6522ZM181.184 41.5508C180.152 41.5508 179.637 40.959 179.637 39.7754V37.0566H178.848C178.781 37.0566 178.728 37.0363 178.688 36.9957C178.648 36.9551 178.628 36.901 178.628 36.8334V36.5088C178.628 36.4411 178.648 36.3853 178.688 36.3414C178.728 36.2974 178.781 36.2754 178.848 36.2754H179.637V34.5812C179.637 34.5136 179.657 34.4578 179.697 34.4138C179.737 34.3699 179.79 34.3479 179.856 34.3479H180.296C180.362 34.3479 180.417 34.3699 180.46 34.4138C180.504 34.4578 180.525 34.5136 180.525 34.5812V36.2754H181.763C181.83 36.2754 181.884 36.2974 181.928 36.3414C181.971 36.3853 181.993 36.4411 181.993 36.5088V36.8334C181.993 36.901 181.971 36.9551 181.928 36.9957C181.884 37.0363 181.83 37.0566 181.763 37.0566H180.525V39.7044C180.525 40.0494 180.58 40.3097 180.69 40.4856C180.8 40.6614 180.988 40.7493 181.254 40.7493H181.863C181.929 40.7493 181.983 40.7713 182.023 40.8153C182.063 40.8593 182.082 40.915 182.082 40.9827V41.3175C182.082 41.3851 182.063 41.4409 182.023 41.4849C181.983 41.5288 181.929 41.5508 181.863 41.5508H181.184ZM185.117 41.6522C184.438 41.6522 183.896 41.4375 183.49 41.008C183.084 40.5786 182.861 39.9919 182.821 39.2479L182.811 38.903L182.821 38.5682C182.861 37.8378 183.084 37.2561 183.49 36.8233C183.896 36.3904 184.438 36.174 185.117 36.174C185.849 36.174 186.417 36.4107 186.819 36.8841C187.222 37.3576 187.423 38.0001 187.423 38.8117V38.9943C187.423 39.0619 187.402 39.1177 187.358 39.1617C187.315 39.2056 187.26 39.2276 187.194 39.2276H183.73V39.3189C183.75 39.7585 183.883 40.1339 184.129 40.445C184.375 40.7561 184.701 40.9117 185.107 40.9117C185.42 40.9117 185.675 40.8491 185.871 40.724C186.067 40.5989 186.215 40.4687 186.315 40.3334C186.375 40.2522 186.422 40.2032 186.455 40.1863C186.488 40.1694 186.545 40.1609 186.625 40.1609H187.064C187.124 40.1609 187.175 40.1779 187.219 40.2117C187.262 40.2455 187.284 40.2894 187.284 40.3436C187.284 40.4923 187.194 40.6716 187.014 40.8812C186.834 41.0909 186.58 41.2718 186.25 41.424C185.921 41.5762 185.543 41.6522 185.117 41.6522ZM186.515 38.5378V38.5073C186.515 38.0339 186.388 37.6484 186.136 37.3508C185.883 37.0532 185.543 36.9044 185.117 36.9044C184.685 36.9044 184.345 37.0532 184.099 37.3508C183.853 37.6484 183.73 38.0339 183.73 38.5073V38.5378H186.515ZM188.871 41.5508C188.804 41.5508 188.749 41.5288 188.706 41.4849C188.663 41.4409 188.641 41.3851 188.641 41.3175V36.5189C188.641 36.4513 188.663 36.3938 188.706 36.3465C188.749 36.2991 188.804 36.2754 188.871 36.2754H189.29C189.363 36.2754 189.422 36.2974 189.465 36.3414C189.508 36.3853 189.53 36.4445 189.53 36.5189V36.9653C189.803 36.5054 190.265 36.2754 190.917 36.2754H191.307C191.38 36.2754 191.437 36.2957 191.476 36.3363C191.516 36.3769 191.536 36.4344 191.536 36.5088V36.8841C191.536 36.9518 191.516 37.0076 191.476 37.0515C191.437 37.0955 191.38 37.1175 191.307 37.1175H190.738C190.372 37.1175 190.084 37.2257 189.874 37.4421C189.665 37.6585 189.56 37.9527 189.56 38.3247V41.3175C189.56 41.3851 189.536 41.4409 189.49 41.4849C189.443 41.5288 189.387 41.5508 189.32 41.5508H188.871Z" fill="#BABABA"/>
<path fill-rule="evenodd" clip-rule="evenodd" d="M160.601 50.5525C160.428 50.5525 160.304 50.4695 160.231 50.3035L158.369 45.6803C158.362 45.6603 158.359 45.6271 158.359 45.5806C158.359 45.5208 158.379 45.471 158.419 45.4312C158.459 45.3913 158.506 45.3714 158.559 45.3714H159.019C159.126 45.3714 159.206 45.4245 159.26 45.5308L160.802 49.5064L162.343 45.5308C162.357 45.491 162.385 45.4544 162.428 45.4212C162.472 45.388 162.524 45.3714 162.584 45.3714H163.044C163.098 45.3714 163.144 45.3913 163.184 45.4312C163.224 45.471 163.244 45.5208 163.244 45.5806L163.224 45.6803L161.372 50.3035C161.299 50.4695 161.175 50.5525 161.002 50.5525H160.601ZM166.378 50.6522C165.697 50.6522 165.153 50.4413 164.746 50.0195C164.339 49.5977 164.115 49.0215 164.075 48.2908L164.065 47.952L164.075 47.6232C164.115 46.9058 164.339 46.3346 164.746 45.9094C165.153 45.4843 165.697 45.2717 166.378 45.2717C167.112 45.2717 167.681 45.5042 168.085 45.9692C168.489 46.4342 168.691 47.0652 168.691 47.8623V48.0417C168.691 48.1081 168.669 48.1629 168.626 48.2061C168.582 48.2493 168.527 48.2708 168.46 48.2708H164.986V48.3605C165.006 48.7923 165.14 49.1609 165.387 49.4665C165.634 49.7721 165.961 49.9248 166.368 49.9248C166.682 49.9248 166.937 49.8634 167.134 49.7405C167.331 49.6176 167.479 49.4897 167.579 49.3569C167.639 49.2772 167.686 49.229 167.72 49.2124C167.753 49.1958 167.81 49.1875 167.89 49.1875H168.33C168.39 49.1875 168.442 49.2041 168.485 49.2373C168.529 49.2705 168.551 49.3137 168.551 49.3669C168.551 49.513 168.46 49.689 168.28 49.8949C168.1 50.1009 167.845 50.2785 167.514 50.428C167.184 50.5775 166.805 50.6522 166.378 50.6522ZM167.78 47.5933V47.5634C167.78 47.0984 167.653 46.7198 167.399 46.4275C167.146 46.1353 166.805 45.9891 166.378 45.9891C165.944 45.9891 165.604 46.1353 165.357 46.4275C165.11 46.7198 164.986 47.0984 164.986 47.5634V47.5933H167.78ZM170.142 50.5525C170.076 50.5525 170.021 50.531 169.977 50.4878C169.934 50.4446 169.912 50.3898 169.912 50.3234V45.6006C169.912 45.5341 169.934 45.4793 169.977 45.4362C170.021 45.393 170.076 45.3714 170.142 45.3714H170.573C170.646 45.3714 170.703 45.3913 170.743 45.4312C170.783 45.471 170.803 45.5275 170.803 45.6006V46.039C171.003 45.7932 171.235 45.6039 171.499 45.471C171.763 45.3382 172.091 45.2717 172.485 45.2717C173.126 45.2717 173.623 45.476 173.977 45.8845C174.331 46.293 174.507 46.8327 174.507 47.5036V50.3234C174.507 50.3898 174.486 50.4446 174.442 50.4878C174.399 50.531 174.344 50.5525 174.277 50.5525H173.817C173.75 50.5525 173.695 50.531 173.651 50.4878C173.608 50.4446 173.586 50.3898 173.586 50.3234V47.5634C173.586 47.0852 173.47 46.7132 173.236 46.4475C173.002 46.1818 172.669 46.0489 172.235 46.0489C171.808 46.0489 171.467 46.1834 171.214 46.4525C170.96 46.7215 170.833 47.0918 170.833 47.5634V50.3234C170.833 50.3898 170.811 50.4446 170.768 50.4878C170.725 50.531 170.67 50.5525 170.603 50.5525H170.142ZM177.961 50.5525C176.927 50.5525 176.41 49.9713 176.41 48.8089V46.1386H175.619C175.552 46.1386 175.499 46.1187 175.459 46.0788C175.419 46.039 175.398 45.9858 175.398 45.9194V45.6006C175.398 45.5341 175.419 45.4793 175.459 45.4362C175.499 45.393 175.552 45.3714 175.619 45.3714H176.41V43.7074C176.41 43.641 176.43 43.5862 176.47 43.543C176.51 43.4999 176.563 43.4783 176.63 43.4783H177.07C177.137 43.4783 177.192 43.4999 177.236 43.543C177.279 43.5862 177.301 43.641 177.301 43.7074V45.3714H178.542C178.609 45.3714 178.664 45.393 178.707 45.4362C178.751 45.4793 178.772 45.5341 178.772 45.6006V45.9194C178.772 45.9858 178.751 46.039 178.707 46.0788C178.664 46.1187 178.609 46.1386 178.542 46.1386H177.301V48.7391C177.301 49.0779 177.356 49.3336 177.466 49.5064C177.576 49.6791 177.765 49.7654 178.032 49.7654H178.642C178.709 49.7654 178.762 49.787 178.802 49.8302C178.842 49.8734 178.863 49.9281 178.863 49.9946V50.3234C178.863 50.3898 178.842 50.4446 178.802 50.4878C178.762 50.531 178.709 50.5525 178.642 50.5525H177.961ZM181.786 50.6522C181.152 50.6522 180.661 50.4479 180.314 50.0394C179.967 49.6309 179.794 49.0879 179.794 48.4103V45.6006C179.794 45.5341 179.815 45.4793 179.859 45.4362C179.902 45.393 179.957 45.3714 180.024 45.3714H180.484C180.551 45.3714 180.606 45.393 180.65 45.4362C180.693 45.4793 180.715 45.5341 180.715 45.6006V48.3605C180.715 49.3702 181.155 49.875 182.036 49.875C182.463 49.875 182.802 49.7405 183.052 49.4715C183.303 49.2025 183.428 48.8321 183.428 48.3605V45.6006C183.428 45.5341 183.45 45.4793 183.493 45.4362C183.536 45.393 183.591 45.3714 183.658 45.3714H184.119C184.185 45.3714 184.24 45.393 184.284 45.4362C184.327 45.4793 184.349 45.5341 184.349 45.6006V50.3234C184.349 50.3898 184.327 50.4446 184.284 50.4878C184.24 50.531 184.185 50.5525 184.119 50.5525H183.688C183.621 50.5525 183.566 50.531 183.523 50.4878C183.48 50.4446 183.458 50.3898 183.458 50.3234V49.875C183.264 50.1341 183.037 50.3284 182.777 50.4579C182.517 50.5874 182.186 50.6522 181.786 50.6522ZM186.081 50.5525C186.014 50.5525 185.959 50.531 185.916 50.4878C185.872 50.4446 185.851 50.3898 185.851 50.3234V45.6105C185.851 45.5441 185.872 45.4876 185.916 45.4411C185.959 45.3946 186.014 45.3714 186.081 45.3714H186.501C186.575 45.3714 186.633 45.393 186.677 45.4362C186.72 45.4793 186.742 45.5375 186.742 45.6105V46.0489C187.015 45.5972 187.479 45.3714 188.133 45.3714H188.524C188.597 45.3714 188.654 45.3913 188.694 45.4312C188.734 45.471 188.754 45.5275 188.754 45.6006V45.9692C188.754 46.0356 188.734 46.0904 188.694 46.1336C188.654 46.1768 188.597 46.1984 188.524 46.1984H187.953C187.586 46.1984 187.297 46.3047 187.087 46.5172C186.877 46.7298 186.772 47.0187 186.772 47.3841V50.3234C186.772 50.3898 186.748 50.4446 186.702 50.4878C186.655 50.531 186.598 50.5525 186.531 50.5525H186.081ZM191.677 50.6522C190.997 50.6522 190.453 50.4413 190.046 50.0195C189.638 49.5977 189.415 49.0215 189.375 48.2908L189.365 47.952L189.375 47.6232C189.415 46.9058 189.638 46.3346 190.046 45.9094C190.453 45.4843 190.997 45.2717 191.677 45.2717C192.412 45.2717 192.981 45.5042 193.384 45.9692C193.788 46.4342 193.99 47.0652 193.99 47.8623V48.0417C193.99 48.1081 193.968 48.1629 193.925 48.2061C193.882 48.2493 193.827 48.2708 193.76 48.2708H190.286V48.3605C190.306 48.7923 190.439 49.1609 190.686 49.4665C190.933 49.7721 191.26 49.9248 191.667 49.9248C191.981 49.9248 192.236 49.8634 192.433 49.7405C192.63 49.6176 192.779 49.4897 192.879 49.3569C192.939 49.2772 192.986 49.229 193.019 49.2124C193.052 49.1958 193.109 49.1875 193.189 49.1875H193.63C193.69 49.1875 193.741 49.2041 193.785 49.2373C193.828 49.2705 193.85 49.3137 193.85 49.3669C193.85 49.513 193.76 49.689 193.58 49.8949C193.399 50.1009 193.144 50.2785 192.814 50.428C192.483 50.5775 192.105 50.6522 191.677 50.6522ZM193.079 47.5933V47.5634C193.079 47.0984 192.952 46.7198 192.699 46.4275C192.445 46.1353 192.105 45.9891 191.677 45.9891C191.244 45.9891 190.903 46.1353 190.656 46.4275C190.409 46.7198 190.286 47.0984 190.286 47.5634V47.5933H193.079ZM196.994 50.6522C196.533 50.6522 196.144 50.5775 195.827 50.428C195.51 50.2785 195.275 50.1075 195.121 49.9149C194.968 49.7222 194.891 49.5628 194.891 49.4366C194.891 49.3702 194.914 49.3187 194.961 49.2822C195.008 49.2456 195.058 49.2274 195.111 49.2274H195.532C195.572 49.2274 195.604 49.234 195.627 49.2473C195.65 49.2606 195.682 49.2905 195.722 49.337C195.876 49.523 196.047 49.6691 196.238 49.7754C196.428 49.8817 196.683 49.9348 197.004 49.9348C197.364 49.9348 197.653 49.8684 197.87 49.7355C198.087 49.6027 198.195 49.41 198.195 49.1576C198.195 48.9916 198.148 48.8587 198.055 48.7591C197.961 48.6594 197.806 48.5698 197.589 48.49C197.372 48.4103 197.05 48.324 196.623 48.231C196.042 48.1048 195.632 47.9221 195.392 47.683C195.151 47.4439 195.031 47.135 195.031 46.7564C195.031 46.5106 195.105 46.2731 195.252 46.0439C195.398 45.8148 195.617 45.6288 195.907 45.486C196.198 45.3432 196.543 45.2717 196.944 45.2717C197.364 45.2717 197.723 45.3415 198.02 45.481C198.317 45.6205 198.54 45.7832 198.691 45.9692C198.841 46.1552 198.916 46.3113 198.916 46.4375C198.916 46.4973 198.894 46.5471 198.851 46.587C198.807 46.6268 198.756 46.6467 198.696 46.6467H198.315C198.222 46.6467 198.155 46.6102 198.115 46.5371C198.001 46.4109 197.906 46.313 197.83 46.2432C197.753 46.1735 197.641 46.1137 197.494 46.0639C197.347 46.0141 197.164 45.9891 196.944 45.9891C196.616 45.9891 196.366 46.0572 196.193 46.1934C196.019 46.3296 195.932 46.5106 195.932 46.7364C195.932 46.8759 195.969 46.9938 196.042 47.0901C196.116 47.1865 196.256 47.2761 196.463 47.3592C196.67 47.4422 196.977 47.5269 197.384 47.6132C198.018 47.7461 198.467 47.9354 198.731 48.1812C198.994 48.4269 199.126 48.7425 199.126 49.1277C199.126 49.4134 199.044 49.6724 198.881 49.9049C198.717 50.1374 198.474 50.3201 198.15 50.4529C197.826 50.5858 197.441 50.6522 196.994 50.6522Z" fill="#BABABA"/>
<path d="M3.70168 33.7641H7.01342V36.723H9.39983V39.0804H7.01342V43.9414C7.01342 44.9656 7.33811 45.1607 8.44202 45.1607H9.39983V47.5669H7.2894C4.61078 47.5669 3.70168 47.0466 3.70168 44.5267V39.0804H1.9971V36.723H3.70168V33.7641ZM20.6338 44.1853C19.6598 46.754 17.387 47.8595 15.2279 47.8595C11.7051 47.8595 9.28619 45.7298 9.28619 42.1043C9.28619 38.6252 11.9161 36.4304 15.098 36.4304C18.7019 36.4304 20.9098 39.1617 20.6825 43.0147H12.6466C12.744 44.5592 13.9454 45.2583 15.1467 45.2583C16.4129 45.2583 17.2084 44.8031 17.5818 44.169L20.6338 44.1853ZM12.6953 40.9988H17.387C17.3221 39.6331 16.3805 38.9503 15.1142 38.9503C13.9129 38.9503 12.8739 39.5681 12.6953 40.9988ZM32.0788 40.7061H28.9943C28.7021 39.438 27.9067 38.9991 26.9326 38.9991C25.7475 38.9991 24.5787 39.812 24.5787 42.1368C24.5787 44.4942 25.7475 45.2745 26.9326 45.2745C28.1502 45.2745 28.9132 44.6405 29.1567 43.6H32.2411C31.4944 46.819 28.8969 47.8433 26.7216 47.8433C23.1501 47.8433 21.1858 45.5509 21.1858 42.088C21.1858 38.6252 23.4423 36.4141 26.7216 36.4141C28.9619 36.4141 31.4294 37.4383 32.0788 40.7061ZM35.9263 38.1699C36.3971 37.3571 37.5822 36.4954 39.2867 36.4954C42.0628 36.4954 42.9394 38.1374 42.9394 41.0801V47.5994H39.6276V41.9255C39.6276 40.381 39.5789 39.1129 37.9718 39.1129C36.5432 39.1129 35.9425 40.0396 35.9425 42.0718V47.6319H32.6308V33H35.9425L35.9263 38.1699ZM50.5694 39.9258C50.3421 39.1129 49.4979 38.8853 48.459 38.8853C47.3064 38.8853 46.7382 39.1617 46.7382 39.6982C46.7382 40.2021 47.1278 40.4948 48.0693 40.6736L50.0986 41.0313C52.6961 41.5028 53.9461 42.2831 53.9461 44.1853C53.9461 46.6239 51.7058 47.8595 48.7025 47.8595C45.8128 47.8595 43.7673 46.6402 43.3939 44.0715H46.4784C46.7706 45.112 47.6148 45.4371 48.7512 45.4371C49.9363 45.4371 50.7642 45.112 50.7642 44.4617C50.7642 43.9902 50.3421 43.665 49.0596 43.4537L47.1278 43.1285C45.0336 42.7871 43.605 41.7304 43.605 39.812C43.605 37.6497 45.8778 36.4629 48.5564 36.4629C51.0239 36.4629 53.2805 37.4546 53.6863 39.942L50.5694 39.9258ZM55.6507 33.7641H58.9624V36.723H61.3488V39.0804H58.9624V43.9414C58.9624 44.9656 59.2871 45.1607 60.391 45.1607H61.3326V47.5669H59.2384C56.5598 47.5669 55.6507 47.0466 55.6507 44.5267V39.0804H53.9461V36.723H55.6507V33.7641ZM68.9139 40.381C68.9139 39.0804 68.297 38.6577 67.0794 38.6577C66.008 38.6577 65.2937 39.2104 65.1476 40.2509H62.0469C62.2092 38.2025 64.1411 36.3979 67.3554 36.3979C70.4886 36.3979 72.2581 37.666 72.1932 40.9663L72.1444 43.3236V44.4617C72.1444 45.6485 72.2256 46.9328 72.388 47.5994H69.1249L69.0762 46.2825C68.2645 47.4368 66.982 47.8595 65.4236 47.8595C63.3618 47.8595 61.6735 46.6564 61.6735 44.673C61.6735 42.0067 64.6768 41.1451 68.8814 40.8199L68.9139 40.381ZM69.0113 42.7709C66.6898 42.9985 65.1476 43.2261 65.1476 44.4291C65.1476 45.1282 65.8132 45.5997 66.6736 45.5997C68.0048 45.5997 69.0113 45.0307 69.0113 43.031V42.7709ZM79.7907 39.9258C79.4985 39.877 79.1738 39.8445 78.8816 39.8607C77.2744 39.8607 76.4465 40.446 76.4465 42.1368V47.5831H73.1185V36.723H76.3166V38.7877C76.8199 37.4871 77.729 36.723 79.2712 36.658H79.5147C79.6121 36.658 79.6933 36.658 79.7907 36.6742V39.9258ZM87.1285 39.9258C86.9012 39.1129 86.057 38.8853 85.0181 38.8853C83.8654 38.8853 83.2972 39.1617 83.2972 39.6982C83.2972 40.2021 83.6869 40.4948 84.6284 40.6736L86.6415 41.0313C89.2389 41.5028 90.4889 42.2831 90.4889 44.1853C90.4889 46.6239 88.2486 47.8595 85.2453 47.8595C82.3719 47.8595 80.3102 46.6402 79.9368 44.0715H83.0213C83.3135 45.112 84.1577 45.4371 85.294 45.4371C86.4791 45.4371 87.3071 45.112 87.3071 44.4617C87.3071 43.9902 86.885 43.665 85.6025 43.4537L83.6706 43.1285C81.5764 42.7871 80.1641 41.7304 80.1641 39.812C80.1641 37.6497 82.4368 36.4629 85.1155 36.4629C87.583 36.4629 89.8396 37.4546 90.2454 39.942L87.1285 39.9258Z" fill="#AFAFAF"/>
<path d="M90.424 50.3957V47.5994H99.3852V50.3957H90.424Z" fill="#AFAFAF"/>
<g clip-path="url(#clip0_8949_7063)">
<mask id="mask0_8949_7063" style="mask-type:luminance" maskUnits="userSpaceOnUse" x="230" y="30" width="126" height="25">
<path d="M355.625 30H230V54.5268H355.625V30Z" fill="white"/>
</mask>
<g mask="url(#mask0_8949_7063)">
<mask id="mask1_8949_7063" style="mask-type:luminance" maskUnits="userSpaceOnUse" x="230" y="30" width="126" height="25">
<path d="M355.625 30H230V54.5268H355.625V30Z" fill="white"/>
</mask>
<g mask="url(#mask1_8949_7063)">
<path fill-rule="evenodd" clip-rule="evenodd" d="M235.317 53.9283V37.9758L230 43.2933V53.9283H235.317Z" fill="#BABABA"/>
<path d="M251.271 45.9524V53.9286H243.295V45.9524H251.271Z" fill="#BABABA"/>
<path d="M243.293 45.9526V53.9288L251.269 45.9526H243.293Z" fill="#BABABA"/>
<path d="M243.294 37.9762V45.9524L251.271 37.9762V30H243.294L235.318 37.9762H243.294Z" fill="#BABABA"/>
<path d="M346.042 33.2811V30.0151H355.29V32.699C352.413 38.6165 352.219 46.0861 352.219 53.9437H348.241C348.241 46.0861 349.502 37.9698 351.669 33.2811H346.042Z" fill="#BABABA"/>
<path d="M344.714 53.9437H340.866V30.0151H344.714V53.9437Z" fill="#BABABA"/>
<path d="M299.287 33.4248H295.574V30.0139H299.287V33.4248ZM299.287 53.9435H295.574V34.7276H299.287V53.9435Z" fill="#BABABA"/>
<path d="M294.588 53.9435H290.875V30H294.588V53.9435Z" fill="#BABABA"/>
<path d="M289.888 33.4248H286.175V30.0139H289.888V33.4248ZM289.888 53.9435H286.175V34.7276H289.888V53.9435Z" fill="#BABABA"/>
<path d="M280.604 45.9963L278.91 44.6285C277.64 43.5537 276.858 42.4788 276.858 40.7853V38.994C276.858 36.0627 278.552 34.4668 281.287 34.4668C284.023 34.4668 285.456 36.1279 285.456 38.766V41.9578H282.102V38.7008C282.102 37.7563 281.906 37.0724 281.287 37.0724C280.669 37.0724 280.506 37.7563 280.506 38.7008V40.2642C280.506 41.2738 281.027 41.7298 281.841 42.5115L283.535 43.9771C284.772 44.9868 285.554 46.0941 285.554 47.918V49.7745C285.554 52.7057 283.828 54.2038 281.059 54.2038C278.291 54.2038 276.793 52.5428 276.793 49.9047V46.5501H280.18V50.0024C280.18 50.947 280.441 51.5983 281.059 51.5983C281.678 51.5983 281.874 50.947 281.874 50.0024V48.1785C281.874 47.3318 281.483 46.778 280.604 45.9963Z" fill="#BABABA"/>
<path d="M313.968 38.3426V53.9433H310.254V34.7273H313.968V37.398C314.261 35.6067 315.205 34.4668 316.833 34.4668C318.56 34.4668 319.439 35.8998 319.439 37.5935V53.9433H315.726V38.3426C315.726 37.626 315.466 37.1049 314.879 37.1049C314.326 37.1049 313.968 37.626 313.968 38.3426Z" fill="#BABABA"/>
<path d="M324.138 38.7008V49.579C324.138 50.6863 324.201 51.3378 324.92 51.3378C325.639 51.3378 325.729 50.8271 325.729 49.2533V46.454H329.447V49.6116C329.447 52.5754 327.656 54.2038 324.952 54.2038C322.054 54.2038 320.36 52.5428 320.36 49.579V39.1243C320.36 36.1604 322.151 34.4668 324.92 34.4668C327.721 34.4668 329.447 36.1279 329.447 39.1243V42.316H325.702V38.7008C325.702 37.7563 325.571 37.0724 324.92 37.0724C324.301 37.0724 324.138 37.7563 324.138 38.7008Z" fill="#BABABA"/>
<path fill-rule="evenodd" clip-rule="evenodd" d="M339.074 49.6116V46.4524H335.361V49.579C335.361 50.6163 335.284 51.3378 334.547 51.3378C333.809 51.3378 333.765 50.6538 333.765 49.579V44.8565H337.107L339.074 42.8897V39.1243C339.074 36.1279 337.348 34.4668 334.547 34.4668C331.779 34.4668 329.987 36.1604 329.987 39.1243V49.579C329.987 52.5428 331.829 54.2038 334.696 54.2038C337.399 54.2038 339.074 52.0583 339.074 49.6116ZM333.765 42.4463V38.7008C333.765 37.7563 333.928 37.0724 334.547 37.0724C335.199 37.0724 335.361 37.7563 335.361 38.7008V42.4463H333.765Z" fill="#BABABA"/>
<path fill-rule="evenodd" clip-rule="evenodd" d="M309.295 49.6116V46.4524H305.582V49.579C305.582 50.6163 305.505 51.3378 304.768 51.3378C304.031 51.3378 303.986 50.6538 303.986 49.579V44.8565H307.328L309.295 42.8897V39.1243C309.295 36.1279 307.569 34.4668 304.768 34.4668C301.999 34.4668 300.208 36.1604 300.208 39.1243V49.579C300.208 52.5428 302.051 54.2038 304.916 54.2038C307.62 54.2038 309.295 52.0583 309.295 49.6116ZM303.986 42.4463V38.7008C303.986 37.7563 304.149 37.0724 304.768 37.0724C305.419 37.0724 305.582 37.7563 305.582 38.7008V42.4463H303.986Z" fill="#BABABA"/>
<path fill-rule="evenodd" clip-rule="evenodd" d="M276.128 49.6116V46.4524H272.415V49.579C272.415 50.6163 272.338 51.3378 271.601 51.3378C270.863 51.3378 270.819 50.6538 270.819 49.579V44.8565H274.161L276.128 42.8898V39.1243C276.128 36.1279 274.402 34.4668 271.601 34.4668C268.832 34.4668 267.041 36.1604 267.041 39.1243V49.579C267.041 52.5428 268.883 54.2038 271.749 54.2038C274.453 54.2038 276.128 52.0583 276.128 49.6116ZM270.819 42.4463V38.7008C270.819 37.7563 270.982 37.0724 271.601 37.0724C272.252 37.0724 272.415 37.7563 272.415 38.7008V42.4463H270.819Z" fill="#BABABA"/>
<path fill-rule="evenodd" clip-rule="evenodd" d="M262.255 44.9545C262.255 43.9124 261.994 43.3261 261.343 43.3261H260.496V53.9437H256.588V30.0159H261.668C264.766 30.0159 266.13 31.4708 266.13 34.4021V38.6035C266.13 38.8334 266.12 39.0559 266.096 39.2706L263.476 41.8909H264.361C264.363 41.8923 264.366 41.8937 264.369 41.8951H266.095V44.4239C266.12 44.6464 266.13 44.8776 266.13 45.1174V53.9437H262.255V44.9545ZM262.255 38.7663V34.4021C262.255 33.3273 261.994 32.741 261.343 32.741H260.496V40.3949H261.343C261.994 40.3949 262.255 39.8086 262.255 38.7663Z" fill="#BABABA"/>
</g>
</g>
</g>
<defs>
<clipPath id="clip0_8949_7063">
<rect width="125.625" height="25" fill="white" transform="translate(230 30)"/>
</clipPath>
</defs>
</svg>
