<svg width="752" height="40" viewBox="0 0 752 40" fill="none" xmlns="http://www.w3.org/2000/svg">
<path d="M8.94 18.86C9.68667 18.9933 10.32 19.3867 10.84 20.04C11.36 20.6933 11.62 21.4333 11.62 22.26C11.62 22.9667 11.4333 23.6067 11.06 24.18C10.7 24.74 10.1733 25.1867 9.48 25.52C8.78667 25.84 7.98 26 7.06 26H1.5V12.1H6.8C7.74667 12.1 8.56 12.26 9.24 12.58C9.92 12.9 10.4333 13.3333 10.78 13.88C11.1267 14.4133 11.3 15.0133 11.3 15.68C11.3 16.48 11.0867 17.1467 10.66 17.68C10.2333 18.2133 9.66 18.6067 8.94 18.86ZM3.78 17.94H6.6C7.34667 17.94 7.92667 17.7733 8.34 17.44C8.76667 17.0933 8.98 16.6 8.98 15.96C8.98 15.3333 8.76667 14.8467 8.34 14.5C7.92667 14.14 7.34667 13.96 6.6 13.96H3.78V17.94ZM6.86 24.14C7.63333 24.14 8.24 23.9533 8.68 23.58C9.12 23.2067 9.34 22.6867 9.34 22.02C9.34 21.34 9.10667 20.8 8.64 20.4C8.17333 20 7.55333 19.8 6.78 19.8H3.78V24.14H6.86ZM13.3377 20.44C13.3377 19.3333 13.5643 18.3533 14.0177 17.5C14.4843 16.6467 15.111 15.9867 15.8977 15.52C16.6977 15.04 17.5777 14.8 18.5377 14.8C19.4043 14.8 20.1577 14.9733 20.7977 15.32C21.451 15.6533 21.971 16.0733 22.3577 16.58V14.98H24.6577V26H22.3577V24.36C21.971 24.88 21.4443 25.3133 20.7777 25.66C20.111 26.0067 19.351 26.18 18.4977 26.18C17.551 26.18 16.6843 25.94 15.8977 25.46C15.111 24.9667 14.4843 24.2867 14.0177 23.42C13.5643 22.54 13.3377 21.5467 13.3377 20.44ZM22.3577 20.48C22.3577 19.72 22.1977 19.06 21.8777 18.5C21.571 17.94 21.1643 17.5133 20.6577 17.22C20.151 16.9267 19.6043 16.78 19.0177 16.78C18.431 16.78 17.8843 16.9267 17.3777 17.22C16.871 17.5 16.4577 17.92 16.1377 18.48C15.831 19.0267 15.6777 19.68 15.6777 20.44C15.6777 21.2 15.831 21.8667 16.1377 22.44C16.4577 23.0133 16.871 23.4533 17.3777 23.76C17.8977 24.0533 18.4443 24.2 19.0177 24.2C19.6043 24.2 20.151 24.0533 20.6577 23.76C21.1643 23.4667 21.571 23.04 21.8777 22.48C22.1977 21.9067 22.3577 21.24 22.3577 20.48ZM26.8923 20.48C26.8923 19.3467 27.119 18.3533 27.5723 17.5C28.039 16.6333 28.679 15.9667 29.4923 15.5C30.3057 15.0333 31.239 14.8 32.2923 14.8C33.6257 14.8 34.7257 15.12 35.5923 15.76C36.4723 16.3867 37.0657 17.2867 37.3723 18.46H34.9123C34.7123 17.9133 34.3923 17.4867 33.9523 17.18C33.5123 16.8733 32.959 16.72 32.2923 16.72C31.359 16.72 30.6123 17.0533 30.0523 17.72C29.5057 18.3733 29.2323 19.2933 29.2323 20.48C29.2323 21.6667 29.5057 22.5933 30.0523 23.26C30.6123 23.9267 31.359 24.26 32.2923 24.26C33.6123 24.26 34.4857 23.68 34.9123 22.52H37.3723C37.0523 23.64 36.4523 24.5333 35.5723 25.2C34.6923 25.8533 33.599 26.18 32.2923 26.18C31.239 26.18 30.3057 25.9467 29.4923 25.48C28.679 25 28.039 24.3333 27.5723 23.48C27.119 22.6133 26.8923 21.6133 26.8923 20.48ZM44.0045 20.5L49.0845 26H46.0045L41.9245 21.26V26H39.6445V11.2H41.9245V19.8L45.9245 14.98H49.0845L44.0045 20.5ZM60.8188 20.22C60.8188 20.6333 60.7921 21.0067 60.7388 21.34H52.3188C52.3854 22.22 52.7121 22.9267 53.2988 23.46C53.8854 23.9933 54.6054 24.26 55.4588 24.26C56.6854 24.26 57.5521 23.7467 58.0588 22.72H60.5187C60.1854 23.7333 59.5788 24.5667 58.6988 25.22C57.8321 25.86 56.7521 26.18 55.4588 26.18C54.4054 26.18 53.4588 25.9467 52.6188 25.48C51.7921 25 51.1388 24.3333 50.6588 23.48C50.1921 22.6133 49.9588 21.6133 49.9588 20.48C49.9588 19.3467 50.1854 18.3533 50.6388 17.5C51.1054 16.6333 51.7521 15.9667 52.5788 15.5C53.4188 15.0333 54.3788 14.8 55.4588 14.8C56.4988 14.8 57.4254 15.0267 58.2388 15.48C59.0521 15.9333 59.6854 16.5733 60.1388 17.4C60.5921 18.2133 60.8188 19.1533 60.8188 20.22ZM58.4388 19.5C58.4254 18.66 58.1254 17.9867 57.5388 17.48C56.9521 16.9733 56.2254 16.72 55.3588 16.72C54.5721 16.72 53.8988 16.9733 53.3388 17.48C52.7788 17.9733 52.4454 18.6467 52.3388 19.5H58.4388ZM62.3025 20.44C62.3025 19.3333 62.5292 18.3533 62.9825 17.5C63.4492 16.6467 64.0758 15.9867 64.8625 15.52C65.6625 15.04 66.5492 14.8 67.5225 14.8C68.2425 14.8 68.9492 14.96 69.6425 15.28C70.3492 15.5867 70.9092 16 71.3225 16.52V11.2H73.6225V26H71.3225V24.34C70.9492 24.8733 70.4292 25.3133 69.7625 25.66C69.1092 26.0067 68.3558 26.18 67.5025 26.18C66.5425 26.18 65.6625 25.94 64.8625 25.46C64.0758 24.9667 63.4492 24.2867 62.9825 23.42C62.5292 22.54 62.3025 21.5467 62.3025 20.44ZM71.3225 20.48C71.3225 19.72 71.1625 19.06 70.8425 18.5C70.5358 17.94 70.1292 17.5133 69.6225 17.22C69.1158 16.9267 68.5692 16.78 67.9825 16.78C67.3958 16.78 66.8492 16.9267 66.3425 17.22C65.8358 17.5 65.4225 17.92 65.1025 18.48C64.7958 19.0267 64.6425 19.68 64.6425 20.44C64.6425 21.2 64.7958 21.8667 65.1025 22.44C65.4225 23.0133 65.8358 23.4533 66.3425 23.76C66.8625 24.0533 67.4092 24.2 67.9825 24.2C68.5692 24.2 69.1158 24.0533 69.6225 23.76C70.1292 23.4667 70.5358 23.04 70.8425 22.48C71.1625 21.9067 71.3225 21.24 71.3225 20.48ZM84.0925 16.62C84.4792 16.0867 85.0058 15.6533 85.6725 15.32C86.3525 14.9733 87.1058 14.8 87.9325 14.8C88.9058 14.8 89.7858 15.0333 90.5725 15.5C91.3592 15.9667 91.9792 16.6333 92.4325 17.5C92.8858 18.3533 93.1125 19.3333 93.1125 20.44C93.1125 21.5467 92.8858 22.54 92.4325 23.42C91.9792 24.2867 91.3525 24.9667 90.5525 25.46C89.7658 25.94 88.8925 26.18 87.9325 26.18C87.0792 26.18 86.3192 26.0133 85.6525 25.68C84.9992 25.3467 84.4792 24.92 84.0925 24.4V26H81.8125V11.2H84.0925V16.62ZM90.7925 20.44C90.7925 19.68 90.6325 19.0267 90.3125 18.48C90.0058 17.92 89.5925 17.5 89.0725 17.22C88.5658 16.9267 88.0192 16.78 87.4325 16.78C86.8592 16.78 86.3125 16.9267 85.7925 17.22C85.2858 17.5133 84.8725 17.94 84.5525 18.5C84.2458 19.06 84.0925 19.72 84.0925 20.48C84.0925 21.24 84.2458 21.9067 84.5525 22.48C84.8725 23.04 85.2858 23.4667 85.7925 23.76C86.3125 24.0533 86.8592 24.2 87.4325 24.2C88.0192 24.2 88.5658 24.0533 89.0725 23.76C89.5925 23.4533 90.0058 23.0133 90.3125 22.44C90.6325 21.8667 90.7925 21.2 90.7925 20.44ZM105.287 14.98L98.5272 31.18H96.1672L98.4072 25.82L94.0672 14.98H96.6072L99.7072 23.38L102.927 14.98H105.287Z" fill="#BABABA"/>
<path fill-rule="evenodd" clip-rule="evenodd" d="M397.348 10.0869C403.096 10.0869 407.757 14.7587 407.757 20.5217C407.757 26.2847 403.096 30.9565 397.348 30.9565C391.599 30.9565 386.939 26.2847 386.939 20.5217C386.939 14.7587 391.599 10.0869 397.348 10.0869ZM432.043 10.0869L420.932 29.9467C420.401 30.8955 419.199 31.2361 418.246 30.7075C417.925 30.5295 417.661 30.2661 417.482 29.9467L408.007 13.0106C407.476 12.0618 407.818 10.8642 408.771 10.3356C409.064 10.1725 409.395 10.0869 409.732 10.0869H432.043Z" fill="#BABABA"/>
<path fill-rule="evenodd" clip-rule="evenodd" d="M439.251 18.6435C438.079 18.6435 437.177 18.308 436.543 17.6371C435.91 16.9662 435.572 16.0735 435.529 14.9589L435.513 14.2609L435.529 13.5629C435.572 12.4483 435.915 11.5556 436.559 10.8847C437.203 10.2137 438.101 9.87828 439.251 9.87828C440.401 9.87828 441.298 10.2137 441.942 10.8847C442.586 11.5556 442.93 12.4483 442.972 13.5629C442.994 13.801 443.004 14.0336 443.004 14.2609C443.004 14.4881 442.994 14.7208 442.972 14.9589C442.93 16.0735 442.592 16.9662 441.958 17.6371C441.324 18.308 440.422 18.6435 439.251 18.6435ZM439.251 17.4261C439.932 17.4261 440.473 17.207 440.872 16.7687C441.271 16.3305 441.487 15.7001 441.519 14.8777C441.529 14.7695 441.535 14.5639 441.535 14.2609C441.535 13.9579 441.529 13.7523 441.519 13.6441C441.487 12.8217 441.271 12.1913 440.872 11.7531C440.473 11.3148 439.932 11.0957 439.251 11.0957C438.569 11.0957 438.029 11.3148 437.629 11.7531C437.23 12.1913 437.014 12.8217 436.982 13.6441L436.967 14.2609L436.982 14.8777C437.014 15.7001 437.23 16.3305 437.629 16.7687C438.029 17.207 438.569 17.4261 439.251 17.4261ZM446.47 21.5652C446.374 21.5652 446.295 21.5328 446.231 21.4678C446.167 21.4029 446.135 21.3272 446.135 21.2406C446.135 21.2081 446.161 21.1107 446.215 20.9484L447.461 17.978L444.41 10.6574C444.346 10.5276 444.314 10.4356 444.314 10.3815C444.325 10.2841 444.362 10.2029 444.426 10.138C444.49 10.0731 444.564 10.0406 444.649 10.0406H445.384C445.555 10.0406 445.682 10.1272 445.767 10.3003L448.227 16.2736L450.751 10.3003C450.836 10.1272 450.964 10.0406 451.134 10.0406H451.853C451.938 10.0406 452.013 10.0731 452.077 10.138C452.141 10.2029 452.173 10.2787 452.173 10.3652C452.173 10.441 452.146 10.5384 452.093 10.6574L447.572 21.3055C447.519 21.3921 447.463 21.457 447.405 21.5003C447.346 21.5436 447.269 21.5652 447.173 21.5652H446.47ZM456.629 18.6435C455.894 18.6435 455.274 18.5218 454.768 18.2783C454.262 18.0348 453.887 17.7562 453.642 17.4423C453.397 17.1285 453.275 16.8688 453.275 16.6632C453.275 16.555 453.312 16.4711 453.386 16.4116C453.461 16.3521 453.541 16.3223 453.626 16.3223H454.297C454.361 16.3223 454.411 16.3332 454.449 16.3548C454.486 16.3764 454.536 16.4251 454.6 16.5009C454.845 16.8039 455.12 17.042 455.423 17.2151C455.726 17.3882 456.134 17.4748 456.645 17.4748C457.22 17.4748 457.68 17.3666 458.027 17.1502C458.373 16.9337 458.546 16.6199 458.546 16.2087C458.546 15.9382 458.471 15.7218 458.322 15.5594C458.173 15.3971 457.925 15.251 457.579 15.1212C457.233 14.9913 456.719 14.8506 456.038 14.6992C455.112 14.4935 454.457 14.196 454.073 13.8064C453.69 13.4168 453.498 12.9136 453.498 12.2968C453.498 11.8964 453.615 11.5096 453.85 11.1363C454.084 10.7629 454.433 10.4599 454.896 10.2273C455.359 9.99461 455.91 9.87828 456.549 9.87828C457.22 9.87828 457.792 9.9919 458.266 10.2192C458.74 10.4464 459.097 10.7115 459.336 11.0145C459.576 11.3175 459.696 11.5718 459.696 11.7774C459.696 11.8748 459.661 11.956 459.592 12.0209C459.523 12.0858 459.44 12.1183 459.344 12.1183H458.737C458.588 12.1183 458.482 12.0588 458.418 11.9397C458.237 11.7341 458.085 11.5745 457.963 11.4609C457.84 11.3473 457.662 11.2499 457.428 11.1687C457.193 11.0876 456.9 11.047 456.549 11.047C456.027 11.047 455.628 11.1579 455.351 11.3797C455.074 11.6016 454.936 11.8964 454.936 12.2644C454.936 12.4916 454.994 12.6837 455.112 12.8406C455.229 12.9975 455.452 13.1436 455.782 13.2789C456.112 13.4141 456.602 13.5521 457.252 13.6928C458.263 13.9092 458.98 14.2176 459.4 14.618C459.821 15.0184 460.031 15.5324 460.031 16.16C460.031 16.6253 459.901 17.0474 459.64 17.4261C459.379 17.8049 458.99 18.1024 458.474 18.3189C457.957 18.5353 457.342 18.6435 456.629 18.6435ZM465.094 18.4812C463.444 18.4812 462.619 17.5343 462.619 15.6406V11.2905H461.357C461.25 11.2905 461.165 11.258 461.101 11.1931C461.037 11.1281 461.005 11.0416 461.005 10.9334V10.4139C461.005 10.3057 461.037 10.2164 461.101 10.1461C461.165 10.0758 461.25 10.0406 461.357 10.0406H462.619V7.32988C462.619 7.22166 462.651 7.13239 462.715 7.06205C462.778 6.99171 462.864 6.95654 462.97 6.95654H463.673C463.779 6.95654 463.867 6.99171 463.936 7.06205C464.006 7.13239 464.04 7.22166 464.04 7.32988V10.0406H466.021C466.127 10.0406 466.215 10.0758 466.284 10.1461C466.354 10.2164 466.388 10.3057 466.388 10.4139V10.9334C466.388 11.0416 466.354 11.1281 466.284 11.1931C466.215 11.258 466.127 11.2905 466.021 11.2905H464.04V15.527C464.04 16.0789 464.128 16.4955 464.304 16.7768C464.48 17.0582 464.78 17.1989 465.206 17.1989H466.181C466.287 17.1989 466.372 17.234 466.436 17.3044C466.5 17.3747 466.532 17.464 466.532 17.5722V18.1078C466.532 18.2161 466.5 18.3053 466.436 18.3757C466.372 18.446 466.287 18.4812 466.181 18.4812H465.094ZM471.388 18.6435C470.302 18.6435 469.434 18.2999 468.784 17.6128C468.135 16.9256 467.778 15.9869 467.714 14.7965L467.698 14.2447L467.714 13.709C467.778 12.5403 468.135 11.6097 468.784 10.9171C469.434 10.2246 470.302 9.87828 471.388 9.87828C472.559 9.87828 473.467 10.257 474.111 11.0145C474.755 11.772 475.077 12.8 475.077 14.0986V14.3907C475.077 14.499 475.043 14.5882 474.974 14.6586C474.904 14.7289 474.817 14.7641 474.71 14.7641H469.168V14.9102C469.199 15.6136 469.412 16.2141 469.806 16.7119C470.2 17.2097 470.722 17.4586 471.372 17.4586C471.872 17.4586 472.28 17.3585 472.594 17.1583C472.908 16.9581 473.145 16.7498 473.304 16.5334C473.4 16.4035 473.475 16.325 473.528 16.298C473.581 16.2709 473.672 16.2574 473.8 16.2574H474.502C474.598 16.2574 474.681 16.2845 474.75 16.3386C474.819 16.3927 474.854 16.463 474.854 16.5496C474.854 16.7877 474.71 17.0744 474.423 17.4099C474.135 17.7453 473.728 18.0348 473.201 18.2783C472.674 18.5218 472.069 18.6435 471.388 18.6435ZM473.624 13.6603V13.6116C473.624 12.8541 473.422 12.2373 473.017 11.7612C472.612 11.285 472.069 11.047 471.388 11.047C470.696 11.047 470.152 11.285 469.758 11.7612C469.365 12.2373 469.168 12.8541 469.168 13.6116V13.6603H473.624ZM477.393 18.4812C477.287 18.4812 477.199 18.446 477.13 18.3757C477.061 18.3053 477.026 18.2161 477.026 18.1078V10.4302C477.026 10.322 477.061 10.23 477.13 10.1542C477.199 10.0785 477.287 10.0406 477.393 10.0406H478.064C478.181 10.0406 478.275 10.0758 478.344 10.1461C478.413 10.2164 478.448 10.3111 478.448 10.4302V11.1444C478.884 10.4085 479.624 10.0406 480.668 10.0406H481.291C481.408 10.0406 481.498 10.0731 481.562 10.138C481.626 10.2029 481.658 10.2949 481.658 10.4139V11.0145C481.658 11.1227 481.626 11.212 481.562 11.2823C481.498 11.3527 481.408 11.3878 481.291 11.3878H480.38C479.795 11.3878 479.334 11.561 478.999 11.9073C478.663 12.2535 478.496 12.7243 478.496 13.3194V18.1078C478.496 18.2161 478.458 18.3053 478.384 18.3757C478.309 18.446 478.219 18.4812 478.112 18.4812H477.393Z" fill="#BABABA"/>
<path fill-rule="evenodd" clip-rule="evenodd" d="M432.162 32.884C431.884 32.884 431.687 32.7512 431.569 32.4855L428.59 25.0884C428.579 25.0565 428.574 25.0034 428.574 24.929C428.574 24.8333 428.606 24.7536 428.67 24.6898C428.734 24.6261 428.809 24.5942 428.894 24.5942H429.631C429.802 24.5942 429.93 24.6792 430.016 24.8492L432.482 31.2101L434.949 24.8492C434.971 24.7855 435.016 24.727 435.085 24.6739C435.155 24.6207 435.238 24.5942 435.334 24.5942H436.071C436.156 24.5942 436.231 24.6261 436.295 24.6898C436.359 24.7536 436.391 24.8333 436.391 24.929L436.359 25.0884L433.395 32.4855C433.278 32.7512 433.08 32.884 432.803 32.884H432.162ZM441.405 33.0434C440.315 33.0434 439.445 32.706 438.794 32.0311C438.142 31.3562 437.785 30.4343 437.72 29.2652L437.704 28.7232L437.72 28.1971C437.785 27.0492 438.142 26.1352 438.794 25.455C439.445 24.7748 440.315 24.4348 441.405 24.4348C442.579 24.4348 443.49 24.8067 444.136 25.5507C444.782 26.2947 445.105 27.3043 445.105 28.5797V28.8666C445.105 28.9729 445.07 29.0606 445.001 29.1297C444.932 29.1988 444.843 29.2333 444.737 29.2333H439.178V29.3768C439.21 30.0676 439.424 30.6575 439.819 31.1463C440.214 31.6352 440.737 31.8797 441.389 31.8797C441.891 31.8797 442.299 31.7814 442.614 31.5848C442.929 31.3881 443.167 31.1835 443.327 30.971C443.423 30.8434 443.498 30.7664 443.551 30.7398C443.605 30.7133 443.695 30.7 443.824 30.7H444.528C444.624 30.7 444.707 30.7265 444.777 30.7797C444.846 30.8328 444.881 30.9019 444.881 30.9869C444.881 31.2207 444.737 31.5024 444.448 31.8319C444.16 32.1613 443.751 32.4456 443.223 32.6848C442.694 32.9239 442.088 33.0434 441.405 33.0434ZM443.647 28.1492V28.1014C443.647 27.3575 443.444 26.7517 443.039 26.284C442.633 25.8164 442.088 25.5826 441.405 25.5826C440.711 25.5826 440.166 25.8164 439.771 26.284C439.376 26.7517 439.178 27.3575 439.178 28.1014V28.1492H443.647ZM447.428 32.884C447.321 32.884 447.233 32.8495 447.163 32.7804C447.094 32.7113 447.059 32.6236 447.059 32.5174V24.9608C447.059 24.8546 447.094 24.7669 447.163 24.6978C447.233 24.6287 447.321 24.5942 447.428 24.5942H448.117C448.234 24.5942 448.325 24.6261 448.389 24.6898C448.453 24.7536 448.485 24.8439 448.485 24.9608V25.6623C448.805 25.269 449.176 24.9662 449.598 24.7536C450.02 24.541 450.546 24.4348 451.176 24.4348C452.201 24.4348 452.997 24.7616 453.563 25.4152C454.129 26.0688 454.412 26.9323 454.412 28.0058V32.5174C454.412 32.6236 454.377 32.7113 454.308 32.7804C454.238 32.8495 454.15 32.884 454.043 32.884H453.307C453.2 32.884 453.112 32.8495 453.042 32.7804C452.973 32.7113 452.938 32.6236 452.938 32.5174V28.1014C452.938 27.3362 452.751 26.741 452.377 26.3159C452.004 25.8908 451.47 25.6782 450.776 25.6782C450.092 25.6782 449.548 25.8934 449.142 26.3239C448.736 26.7543 448.533 27.3468 448.533 28.1014V32.5174C448.533 32.6236 448.498 32.7113 448.429 32.7804C448.359 32.8495 448.271 32.884 448.165 32.884H447.428ZM459.938 32.884C458.283 32.884 457.455 31.9541 457.455 30.0942V25.8217H456.19C456.083 25.8217 455.998 25.7898 455.934 25.7261C455.87 25.6623 455.838 25.5773 455.838 25.471V24.9608C455.838 24.8546 455.87 24.7669 455.934 24.6978C455.998 24.6287 456.083 24.5942 456.19 24.5942H457.455V21.9319C457.455 21.8256 457.487 21.7379 457.552 21.6688C457.616 21.5997 457.701 21.5652 457.808 21.5652H458.513C458.619 21.5652 458.708 21.5997 458.777 21.6688C458.846 21.7379 458.881 21.8256 458.881 21.9319V24.5942H460.867C460.974 24.5942 461.062 24.6287 461.132 24.6978C461.201 24.7669 461.236 24.8546 461.236 24.9608V25.471C461.236 25.5773 461.201 25.6623 461.132 25.7261C461.062 25.7898 460.974 25.8217 460.867 25.8217H458.881V29.9826C458.881 30.5246 458.969 30.9338 459.145 31.2101C459.322 31.4864 459.623 31.6246 460.05 31.6246H461.028C461.134 31.6246 461.22 31.6591 461.284 31.7282C461.348 31.7973 461.38 31.885 461.38 31.9913V32.5174C461.38 32.6236 461.348 32.7113 461.284 32.7804C461.22 32.8495 461.134 32.884 461.028 32.884H459.938ZM466.057 33.0434C465.043 33.0434 464.258 32.7166 463.703 32.063C463.147 31.4094 462.87 30.5406 462.87 29.4565V24.9608C462.87 24.8546 462.904 24.7669 462.974 24.6978C463.043 24.6287 463.131 24.5942 463.238 24.5942H463.975C464.082 24.5942 464.17 24.6287 464.239 24.6978C464.309 24.7669 464.343 24.8546 464.343 24.9608V29.3768C464.343 30.9922 465.048 31.8 466.458 31.8C467.141 31.8 467.683 31.5848 468.084 31.1543C468.484 30.7239 468.684 30.1314 468.684 29.3768V24.9608C468.684 24.8546 468.719 24.7669 468.789 24.6978C468.858 24.6287 468.946 24.5942 469.053 24.5942H469.79C469.897 24.5942 469.985 24.6287 470.054 24.6978C470.123 24.7669 470.158 24.8546 470.158 24.9608V32.5174C470.158 32.6236 470.123 32.7113 470.054 32.7804C469.985 32.8495 469.897 32.884 469.79 32.884H469.101C468.994 32.884 468.906 32.8495 468.837 32.7804C468.767 32.7113 468.732 32.6236 468.732 32.5174V31.8C468.423 32.2145 468.06 32.5253 467.643 32.7326C467.227 32.9398 466.698 33.0434 466.057 33.0434ZM472.929 32.884C472.823 32.884 472.734 32.8495 472.665 32.7804C472.596 32.7113 472.561 32.6236 472.561 32.5174V24.9768C472.561 24.8705 472.596 24.7802 472.665 24.7058C472.734 24.6314 472.823 24.5942 472.929 24.5942H473.602C473.72 24.5942 473.813 24.6287 473.882 24.6978C473.952 24.7669 473.987 24.8599 473.987 24.9768V25.6782C474.424 24.9555 475.167 24.5942 476.213 24.5942H476.838C476.955 24.5942 477.046 24.6261 477.11 24.6898C477.174 24.7536 477.206 24.8439 477.206 24.9608V25.5507C477.206 25.657 477.174 25.7447 477.11 25.8137C477.046 25.8828 476.955 25.9174 476.838 25.9174H475.925C475.337 25.9174 474.876 26.0874 474.539 26.4275C474.203 26.7676 474.035 27.2299 474.035 27.8145V32.5174C474.035 32.6236 473.997 32.7113 473.923 32.7804C473.848 32.8495 473.757 32.884 473.65 32.884H472.929ZM481.884 33.0434C480.794 33.0434 479.924 32.706 479.273 32.0311C478.621 31.3562 478.264 30.4343 478.199 29.2652L478.183 28.7232L478.199 28.1971C478.264 27.0492 478.621 26.1352 479.273 25.455C479.924 24.7748 480.794 24.4348 481.884 24.4348C483.058 24.4348 483.969 24.8067 484.615 25.5507C485.261 26.2947 485.584 27.3043 485.584 28.5797V28.8666C485.584 28.9729 485.549 29.0606 485.48 29.1297C485.411 29.1988 485.322 29.2333 485.216 29.2333H479.657V29.3768C479.689 30.0676 479.903 30.6575 480.298 31.1463C480.693 31.6352 481.216 31.8797 481.868 31.8797C482.37 31.8797 482.778 31.7814 483.093 31.5848C483.408 31.3881 483.646 31.1835 483.806 30.971C483.902 30.8434 483.977 30.7664 484.03 30.7398C484.084 30.7133 484.174 30.7 484.303 30.7H485.007C485.104 30.7 485.186 30.7265 485.256 30.7797C485.325 30.8328 485.36 30.9019 485.36 30.9869C485.36 31.2207 485.216 31.5024 484.927 31.8319C484.639 32.1613 484.23 32.4456 483.702 32.6848C483.173 32.9239 482.567 33.0434 481.884 33.0434ZM484.126 28.1492V28.1014C484.126 27.3575 483.923 26.7517 483.518 26.284C483.112 25.8164 482.567 25.5826 481.884 25.5826C481.19 25.5826 480.645 25.8164 480.25 26.284C479.855 26.7517 479.657 27.3575 479.657 28.1014V28.1492H484.126ZM490.39 33.0434C489.653 33.0434 489.031 32.9239 488.523 32.6848C488.016 32.4456 487.64 32.1719 487.394 31.8637C487.149 31.5555 487.026 31.3005 487.026 31.0985C487.026 30.9922 487.063 30.9099 487.138 30.8514C487.213 30.793 487.293 30.7637 487.378 30.7637H488.051C488.115 30.7637 488.166 30.7744 488.203 30.7956C488.24 30.8169 488.291 30.8647 488.355 30.9391C488.601 31.2367 488.876 31.4705 489.18 31.6405C489.485 31.8106 489.893 31.8956 490.406 31.8956C490.982 31.8956 491.444 31.7893 491.791 31.5768C492.138 31.3642 492.312 31.056 492.312 30.6521C492.312 30.3864 492.237 30.1739 492.088 30.0145C491.938 29.855 491.69 29.7116 491.343 29.584C490.996 29.4565 490.48 29.3183 489.797 29.1695C488.868 28.9676 488.211 28.6753 487.827 28.2927C487.442 27.9101 487.25 27.4159 487.25 26.8101C487.25 26.4169 487.367 26.0369 487.602 25.6703C487.837 25.3036 488.187 25.006 488.652 24.7775C489.116 24.549 489.669 24.4348 490.31 24.4348C490.982 24.4348 491.556 24.5463 492.032 24.7695C492.507 24.9927 492.865 25.2531 493.105 25.5507C493.345 25.8483 493.465 26.098 493.465 26.3C493.465 26.3956 493.431 26.4753 493.361 26.5391C493.292 26.6029 493.209 26.6348 493.113 26.6348H492.504C492.355 26.6348 492.248 26.5763 492.184 26.4594C492.002 26.2575 491.85 26.1007 491.727 25.9891C491.604 25.8775 491.426 25.7819 491.191 25.7021C490.956 25.6224 490.662 25.5826 490.31 25.5826C489.786 25.5826 489.386 25.6915 489.108 25.9094C488.831 26.1273 488.692 26.4169 488.692 26.7782C488.692 27.0014 488.75 27.1901 488.868 27.3442C488.985 27.4983 489.21 27.6418 489.541 27.7746C489.872 27.9075 490.363 28.043 491.014 28.1811C492.029 28.3937 492.747 28.6966 493.169 29.0898C493.591 29.4831 493.802 29.9879 493.802 30.6043C493.802 31.0613 493.671 31.4758 493.409 31.8478C493.148 32.2198 492.758 32.512 492.24 32.7246C491.722 32.9372 491.105 33.0434 490.39 33.0434Z" fill="#BABABA"/>
<path d="M121 7V30" stroke="#BABABA"/>
<path d="M172.923 6.02262H178.221V10.7569H182.04V14.5286H178.221V22.3063C178.221 23.9451 178.741 24.2572 180.507 24.2572H182.04V28.107H178.663C174.377 28.107 172.923 27.2747 172.923 23.2427V14.5286H170.195V10.7569H172.923V6.02262ZM200.014 22.6965C198.456 26.8064 194.819 28.5753 191.365 28.5753C185.728 28.5753 181.858 25.1677 181.858 19.3669C181.858 13.8003 186.066 10.2886 191.157 10.2886C196.923 10.2886 200.456 14.6587 200.092 20.8236H187.235C187.39 23.2948 189.313 24.4133 191.235 24.4133C193.261 24.4133 194.533 23.685 195.131 22.6705L200.014 22.6965ZM187.313 17.5981H194.819C194.715 15.4131 193.209 14.3205 191.183 14.3205C189.261 14.3205 187.598 15.309 187.313 17.5981ZM218.326 17.1299H213.391C212.923 15.1009 211.651 14.3986 210.092 14.3986C208.196 14.3986 206.326 15.6992 206.326 19.4189C206.326 23.1907 208.196 24.4393 210.092 24.4393C212.04 24.4393 213.261 23.4248 213.651 21.76H218.586C217.391 26.9105 213.235 28.5492 209.755 28.5492C204.04 28.5492 200.897 24.8815 200.897 19.3409C200.897 13.8003 204.508 10.2626 209.755 10.2626C213.339 10.2626 217.287 11.9014 218.326 17.1299ZM224.482 13.0719C225.235 11.7713 227.131 10.3927 229.859 10.3927C234.3 10.3927 235.703 13.0199 235.703 17.7281V28.1591H230.404V19.0808C230.404 16.6096 230.326 14.5807 227.755 14.5807C225.469 14.5807 224.508 16.0634 224.508 19.3149V28.2111H219.209V4.80005H224.508L224.482 13.0719ZM247.911 15.8813C247.547 14.5807 246.197 14.2165 244.534 14.2165C242.69 14.2165 241.781 14.6587 241.781 15.5171C241.781 16.3235 242.404 16.7917 243.911 17.0778L247.158 17.6501C251.314 18.4045 253.314 19.6531 253.314 22.6965C253.314 26.5983 249.729 28.5753 244.924 28.5753C240.301 28.5753 237.028 26.6243 236.43 22.5144H241.365C241.833 24.1792 243.184 24.6994 245.002 24.6994C246.898 24.6994 248.223 24.1792 248.223 23.1387C248.223 22.3843 247.547 21.8641 245.495 21.5259L242.404 21.0057C239.054 20.4594 236.768 18.7686 236.768 15.6992C236.768 12.2396 240.404 10.3407 244.69 10.3407C248.638 10.3407 252.249 11.9274 252.898 15.9073L247.911 15.8813ZM256.041 6.02262H261.34V10.7569H265.158V14.5286H261.34V22.3063C261.34 23.9451 261.859 24.2572 263.626 24.2572H265.132V28.107H261.781C257.496 28.107 256.041 27.2747 256.041 23.2427V14.5286H253.314V10.7569H256.041V6.02262ZM277.262 16.6096C277.262 14.5286 276.275 13.8523 274.327 13.8523C272.613 13.8523 271.47 14.7367 271.236 16.4015H266.275C266.535 13.124 269.626 10.2366 274.769 10.2366C279.782 10.2366 282.613 12.2656 282.509 17.5461L282.431 21.3178V23.1387C282.431 25.0376 282.561 27.0926 282.821 28.1591H277.6L277.522 26.0521C276.223 27.8989 274.171 28.5753 271.678 28.5753C268.379 28.5753 265.678 26.6504 265.678 23.4769C265.678 19.2108 270.483 17.8322 277.21 17.312L277.262 16.6096ZM277.418 20.4334C273.704 20.7976 271.236 21.1618 271.236 23.0867C271.236 24.2052 272.301 24.9596 273.678 24.9596C275.808 24.9596 277.418 24.0491 277.418 20.8496V20.4334ZM294.665 15.8813C294.198 15.8032 293.678 15.7512 293.211 15.7772C290.639 15.7772 289.314 16.7137 289.314 19.4189V28.1331H283.99V10.7569H289.107V14.0604C289.912 11.9794 291.366 10.7569 293.834 10.6528H294.224C294.379 10.6528 294.509 10.6528 294.665 10.6788V15.8813ZM306.406 15.8813C306.042 14.5807 304.691 14.2165 303.029 14.2165C301.185 14.2165 300.276 14.6587 300.276 15.5171C300.276 16.3235 300.899 16.7917 302.406 17.0778L305.626 17.6501C309.782 18.4045 311.782 19.6531 311.782 22.6965C311.782 26.5983 308.198 28.5753 303.393 28.5753C298.795 28.5753 295.496 26.6243 294.899 22.5144H299.834C300.302 24.1792 301.652 24.6994 303.47 24.6994C305.367 24.6994 306.691 24.1792 306.691 23.1387C306.691 22.3843 306.016 21.8641 303.964 21.5259L300.873 21.0057C297.522 20.4594 295.263 18.7686 295.263 15.6992C295.263 12.2396 298.899 10.3407 303.185 10.3407C307.133 10.3407 310.743 11.9274 311.393 15.9073L306.406 15.8813Z" fill="#AFAFAF"/>
<path d="M311.678 32.633V28.1589H326.016V32.633H311.678Z" fill="#AFAFAF"/>
<mask id="mask0_6434_3343" style="mask-type:luminance" maskUnits="userSpaceOnUse" x="551" y="0" width="201" height="40">
<path d="M752 0H551V39.2429H752V0Z" fill="white"/>
</mask>
<g mask="url(#mask0_6434_3343)">
<mask id="mask1_6434_3343" style="mask-type:luminance" maskUnits="userSpaceOnUse" x="551" y="0" width="201" height="40">
<path d="M752 0H551V39.2429H752V0Z" fill="white"/>
</mask>
<g mask="url(#mask1_6434_3343)">
<path fill-rule="evenodd" clip-rule="evenodd" d="M559.508 38.2854V12.7615L551 21.2695V38.2854H559.508Z" fill="#BABABA"/>
<path d="M585.034 25.5239V38.2858H572.272V25.5239H585.034Z" fill="#BABABA"/>
<path d="M572.269 25.5242V38.286L585.03 25.5242H572.269Z" fill="#BABABA"/>
<path d="M572.271 12.7619V25.5239L585.033 12.7619V0H572.271L559.509 12.7619H572.271Z" fill="#BABABA"/>
<path d="M736.668 5.24989V0.0244141H751.464V4.31862C746.861 13.7866 746.55 25.7379 746.55 38.3101H740.186C740.186 25.7379 742.204 12.7518 745.67 5.24989H736.668Z" fill="#BABABA"/>
<path d="M734.542 38.3101H728.385V0.0244141H734.542V38.3101Z" fill="#BABABA"/>
<path d="M661.86 5.47987H655.919V0.0224609H661.86V5.47987ZM661.86 38.3099H655.919V7.56432H661.86V38.3099Z" fill="#BABABA"/>
<path d="M654.34 38.3096H648.399V0H654.34V38.3096Z" fill="#BABABA"/>
<path d="M646.821 5.47983H640.88V0.0224609H646.821V5.47983ZM646.821 38.3099H640.88V7.56428H646.821V38.3099Z" fill="#BABABA"/>
<path d="M631.966 25.594L629.256 23.4054C627.224 21.6857 625.973 19.966 625.973 17.2563V14.3902C625.973 9.70019 628.683 7.14673 633.06 7.14673C637.437 7.14673 639.73 9.80443 639.73 14.0254V19.1323H634.363V13.9212C634.363 12.41 634.05 11.3157 633.06 11.3157C632.07 11.3157 631.809 12.41 631.809 13.9212V16.4225C631.809 18.038 632.643 18.7675 633.946 20.0182L636.656 22.3632C638.636 23.9787 639.887 25.7504 639.887 28.6687V31.639C639.887 36.329 637.125 38.726 632.695 38.726C628.266 38.726 625.869 36.0684 625.869 31.8474V26.48H631.288V32.0037C631.288 33.515 631.705 34.5572 632.695 34.5572C633.685 34.5572 633.998 33.515 633.998 32.0037V29.0855C633.998 27.7307 633.373 26.8447 631.966 25.594Z" fill="#BABABA"/>
<path d="M685.348 13.348V38.3092H679.407V7.56361H685.348V11.8367C685.817 8.97061 687.328 7.14673 689.933 7.14673C692.696 7.14673 694.103 9.43961 694.103 12.1494V38.3092H688.162V13.348C688.162 12.2015 687.745 11.3677 686.807 11.3677C685.921 11.3677 685.348 12.2015 685.348 13.348Z" fill="#BABABA"/>
<path d="M701.621 13.9212V31.3263C701.621 33.098 701.721 34.1403 702.872 34.1403C704.022 34.1403 704.166 33.3232 704.166 30.8052V26.3262H710.115V31.3784C710.115 36.1205 707.249 38.726 702.923 38.726C698.286 38.726 695.576 36.0684 695.576 31.3263V14.5987C695.576 9.8565 698.442 7.14673 702.872 7.14673C707.353 7.14673 710.115 9.80443 710.115 14.5987V19.7055H704.123V13.9212C704.123 12.41 703.914 11.3157 702.872 11.3157C701.881 11.3157 701.621 12.41 701.621 13.9212Z" fill="#BABABA"/>
<path fill-rule="evenodd" clip-rule="evenodd" d="M725.519 31.3784V26.3237H719.578V31.3263C719.578 32.9859 719.455 34.1403 718.275 34.1403C717.095 34.1403 717.024 33.046 717.024 31.3263V23.7702H722.372L725.519 20.6234V14.5987C725.519 9.80443 722.757 7.14673 718.275 7.14673C713.846 7.14673 710.98 9.8565 710.98 14.5987V31.3263C710.98 36.0684 713.927 38.726 718.513 38.726C722.838 38.726 725.519 35.2932 725.519 31.3784ZM717.024 19.914V13.9212C717.024 12.41 717.285 11.3157 718.275 11.3157C719.318 11.3157 719.578 12.41 719.578 13.9212V19.914H717.024Z" fill="#BABABA"/>
<path fill-rule="evenodd" clip-rule="evenodd" d="M677.872 31.3784V26.3237H671.931V31.3263C671.931 32.9859 671.808 34.1403 670.629 34.1403C669.449 34.1403 669.378 33.046 669.378 31.3263V23.7702H674.724L677.872 20.6233V14.5987C677.872 9.80443 675.11 7.14673 670.629 7.14673C666.199 7.14673 663.333 9.8565 663.333 14.5987V31.3263C663.333 36.0684 666.281 38.726 670.866 38.726C675.192 38.726 677.872 35.2932 677.872 31.3784ZM669.378 19.914V13.9212C669.378 12.41 669.638 11.3157 670.629 11.3157C671.67 11.3157 671.931 12.41 671.931 13.9212V19.914H669.378Z" fill="#BABABA"/>
<path fill-rule="evenodd" clip-rule="evenodd" d="M624.805 31.3784V26.3237H618.864V31.3263C618.864 32.9859 618.741 34.1403 617.561 34.1403C616.381 34.1403 616.31 33.046 616.31 31.3263V23.7702H621.658L624.805 20.6236V14.5987C624.805 9.80443 622.043 7.14673 617.561 7.14673C613.132 7.14673 610.266 9.8565 610.266 14.5987V31.3263C610.266 36.0684 613.213 38.726 617.799 38.726C622.124 38.726 624.805 35.2932 624.805 31.3784ZM616.31 19.914V13.9212C616.31 12.41 616.571 11.3157 617.561 11.3157C618.603 11.3157 618.864 12.41 618.864 13.9212V19.914H616.31Z" fill="#BABABA"/>
<path fill-rule="evenodd" clip-rule="evenodd" d="M602.607 23.927C602.607 22.2595 602.191 21.3215 601.148 21.3215H599.793V38.3097H593.54V0.0251465H601.669C606.626 0.0251465 608.809 2.35304 608.809 7.04304V13.7653C608.809 14.1331 608.792 14.4891 608.754 14.8326L604.561 19.0251H605.977C605.982 19.0274 605.986 19.0296 605.99 19.0319H608.752V23.078C608.792 23.434 608.809 23.8039 608.809 24.1875V38.3097H602.607V23.927ZM602.607 14.0258V7.04304C602.607 5.32338 602.191 4.38538 601.148 4.38538H599.793V16.6315H601.148C602.191 16.6315 602.607 15.6935 602.607 14.0258Z" fill="#BABABA"/>
</g>
</g>
</svg>
