<svg width="145" height="65" viewBox="0 0 145 65" fill="none" xmlns="http://www.w3.org/2000/svg">
<rect y="55" width="145" height="10" rx="4" fill="white"/>
<path d="M21.0002 0.0769043C16.1491 0.0822413 11.4981 2.01158 8.06771 5.44166C4.63728 8.87174 2.70748 13.5225 2.70166 18.3736C2.70166 23.0852 6.34999 30.4589 13.5458 40.2892C14.4025 41.4628 15.5241 42.4175 16.8194 43.0757C18.1148 43.7339 19.5472 44.077 21.0002 44.077C22.4531 44.077 23.8856 43.7339 25.1809 43.0757C26.4762 42.4175 27.5979 41.4628 28.4545 40.2892C35.6503 30.4589 39.2987 23.0852 39.2987 18.3736C39.2928 13.5225 37.363 8.87174 33.9326 5.44166C30.5022 2.01158 25.8513 0.0822413 21.0002 0.0769043ZM21.0002 25.6666C19.5498 25.6666 18.1319 25.2365 16.926 24.4307C15.72 23.6249 14.7801 22.4796 14.225 21.1396C13.67 19.7996 13.5248 18.3251 13.8077 16.9026C14.0907 15.4801 14.7891 14.1734 15.8147 13.1478C16.8403 12.1222 18.147 11.4238 19.5695 11.1408C20.992 10.8579 22.4665 11.0031 23.8065 11.5581C25.1465 12.1132 26.2918 13.0531 27.0976 14.2591C27.9034 15.465 28.3335 16.8828 28.3335 18.3332C28.3335 20.2782 27.5609 22.1434 26.1856 23.5187C24.8103 24.894 22.9451 25.6666 21.0002 25.6666Z" fill="#007DC1"/>
<path d="M54.278 32V19.4H56.438V30.308H62.054V32H54.278ZM67.9106 32.216C67.0466 32.216 66.2666 32.018 65.5706 31.622C64.8866 31.214 64.3466 30.656 63.9506 29.948C63.5666 29.228 63.3746 28.406 63.3746 27.482C63.3746 26.534 63.5726 25.706 63.9686 24.998C64.3646 24.278 64.9046 23.72 65.5886 23.324C66.2846 22.916 67.0646 22.712 67.9286 22.712C68.7926 22.712 69.5666 22.916 70.2506 23.324C70.9466 23.72 71.4866 24.272 71.8706 24.98C72.2666 25.688 72.4646 26.516 72.4646 27.464C72.4646 28.412 72.2666 29.24 71.8706 29.948C71.4746 30.656 70.9286 31.214 70.2326 31.622C69.5486 32.018 68.7746 32.216 67.9106 32.216ZM67.9106 30.362C68.3426 30.362 68.7326 30.254 69.0806 30.038C69.4406 29.822 69.7286 29.498 69.9446 29.066C70.1606 28.634 70.2686 28.1 70.2686 27.464C70.2686 26.828 70.1606 26.3 69.9446 25.88C69.7406 25.448 69.4586 25.124 69.0986 24.908C68.7506 24.692 68.3606 24.584 67.9286 24.584C67.5086 24.584 67.1186 24.692 66.7586 24.908C66.3986 25.124 66.1106 25.448 65.8946 25.88C65.6786 26.3 65.5706 26.828 65.5706 27.464C65.5706 28.1 65.6786 28.634 65.8946 29.066C66.1106 29.498 66.3926 29.822 66.7406 30.038C67.1006 30.254 67.4906 30.362 67.9106 30.362ZM78.881 32.216C77.993 32.216 77.195 32.018 76.487 31.622C75.791 31.214 75.245 30.656 74.849 29.948C74.465 29.228 74.273 28.412 74.273 27.5C74.273 26.552 74.465 25.724 74.849 25.016C75.245 24.296 75.791 23.732 76.487 23.324C77.195 22.916 77.999 22.712 78.899 22.712C80.027 22.712 80.975 23.012 81.743 23.612C82.511 24.2 83.003 25.01 83.219 26.042H80.951C80.831 25.586 80.579 25.226 80.195 24.962C79.823 24.698 79.379 24.566 78.863 24.566C78.419 24.566 78.011 24.68 77.639 24.908C77.279 25.136 76.991 25.466 76.775 25.898C76.571 26.33 76.469 26.852 76.469 27.464C76.469 27.932 76.529 28.346 76.649 28.706C76.769 29.066 76.937 29.372 77.153 29.624C77.381 29.864 77.639 30.05 77.927 30.182C78.215 30.314 78.527 30.38 78.863 30.38C79.211 30.38 79.523 30.326 79.799 30.218C80.087 30.098 80.327 29.924 80.519 29.696C80.723 29.468 80.867 29.198 80.951 28.886H83.219C83.003 29.894 82.511 30.704 81.743 31.316C80.975 31.916 80.021 32.216 78.881 32.216ZM88.3257 32.216C87.5817 32.216 86.9637 32.09 86.4717 31.838C85.9797 31.586 85.6137 31.25 85.3737 30.83C85.1337 30.41 85.0137 29.954 85.0137 29.462C85.0137 28.886 85.1577 28.388 85.4457 27.968C85.7457 27.548 86.1837 27.224 86.7597 26.996C87.3357 26.756 88.0437 26.636 88.8837 26.636H91.1697C91.1697 26.156 91.1037 25.76 90.9717 25.448C90.8397 25.124 90.6357 24.884 90.3597 24.728C90.0837 24.572 89.7297 24.494 89.2977 24.494C88.8057 24.494 88.3857 24.608 88.0377 24.836C87.6897 25.052 87.4737 25.388 87.3897 25.844H85.2657C85.3377 25.196 85.5537 24.644 85.9137 24.188C86.2737 23.72 86.7477 23.36 87.3357 23.108C87.9357 22.844 88.5897 22.712 89.2977 22.712C90.1497 22.712 90.8757 22.862 91.4757 23.162C92.0757 23.45 92.5317 23.87 92.8437 24.422C93.1677 24.962 93.3297 25.616 93.3297 26.384V32H91.4937L91.2777 30.542C91.1577 30.782 91.0017 31.004 90.8097 31.208C90.6297 31.412 90.4197 31.592 90.1797 31.748C89.9397 31.892 89.6637 32.006 89.3517 32.09C89.0517 32.174 88.7097 32.216 88.3257 32.216ZM88.8117 30.506C89.1597 30.506 89.4657 30.446 89.7297 30.326C90.0057 30.194 90.2397 30.014 90.4317 29.786C90.6357 29.546 90.7917 29.282 90.8997 28.994C91.0077 28.706 91.0797 28.4 91.1157 28.076V28.04H89.1177C88.6977 28.04 88.3497 28.094 88.0737 28.202C87.7977 28.31 87.5997 28.46 87.4797 28.652C87.3597 28.832 87.2997 29.048 87.2997 29.3C87.2997 29.552 87.3597 29.768 87.4797 29.948C87.5997 30.128 87.7737 30.266 88.0017 30.362C88.2297 30.458 88.4997 30.506 88.8117 30.506ZM99.439 32C98.827 32 98.293 31.904 97.837 31.712C97.393 31.52 97.045 31.202 96.793 30.758C96.541 30.314 96.415 29.714 96.415 28.958V24.746H94.867V22.928H96.415L96.667 20.534H98.575V22.928H101.041V24.746H98.575V28.958C98.575 29.414 98.671 29.732 98.863 29.912C99.067 30.08 99.403 30.164 99.871 30.164H100.987V32H99.439ZM103.163 32V22.928H105.323V32H103.163ZM104.243 21.488C103.847 21.488 103.517 21.368 103.253 21.128C103.001 20.876 102.875 20.57 102.875 20.21C102.875 19.838 103.001 19.538 103.253 19.31C103.517 19.07 103.847 18.95 104.243 18.95C104.639 18.95 104.963 19.07 105.215 19.31C105.479 19.538 105.611 19.838 105.611 20.21C105.611 20.57 105.479 20.876 105.215 21.128C104.963 21.368 104.639 21.488 104.243 21.488ZM112.049 32.216C111.185 32.216 110.405 32.018 109.709 31.622C109.025 31.214 108.485 30.656 108.089 29.948C107.705 29.228 107.513 28.406 107.513 27.482C107.513 26.534 107.711 25.706 108.107 24.998C108.503 24.278 109.043 23.72 109.727 23.324C110.423 22.916 111.203 22.712 112.067 22.712C112.931 22.712 113.705 22.916 114.389 23.324C115.085 23.72 115.625 24.272 116.009 24.98C116.405 25.688 116.603 26.516 116.603 27.464C116.603 28.412 116.405 29.24 116.009 29.948C115.613 30.656 115.067 31.214 114.371 31.622C113.687 32.018 112.913 32.216 112.049 32.216ZM112.049 30.362C112.481 30.362 112.871 30.254 113.219 30.038C113.579 29.822 113.867 29.498 114.083 29.066C114.299 28.634 114.407 28.1 114.407 27.464C114.407 26.828 114.299 26.3 114.083 25.88C113.879 25.448 113.597 25.124 113.237 24.908C112.889 24.692 112.499 24.584 112.067 24.584C111.647 24.584 111.257 24.692 110.897 24.908C110.537 25.124 110.249 25.448 110.033 25.88C109.817 26.3 109.709 26.828 109.709 27.464C109.709 28.1 109.817 28.634 110.033 29.066C110.249 29.498 110.531 29.822 110.879 30.038C111.239 30.254 111.629 30.362 112.049 30.362ZM118.718 32V22.928H120.626L120.788 24.44C121.064 23.912 121.46 23.492 121.976 23.18C122.492 22.868 123.104 22.712 123.812 22.712C124.544 22.712 125.168 22.868 125.684 23.18C126.2 23.48 126.596 23.924 126.872 24.512C127.16 25.1 127.304 25.832 127.304 26.708V32H125.144V26.906C125.144 26.15 124.976 25.568 124.64 25.16C124.304 24.752 123.806 24.548 123.146 24.548C122.714 24.548 122.324 24.65 121.976 24.854C121.64 25.058 121.37 25.358 121.166 25.754C120.974 26.138 120.878 26.606 120.878 27.158V32H118.718Z" fill="white"/>
</svg>
