<svg width="15" height="15" viewBox="0 0 15 15" fill="none" xmlns="http://www.w3.org/2000/svg">
<path d="M11.875 0H8.125C7.2965 0.000992411 6.50222 0.330551 5.91639 0.916387C5.33055 1.50222 5.00099 2.2965 5 3.125V3.1875C4.29463 3.33256 3.66084 3.71636 3.20545 4.27422C2.75006 4.83207 2.50091 5.52987 2.5 6.25V6.3125C1.79463 6.45756 1.16084 6.84136 0.705449 7.39922C0.250056 7.95707 0.000909078 8.65487 0 9.375L0 11.875C0.000992411 12.7035 0.330551 13.4978 0.916387 14.0836C1.50222 14.6694 2.2965 14.999 3.125 15H6.875C7.7035 14.999 8.49778 14.6694 9.08361 14.0836C9.66945 13.4978 9.99901 12.7035 10 11.875V11.8125C10.7054 11.6674 11.3392 11.2836 11.7946 10.7258C12.2499 10.1679 12.4991 9.47013 12.5 8.75V8.6875C13.2054 8.54244 13.8392 8.15864 14.2946 7.60078C14.7499 7.04293 14.9991 6.34513 15 5.625V3.125C14.999 2.2965 14.6694 1.50222 14.0836 0.916387C13.4978 0.330551 12.7035 0.000992411 11.875 0ZM1.25 9.375C1.25 8.87772 1.44754 8.40081 1.79917 8.04917C2.15081 7.69754 2.62772 7.5 3.125 7.5H6.875C7.21479 7.50092 7.5479 7.59452 7.83843 7.77074C8.12896 7.94695 8.36591 8.19909 8.52375 8.5L6.36437 10.6644L6.0675 10.365C5.84619 10.142 5.54876 10.011 5.23487 9.99811C4.92097 9.98524 4.61382 10.0915 4.375 10.2956L1.48687 12.7706C1.33323 12.497 1.25172 12.1888 1.25 11.875V9.375ZM8.75 11.875C8.75 12.3723 8.55246 12.8492 8.20083 13.2008C7.84919 13.5525 7.37228 13.75 6.875 13.75H3.125C2.88535 13.7495 2.64807 13.7026 2.42625 13.6119L5.18 11.25L5.4775 11.5506C5.71191 11.785 6.0298 11.9166 6.36125 11.9166C6.69271 11.9166 7.01059 11.785 7.245 11.5506L8.75 10.0425V11.875ZM11.25 8.75C11.2484 9.13641 11.1274 9.51289 10.9037 9.82794C10.6799 10.143 10.3643 10.3812 10 10.51V9.375C9.99901 8.5465 9.66945 7.75222 9.08361 7.16639C8.49778 6.58055 7.7035 6.25099 6.875 6.25H3.75C3.75 5.75272 3.94754 5.27581 4.29917 4.92417C4.65081 4.57254 5.12772 4.375 5.625 4.375H9.375C9.87228 4.375 10.3492 4.57254 10.7008 4.92417C11.0525 5.27581 11.25 5.75272 11.25 6.25V8.75ZM13.75 5.625C13.7484 6.01141 13.6274 6.38789 13.4037 6.70294C13.1799 7.01798 12.8643 7.2562 12.5 7.385V6.25C12.499 5.4215 12.1694 4.62722 11.5836 4.04139C10.9978 3.45555 10.2035 3.12599 9.375 3.125H6.25C6.25 2.62772 6.44754 2.15081 6.79917 1.79917C7.15081 1.44754 7.62772 1.25 8.125 1.25H11.875C12.3723 1.25 12.8492 1.44754 13.2008 1.79917C13.5525 2.15081 13.75 2.62772 13.75 3.125V5.625ZM2.5 9.375C2.5 9.25139 2.53666 9.13055 2.60533 9.02777C2.67401 8.92499 2.77162 8.84488 2.88582 8.79757C3.00003 8.75027 3.12569 8.73789 3.24693 8.76201C3.36817 8.78613 3.47953 8.84565 3.56694 8.93306C3.65435 9.02047 3.71388 9.13183 3.73799 9.25307C3.76211 9.37431 3.74973 9.49997 3.70242 9.61418C3.65512 9.72838 3.57501 9.82599 3.47223 9.89467C3.36945 9.96334 3.24861 10 3.125 10C2.95924 10 2.80027 9.93415 2.68306 9.81694C2.56585 9.69973 2.5 9.54076 2.5 9.375Z" fill="#03100D"/>
</svg>
