<svg width="15" height="15" viewBox="0 0 15 15" fill="none" xmlns="http://www.w3.org/2000/svg">
<path d="M11.875 7.8125C11.875 8.33 11.455 8.75 10.9375 8.75C10.42 8.75 10 8.33 10 7.8125C10 7.295 10.42 6.875 10.9375 6.875C11.455 6.875 11.875 7.295 11.875 7.8125ZM14.0625 5.625C14.58 5.625 15 5.205 15 4.6875C15 4.17 14.58 3.75 14.0625 3.75C13.545 3.75 13.125 4.17 13.125 4.6875C13.125 5.205 13.545 5.625 14.0625 5.625ZM10.9375 10C10.42 10 10 10.42 10 10.9375C10 11.455 10.42 11.875 10.9375 11.875C11.455 11.875 11.875 11.455 11.875 10.9375C11.875 10.42 11.455 10 10.9375 10ZM14.0625 6.875C13.545 6.875 13.125 7.295 13.125 7.8125C13.125 8.33 13.545 8.75 14.0625 8.75C14.58 8.75 15 8.33 15 7.8125C15 7.295 14.58 6.875 14.0625 6.875ZM14.0625 10C13.545 10 13.125 10.42 13.125 10.9375C13.125 11.455 13.545 11.875 14.0625 11.875C14.58 11.875 15 11.455 15 10.9375C15 10.42 14.58 10 14.0625 10ZM14.0625 13.125C13.545 13.125 13.125 13.545 13.125 14.0625C13.125 14.58 13.545 15 14.0625 15C14.58 15 15 14.58 15 14.0625C15 13.545 14.58 13.125 14.0625 13.125ZM10.9375 13.125C10.42 13.125 10 13.545 10 14.0625C10 14.58 10.42 15 10.9375 15C11.455 15 11.875 14.58 11.875 14.0625C11.875 13.545 11.455 13.125 10.9375 13.125ZM7.8125 10C7.295 10 6.875 10.42 6.875 10.9375C6.875 11.455 7.295 11.875 7.8125 11.875C8.33 11.875 8.75 11.455 8.75 10.9375C8.75 10.42 8.33 10 7.8125 10ZM7.8125 13.125C7.295 13.125 6.875 13.545 6.875 14.0625C6.875 14.58 7.295 15 7.8125 15C8.33 15 8.75 14.58 8.75 14.0625C8.75 13.545 8.33 13.125 7.8125 13.125ZM13.3837 2.1875L5.9375 9.63375L5 8.69625V2.19688C4.53813 1.885 3.47187 1.25 2.44813 1.25C1.7875 1.25 1.25 1.7875 1.25 2.44813V15H0V2.44813C0 1.09812 1.09812 0 2.44813 0C3.92188 0 5.33813 0.901875 5.83 1.25H12.4469L13.3844 2.1875H13.3837ZM11.3038 2.5H6.25V7.55375L11.3038 2.5Z" fill="#03100D"/>
</svg>
