<svg width="496" height="496" viewBox="0 0 496 496" fill="none" xmlns="http://www.w3.org/2000/svg">
<g clip-path="url(#clip0_10953_3115)">
<path d="M453.022 460.218C456.476 459.987 460.059 460.15 463.527 460.146L483.336 460.138C486.362 460.138 489.844 460.504 492.825 460.145C493.401 460.075 493.784 459.785 494.231 459.452L494.281 459.049C493.563 458.696 492.805 458.643 492.019 458.609C487.576 458.422 483.021 458.654 478.565 458.655L450.407 458.719C450.677 459.505 450.631 459.795 451.371 460.22L453.022 460.218Z" fill="black"/>
<path d="M366.917 81.7587C376.726 80.574 388.178 83.0851 396.371 88.4264C404.38 93.6481 408.981 100.859 410.852 109.907C401.071 109.953 391.291 109.945 381.51 109.883C366.368 109.471 351.151 109.749 336 109.738C336.862 103.803 338.553 98.5807 342.48 93.8207C348.508 86.5158 357.465 82.7593 366.917 81.7587Z" fill="#FEAD44"/>
<path d="M24.3664 484.726C63.7107 484.496 104.51 484.658 144.009 484.655L369.628 484.646C404.096 484.646 443.743 485.012 477.701 484.653C484.259 484.584 488.619 484.294 493.712 483.961L494.281 483.557C486.109 483.204 477.47 483.151 468.517 483.118C417.917 482.931 366.037 483.162 315.284 483.164L-5.42075 483.227C-2.34021 484.014 -2.86649 484.304 5.56421 484.728L24.3664 484.726Z" fill="black"/>
<path d="M306.508 376.928C302.604 376.733 298.871 378.291 295.985 380.872C292.519 383.971 290.221 388.867 290.095 393.53C290.068 394.514 290.23 395.07 290.919 395.775C294.494 396.375 301.459 395.921 305.459 395.93C310.558 395.916 315.984 396.366 321.041 395.866C321.468 395.434 321.533 395.118 321.581 394.526C321.909 390.472 320.491 386.284 317.984 383.124C314.977 379.332 311.248 377.509 306.508 376.928Z" fill="black"/>
<path d="M294.774 384.982C294.561 385.056 294.5 385.06 294.301 385.226C292.168 387.007 291.837 391.86 291.812 394.444C294.739 394.622 297.74 394.505 300.676 394.509L304.263 394.511C301.016 391.415 297.937 388.163 294.774 384.982Z" fill="#FDBE50"/>
<path d="M317.376 384.682C314.058 386.698 310.246 391.49 307.499 394.416L310.164 394.46L320.069 394.492C319.98 390.709 319.265 387.962 317.376 384.682Z" fill="#FDBE50"/>
<path d="M304.996 378.499C301 378.817 298.125 380.696 295.426 383.484C297.019 385.011 298.549 386.617 300.107 388.181L305.006 393.029C304.943 388.187 304.992 383.341 304.996 378.499Z" fill="#FDBE50"/>
<path d="M306.875 378.621L306.65 378.741C306.034 380.096 306.504 391.04 306.518 393.294L311.176 388.374C312.836 386.629 314.625 385.004 316.38 383.355C313.607 380.411 310.879 379.066 306.875 378.621Z" fill="#FDBE50"/>
<path d="M201.65 358.74C194.583 358.739 187.257 358.35 180.227 358.926C179.773 363.691 180.051 368.736 180.025 373.534C180.003 377.647 179.533 383.654 180.224 387.469C187.379 387.711 194.65 387.55 201.809 387.475C202.1 383.691 202.356 361.462 201.65 358.74Z" fill="black"/>
<path d="M200.307 360.37L191.986 360.341L192.032 386.048L200.325 386.045C200.479 377.498 200.318 368.921 200.307 360.37Z" fill="#FDBE50"/>
<path d="M190.168 360.311L181.569 360.326L181.534 385.995C184.41 386.014 187.286 385.999 190.162 385.952C190.458 377.448 190.168 368.827 190.168 360.311Z" fill="#FDBE50"/>
<path d="M174.103 421C165.616 421.142 156.918 420.608 148.466 421.209C148.114 429.829 148.337 438.574 148.284 447.206C148.232 455.556 147.872 464.141 148.383 472.469C156.937 472.739 165.585 472.563 174.144 472.474C174.285 463.201 174.153 453.903 174.156 444.627C174.158 436.764 174.328 428.858 174.103 421Z" fill="black"/>
<path d="M160.105 422.552C156.751 422.519 153.406 422.495 150.054 422.608C149.924 430.463 149.993 438.328 149.978 446.184C153.333 446.323 156.745 446.181 160.107 446.163C160.253 438.3 160.131 430.417 160.105 422.552Z" fill="#FEFEFE"/>
<path d="M160.101 447.578C156.698 447.561 153.295 447.575 149.891 447.62C149.503 455.366 149.784 463.252 149.803 471.014C153.195 471.311 156.704 471.138 160.107 471.118C160.256 463.281 160.137 455.417 160.101 447.578Z" fill="#FEFEFE"/>
<path d="M172.684 422.478C169.026 422.38 165.33 422.362 161.673 422.516C161.342 430.317 161.67 438.27 161.698 446.088L172.697 446.074C172.864 438.235 172.835 430.318 172.684 422.478Z" fill="#FEFEFE"/>
<path d="M172.684 447.583L161.648 447.584C161.571 455.415 161.542 463.245 161.559 471.076C165.284 471.102 169.009 471.098 172.734 471.064L172.684 447.583Z" fill="#FEFEFE"/>
<path d="M308.294 420.982C299.621 421.205 290.838 420.607 282.188 421.144L282.16 472.192C290.83 472.687 299.707 472.297 308.404 472.278C308.617 468.621 308.509 464.919 308.518 461.254L308.5 439.804L308.508 427.938C308.51 425.693 308.734 423.182 308.294 420.982Z" fill="black"/>
<path d="M306.948 447.812L296.21 447.814L296.226 470.702L306.977 470.71C307.054 463.077 307.044 455.444 306.948 447.812Z" fill="#FEFEFE"/>
<path d="M294.585 447.749C290.976 447.681 287.367 447.675 283.758 447.732C283.737 455.268 283.261 463.147 283.865 470.639C287.441 470.724 291.027 470.669 294.604 470.661L294.585 447.749Z" fill="#FEFEFE"/>
<path d="M306.879 422.452C303.338 422.365 299.798 422.395 296.26 422.542C296.243 425.899 295.763 445.11 296.507 446.322L306.952 446.3C307.004 438.368 307.175 430.376 306.879 422.452Z" fill="#FEFEFE"/>
<path d="M294.28 422.491C290.779 422.452 287.28 422.39 283.78 422.539C283.784 425.558 283.374 445.007 284.135 446.169C287.646 446.217 291.162 446.181 294.673 446.185L294.71 431.011C294.711 428.362 294.878 425.595 294.62 422.966C294.586 422.621 294.644 422.793 294.28 422.491Z" fill="#FEFEFE"/>
<path d="M232.98 420.644C223.601 420.584 214.166 420.389 204.793 420.653C204.524 432.565 204.687 444.519 204.695 456.434C204.701 465.271 204.441 474.203 204.835 483.028C214.199 482.759 223.614 482.976 232.983 483.023L232.987 451.102C233.041 440.949 233.039 430.797 232.98 420.644Z" fill="#212021"/>
<path d="M430.871 416.127C428.04 421.322 425.997 426.902 423.088 432.058L396.58 432.035C393.054 432.038 388.322 431.588 384.949 432.233C388.525 432.288 422.37 432.212 422.388 432.198L422.824 432.522L422.811 433.16C422.548 433.352 422.386 433.482 422.069 433.576C421.31 436.563 419.611 439.632 418.345 442.454C415.907 447.891 413.499 453.367 410.892 458.726C410.75 459.419 410.691 460.174 410.082 460.63C408.827 464.003 407.131 467.236 405.576 470.479C403.572 474.682 401.604 478.902 399.675 483.14L421.046 483.148C423.824 483.146 428.342 483.579 430.944 482.915L431.111 482.923C434.332 483.333 437.89 483.042 441.141 483.05L461.155 483.172C459.14 477.764 456.6 472.387 454.207 467.132C453.231 464.989 452.098 462.892 451.273 460.687C451.8 460.308 452.392 460.311 453.022 460.218L451.371 460.22C450.631 459.795 450.677 459.505 450.406 458.719C449.112 456.894 448.28 454.207 447.334 452.155C444.511 446.03 441.874 439.696 438.754 433.724C438.475 433.509 438.391 433.283 438.228 432.977L438.345 432.593C441.025 431.405 477.465 432.993 484.425 432.172C476.173 431.839 467.806 432.101 459.541 432.101C452.443 432.102 445.226 431.8 438.145 432.141C435.537 426.863 433.149 421.556 430.871 416.127Z" fill="#9498FB"/>
<path d="M431.845 478.656C431.86 474.847 432.36 450.367 431.557 449.239C431.038 449.011 431.081 448.991 430.556 449.194C429.848 451.655 430.318 457.026 430.33 459.81C430.381 466.388 430.395 472.966 430.371 479.545L430.09 479.32C427.713 477.399 417.236 465.841 415.107 465.841L414.903 466.223C415.46 467.543 417.024 468.717 418.036 469.722C420.366 472.035 430.261 480.926 430.944 482.915L431.111 482.923C431.127 482.844 431.141 482.764 431.158 482.685C432.063 478.491 445.183 468.578 445.451 466.463C445.474 466.279 445.31 466.121 445.239 465.951L444.758 465.686C443.141 466.263 433.472 476.787 431.845 478.656Z" fill="black"/>
<path d="M118.495 289.147C117.089 290.727 115.786 292.265 114.086 293.543C109.352 293.649 104.575 293.832 99.8427 293.752C98.1518 293.723 97.3172 293.693 96.1062 292.443L95.1089 292.787L95.3467 293.422C95.0261 293.812 95.0077 293.777 94.5228 293.813C93.9135 293.858 93.2736 293.756 92.6662 293.693L92.7437 293.961C93.2891 294.007 93.8122 294.033 94.3344 294.213C94.0806 294.307 93.8234 294.394 93.571 294.49C93.4204 294.548 93.2731 294.613 93.122 294.669C91.8922 295.119 66.9715 294.75 63.4661 294.78C60.6282 298.215 58.5066 302.44 56.2034 306.241L40.2249 332.6C36.6763 338.584 33.3385 344.763 29.5904 350.619C29.0416 351.477 28.4502 352.562 27.5827 353.118C27.0537 352.96 27.2882 353.1 26.889 352.683C25.5972 356.934 20.0468 365.493 17.7058 369.558C11.6724 379.895 5.77045 390.307 -6.10352e-05 400.795V402.502L0.290543 402.579C1.10429 405.862 0.648987 420.338 0.658676 424.841C0.702271 444.351 0.852448 463.886 0.619949 483.393L96.4424 483.201L119.746 483.151C122.514 483.146 127.126 482.678 129.737 483.328C130.147 483.254 130.441 483.145 130.812 482.955C130.979 482.661 131.023 482.625 131.103 482.242C131.378 480.936 131.082 471.889 131.085 469.756L131.104 445.981C131.108 441.537 131.232 437.058 131.063 432.619C131.586 425.314 131.168 417.718 131.17 410.379C131.171 407.752 130.849 404.591 131.422 402.047C132.158 398.778 138.239 389.976 140.253 386.471L180.857 316.709C183.177 312.661 185.558 308.65 187.999 304.674C189.676 301.962 191.535 299.264 192.969 296.417L193.076 296.198C192.913 295.913 192.668 295.306 192.446 295.099C190.922 293.685 186.952 295.506 185.188 294.364L185.309 293.94C182.439 293.274 173.93 293.846 170.275 293.628C169.049 292.357 168.049 290.749 167.043 289.3C166.426 290.14 165.745 290.957 164.984 291.671C164.062 292.537 162.834 293.234 161.61 293.555C158.41 294.394 150.348 293.782 146.684 293.731C145.133 292.554 144.288 291.092 143.3 289.455C141.774 290.885 140.131 292.645 138.154 293.413C135.858 294.306 124.584 293.793 121.409 293.702C120.335 292.287 119.461 290.645 118.495 289.147Z" fill="#212021"/>
<path d="M118.399 291.263C117.686 291.997 116.9 292.694 116.415 293.604L116.916 293.761C117.751 293.789 118.534 293.883 119.322 293.553C119.364 292.74 118.781 291.981 118.399 291.263Z" fill="#FEFEFE"/>
<path d="M167.011 291.465C166.314 292.032 165.451 292.855 165.061 293.661L165.596 293.848C166.404 293.876 167.327 294.019 168.052 293.615C168.008 292.794 167.446 292.157 167.011 291.465Z" fill="#FEFEFE"/>
<path d="M143.025 291.485C142.378 292.052 141.201 292.872 140.959 293.699L141.619 293.827C142.413 293.845 143.542 294.02 144.251 293.64C144.262 292.922 143.448 292.064 143.025 291.485Z" fill="#FEFEFE"/>
<path d="M130.961 401.306C114.427 401.172 97.8413 401.611 81.3038 401.773C75.0762 401.834 68.8563 401.636 62.6302 401.614L41.5351 401.732C32.7089 401.739 23.87 401.528 15.0423 401.457C10.6417 401.422 5.8803 400.983 1.53061 401.712C1.90358 401.848 38.0365 402.057 40.9558 402.081C36.2448 402.271 2.16515 401.947 1.31749 402.439C4.76624 402.965 8.7672 402.575 12.2905 402.573L35.7784 402.565L94.7607 402.565C106.4 402.547 118.079 402.341 129.715 402.571L129.666 458.381L129.627 474.815C129.62 477.585 129.382 480.593 129.737 483.328C130.147 483.254 130.441 483.145 130.812 482.955C130.979 482.661 131.023 482.625 131.103 482.242C131.378 480.936 131.083 471.889 131.085 469.756L131.104 445.981C131.108 441.537 131.232 437.058 131.063 432.619C130.6 429.425 130.915 425.778 130.917 422.534L130.961 401.306Z" fill="black"/>
<path d="M1.31747 402.439L0.290604 402.579C1.10435 405.862 0.649048 420.338 0.658737 424.841C0.702332 444.351 0.852509 463.886 0.619995 483.393L96.4425 483.201L119.746 483.15C122.514 483.146 127.126 482.678 129.737 483.328C129.382 480.593 129.62 477.585 129.627 474.815L129.666 458.381L129.715 402.571C118.079 402.341 106.4 402.547 94.7607 402.565L35.7783 402.566L12.2905 402.573C8.76719 402.575 4.76623 402.965 1.31747 402.439Z" fill="#7FBEE0"/>
<path d="M84.0909 420.527C77.2583 420.344 70.3928 420.522 63.5578 420.548C57.8945 420.57 52.1662 420.38 46.5117 420.69C46.3324 432.371 46.4095 444.081 46.3915 455.763C46.3852 459.817 45.9212 468.075 46.5988 471.76C53.104 471.892 59.6343 471.784 66.1424 471.784C72.1259 471.784 78.1404 471.906 84.119 471.701C84.5031 468.52 84.2677 465.059 84.2687 461.846L84.2663 443.37L84.2677 428.443C84.2682 425.887 84.5453 423.025 84.0909 420.527Z" fill="black"/>
<path d="M63.5801 447.192C58.3979 447.189 53.2161 447.226 48.0346 447.302C48.0317 450.12 47.679 469.211 48.175 470.126L48.6696 470.237C53.9115 470.249 59.1699 470.345 64.4079 470.138C64.5024 466.81 64.8957 449.305 64.2452 447.401L63.5801 447.192Z" fill="#FEFEFE"/>
<path d="M64.3942 422.244C58.9824 422.297 53.5705 422.313 48.1585 422.292L48.126 445.673L64.4402 445.693C64.4693 437.916 64.7342 430.01 64.3942 422.244Z" fill="#FEFEFE"/>
<path d="M81.4916 447.192C76.3421 447.115 71.1928 447.139 66.0439 447.265C66.0401 454.758 65.7378 462.333 66.0531 469.813C66.4978 470.302 66.7579 470.172 67.3857 470.209C72.4806 470.247 77.5756 470.255 82.6706 470.232C82.7694 467.414 83.1269 448.523 82.3504 447.325L81.4916 447.192Z" fill="#FEFEFE"/>
<path d="M82.6523 422.105C77.0836 422.036 71.5149 422.043 65.9462 422.125L66.0731 445.682C71.58 445.741 77.0946 445.673 82.6024 445.666C82.7645 437.812 82.7812 429.959 82.6523 422.105Z" fill="#FEFEFE"/>
<path d="M449.8 201.728C447.326 195.942 443.494 189.184 438.948 184.805C434.236 180.266 428.17 176.879 421.481 177.077C413.317 177.318 407.61 182.505 402.363 188.127C380.076 184.041 350.208 194.288 332.013 206.803C327.786 209.711 324.103 213.001 320.139 216.222C316.413 208.095 312.968 199.844 309.304 191.69C308.033 188.862 306.898 185.905 305.479 183.151L284.983 228.1L277.833 243.95C276.517 246.869 275.294 249.983 273.743 252.777L262.838 233.077C260.537 228.855 258.429 224.414 255.815 220.379C239.936 220.766 223.927 220.195 208.036 220.058L192.503 219.931C189.533 219.916 186.317 220.14 183.382 219.723C182.914 219.237 183.029 219.133 183.041 218.448C183.882 217.686 185.293 217.849 186.394 217.815C186.762 213.514 186.525 209.035 186.478 204.721C177.769 204.432 168.823 204.476 160.112 204.74C160.054 209.052 160.116 213.373 160.12 217.685C160.898 217.675 162.185 217.525 162.824 217.969C163.362 218.343 163.434 218.491 163.495 219.091C163.344 219.297 163.257 219.438 163.049 219.609C162.401 220.141 161.055 219.95 160.255 219.926L155.587 219.73C148.598 219.782 141.369 220.044 134.411 219.496C129.781 225.915 124.871 232.235 120.518 238.841C118.516 241.879 116.785 245.128 114.976 248.285C112.095 253.222 109.31 258.212 106.621 263.255C104.527 267.431 102.277 271.517 100.141 275.67C97.0155 281.746 94.0012 287.839 90.5481 293.74C81.3198 293.704 71.9607 293.324 62.7469 293.666C60.3115 297.379 58.0926 301.251 55.5787 304.905C55.5438 301.507 56.095 283.151 54.9994 281.53C54.9194 281.412 54.7935 281.334 54.6903 281.236C54.2607 281.558 54.2059 282.015 54.1207 282.529C53.7404 284.816 53.9836 287.436 53.9943 289.764C54.0204 295.576 54.2447 301.452 54.0485 307.257L52.7233 309.412C51.044 307.399 42.687 295.75 41.7071 295.136C41.556 295.042 41.3622 295.046 41.1898 295.001L40.6091 295.283C40.4623 295.96 40.7147 296.206 41.1041 296.782C42.2593 298.49 43.6684 300.07 44.9059 301.724C47.1961 304.782 49.3525 307.912 51.7652 310.879C49.9066 314.242 47.4751 319.161 45.2586 322.147C39.4388 331.828 33.9208 341.826 27.8152 351.318C22.3719 351.299 16.8829 351.129 11.4458 351.372L11.4361 352.245C11.5572 352.362 11.6478 352.523 11.8008 352.594C12.9188 353.104 24.5714 352.672 26.8891 352.683C27.2883 353.1 27.0538 352.96 27.5828 353.118C28.4503 352.562 29.0417 351.477 29.5905 350.619C33.3386 344.763 36.6764 338.584 40.2249 332.6L56.2035 306.241C58.5067 302.44 60.6283 298.215 63.4662 294.78C66.9716 294.75 91.8923 295.119 93.1221 294.669C93.2732 294.613 93.4205 294.547 93.5711 294.49C93.8235 294.394 94.0807 294.307 94.3345 294.213C93.8123 294.033 93.2892 294.007 92.7438 293.961L92.6663 293.693C93.2737 293.756 93.9135 293.858 94.5229 293.813C95.0078 293.777 95.0262 293.812 95.3468 293.422L95.109 292.787L96.1063 292.443C97.3173 293.693 98.1519 293.723 99.8428 293.752C104.575 293.832 109.353 293.648 114.086 293.543C115.786 292.265 117.089 290.727 118.496 289.147C119.461 290.645 120.335 292.287 121.409 293.702C124.584 293.793 135.858 294.306 138.154 293.413C140.131 292.645 141.774 290.885 143.3 289.455C144.289 291.092 145.133 292.554 146.684 293.731C150.348 293.782 158.41 294.394 161.61 293.555C162.834 293.234 164.062 292.537 164.984 291.671C165.745 290.957 166.426 290.14 167.044 289.3C168.049 290.749 169.049 292.357 170.275 293.628C173.93 293.846 182.439 293.274 185.309 293.94L185.188 294.364C186.952 295.506 190.922 293.685 192.446 295.099C192.668 295.306 192.913 295.913 193.076 296.198L193.883 295.096C195.682 296.558 204.466 312.034 206.806 315.374C217.957 333.459 228.602 351.894 239.529 370.119L252.081 391.31C254.124 394.762 256.528 398.125 258.237 401.752L250.585 401.737C239.207 383.053 228.017 364.258 217.014 345.352L204.922 325.124C202.549 321.153 200.303 317.036 197.752 313.178C197.289 312.479 196.763 311.632 196.036 311.194L196.171 311.263L195.667 311.588C195.705 312.168 195.827 312.538 196.104 313.051C200.321 320.88 205.36 328.407 209.898 336.065L232.693 374.768C238.168 383.945 243.865 393.013 249.178 402.284L249.04 459.66C249.029 463.968 248.435 480.126 249.265 482.826L249.697 483.088C250.004 483.009 250.356 482.945 250.651 482.832C253.302 482.628 256.037 482.642 258.691 482.802C259.241 482.826 259.53 482.829 260.021 482.568C260.42 480.461 260.206 478.034 260.213 475.883L260.245 463.872L260.199 414.908C260.185 412.453 259.702 403.548 260.33 401.783C261.484 398.545 263.995 395.191 265.789 392.212L279.88 369.221L297.574 339.615C301.582 332.762 305.428 325.601 309.824 318.994C310.048 318.657 310.183 318.474 310.566 318.301C319.652 333.844 328.248 349.715 337.113 365.391C342.62 374.962 348.021 384.593 353.317 394.282C354.945 397.228 356.745 400.109 358.294 403.094C356.328 403.12 354.357 403.176 352.391 403.12C348.608 397.211 345.39 390.859 341.907 384.764L321.898 349.582C319.466 345.142 317.012 340.714 314.537 336.299C313.512 334.453 312.648 332.377 311.363 330.705L310.952 330.69C310.47 331.162 310.499 331.142 310.461 331.819C311.708 334.35 313.246 336.793 314.609 339.27C317.618 344.828 320.702 350.345 323.859 355.819L338.91 382.425C341.291 386.539 343.634 390.674 345.937 394.831C347.492 397.575 349.23 400.349 350.513 403.23C350.969 404.255 351.154 405.216 351.21 406.333C351.511 412.283 351.162 418.362 351.17 424.327L351.178 464.976C351.184 470.147 350.79 475.585 351.113 480.728C351.165 481.563 351.15 482.71 351.96 483.14C352.376 482.838 352.459 482.764 352.561 482.226C352.913 480.368 352.611 477.934 352.612 476.024L352.634 460.204L389.638 460.197C396.301 460.205 403.512 459.679 410.082 460.63C410.691 460.174 410.75 459.419 410.892 458.726C413.499 453.367 415.907 447.891 418.345 442.454C419.611 439.632 421.31 436.563 422.069 433.576C422.386 433.482 422.548 433.352 422.811 433.16L422.824 432.522L422.388 432.198C422.37 432.212 388.525 432.288 384.949 432.233C388.322 431.588 393.054 432.038 396.58 432.035L423.088 432.058C425.997 426.901 428.04 421.322 430.871 416.127C433.149 421.556 435.537 426.863 438.145 432.141C445.226 431.8 452.443 432.102 459.541 432.101C467.806 432.101 476.173 431.839 484.425 432.172C477.465 432.993 441.025 431.405 438.345 432.593L438.228 432.977C438.391 433.283 438.475 433.509 438.754 433.724C451.256 433.574 463.778 433.708 476.282 433.695C481.331 433.69 487.259 434.108 492.207 433.679C493.022 433.608 493.996 433.539 494.627 432.972L494.392 432.725C491.94 431.839 488.673 432.219 486.086 432.25L486.076 351.013C487.986 350.961 491.597 351.513 493.27 350.819C493.618 350.674 493.578 350.471 493.687 350.144C493.159 348.313 491.783 346.452 490.85 344.769L451.22 275.625C456.216 259.828 458.376 240.937 455.857 224.507C454.656 216.673 452.437 209.186 449.8 201.728Z" fill="#212021"/>
<path d="M365.623 346.767C364.341 347.309 363.114 348.703 362.074 349.65L364.433 349.638L368.658 349.657L365.623 346.767Z" fill="#FEFEFE"/>
<path d="M342.644 346.75C341.106 347.161 339.665 348.734 338.472 349.756L341.787 349.799L345.897 349.754C344.876 348.65 343.808 347.7 342.644 346.75Z" fill="#FEFEFE"/>
<path d="M209.425 300.205C205.998 301.546 203.336 301.946 199.697 301.592L202.251 305.396L204.424 308.647L209.425 300.205Z" fill="#FEFEFE"/>
<path d="M155.587 219.73C148.598 219.782 141.369 220.044 134.411 219.496C129.781 225.915 124.871 232.235 120.518 238.842C118.516 241.88 116.785 245.128 114.976 248.285C112.095 253.222 109.31 258.212 106.621 263.255C104.527 267.431 102.277 271.517 100.141 275.67C97.0155 281.747 94.0012 287.839 90.5481 293.74C81.3198 293.704 71.9607 293.324 62.7469 293.666C60.3115 297.379 58.0925 301.251 55.5786 304.905C55.5438 301.507 56.095 283.151 54.9993 281.53C54.9194 281.412 54.7935 281.334 54.6903 281.236C54.2607 281.558 54.2059 282.015 54.1207 282.529C53.7404 284.816 53.9836 287.436 53.9942 289.764C54.0204 295.576 54.2447 301.452 54.0485 307.258L52.7233 309.413C51.0439 307.399 42.687 295.75 41.7071 295.136C41.556 295.042 41.3622 295.046 41.1898 295.001L40.609 295.283C40.4623 295.961 40.7146 296.206 41.104 296.782C42.2593 298.49 43.6683 300.07 44.9059 301.724C47.196 304.782 49.3525 307.912 51.7652 310.879C49.9066 314.242 47.4751 319.162 45.2586 322.147C39.4388 331.828 33.9208 341.826 27.8152 351.318C22.3718 351.299 16.8829 351.129 11.4458 351.372L11.4361 352.245C11.5572 352.362 11.6478 352.523 11.8008 352.594C12.9187 353.104 24.5714 352.672 26.8891 352.683C27.2882 353.1 27.0538 352.96 27.5827 353.118C28.4503 352.562 29.0417 351.477 29.5905 350.619C33.3386 344.763 36.6764 338.585 40.2249 332.601L56.2035 306.241C58.5067 302.44 60.6282 298.215 63.4662 294.78C66.9716 294.75 91.8922 295.119 93.1221 294.669C93.2732 294.613 93.4204 294.548 93.5711 294.49C93.8234 294.394 94.0807 294.307 94.3345 294.213C93.8123 294.033 93.2892 294.007 92.7438 293.961L92.6663 293.693C93.2737 293.756 93.9135 293.858 94.5229 293.813C95.0077 293.777 95.0261 293.812 95.3468 293.422L95.109 292.787L96.1063 292.443C95.6064 291.606 95.1264 290.747 94.5892 289.934C96.549 286.31 98.3117 282.554 100.378 278.994C102.39 282.188 104.946 284.574 108.766 285.428C108.999 285.482 109.233 285.53 109.469 285.572C109.705 285.614 109.942 285.649 110.179 285.679C110.417 285.709 110.655 285.733 110.893 285.75C111.132 285.768 111.371 285.779 111.61 285.784C111.849 285.79 112.089 285.789 112.328 285.782C112.567 285.775 112.806 285.762 113.045 285.743C113.283 285.723 113.521 285.698 113.758 285.667C113.996 285.635 114.232 285.598 114.468 285.554C114.703 285.511 114.937 285.461 115.169 285.405C115.402 285.35 115.634 285.288 115.863 285.221C116.093 285.153 116.321 285.08 116.546 285.001C116.772 284.922 116.996 284.837 117.218 284.746C117.439 284.656 117.658 284.56 117.875 284.458C118.091 284.356 118.305 284.249 118.516 284.136C118.728 284.023 118.936 283.905 119.141 283.781C119.346 283.658 119.547 283.529 119.746 283.395C121.32 282.343 122.597 281.06 123.83 279.633C126.424 282.973 129.011 285.436 133.424 285.955C137.458 286.43 141.666 285.117 144.769 282.524C145.84 281.628 146.781 280.538 147.727 279.513C150.615 282.773 153.518 285.494 158.128 285.839C162.136 286.138 165.768 284.899 168.765 282.214C169.873 281.221 170.8 280.052 171.773 278.931C174.42 282.307 177.002 285.162 181.522 285.768C185.852 286.349 190.324 285.002 193.741 282.321C195.404 281.017 196.794 279.454 198.206 277.89C200.123 281.205 202.337 284.322 206.229 285.448C211.25 286.901 215.886 284.526 220.137 282.13C217.84 285.874 213.521 294.641 210.816 297.316C209.421 298.696 207.658 299.551 205.757 299.99C203.423 300.528 201.079 300.373 198.739 299.965C197.475 297.962 196.294 295.814 194.8 293.971C193.53 292.404 192.07 291.154 190.878 289.487C189.239 291.175 187.603 293.185 185.309 293.94L185.188 294.364C186.952 295.506 190.922 293.685 192.446 295.099C192.668 295.306 192.913 295.914 193.076 296.198L193.883 295.096C195.682 296.558 204.466 312.034 206.806 315.374L207.087 315.333L207.056 314.909C205.182 312.148 203.622 309.233 201.854 306.413C201.353 305.615 200.69 304.96 200.185 304.181C199.687 303.413 199.361 302.538 198.896 301.749C198.442 300.978 197.813 300.371 197.34 299.624C196.486 298.278 195.87 296.727 194.938 295.439C194.623 295.003 194.237 294.721 193.792 294.432C193.288 294.105 192.976 293.987 192.721 293.419L192.925 293.068L193.483 293.151C193.962 293.529 194.34 293.858 194.66 294.386C194.81 294.632 194.934 294.853 195.128 295.067C196.274 296.334 197.209 299.724 198.74 300.347C200.183 300.934 203.057 300.978 204.548 300.58C206.663 300.016 208.849 299.695 210.575 298.235C211.529 297.427 212.399 296.322 213.076 295.269C213.544 294.538 213.729 293.685 214.157 292.948C215.132 291.271 220.528 282.856 220.628 281.771C219.671 281.304 218.349 282.957 217.347 283.248C215.126 283.891 213.156 285.251 210.816 285.541C206.51 286.075 203.091 283.819 200.512 280.583C199.693 279.556 198.904 278.295 197.854 277.508C197.768 277.589 197.672 277.659 197.597 277.75C196.791 278.729 196.033 279.591 195.093 280.47C191.666 283.674 187.665 285.78 182.843 285.546C179.18 285.368 176.257 283.574 173.933 280.834C173.444 280.258 172.84 279.272 172.251 278.834C172.13 278.745 172.006 278.632 171.857 278.619C171.762 278.611 169.534 280.824 169.194 281.149C166.685 283.545 163.842 285.232 160.321 285.541C154.626 286.042 151.746 282.61 147.831 279.346C147.681 279.331 147.522 279.248 147.38 279.301C145.965 279.831 143.279 284.627 138.374 285.251C136.991 285.427 135.578 285.759 134.183 285.7C129.451 285.503 127.108 282.538 124.135 279.425C123.336 279.426 121.486 281.42 120.761 282.012C117.582 284.604 114.06 285.738 109.961 285.259C106.057 284.803 103.584 282.44 101.231 279.515C100.954 279.172 100.826 279.018 100.461 278.75L100.012 278.909C98.7292 281 94.6856 287.87 94.2449 289.914C94.4396 290.312 94.5694 290.598 94.6638 291.036L94.2395 290.851C92.9303 291.322 92.3572 293.31 91.7958 294.5C89.4844 294.507 84.615 294.94 82.6121 294.378C84.3224 293.298 88.6755 294.933 90.6053 294.051C91.3115 292.838 92.2802 291.821 92.9598 290.603C95.6113 285.847 97.9319 280.863 100.428 276.025C106.552 264.156 112.815 252.247 119.781 240.848C123.762 234.332 128.699 228.308 133.081 222.051C133.48 221.482 134.115 220.431 134.723 220.103C135.105 219.898 153.973 220.063 156.052 220.116C157.8 220.161 159.947 220.595 161.649 220.293L160.255 219.926L155.587 219.73Z" fill="black"/>
<path d="M95.109 292.787C94.6808 292.213 94.5612 291.771 93.8312 291.633C93.263 292.213 92.9947 292.963 92.6663 293.693C93.2737 293.756 93.9135 293.858 94.5229 293.813C95.0077 293.777 95.0261 293.812 95.3468 293.422L95.109 292.787Z" fill="#FEFEFE"/>
<path d="M258.669 403.233C256.001 403.173 253.329 403.146 250.663 403.047L250.65 482.832C253.302 482.628 256.037 482.642 258.691 482.802L258.669 403.233Z" fill="#007DC1"/>
<path d="M406.175 269.502C402.477 272.313 400.517 274.319 395.579 274.519C390.936 274.708 387.647 272.701 384.372 269.671C383.896 270.174 383.407 270.664 382.904 271.14C379.227 274.573 375.545 274.563 370.825 274.413C370.8 278.567 370.815 282.722 370.871 286.876C373.152 285.541 374.997 283.897 376.699 281.89C377.862 282.985 378.879 284.221 380.118 285.239C382.863 287.495 385.724 288.081 389.186 287.775C393.111 286.69 395.512 284.899 398.222 281.9C399.736 283.595 401.159 285.16 403.118 286.347C406.17 288.196 409.761 288.428 413.157 287.539C420.149 285.709 423.318 277.825 426.583 272.072C424.12 273.142 421.726 274.099 419.024 274.342C413.695 274.82 410.125 272.809 406.175 269.502Z" fill="#FEFEFE"/>
<path d="M423.704 249.072C423.831 245.127 424.364 217.215 423.524 215.809C423.019 215.706 423.06 215.632 422.566 215.879C421.917 217.759 422.465 244.342 422.189 248.881C419.352 246.589 414.37 240.785 411.675 237.827C410.55 236.593 409.45 235.166 408.168 234.101L407.657 234.221L407.36 234.786C407.568 236.149 420.378 249.227 422.191 250.766L422.103 253.87C410.661 254.14 399.152 253.973 387.703 253.931C384.224 253.898 380.744 253.887 377.265 253.899C377.2 253.94 377.14 253.99 377.071 254.023C375.816 254.604 372.589 254.129 371.088 254.27C382.046 254.603 393.094 254.261 404.064 254.289L415.837 254.326C417.895 254.334 420.127 254.53 422.156 254.19C422.387 253.31 422.849 251.627 422.552 250.754C422.061 249.308 407.83 236.299 408.095 234.745C410.613 236.833 420.207 248.937 422.534 248.938C422.99 244.394 422.175 217.699 423.101 216.163C423.824 218.654 423.364 223.167 423.361 225.827L423.333 243.217C423.323 245.147 422.91 247.426 423.397 249.283L424.039 249.212L424.128 249.442C423.262 250.965 422.63 252.099 423.15 253.906C423.178 254.004 423.216 254.098 423.25 254.194C425.807 254.52 436.899 253.734 438.265 254.443C438.612 254.622 439.02 255.088 439.258 255.393C441.596 258.396 443.427 262.772 445.315 266.153L457.866 288.152L485.63 337.033C488.091 341.454 491.396 345.61 493.408 350.256C492.545 351.078 489.121 350.741 487.914 350.711C487.026 350.689 486.314 350.606 485.46 350.336C485.117 350.227 485.269 350.25 484.869 350.344C485.004 351.246 485.653 351.528 485.77 352.406C486.184 355.535 485.848 359.14 485.839 362.314L485.574 388.149L485.586 422.447C485.59 425.8 485.901 429.217 485.828 432.547C487.43 432.536 492.643 432.17 493.877 432.771L493.937 433.093C493 433.451 442.01 433.525 438.92 433.191L438.836 432.832C438.989 432.734 439.119 432.586 439.295 432.536C440.509 432.196 447.683 432.541 449.408 432.542L484.859 432.547L484.869 373.188C484.87 368.752 485.362 353.161 484.538 350.089C483.911 347.753 481.982 345.534 480.78 343.434L476.09 335.145C472.721 329.238 438.453 269.469 438.402 268.683L438.771 268.662C440.366 271.109 441.569 273.717 443.033 276.232L450.617 289.39L472.587 327.601C475.461 332.763 478.373 337.903 481.321 343.023C482.363 344.831 483.345 346.976 484.52 348.667C485.051 349.431 486.089 349.868 486.968 350.064C488.115 350.32 490.267 349.716 491.59 349.686L491.918 349.404C491.194 346.332 483.542 334.35 481.387 330.583L451.926 278.941L443.41 263.968C441.94 261.351 440.606 258.297 438.775 255.949L438.2 255.827C435.317 257.887 410.232 302.386 406.262 309.142C400.825 318.21 395.486 327.335 390.243 336.517C387.879 340.634 385.252 344.661 383.217 348.951C382.936 349.543 382.908 350.152 382.887 350.796C382.598 359.702 382.898 368.726 382.899 377.64L382.898 432.547C388.061 432.546 420.635 432.038 422.49 433.011C415.137 433.791 406.001 433.278 398.394 433.278L352.383 433.273C352.406 441.836 352.111 450.381 352.141 458.945L390.197 459.193C393.381 459.198 408.244 458.78 410.223 459.349L410.289 459.693C410.165 459.804 410.074 459.973 409.916 460.026C408.891 460.374 403.077 459.889 401.61 459.888L352.141 459.914C352.141 463.161 352.59 480.995 351.851 482.598C351.447 482.041 351.409 481.412 351.383 480.742C351.053 472.353 351.534 463.842 351.644 455.451C351.798 443.767 351.669 432.065 351.662 420.379C351.66 417.058 352.227 405.929 351.064 403.444C347.048 394.867 341.758 386.467 336.983 378.26C333.919 372.993 331.007 367.558 328.097 362.218C324.966 356.471 321.54 350.885 318.431 345.11C316.232 341.027 313.441 337.109 311.624 332.846L311.017 331.435C311.802 331.974 312.411 333.275 312.879 334.1L347.061 394.564C348.158 396.466 350.426 401.888 351.793 403.108C352.662 403.884 356.708 403.448 357.895 403.233C358.092 403.197 358.289 403.157 358.485 403.115L358.614 402.874C357.115 399.271 354.624 395.767 352.729 392.327C347.196 382.265 341.577 372.252 335.872 362.286L319.109 332.648C317.189 329.246 314.765 323.761 312.625 320.916C311.882 319.928 311.373 318.679 310.826 317.57L310.667 317.682L310.566 318.301C319.652 333.844 328.248 349.715 337.113 365.391C342.62 374.962 348.021 384.593 353.317 394.282C354.945 397.228 356.745 400.109 358.294 403.094C356.328 403.12 354.357 403.176 352.391 403.12C348.608 397.211 345.39 390.859 341.907 384.764L321.898 349.582C319.466 345.142 317.012 340.714 314.537 336.299C313.512 334.453 312.648 332.377 311.363 330.705L310.952 330.69C310.47 331.162 310.499 331.142 310.461 331.819C311.708 334.35 313.246 336.793 314.609 339.27C317.618 344.828 320.702 350.345 323.859 355.819L338.91 382.425C341.291 386.539 343.634 390.674 345.937 394.831C347.492 397.574 349.23 400.349 350.513 403.23C350.969 404.255 351.154 405.215 351.21 406.333C351.511 412.283 351.162 418.362 351.17 424.327L351.178 464.976C351.184 470.147 350.79 475.585 351.113 480.728C351.165 481.563 351.15 482.71 351.96 483.14C352.376 482.838 352.459 482.764 352.561 482.226C352.913 480.368 352.611 477.934 352.612 476.024L352.634 460.204L389.638 460.197C396.301 460.205 403.512 459.679 410.082 460.63C410.691 460.174 410.75 459.419 410.892 458.726C391.467 458.822 372.042 458.81 352.618 458.69L352.645 433.654C360.444 433.478 368.275 433.628 376.077 433.629L422.069 433.576C422.386 433.482 422.548 433.352 422.811 433.16L422.824 432.522L422.388 432.198C422.37 432.212 388.525 432.288 384.949 432.233C384.425 432.274 384.057 432.246 383.547 432.115C383.457 431.842 383.435 431.807 383.389 431.478C383.072 429.173 383.36 426.414 383.363 424.059L383.386 406.791L383.325 351.983C383.332 351.139 383.305 350.115 383.549 349.308C384.422 346.432 387.853 341.507 389.468 338.726C394.36 330.165 399.332 321.652 404.385 313.186L425.446 277.019C429.587 269.98 433.682 262.707 438.387 256.032C443.057 263.706 447.313 271.718 451.768 279.525C464.871 302.957 478.193 326.264 491.734 349.445C489.665 349.483 487.592 349.458 485.522 349.459C480.737 341.79 476.51 333.648 472.059 325.773L449.859 287.114C446.743 281.752 443.327 274.674 439.973 269.79C439.474 269.063 438.994 268.512 438.205 268.114L437.885 268.304C437.893 268.949 438.151 269.51 438.442 270.076C439.446 272.034 440.733 273.926 441.823 275.852C444.967 281.439 448.147 287.005 451.364 292.55L476.336 336.491C478.267 339.934 483.247 347.173 484.119 350.509C484.937 353.636 484.472 357.761 484.465 361.003L484.494 373.862C484.572 393.3 484.549 412.736 484.425 432.172C477.465 432.993 441.025 431.405 438.345 432.593L438.228 432.977C438.391 433.283 438.475 433.509 438.754 433.724C451.256 433.574 463.778 433.708 476.282 433.695C481.331 433.69 487.259 434.108 492.207 433.679C493.022 433.608 493.996 433.539 494.627 432.972L494.392 432.725C491.94 431.839 488.673 432.219 486.086 432.25L486.076 351.013C487.986 350.961 491.597 351.513 493.27 350.819C493.618 350.674 493.578 350.47 493.687 350.144C493.159 348.313 491.783 346.452 490.85 344.769L451.22 275.625C447.245 268.341 443.052 261.164 439.01 253.915L423.607 253.916L423.565 250.736C426.478 248.024 429.123 245.014 431.826 242.097C433.612 240.171 435.602 238.284 437.192 236.193C437.662 235.574 438.001 235.111 437.908 234.322L437.45 234.127C435.889 234.61 425.395 247.03 423.704 249.072Z" fill="black"/>
<path d="M351.297 255.603L306.452 255.689C303.805 259.846 301.3 264.087 298.936 268.413L302.698 267.621C304.433 270.001 306.813 271.282 309.494 272.306C311.034 272.654 312.543 272.93 314.128 272.894C318.52 272.795 321.474 270.303 324.346 267.318C327.076 270.213 329.548 272.775 333.841 272.946C338.645 273.138 341.867 270.671 345.171 267.577C347.047 269.648 348.719 271.298 351.208 272.633C351.339 266.963 351.28 261.275 351.297 255.603Z" fill="#FEFEFE"/>
<path d="M301.974 269.506C300.627 269.5 299.358 269.798 298.05 270.078C295.707 274.024 293.553 278.105 291.228 282.07C292.625 282.79 293.412 283.946 294.484 285.034C296.509 287.089 299.416 288.038 302.268 288.001C307.205 287.934 310.127 285.228 313.362 281.967C314.224 282.892 315.082 283.851 316.014 284.706C318.427 286.916 321.452 288.104 324.735 287.902C329.144 287.63 332.031 285.179 334.851 282.085C336.275 283.625 337.682 285.1 339.366 286.359C340.366 286.971 341.431 287.462 342.587 287.685C345.827 288.311 348.561 287.067 351.178 285.302C351.289 281.751 351.22 278.177 351.235 274.623C348.939 273.242 347.05 271.622 345.076 269.813C341.724 272.601 338.713 274.59 334.154 274.525C329.838 274.462 327.278 272.526 324.395 269.588C321.8 272.061 319.018 273.976 315.346 274.379C310.027 274.962 305.986 272.732 301.974 269.506Z" fill="#FEFEFE"/>
<path d="M204.75 233.521C204.084 234.356 203.394 235.179 202.602 235.898C202.423 236.06 202.24 236.217 202.053 236.37C201.865 236.523 201.674 236.671 201.48 236.814C201.285 236.958 201.087 237.096 200.885 237.229C200.684 237.363 200.479 237.491 200.271 237.614C200.063 237.737 199.852 237.855 199.638 237.968C199.424 238.08 199.207 238.187 198.988 238.289C198.769 238.39 198.547 238.486 198.323 238.577C198.098 238.668 197.872 238.753 197.644 238.832C197.416 238.911 197.185 238.984 196.953 239.052C196.721 239.12 196.488 239.181 196.252 239.237C196.017 239.293 195.781 239.343 195.543 239.387C195.306 239.431 195.067 239.469 194.827 239.502C194.588 239.534 194.347 239.56 194.107 239.58C193.866 239.6 193.624 239.614 193.383 239.622C193.141 239.63 192.9 239.632 192.658 239.628C192.416 239.623 192.175 239.613 191.934 239.597C188.115 239.347 185.346 237.643 182.844 234.864L182.814 253.363C184.199 253.278 185.646 253.246 186.998 252.913C191.367 251.839 192.666 248.778 194.734 245.269C194.993 246.1 195.251 246.942 195.572 247.751C196.501 250.088 198.441 251.934 200.752 252.888C206.137 255.112 212.002 252.627 215.76 248.596C216.461 247.844 217.402 246.214 218.32 245.841L218.683 246.165C219.818 248.655 220.891 250.786 223.395 252.177C225.893 253.565 228.935 253.741 231.646 252.924C239.579 250.531 242.265 242.975 245.897 236.352C242.008 238.489 238.445 240.219 233.849 239.225C230.522 238.506 228.283 236.616 226.457 233.845C225.39 234.992 224.296 236.1 223.003 236.996C222.817 237.127 222.628 237.253 222.436 237.374C222.244 237.495 222.049 237.611 221.851 237.722C221.653 237.833 221.452 237.939 221.248 238.04C221.045 238.141 220.839 238.237 220.63 238.327C220.422 238.417 220.212 238.502 219.999 238.582C219.786 238.661 219.572 238.735 219.355 238.804C219.139 238.873 218.921 238.936 218.701 238.993C218.481 239.051 218.26 239.103 218.038 239.149C217.816 239.196 217.592 239.236 217.368 239.271C217.143 239.306 216.918 239.335 216.692 239.358C216.466 239.382 216.24 239.399 216.013 239.411C215.786 239.423 215.559 239.429 215.332 239.429C215.105 239.43 214.878 239.424 214.651 239.412C214.425 239.401 214.198 239.384 213.972 239.361C213.746 239.339 213.521 239.31 213.296 239.275C213.072 239.241 212.849 239.201 212.626 239.155C209.093 238.458 206.716 236.417 204.75 233.521Z" fill="#FEFEFE"/>
<path d="M373.484 330.983C372.59 331.438 371.667 332.39 370.862 333.028C368.488 334.908 365.299 336.051 362.263 336.065C357.802 336.085 354.733 333.782 351.701 330.846C348.391 333.488 345.277 335.981 340.795 335.994C336.464 336.007 333.419 333.733 330.498 330.859C327.863 333.302 325.752 334.933 322.293 336.065C324.682 340.693 327.446 345.216 330.134 349.676C332.517 349.621 335.364 349.937 337.453 348.666C339.191 347.449 340.734 346.04 342.306 344.622C344.531 346.034 346.285 348.138 348.434 349.688C352.021 349.755 355.609 349.756 359.196 349.692C361.492 348.26 363.506 346.453 365.478 344.612C365.797 344.875 366.092 345.152 366.391 345.436C372.166 350.914 373.905 349.824 381.468 349.621C383.587 344.614 387.1 339.913 389.673 335.087C388.04 335.642 386.427 336.054 384.694 336.101C379.91 336.233 376.812 334.096 373.484 330.983Z" fill="#FEFEFE"/>
<path d="M436.401 255.611C428.491 255.365 420.517 255.545 412.601 255.556L370.787 255.533C370.776 259.941 370.257 268.407 371.055 272.406C371.226 272.566 371.304 272.661 371.543 272.76C373.791 273.687 378.065 272.352 380.084 271.295C381.675 270.165 383.013 268.837 384.295 267.375C384.949 268.034 385.582 268.714 386.245 269.363C386.397 269.511 386.553 269.655 386.712 269.795C386.872 269.936 387.035 270.072 387.201 270.204C387.367 270.336 387.537 270.464 387.709 270.587C387.882 270.711 388.058 270.83 388.236 270.945C388.415 271.059 388.596 271.17 388.781 271.275C388.965 271.381 389.151 271.482 389.341 271.578C389.53 271.675 389.721 271.766 389.915 271.853C390.109 271.939 390.305 272.021 390.503 272.098C390.701 272.175 390.9 272.247 391.102 272.314C391.303 272.381 391.506 272.443 391.711 272.499C391.915 272.556 392.121 272.608 392.328 272.654C392.536 272.7 392.744 272.741 392.953 272.778C393.162 272.813 393.372 272.844 393.583 272.87C393.794 272.895 394.005 272.915 394.217 272.93C394.429 272.945 394.641 272.955 394.853 272.959C395.065 272.963 395.278 272.962 395.49 272.955C400.033 272.839 403.183 270.33 406.131 267.173C408.299 269.25 410.374 271.256 413.277 272.264C417.041 273.572 421.167 272.988 424.694 271.276C429.264 269.056 430.51 265.48 433.034 261.438C434.198 259.575 435.677 257.699 436.401 255.611Z" fill="#FEFEFE"/>
<path d="M208.088 221.473C199.685 221.231 191.235 221.276 182.828 221.326L182.835 232.407C183.51 233.394 184.175 234.361 185.057 235.179C187.518 237.458 190.667 238.379 193.98 238.136C196.767 237.932 200.306 236.715 202.134 234.481C203.136 233.256 203.91 231.871 204.947 230.664C205.714 231.999 206.453 233.436 207.446 234.619C209.219 236.734 211.796 237.941 214.54 238.091C218.27 238.295 221.444 236.653 224.164 234.261C225.147 233.27 225.932 231.985 226.754 230.852C228.272 232.131 227.798 234.697 230.638 236.475C233.164 238.057 236.618 238.448 239.487 237.75C247.758 235.735 249.929 228.274 253.957 221.84L208.088 221.473Z" fill="#FEFEFE"/>
<path d="M316.107 314.756C314.911 315.365 313.357 317.353 312.286 318.321C313.199 320.222 314.426 322.027 315.474 323.861L321.494 334.558C325.442 333.638 327.745 331.23 330.552 328.545C333.025 331.102 335.473 333.749 339.183 334.309C344.407 335.098 348.17 331.777 351.979 328.846C353.598 330.544 355.2 332.193 357.29 333.315C361.369 335.508 366.006 334.765 369.548 331.903C370.543 331.098 371.953 329.504 373.199 329.204C374.271 328.946 376.577 331.943 377.645 332.595C377.831 332.71 378.02 332.821 378.212 332.926C378.403 333.032 378.597 333.133 378.794 333.229C378.991 333.325 379.189 333.416 379.391 333.502C379.592 333.588 379.795 333.669 380 333.744C380.206 333.82 380.413 333.89 380.622 333.955C380.83 334.02 381.041 334.08 381.253 334.135C381.465 334.19 381.678 334.239 381.892 334.283C382.106 334.327 382.322 334.365 382.538 334.398C382.754 334.431 382.971 334.458 383.189 334.48C383.407 334.503 383.625 334.519 383.843 334.53C384.062 334.541 384.28 334.547 384.499 334.547C384.718 334.547 384.937 334.542 385.155 334.531C385.373 334.52 385.591 334.503 385.809 334.481C386.027 334.459 386.244 334.432 386.46 334.399C386.676 334.366 386.892 334.328 387.106 334.284C387.321 334.24 387.534 334.191 387.746 334.136C389.553 333.667 390.958 332.909 391.918 331.294C394.414 327.305 396.869 323.115 399.004 318.923C397.071 319.757 395.114 320.298 393.004 320.377C388.164 320.559 385.287 318.331 381.941 315.209C378.991 318.251 375.623 320.265 371.263 320.37C366.468 320.485 363.412 318.16 360.124 315.059L359.788 315.383C356.607 318.432 353.1 320.545 348.507 320.374C344.165 320.213 341.227 318.135 338.338 315.126C335.123 318.283 331.718 320.487 327.063 320.467C322.135 320.446 319.37 318.082 316.107 314.756Z" fill="#FEFEFE"/>
<path d="M198.206 277.89C196.794 279.454 195.404 281.017 193.741 282.321C190.324 285.001 185.852 286.348 181.522 285.768C177.002 285.162 174.42 282.307 171.773 278.931C170.8 280.052 169.873 281.221 168.765 282.214C165.768 284.899 162.136 286.138 158.128 285.838C153.518 285.493 150.615 282.773 147.727 279.513C146.781 280.538 145.84 281.628 144.769 282.524C141.666 285.117 137.458 286.43 133.424 285.955C129.011 285.436 126.424 282.973 123.83 279.633C122.597 281.06 121.32 282.343 119.746 283.395C119.547 283.529 119.346 283.658 119.141 283.781C118.936 283.905 118.728 284.023 118.516 284.136C118.305 284.248 118.091 284.356 117.875 284.457C117.658 284.559 117.439 284.656 117.218 284.746C116.996 284.837 116.773 284.922 116.546 285.001C116.321 285.08 116.093 285.153 115.864 285.221C115.634 285.288 115.402 285.35 115.169 285.405C114.937 285.461 114.703 285.51 114.468 285.554C114.232 285.598 113.996 285.635 113.758 285.666C113.521 285.698 113.283 285.723 113.045 285.742C112.806 285.762 112.567 285.775 112.328 285.782C112.089 285.789 111.85 285.79 111.61 285.784C111.371 285.779 111.132 285.768 110.893 285.75C110.655 285.732 110.417 285.709 110.179 285.679C109.942 285.649 109.705 285.613 109.469 285.571C109.234 285.529 108.999 285.482 108.766 285.428C104.946 284.574 102.39 282.188 100.378 278.994C98.3117 282.554 96.5491 286.31 94.5893 289.934C95.1264 290.747 95.6065 291.606 96.1063 292.443C97.3173 293.692 98.1519 293.723 99.8428 293.752C104.575 293.832 109.353 293.648 114.086 293.543C115.786 292.265 117.089 290.727 118.496 289.147C119.461 290.645 120.335 292.287 121.409 293.702C124.584 293.793 135.858 294.306 138.154 293.413C140.131 292.645 141.774 290.885 143.3 289.455C144.289 291.092 145.133 292.554 146.684 293.731C150.348 293.782 158.41 294.394 161.61 293.555C162.834 293.234 164.062 292.537 164.984 291.671C165.745 290.957 166.426 290.14 167.044 289.3C168.049 290.749 169.049 292.357 170.275 293.628C173.93 293.846 182.439 293.274 185.309 293.94C187.603 293.185 189.239 291.175 190.878 289.487C192.07 291.154 193.53 292.404 194.8 293.971C196.294 295.814 197.475 297.962 198.739 299.965C201.079 300.373 203.423 300.528 205.757 299.989C207.658 299.551 209.421 298.696 210.817 297.316C213.521 294.641 217.84 285.874 220.137 282.13C215.886 284.526 211.25 286.901 206.229 285.448C202.337 284.322 200.123 281.204 198.206 277.89Z" fill="#FEFEFE"/>
<path d="M422.069 433.576L376.077 433.629C368.275 433.628 360.444 433.478 352.645 433.654L352.618 458.69C372.042 458.81 391.467 458.822 410.892 458.726C413.499 453.367 415.907 447.891 418.345 442.454C419.611 439.632 421.31 436.563 422.069 433.576Z" fill="#FEFEFE"/>
<path d="M281.695 299.878C278.183 303.827 274.783 311.261 271.666 315.96C277.906 316.06 284.24 316.164 290.474 315.85L292.289 313.355C293.412 314.261 294.519 315.132 295.736 315.912C300.639 316.204 307.617 315.363 312.128 316.32C313.556 315.114 314.805 313.802 316.067 312.427C319.101 315.612 322.215 318.805 326.941 318.88C331.891 318.958 335.08 316.218 338.36 312.953C338.85 313.5 339.346 314.04 339.849 314.574C342.267 317.126 345.218 318.845 348.825 318.884C353.661 318.937 356.96 315.97 360.243 312.872C361.403 314.139 362.577 315.398 363.968 316.418C366.666 318.397 369.677 319.286 373.015 318.704C376.788 318.046 379.514 315.878 381.713 312.869C383.918 314.97 386.017 317.213 388.956 318.276C392.657 319.614 396.01 318.595 399.4 317.006C402.133 315.531 406.815 306.093 408.59 302.99C406.179 304.206 403.751 305.07 401.029 305.154C396.231 305.303 393.176 303.139 389.822 300.036C386.904 302.808 383.788 304.942 379.626 305.173C374.746 305.444 371.649 303.1 368.286 299.986C365.167 302.808 362.146 305.086 357.715 305.22C353.007 305.362 349.822 303.065 346.623 299.971C346.443 300.148 346.262 300.323 346.08 300.498C343.011 303.437 339.534 305.32 335.158 305.195C331.12 305.079 327.817 303.07 325.095 300.194C321.998 303.096 318.579 305.059 314.231 305.102C309.852 305.146 306.904 302.955 303.91 300.065C303.497 300.485 303.071 300.893 302.633 301.288C299.628 304.018 295.844 305.361 291.796 305.133C287.603 304.898 284.442 302.974 281.695 299.878Z" fill="#FEFEFE"/>
<path d="M313.061 284.239C311.924 285.36 310.809 286.513 309.461 287.383C305.373 290.021 299.488 290.393 295.383 287.562C293.998 286.607 292.487 284.764 290.842 284.406C289.238 285.176 283.336 296.376 282.352 298.506C285.087 301.09 287.54 303.138 291.482 303.519C294.791 303.838 298.441 303.05 300.915 300.712C301.839 299.838 302.664 298.763 303.667 297.989C303.738 297.934 303.815 297.885 303.89 297.833C306.807 300.735 309.52 303.482 313.946 303.627C318.799 303.786 321.97 300.909 325.307 297.884C328.095 300.889 330.744 303.521 335.148 303.664C340.109 303.825 343.372 300.874 346.78 297.787C347.482 298.474 348.119 299.233 348.818 299.926C351.166 302.252 354.203 303.744 357.553 303.652C362.252 303.522 365.235 300.787 368.299 297.625C368.874 298.169 369.398 298.782 369.954 299.347C372.431 301.858 375.347 303.611 378.988 303.576C383.691 303.532 386.681 300.82 389.805 297.717C391.403 299.304 392.936 300.937 394.892 302.093C397.705 303.754 401.219 304.132 404.353 303.249C406.271 302.709 408.254 301.689 409.663 300.272C412.349 297.575 415.666 290.684 417.681 287.147C415.002 288.531 412.46 289.539 409.407 289.571C404.529 289.622 401.482 287.534 398.108 284.27C397.43 284.603 396.686 285.521 396.128 286.063C393.805 288.321 390.306 289.385 387.097 289.309C382.64 289.205 379.699 287.258 376.743 284.146C375.574 285.315 374.429 286.45 373.047 287.368C371.863 288.155 370.604 288.704 369.227 289.053C365.881 289.899 357.525 290.059 354.194 289.286C352.655 288.928 352.114 288.416 351.282 287.102C349.136 288.451 347.028 289.383 344.43 289.393C340.371 289.408 337.674 287.206 334.99 284.476C332.219 287.31 328.895 289.188 324.888 289.442C319.863 289.76 316.604 287.417 313.061 284.239Z" fill="#FEFEFE"/>
<path d="M320.139 216.222C316.413 208.095 312.968 199.844 309.304 191.69C308.033 188.862 306.898 185.905 305.479 183.151L284.983 228.1L277.833 243.95C276.517 246.868 275.294 249.983 273.743 252.777C275.717 256.771 278.07 260.624 280.255 264.508C283.532 270.299 286.715 276.141 289.803 282.036C294.078 273.708 299.054 265.735 303.546 257.524C301.53 254.851 292.382 242.509 292.693 240.058C292.702 239.987 292.727 239.919 292.745 239.85C293.318 239.867 293.1 239.761 293.511 240.187C294.981 241.71 296.117 244.119 297.281 245.923C299.508 249.387 301.825 252.791 304.23 256.133C304.219 251.983 303.658 228.359 304.578 226.094L305.308 226.194C306.322 227.714 305.688 250.881 305.776 254.936C308.916 251.144 317.796 239.694 321.873 238.298L322.415 238.414C322.547 238.74 322.691 238.825 322.504 239.167C322.035 240.025 320.727 240.896 319.974 241.548C315.66 245.281 311.862 249.519 308.392 254.04L337.192 253.982C341.867 253.975 346.74 254.271 351.39 253.889C346.59 253.668 341.693 253.842 336.883 253.834C333.88 248.626 331.814 242.92 329.398 237.428C326.293 230.372 322.938 223.409 320.139 216.222Z" fill="#9498FB"/>
<path d="M381.684 351.216C364.776 350.743 347.741 351.151 330.82 351.173C333.037 354.848 335.002 358.651 337.136 362.371C342.855 372.205 348.405 382.134 353.787 392.157C355.642 395.61 357.94 398.873 359.708 402.354C360.042 403.011 360.322 403.582 360.322 404.338C358.831 405.153 355.282 404.713 353.533 404.698C353.122 404.703 353.047 404.744 352.699 404.93C352.367 407.8 352.625 410.955 352.626 413.853L352.645 432.204C362.324 432.521 372.114 432.216 381.807 432.21L381.848 390.676C381.858 377.534 382.008 364.354 381.684 351.216Z" fill="#E6EBF1"/>
<path d="M402.363 188.127C380.076 184.041 350.208 194.288 332.013 206.804C327.786 209.711 324.103 213.001 320.139 216.222C322.938 223.409 326.293 230.372 329.398 237.429C331.814 242.92 333.88 248.626 336.883 253.834C341.693 253.843 346.59 253.668 351.39 253.889L351.428 251.066C349.488 250.557 348.188 250.212 347.046 248.406C345.817 246.46 345.698 243.658 346.211 241.469C346.579 239.903 347.362 238.448 348.783 237.614C350.938 236.348 368.139 236.412 371.115 237.154C372.478 237.494 373.333 238.101 374.017 239.34C375.063 241.236 375.116 245.483 374.45 247.535C373.852 249.375 372.206 250.104 370.589 250.863L370.707 253.908C372.893 253.892 375.079 253.889 377.265 253.899C380.744 253.887 384.224 253.898 387.703 253.931C387.164 251.634 386.371 249.49 386.002 247.128C383.72 232.51 388.222 213.801 394.689 200.594C396.852 196.175 399.476 192.101 402.363 188.127Z" fill="#D7D8E1"/>
<path d="M255.369 222.335C252.857 225.329 249.88 232.032 247.84 235.841C245.176 240.818 242.307 245.733 239.561 250.668C228.349 270.551 216.932 290.316 205.311 309.962C206.372 311.99 207.679 313.945 208.861 315.908C217.479 316.171 226.135 316.015 234.758 316.024C246.584 316.073 258.41 316.06 270.236 315.986C275.156 307.448 280.136 298.859 285.252 290.44C284.328 288.578 283.311 286.756 282.33 284.923C275.652 272.503 268.56 260.321 261.85 247.916C260.278 245.009 258.411 242.218 256.949 239.264C256.641 238.642 256.345 238.091 256.571 237.414L257.148 237.295C258.329 237.914 283.259 283.446 286.05 288.781C287.228 287.089 288.193 285.15 289.029 283.267C286.193 279.26 282.746 272.047 280.224 267.461C275.522 258.91 270.624 250.459 265.978 241.881C262.466 235.397 259.221 228.618 255.369 222.335Z" fill="#FEFEFE"/>
<path d="M249.843 273.028C249.685 273.028 249.527 273.025 249.368 273.027C245.727 273.075 242.334 274.956 239.876 277.552C235.905 281.748 234.552 287.251 234.671 292.886C239.121 293.2 243.66 293.029 248.121 293.029C253.265 293.038 258.547 293.303 263.671 292.906C263.881 287.9 262.766 282.431 259.635 278.414C257.091 275.15 253.927 273.51 249.843 273.028Z" fill="#212021"/>
<path d="M449.8 201.728C447.326 195.942 443.494 189.184 438.948 184.805C434.236 180.266 428.17 176.879 421.481 177.077C413.317 177.318 407.61 182.505 402.363 188.127C399.476 192.101 396.852 196.175 394.689 200.594C388.222 213.801 383.72 232.51 386.002 247.128C386.371 249.49 387.164 251.634 387.703 253.931C399.152 253.973 410.661 254.14 422.103 253.87L422.191 250.766C420.378 249.227 407.568 236.149 407.36 234.786L407.657 234.221L408.168 234.101C409.45 235.166 410.55 236.593 411.675 237.827C414.37 240.785 419.353 246.589 422.189 248.881C422.465 244.342 421.917 217.759 422.566 215.879C423.06 215.632 423.019 215.706 423.524 215.809C424.364 217.215 423.831 245.127 423.704 249.072C425.395 247.03 435.889 234.61 437.45 234.127L437.908 234.322C438.001 235.111 437.662 235.574 437.192 236.193C435.602 238.284 433.612 240.171 431.826 242.097C429.123 245.014 426.478 248.024 423.565 250.736L423.607 253.916L439.01 253.915C443.052 261.164 447.245 268.341 451.22 275.625C456.216 259.828 458.376 240.937 455.857 224.507C454.656 216.673 452.437 209.186 449.8 201.728Z" fill="#9498FB"/>
<path d="M152.287 221.15C152.38 221.14 152.472 221.13 152.564 221.121C155.094 220.878 157.901 221.421 160.347 220.96C156.377 220.646 152.267 220.891 148.279 220.869C143.853 220.844 139.445 220.598 135.013 220.633C133.235 222.353 127.678 229.413 127.042 231.62C127.275 233.728 128.599 235.304 130.206 236.612C131.877 237.971 134.512 239.123 136.709 238.792C139.125 238.428 140.987 237.004 143.243 236.32C140.855 238.416 138.459 239.476 135.236 239.271C129.858 238.927 127.96 233.034 125.976 233.173C124.532 235.031 119.016 242.198 118.661 244.044C118.61 244.312 118.656 244.819 118.697 245.104C118.779 245.674 120.786 249.833 121.125 250.286C121.544 250.846 122.121 251.316 122.706 251.693C122.88 251.803 123.057 251.908 123.236 252.009C123.416 252.109 123.598 252.205 123.782 252.297C123.966 252.389 124.153 252.476 124.342 252.558C124.531 252.64 124.721 252.717 124.914 252.79C125.107 252.863 125.301 252.93 125.497 252.993C125.693 253.056 125.891 253.114 126.09 253.166C126.288 253.219 126.489 253.267 126.69 253.31C126.891 253.353 127.094 253.39 127.297 253.423C127.5 253.456 127.704 253.483 127.909 253.505C128.114 253.528 128.319 253.545 128.524 253.557C128.73 253.569 128.935 253.575 129.141 253.577C129.347 253.578 129.553 253.575 129.759 253.566C129.964 253.557 130.17 253.543 130.375 253.524C130.58 253.505 130.784 253.481 130.988 253.452C131.191 253.422 131.394 253.388 131.596 253.348C131.798 253.308 131.999 253.263 132.199 253.214C134.629 252.605 137.678 250.884 138.888 248.595C139.108 248.18 139.288 247.744 139.477 247.315C139.654 246.911 139.556 247.069 139.796 246.774L139.972 247.022L140.104 246.642C141.018 247.78 142.132 248.969 142.831 250.246C143.755 251.935 146.111 253.025 147.883 253.524C149.736 254.045 152.624 254.244 154.334 253.18C154.501 253.077 154.597 252.995 154.754 252.878C156.07 251.9 158.113 251.083 158.925 249.629C159.233 249.078 159.713 248.736 160.193 248.34C158.805 251.245 155.161 253.37 152.202 254.46C150.286 255.165 148.156 254.424 146.436 253.53C143.529 252.02 142.243 249.204 140.114 248.046C139.346 248.496 138.897 249.511 138.251 250.143C135.185 253.145 130.234 254.953 125.999 253.878C122.863 253.083 120.975 250.515 119.169 248.049C118.692 247.397 118.431 246.908 118.221 246.127C117.669 246.13 117.421 246.139 117.03 246.615C116.532 247.219 116.378 248.184 116 248.877C114.752 251.161 107.069 263.07 107.488 264.831C107.762 265.987 108.879 267.723 109.959 268.259C112.243 269.394 115.154 269.714 117.553 268.85C121.778 267.328 123.742 263.565 125.677 262.724C128.727 264.772 129.662 267.949 133.72 269.001C134.932 269.315 136.181 269.474 137.416 269.218C140.495 268.578 142.732 267.892 144.966 265.584C145.617 264.911 147.702 262.161 148.443 262.178C151.826 266.274 152.891 268.42 158.563 268.949C163.158 269.378 162.831 267.15 166.042 265.898C165.71 266.914 164.024 267.908 163.106 268.369C160.574 269.638 157.851 269.909 155.176 268.913C151.29 267.466 149.857 263.757 148.472 263.035C148.368 262.982 147.841 263.23 147.832 263.235C147.063 263.659 146.33 264.833 145.694 265.467C143.052 268.103 138.988 270.288 135.157 269.9C129.461 269.326 129.087 265.525 125.924 263.595L125.755 263.927L125.602 263.736C121.947 266.546 118.391 270.608 113.298 269.894C112.108 269.727 110.846 269.382 109.828 268.726C108.972 268.174 107.498 265.681 106.568 266.122C104.5 269.758 102.64 273.509 100.643 277.184C102.36 280.553 104.171 282.996 107.957 284.216C108.165 284.284 108.374 284.346 108.585 284.403C108.796 284.46 109.008 284.512 109.221 284.559C109.434 284.606 109.649 284.647 109.864 284.683C110.08 284.718 110.296 284.749 110.513 284.774C110.73 284.799 110.948 284.818 111.165 284.832C111.383 284.846 111.602 284.855 111.82 284.858C112.038 284.86 112.256 284.858 112.475 284.85C112.693 284.842 112.911 284.829 113.129 284.81C113.346 284.791 113.563 284.767 113.78 284.737C113.996 284.707 114.211 284.672 114.426 284.631C114.641 284.59 114.854 284.544 115.066 284.493C115.279 284.441 115.489 284.385 115.699 284.323C115.908 284.261 116.116 284.194 116.322 284.121C116.528 284.049 116.732 283.971 116.934 283.888C117.137 283.806 117.337 283.718 117.535 283.625C117.732 283.533 117.927 283.435 118.12 283.332C120.389 282.118 122.113 280.118 123.658 278.093C126.763 281.647 128.846 284.652 134.026 284.984C137.61 285.214 142.229 283.975 144.819 281.362C145.724 280.449 146.716 278.175 147.777 277.66C147.83 277.759 147.881 277.859 147.936 277.958C149.575 280.89 152.831 283.668 156.091 284.534C159.424 285.419 163.171 284.903 166.093 283.065C168.4 281.614 170.055 279.489 171.682 277.348C174.412 280.895 176.931 284.204 181.735 284.827C185.846 285.36 190.013 284.066 193.245 281.514C195.097 280.052 196.599 278.247 198.132 276.468L198.184 276.633L198.363 276.38C201.008 279.759 202.149 284.047 207.104 284.701C210.198 285.108 214.021 284.604 216.773 283.079C217.528 282.66 218.151 282.064 218.871 281.595C219.664 281.078 220.562 280.697 221.319 280.124C222.208 279.452 229.259 267.414 229.396 266.412L229.157 266.171C227.907 266.466 226.99 267.335 225.838 267.868C222.491 269.414 217.457 270.165 214.189 268.083C212.921 267.276 210.422 264.762 210.047 263.243C210.031 263.175 210.03 263.105 210.022 263.036C209.703 263.031 209.535 262.942 209.288 263.177C208.682 263.756 208.367 264.692 207.847 265.366C205.933 267.849 201.966 269.458 198.956 269.567C196.44 269.658 193.192 269.082 191.267 267.346C190.699 266.834 190.318 266.217 189.98 265.543C189.378 264.345 187.064 263.07 187.429 261.711L188.071 261.332C189.268 262.455 189.192 264.467 190.571 265.724C192.945 267.889 195.369 269.252 198.695 269.181C201.945 269.111 204.96 267.618 207.105 265.199C207.777 264.441 209.442 261.394 210.127 261.321C211.726 264.5 212.19 266.948 215.974 268.224C219.448 269.394 223.314 268.553 226.476 266.888C227.965 266.103 229.549 265.097 230.693 263.85C231.143 263.359 237.78 252.08 237.882 251.535C237.93 251.277 237.904 251.226 237.862 251.001C236.379 250.811 234.632 252.856 233.246 253.424C228.561 255.341 223.026 254.445 219.848 250.342C219.13 249.414 218.667 248.451 218.236 247.369C214.572 251.092 210.736 254.757 205.113 254.757C202.009 254.757 199.247 253.464 197.027 251.355C196.371 250.732 195.646 249.832 194.875 249.373C194.412 249.098 194.213 249.099 193.802 249.472C192.44 250.711 190.962 252.503 189.272 253.314C187.993 253.927 184.465 253.873 183.653 254.546C180.659 254.955 166.201 255.172 163.767 254.367C162.848 252.261 163.567 243.504 163.576 240.685C163.579 239.905 163.569 239.245 162.999 238.677L162.037 238.916C161.678 238.344 161.489 238.171 160.865 237.912L163.464 237.013C163.516 231.798 163.524 226.583 163.487 221.367C159.782 221.366 155.974 221.508 152.287 221.15Z" fill="black"/>
<path d="M152.287 221.15C146.6 221.202 140.915 221.119 135.231 220.903C132.334 224.198 129.499 228.067 127.229 231.826C128.775 234.556 130.586 237.237 133.793 238.126C136.284 238.816 139 238.122 141.175 236.83C143.956 235.179 145.478 232.71 147.519 230.308C149.267 233.374 150.989 237.106 154.701 238.095C156.717 238.632 158.853 238.278 160.865 237.912L163.464 237.013C163.516 231.798 163.524 226.583 163.487 221.367C159.782 221.366 155.974 221.508 152.287 221.15Z" fill="#FEFEFE"/>
<path d="M168.875 263.758C167.818 265.123 166.674 266.389 165.299 267.442C162.951 269.242 160.073 270.319 157.09 269.855C153.037 269.224 150.55 266.406 148.263 263.287C147.242 264.478 146.227 265.665 145.027 266.682C142.268 269.022 139.004 270.503 135.309 270.146C130.867 269.716 128.319 267.037 125.688 263.77C124.724 264.869 123.712 265.948 122.586 266.883C119.953 269.066 116.658 270.695 113.149 270.281C110.306 269.946 108.57 268.442 106.924 266.257C105.088 269.936 103.025 273.497 101.199 277.183C101.745 278.484 102.382 279.683 103.331 280.741C105.446 283.098 108.387 284.31 111.527 284.423C115.451 284.564 118.43 282.96 121.229 280.385L123.725 277.316C125.641 279.289 126.803 281.745 129.289 283.161C132.215 284.828 135.664 285.03 138.873 284.116C143.051 282.926 145.555 280.169 147.628 276.538C149.309 279.124 150.961 281.502 153.712 283.062C156.528 284.66 159.999 284.955 163.084 284.01C167.004 282.81 169.615 279.85 171.421 276.326C173.017 277.935 174.116 279.971 175.786 281.534C178.075 283.677 180.957 284.757 184.091 284.598C190.684 284.264 194.441 279.927 198.483 275.312C200.282 278.394 201.457 281.529 204.741 283.412C207.21 284.827 210.092 284.797 212.771 284.06C215.58 283.286 219.371 281.506 221.363 279.353C223.785 276.734 226.981 270.016 228.86 266.661L228.016 267.127C224.308 269.151 220.056 270.552 215.839 269.217C212.747 268.237 211.136 266.145 209.713 263.389C208.398 265.328 206.989 266.996 204.973 268.232C204.797 268.34 204.618 268.444 204.436 268.544C204.254 268.643 204.07 268.738 203.883 268.829C203.697 268.919 203.508 269.005 203.317 269.085C203.126 269.166 202.934 269.242 202.739 269.313C202.544 269.385 202.348 269.451 202.15 269.513C201.952 269.574 201.753 269.631 201.552 269.682C201.351 269.734 201.149 269.78 200.946 269.822C200.743 269.863 200.539 269.9 200.335 269.931C200.129 269.962 199.924 269.988 199.718 270.009C199.512 270.03 199.305 270.046 199.098 270.057C198.891 270.068 198.684 270.073 198.476 270.073C198.269 270.074 198.062 270.069 197.855 270.059C197.648 270.049 197.441 270.034 197.235 270.013C197.029 269.993 196.823 269.968 196.618 269.937C196.413 269.906 196.209 269.871 196.006 269.83C195.803 269.789 195.601 269.743 195.4 269.693C191.744 268.779 189.709 266.49 187.884 263.374C186.767 265.066 185.425 266.599 183.78 267.797C181.564 269.412 179.039 270.196 176.309 269.674C172.713 268.988 170.769 266.631 168.875 263.758Z" fill="#FEFEFE"/>
<path d="M147.43 232.614C144.443 236.097 141.527 239.318 136.603 239.653C133.914 239.836 131.464 238.936 129.492 237.109C128.305 236.01 127.397 234.671 126.558 233.298C123.794 236.86 120.921 240.429 118.926 244.497C120.002 247.757 121.505 250.731 124.76 252.302C127.273 253.515 130.349 253.546 132.951 252.587C136.334 251.341 138.345 248.679 140.152 245.724C142.488 249.021 144.798 252.856 149.182 253.525C151.5 253.878 154.089 253.082 155.913 251.65C157.037 250.767 159.228 248.161 160.464 247.885C160.738 248.36 160.746 248.163 160.622 248.635C160.103 250.609 156.435 252.936 154.684 253.851C152.37 255.061 149.868 255.245 147.399 254.395C144.134 253.272 142.217 250.972 140.323 248.239C138.159 251.309 134.903 253.715 131.158 254.365C128.076 254.9 124.937 254.311 122.388 252.461C120.208 250.88 118.946 248.762 117.878 246.351C114.422 252.36 110.706 258.342 107.688 264.584C108.866 266.626 110.082 268.238 112.507 268.871C114.981 269.516 117.587 268.567 119.681 267.26C121.15 266.343 124.904 262.392 125.63 262.139C127.136 262.537 128.219 264.644 129.256 265.749C132.742 269.463 137.466 269.857 141.79 267.34C144.418 265.81 146.305 263.494 148.283 261.243C150.762 264.416 153.359 268.026 157.68 268.632C160.264 268.994 162.607 267.954 164.602 266.382C166.345 265.01 167.723 263.334 169.117 261.621C170.994 264.643 172.857 267.705 176.635 268.506C178.733 268.952 180.769 268.388 182.515 267.187C185.131 265.389 186.772 262.882 188.291 260.154C189.582 263.5 190.816 266.335 194.305 267.91C196.845 269.056 199.959 269.002 202.526 267.971C203.803 267.458 205.139 266.661 206.135 265.697C206.668 265.18 209.613 260.74 209.967 260.728C210.133 260.723 210.28 260.839 210.436 260.894C210.756 261.42 210.888 261.854 211.046 262.451C211.581 264.465 212.791 266.016 214.589 267.074C217.204 268.612 220.31 268.645 223.169 267.848C231.315 265.579 233.427 257.711 237.626 251.378C233.598 253.763 229.827 255.646 224.981 254.358C221.558 253.448 219.698 251.186 217.991 248.28C214.649 251.868 210.732 254.909 205.623 255.056C202.127 255.157 198.828 253.902 196.324 251.456C195.641 250.788 195.03 249.998 194.478 249.223C192.407 251.953 189.766 253.994 186.269 254.449C185.394 254.563 184.532 254.591 183.653 254.546C180.659 254.955 166.201 255.172 163.767 254.367C162.848 252.261 163.567 243.504 163.576 240.685C163.579 239.905 163.569 239.245 162.999 238.677L162.037 238.915C159.18 239.809 155.684 240.278 152.92 238.87C150.332 237.553 148.877 235.005 147.43 232.614Z" fill="#FEFEFE"/>
<path d="M438.387 256.032C433.682 262.707 429.587 269.98 425.446 277.019L404.385 313.186C399.332 321.652 394.36 330.166 389.468 338.726C387.853 341.507 384.422 346.432 383.549 349.309C383.305 350.115 383.332 351.139 383.325 351.983L383.386 406.791L383.363 424.059C383.36 426.414 383.072 429.173 383.389 431.478C383.435 431.807 383.457 431.842 383.547 432.115C384.057 432.246 384.425 432.274 384.949 432.233C388.322 431.588 393.054 432.038 396.58 432.035L423.088 432.058C425.997 426.902 428.04 421.322 430.871 416.127C433.149 421.556 435.537 426.863 438.145 432.141C445.226 431.8 452.443 432.102 459.541 432.101C467.806 432.101 476.173 431.839 484.425 432.173C484.549 412.736 484.572 393.299 484.494 373.862L484.465 361.003C484.472 357.761 484.937 353.636 484.119 350.509C483.247 347.173 478.267 339.934 476.336 336.492L451.364 292.55C448.147 287.005 444.967 281.439 441.823 275.852C440.733 273.926 439.446 272.034 438.442 270.076C438.151 269.51 437.893 268.949 437.885 268.304L438.205 268.114C438.994 268.512 439.474 269.063 439.973 269.79C443.327 274.674 446.743 281.752 449.859 287.114L472.059 325.773C476.51 333.648 480.737 341.791 485.522 349.459C487.592 349.458 489.665 349.483 491.734 349.445C478.193 326.264 464.871 302.957 451.768 279.525C447.313 271.718 443.057 263.706 438.387 256.032Z" fill="#FEFEFE"/>
<path d="M437.189 316.863C436.571 316.798 435.94 316.791 435.318 316.792C431.437 316.801 427.483 318.821 424.812 321.572C420.932 325.57 420.099 330.053 420.216 335.442C424.539 335.496 428.862 335.52 433.185 335.515L450.651 335.502C450.808 331.004 449.955 326.301 447.197 322.633C444.69 319.3 441.288 317.456 437.189 316.863Z" fill="black"/>
<path d="M446.171 323.747C443.106 327.019 440.109 330.502 437.311 334.004L439.804 333.963C442.913 333.957 446.022 333.973 449.13 333.839C448.947 330.064 448.231 326.94 446.171 323.747Z" fill="#FDBE50"/>
<path d="M424.845 323.95C424.724 324.038 424.591 324.109 424.483 324.212C422.105 326.477 421.7 330.895 421.625 333.951C424.638 333.993 427.656 333.96 430.67 333.962L433.813 333.941C431.05 330.47 427.716 327.362 424.845 323.95Z" fill="#FDBE50"/>
<path d="M434.348 318.323C430.949 318.772 428.173 320.46 425.662 322.711C427.079 324.455 428.647 326.098 430.152 327.767L434.496 332.532C434.533 328.582 435.054 321.931 434.348 318.323Z" fill="#FDBE50"/>
<path d="M437.498 318.507L436.423 318.49C435.728 319.338 436.145 330.707 436.153 332.765L439.836 328.573C441.661 326.569 443.675 324.521 445.188 322.273C442.783 320.213 440.572 319.222 437.498 318.507Z" fill="#FDBE50"/>
<path d="M471.015 365.27L446.095 365.236L446.074 397.688C446.059 403.215 445.675 409.024 446.075 414.519C446.103 414.911 446.18 415.116 446.408 415.431C450.191 415.808 454.175 415.57 457.98 415.573C462.149 415.577 466.423 415.799 470.579 415.533C470.997 414.954 471.018 414.433 471.072 413.742C471.304 410.808 471.187 407.781 471.19 404.837C471.213 399.486 471.187 394.136 471.113 388.786C471.032 380.959 471.316 373.088 471.015 365.27Z" fill="black"/>
<path d="M469.56 366.7L459.444 366.71L459.397 388.742C462.775 388.804 466.161 388.754 469.54 388.75L469.56 366.7Z" fill="#FEFEFE"/>
<path d="M457.874 366.744C454.452 366.685 451.031 366.696 447.609 366.777C447.584 374.071 447.428 381.395 447.631 388.685C451.025 388.784 454.434 388.723 457.829 388.718L457.874 366.744Z" fill="#FEFEFE"/>
<path d="M469.597 390.365C466.201 390.304 462.793 390.366 459.395 390.369L459.415 414.012L469.61 413.972C469.734 406.11 469.611 398.229 469.597 390.365Z" fill="#FEFEFE"/>
<path d="M457.851 390.35L447.553 390.296L447.537 413.901C450.959 413.981 454.39 413.945 457.813 413.961C457.839 406.092 457.919 398.219 457.851 390.35Z" fill="#FEFEFE"/>
<path d="M423.12 365.31C418.94 365.17 414.72 365.264 410.537 365.264C406.401 365.264 402.233 365.164 398.103 365.396C397.893 369.119 398.017 372.906 398.006 376.635L397.939 396.462L397.901 408.563C397.897 410.839 397.715 413.294 398.043 415.542C406.083 415.57 415.09 416.012 422.983 415.441C423.523 410.972 423.705 367.06 423.12 365.31Z" fill="black"/>
<path d="M421.859 366.746C418.424 366.68 414.99 366.685 411.555 366.76C411.318 374.014 411.547 381.346 411.581 388.606C415.003 388.66 418.424 388.662 421.846 388.614C421.939 381.329 421.891 374.032 421.859 366.746Z" fill="#FEFEFE"/>
<path d="M410.023 366.766C406.482 366.742 402.945 366.703 399.405 366.843C399.396 374.079 399.257 381.344 399.474 388.576C402.98 388.752 406.513 388.661 410.022 388.648C410.087 381.353 410.087 374.06 410.023 366.766Z" fill="#FEFEFE"/>
<path d="M421.859 390.235C418.404 390.136 414.926 390.216 411.468 390.214L411.471 413.935L421.71 413.932C422.067 406.074 421.86 398.105 421.859 390.235Z" fill="#FEFEFE"/>
<path d="M410.015 390.205L399.409 390.204L399.402 413.934L410.034 413.959L410.015 390.205Z" fill="#FEFEFE"/>
<path d="M440.539 129.001C437.991 128.992 424.23 128.468 422.845 129.263C422.544 129.435 422.549 130.009 422.481 130.328C425.028 130.482 439.264 130.947 440.483 129.983L440.539 129.001Z" fill="black"/>
<path d="M395.282 108.109C391.605 107.983 387.893 108.075 384.212 108.063C380.964 108.052 377.629 107.895 374.394 108.182C373.888 108.609 374.005 108.872 373.94 109.498C376.59 109.618 393.869 109.964 395.073 109.183L395.282 108.109Z" fill="black"/>
<path d="M145.847 176.752C143.123 176.695 125.58 176.37 124.529 176.867C124.361 176.946 124.245 177.106 124.103 177.226L124.093 178.169L124.57 178.18C127.165 178.224 144.697 178.487 145.586 178.011C145.735 177.931 145.829 177.773 145.95 177.655L145.847 176.752Z" fill="black"/>
<path d="M190.355 150.044C187.452 150.007 157.702 149.732 156.775 150.294C156.482 150.471 156.465 151.134 156.4 151.462C159.894 151.573 188.91 151.939 190.202 151.137L190.355 150.044Z" fill="black"/>
<path d="M73.5126 232.357C73.1924 232.448 72.7066 232.472 72.5158 232.767C71.9272 233.677 72.1946 243.631 72.6238 245.026C73.3745 247.466 75.1004 249.701 77.3924 250.863C77.6288 250.986 77.8707 251.096 78.118 251.194C78.3654 251.292 78.6173 251.377 78.8737 251.449C79.1297 251.522 79.3889 251.581 79.6511 251.627C79.913 251.672 80.1766 251.705 80.4421 251.724C80.7078 251.743 80.9736 251.748 81.2393 251.74C81.5054 251.732 81.7704 251.711 82.0342 251.676C82.298 251.641 82.5594 251.592 82.8184 251.531C83.0774 251.469 83.3325 251.394 83.5837 251.307C86.4425 250.314 88.1892 248.2 89.4955 245.592C89.837 244.555 90.0303 244.163 89.5701 243.128C87.7862 243.888 87.3909 248.481 83.1144 249.893C81.2088 250.522 79.4031 250.183 77.6666 249.239C71.0016 245.613 75.2437 237.848 73.6531 232.77C73.6099 232.631 73.5596 232.495 73.5126 232.357Z" fill="black"/>
</g>
<defs>
<clipPath id="clip0_10953_3115">
<rect width="496" height="496" fill="white" transform="matrix(-1 0 0 1 496 0)"/>
</clipPath>
</defs>
</svg>
