<svg width="215" height="190" viewBox="0 0 215 190" fill="none" xmlns="http://www.w3.org/2000/svg">
<g clip-path="url(#clip0_10965_3400)">
<path d="M197.67 176.293C198.993 176.205 200.365 176.267 201.694 176.266L209.282 176.263C210.441 176.263 211.775 176.403 212.917 176.265C213.137 176.239 213.284 176.127 213.455 176L213.474 175.845C213.2 175.71 212.909 175.69 212.608 175.677C210.906 175.605 209.161 175.694 207.454 175.695L196.668 175.719C196.771 176.02 196.754 176.131 197.037 176.294L197.67 176.293Z" fill="black"/>
<path d="M33.467 185.681C48.5384 185.593 64.1673 185.655 79.2979 185.654L165.724 185.651C178.928 185.651 194.115 185.791 207.123 185.653C209.636 185.627 211.306 185.516 213.257 185.388L213.474 185.234C210.344 185.098 207.035 185.078 203.605 185.065C184.222 184.994 164.349 185.082 144.907 185.083L22.0566 185.107C23.2366 185.409 23.035 185.52 26.2645 185.682L33.467 185.681Z" fill="black"/>
<path d="M141.545 144.388C140.05 144.313 138.62 144.91 137.514 145.899C136.187 147.086 135.306 148.961 135.258 150.747C135.248 151.124 135.31 151.337 135.574 151.607C136.943 151.837 139.611 151.663 141.144 151.667C143.097 151.661 145.175 151.834 147.113 151.642C147.276 151.477 147.301 151.356 147.319 151.129C147.445 149.576 146.902 147.972 145.942 146.761C144.789 145.309 143.361 144.61 141.545 144.388Z" fill="black"/>
<path d="M137.051 147.473C136.969 147.501 136.945 147.503 136.869 147.566C136.052 148.249 135.926 150.108 135.916 151.098C137.037 151.166 138.187 151.121 139.311 151.123L140.685 151.123C139.442 149.937 138.262 148.692 137.051 147.473Z" fill="#FDBE50"/>
<path d="M145.709 147.358C144.438 148.13 142.977 149.966 141.925 151.087L142.946 151.104L146.74 151.116C146.706 149.667 146.432 148.615 145.709 147.358Z" fill="#FDBE50"/>
<path d="M140.966 144.99C139.435 145.111 138.334 145.831 137.3 146.899C137.911 147.484 138.497 148.099 139.093 148.698L140.97 150.555C140.946 148.701 140.965 146.844 140.966 144.99Z" fill="#FDBE50"/>
<path d="M141.686 145.036L141.6 145.082C141.364 145.601 141.544 149.793 141.549 150.657L143.333 148.772C143.969 148.104 144.655 147.482 145.327 146.85C144.265 145.722 143.22 145.207 141.686 145.036Z" fill="#FDBE50"/>
<path d="M101.378 137.42C98.6709 137.42 95.8645 137.271 93.1717 137.492C92.9976 139.317 93.1043 141.25 93.0943 143.087C93.0858 144.663 92.9058 146.964 93.1704 148.425C95.9111 148.518 98.6965 148.457 101.439 148.428C101.55 146.979 101.648 138.463 101.378 137.42Z" fill="black"/>
<path d="M100.864 138.045L97.6761 138.034L97.6937 147.881L100.87 147.88C100.93 144.606 100.868 141.321 100.864 138.045Z" fill="#FDBE50"/>
<path d="M96.9797 138.022L93.6857 138.028L93.6721 147.861C94.774 147.868 95.8758 147.863 96.9775 147.844C97.0906 144.587 96.9799 141.285 96.9797 138.022Z" fill="#FDBE50"/>
<path d="M90.8256 161.27C87.5745 161.325 84.2428 161.12 81.0052 161.35C80.8701 164.652 80.9557 168.002 80.9352 171.309C80.9156 174.507 80.7777 177.796 80.9733 180.986C84.25 181.09 87.563 181.022 90.8416 180.988C90.8954 177.436 90.8447 173.874 90.846 170.321C90.847 167.309 90.9119 164.28 90.8256 161.27Z" fill="black"/>
<path d="M85.4635 161.865C84.1788 161.852 82.8974 161.843 81.6132 161.886C81.5637 164.895 81.5899 167.908 81.5841 170.917C82.8696 170.971 84.1766 170.916 85.4643 170.909C85.5203 167.897 85.4735 164.877 85.4635 161.865Z" fill="#FEFEFE"/>
<path d="M85.4622 171.451C84.1584 171.445 82.8547 171.45 81.5511 171.467C81.4023 174.434 81.5099 177.455 81.5173 180.429C82.8167 180.543 84.1606 180.476 85.4643 180.468C85.5214 177.467 85.476 174.454 85.4622 171.451Z" fill="#FEFEFE"/>
<path d="M90.2821 161.836C88.8811 161.799 87.465 161.792 86.0643 161.851C85.9374 164.839 86.0632 167.886 86.0738 170.88L90.2872 170.875C90.3512 167.872 90.3399 164.84 90.2821 161.836Z" fill="#FEFEFE"/>
<path d="M90.282 171.453L86.0545 171.454C86.0253 174.453 86.014 177.453 86.0205 180.453C87.4475 180.462 88.8744 180.461 90.3013 180.448L90.282 171.453Z" fill="#FEFEFE"/>
<path d="M142.23 161.263C138.907 161.349 135.543 161.12 132.229 161.325L132.219 180.88C135.54 181.07 138.94 180.92 142.272 180.913C142.353 179.512 142.312 178.094 142.315 176.69L142.308 168.473L142.312 163.928C142.312 163.068 142.398 162.106 142.23 161.263Z" fill="black"/>
<path d="M141.714 171.541L137.601 171.542L137.607 180.309L141.725 180.312C141.755 177.388 141.751 174.465 141.714 171.541Z" fill="#FEFEFE"/>
<path d="M136.978 171.517C135.596 171.491 134.213 171.488 132.831 171.51C132.823 174.397 132.64 177.415 132.872 180.285C134.242 180.318 135.615 180.296 136.985 180.294L136.978 171.517Z" fill="#FEFEFE"/>
<path d="M141.687 161.826C140.331 161.793 138.975 161.805 137.62 161.861C137.613 163.147 137.43 170.506 137.715 170.97L141.715 170.962C141.735 167.923 141.801 164.862 141.687 161.826Z" fill="#FEFEFE"/>
<path d="M136.861 161.841C135.52 161.826 134.18 161.802 132.839 161.86C132.841 163.016 132.684 170.467 132.975 170.911C134.32 170.93 135.667 170.916 137.012 170.918L137.026 165.105C137.026 164.09 137.09 163.03 136.992 162.023C136.979 161.891 137.001 161.957 136.861 161.841Z" fill="#FEFEFE"/>
<path d="M113.379 161.134C109.787 161.111 106.173 161.036 102.582 161.137C102.479 165.7 102.541 170.279 102.544 174.844C102.547 178.229 102.447 181.65 102.598 185.031C106.185 184.928 109.792 185.011 113.381 185.029L113.382 172.801C113.403 168.912 113.402 165.023 113.379 161.134Z" fill="#212021"/>
<path d="M189.185 159.404C188.1 161.393 187.317 163.531 186.203 165.506L176.049 165.497C174.698 165.498 172.886 165.326 171.593 165.573C172.963 165.594 185.928 165.565 185.935 165.56L186.102 165.684L186.097 165.928C185.996 166.002 185.934 166.052 185.813 166.088C185.522 167.232 184.871 168.408 184.386 169.488C183.452 171.571 182.53 173.669 181.531 175.722C181.477 175.987 181.454 176.276 181.221 176.451C180.74 177.743 180.091 178.982 179.495 180.224C178.727 181.834 177.974 183.45 177.234 185.074L185.421 185.077C186.485 185.076 188.216 185.242 189.212 184.988L189.276 184.991C190.51 185.148 191.873 185.036 193.119 185.039L200.785 185.086C200.013 183.014 199.04 180.955 198.124 178.942C197.75 178.121 197.316 177.317 197 176.473C197.201 176.328 197.428 176.329 197.67 176.293L197.037 176.294C196.754 176.131 196.771 176.02 196.668 175.719C196.172 175.02 195.853 173.991 195.491 173.205C194.409 170.858 193.399 168.432 192.204 166.144C192.097 166.062 192.065 165.975 192.003 165.858L192.048 165.711C193.074 165.256 207.033 165.864 209.699 165.55C206.538 165.422 203.333 165.523 200.167 165.523C197.448 165.523 194.683 165.407 191.971 165.538C190.972 163.516 190.057 161.483 189.185 159.404Z" fill="#9498FB"/>
<path d="M189.557 183.356C189.563 181.897 189.755 172.52 189.447 172.087C189.248 172 189.265 171.992 189.064 172.07C188.793 173.013 188.973 175.07 188.977 176.137C188.997 178.657 189.002 181.177 188.993 183.697L188.885 183.61C187.975 182.875 183.961 178.447 183.146 178.447L183.068 178.594C183.281 179.099 183.88 179.549 184.268 179.934C185.16 180.82 188.951 184.226 189.212 184.988L189.276 184.991C189.282 184.96 189.288 184.93 189.294 184.9C189.641 183.293 194.667 179.495 194.77 178.685C194.778 178.615 194.715 178.555 194.688 178.489L194.504 178.388C193.885 178.609 190.181 182.64 189.557 183.356Z" fill="black"/>
<path d="M69.5245 110.762C68.9856 111.367 68.4867 111.956 67.8354 112.446C66.0221 112.486 64.1921 112.557 62.3793 112.526C61.7315 112.515 61.4118 112.503 60.9479 112.024L60.5659 112.156L60.657 112.399C60.5342 112.549 60.5271 112.535 60.3414 112.549C60.108 112.566 59.8629 112.528 59.6302 112.503L59.6599 112.606C59.8688 112.624 60.0692 112.634 60.2692 112.703C60.172 112.738 60.0735 112.772 59.9768 112.809C59.9191 112.831 59.8627 112.856 59.8048 112.877C59.3337 113.05 49.7875 112.908 48.4447 112.92C47.3576 114.236 46.5449 115.854 45.6626 117.31L39.5418 127.407C38.1825 129.7 36.9039 132.067 35.4681 134.31C35.2579 134.638 35.0313 135.054 34.699 135.267C34.4964 135.206 34.5862 135.26 34.4333 135.1C33.9384 136.729 31.8123 140.008 30.9155 141.565C28.6043 145.524 26.3435 149.513 24.133 153.53V154.184L24.2444 154.214C24.5561 155.471 24.3817 161.016 24.3854 162.741C24.4021 170.215 24.4596 177.698 24.3705 185.171L61.0767 185.097L70.0034 185.078C71.0638 185.076 72.8304 184.897 73.8306 185.146C73.9876 185.117 74.1004 185.076 74.2424 185.003C74.3064 184.89 74.3233 184.876 74.3541 184.73C74.4595 184.229 74.3461 180.764 74.347 179.947L74.3544 170.84C74.3557 169.137 74.4034 167.422 74.3385 165.721C74.5389 162.923 74.3789 160.013 74.3797 157.202C74.3801 156.195 74.2569 154.984 74.4762 154.01C74.7582 152.758 77.0876 149.386 77.8591 148.043L93.4131 121.32C94.3017 119.769 95.2136 118.233 96.1488 116.71C96.7912 115.671 97.5033 114.638 98.0525 113.547L98.0937 113.463C98.0312 113.354 97.9375 113.121 97.8521 113.042C97.2684 112.5 95.7478 113.198 95.0719 112.76L95.1184 112.598C94.0191 112.343 90.7594 112.562 89.3594 112.479C88.8898 111.992 88.5065 111.376 88.1215 110.821C87.8849 111.142 87.6242 111.455 87.3327 111.729C86.9794 112.06 86.5091 112.327 86.04 112.451C84.8143 112.772 81.726 112.537 80.3224 112.518C79.7283 112.067 79.4049 111.507 79.0263 110.88C78.4417 111.428 77.8121 112.102 77.0551 112.396C76.1754 112.738 71.8568 112.542 70.6404 112.507C70.229 111.965 69.8945 111.336 69.5245 110.762Z" fill="#212021"/>
<path d="M69.4876 111.573C69.2143 111.854 68.9133 112.121 68.7276 112.469L68.9194 112.529C69.2393 112.54 69.5392 112.576 69.8412 112.45C69.8572 112.138 69.634 111.848 69.4876 111.573Z" fill="#FEFEFE"/>
<path d="M88.1091 111.65C87.8421 111.867 87.5114 112.182 87.3619 112.491L87.5669 112.563C87.8766 112.573 88.2302 112.628 88.5078 112.474C88.4911 112.159 88.2755 111.915 88.1091 111.65Z" fill="#FEFEFE"/>
<path d="M78.9208 111.657C78.6731 111.875 78.222 112.189 78.1294 112.506L78.3823 112.555C78.6862 112.561 79.1188 112.629 79.3906 112.483C79.3947 112.208 79.0828 111.879 78.9208 111.657Z" fill="#FEFEFE"/>
<path d="M74.2997 153.726C67.9659 153.675 61.6126 153.843 55.2777 153.905C52.8921 153.928 50.5095 153.853 48.1245 153.844L40.0437 153.889C36.6627 153.892 33.2768 153.811 29.8952 153.784C28.2095 153.771 26.3856 153.602 24.7194 153.882C24.8623 153.934 38.7035 154.014 39.8218 154.023C38.0172 154.096 24.9625 153.972 24.6377 154.16C25.9588 154.361 27.4915 154.212 28.8411 154.212L37.8385 154.209L60.4325 154.208C64.8912 154.201 69.3651 154.123 73.8221 154.211L73.8034 175.59L73.7886 181.885C73.7858 182.946 73.6947 184.098 73.8307 185.146C73.9876 185.117 74.1005 185.076 74.2424 185.003C74.3064 184.89 74.3233 184.877 74.3541 184.73C74.4595 184.23 74.3461 180.764 74.3471 179.947L74.3545 170.84C74.3558 169.137 74.4035 167.422 74.3385 165.721C74.1613 164.498 74.2821 163.1 74.2829 161.858L74.2997 153.726Z" fill="black"/>
<path d="M24.6377 154.16L24.2444 154.214C24.5561 155.471 24.3817 161.016 24.3854 162.741C24.4021 170.215 24.4596 177.698 24.3706 185.171L61.0768 185.097L70.0034 185.078C71.0638 185.076 72.8304 184.897 73.8307 185.146C73.6947 184.098 73.7858 182.946 73.7886 181.885L73.8034 175.59L73.8221 154.211C69.3651 154.122 64.8912 154.201 60.4325 154.208L37.8385 154.209L28.8411 154.211C27.4915 154.212 25.9588 154.361 24.6377 154.16Z" fill="#7FBEE0"/>
<path d="M56.3453 161.089C53.7279 161.019 51.098 161.087 48.4797 161.097C46.3103 161.105 44.116 161.033 41.95 161.152C41.8813 165.626 41.9108 170.112 41.904 174.587C41.9015 176.14 41.7238 179.303 41.9834 180.715C44.4753 180.765 46.9768 180.724 49.4698 180.724C51.7619 180.724 54.0658 180.771 56.356 180.692C56.5032 179.474 56.413 178.148 56.4134 176.917L56.4124 169.839L56.413 164.121C56.4132 163.142 56.5193 162.046 56.3453 161.089Z" fill="black"/>
<path d="M48.4883 171.304C46.5032 171.302 44.5182 171.316 42.5334 171.346C42.5322 172.425 42.3972 179.738 42.5872 180.088L42.7766 180.131C44.7846 180.136 46.7989 180.172 48.8054 180.093C48.8416 178.818 48.9922 172.113 48.7431 171.384L48.4883 171.304Z" fill="#FEFEFE"/>
<path d="M48.8002 161.747C46.7271 161.767 44.654 161.773 42.5808 161.765L42.5684 170.721L48.8178 170.729C48.829 167.75 48.9304 164.721 48.8002 161.747Z" fill="#FEFEFE"/>
<path d="M55.3496 171.303C53.377 171.274 51.4045 171.283 49.4322 171.331C49.4307 174.202 49.3149 177.103 49.4357 179.969C49.606 180.156 49.7057 180.106 49.9461 180.12C51.8979 180.135 53.8496 180.138 55.8013 180.129C55.8391 179.05 55.976 171.813 55.6786 171.354L55.3496 171.303Z" fill="#FEFEFE"/>
<path d="M55.7942 161.694C53.6611 161.667 51.5279 161.67 49.3947 161.701L49.4433 170.725C51.5528 170.748 53.6653 170.722 55.7751 170.719C55.8372 167.71 55.8436 164.702 55.7942 161.694Z" fill="#FEFEFE"/>
<path d="M196.435 77.2748C195.488 75.0586 194.02 72.4696 192.279 70.7923C190.474 69.0537 188.15 67.756 185.588 67.8319C182.46 67.9243 180.274 69.9113 178.264 72.065C169.727 70.4995 158.285 74.4249 151.316 79.2191C149.696 80.3329 148.285 81.5932 146.767 82.8269C145.34 79.7139 144.02 76.5533 142.616 73.4298C142.13 72.3463 141.695 71.2137 141.151 70.1587L133.3 87.377L130.561 93.4485C130.057 94.5666 129.588 95.7597 128.994 96.8299L124.817 89.2837C123.936 87.6663 123.128 85.965 122.127 84.4194C116.044 84.5677 109.911 84.3489 103.824 84.2966L97.874 84.2478C96.7363 84.2422 95.5044 84.3279 94.3802 84.168C94.2008 83.9819 94.2451 83.942 94.2496 83.6796C94.5717 83.388 95.1124 83.4501 95.5341 83.4371C95.6749 81.7898 95.5842 80.0739 95.566 78.4212C92.2301 78.3108 88.803 78.3277 85.4661 78.4287C85.4441 80.0804 85.4678 81.7355 85.4693 83.3876C85.7673 83.3837 86.2603 83.326 86.5052 83.4963C86.7112 83.6396 86.7388 83.6963 86.7622 83.926C86.7043 84.0051 86.6709 84.0591 86.5913 84.1244C86.343 84.3281 85.8276 84.255 85.5211 84.2459L83.7328 84.1708C81.0557 84.1908 78.2864 84.291 75.621 84.0812C73.8476 86.54 71.9669 88.9611 70.2992 91.4917C69.5323 92.6555 68.8694 93.8997 68.1763 95.1093C67.0727 97.0003 66.0059 98.9117 64.9758 100.844C64.1735 102.443 63.3119 104.009 62.4936 105.599C61.2962 107.927 60.1416 110.261 58.8188 112.521C55.2838 112.508 51.6987 112.362 48.1692 112.493C47.2363 113.915 46.3863 115.399 45.4233 116.798C45.4099 115.497 45.6211 108.465 45.2014 107.844C45.1707 107.799 45.1225 107.769 45.083 107.732C44.9184 107.855 44.8974 108.03 44.8648 108.227C44.7191 109.103 44.8123 110.107 44.8164 110.998C44.8264 113.225 44.9123 115.476 44.8371 117.699L44.3295 118.525C43.6862 117.754 40.485 113.291 40.1096 113.056C40.0517 113.02 39.9775 113.022 39.9114 113.005L39.689 113.113C39.6327 113.372 39.7294 113.466 39.8786 113.687C40.3211 114.341 40.8609 114.946 41.3349 115.58C42.2122 116.751 43.0383 117.95 43.9625 119.087C43.2505 120.375 42.3191 122.259 41.47 123.403C39.2407 127.112 37.1269 130.941 34.7881 134.578C32.7029 134.57 30.6003 134.505 28.5175 134.598L28.5138 134.933C28.5602 134.977 28.5949 135.039 28.6535 135.066C29.0818 135.261 33.5455 135.096 34.4333 135.1C34.5862 135.26 34.4964 135.206 34.6991 135.267C35.0314 135.054 35.2579 134.638 35.4681 134.31C36.9039 132.067 38.1825 129.7 39.5418 127.407L45.6626 117.31C46.5449 115.854 47.3576 114.236 48.4447 112.92C49.7875 112.908 59.3337 113.05 59.8048 112.877C59.8627 112.856 59.9191 112.831 59.9768 112.809C60.0735 112.772 60.172 112.739 60.2693 112.703C60.0692 112.634 59.8689 112.624 59.6599 112.606L59.6302 112.503C59.8629 112.528 60.108 112.567 60.3414 112.549C60.5272 112.536 60.5342 112.549 60.657 112.4L60.5659 112.156L60.948 112.025C61.4119 112.503 61.7316 112.515 62.3793 112.526C64.1921 112.557 66.0221 112.486 67.8355 112.446C68.4868 111.956 68.9857 111.367 69.5245 110.762C69.8945 111.336 70.229 111.965 70.6404 112.507C71.8569 112.542 76.1754 112.738 77.0551 112.396C77.8121 112.102 78.4417 111.428 79.0264 110.88C79.4049 111.507 79.7283 112.067 80.3224 112.518C81.7261 112.537 84.8143 112.772 86.04 112.451C86.5091 112.328 86.9795 112.061 87.3327 111.729C87.6242 111.455 87.8849 111.142 88.1215 110.821C88.5065 111.376 88.8899 111.992 89.3595 112.479C90.7594 112.562 94.0191 112.343 95.1185 112.598L95.0719 112.76C95.7479 113.198 97.2684 112.5 97.8521 113.042C97.9375 113.121 98.0312 113.354 98.0937 113.463L98.4029 113.041C99.092 113.601 102.457 119.529 103.353 120.809C107.625 127.736 111.702 134.798 115.888 141.779L120.696 149.897C121.479 151.219 122.4 152.508 123.054 153.897L120.123 153.891C115.765 146.734 111.478 139.534 107.263 132.292L102.631 124.543C101.722 123.022 100.862 121.445 99.8848 119.968C99.7074 119.699 99.5061 119.375 99.2274 119.207L99.2794 119.234L99.0862 119.358C99.1007 119.58 99.1475 119.722 99.2534 119.919C100.869 122.918 102.799 125.801 104.537 128.734L113.27 143.56C115.367 147.076 117.549 150.549 119.584 154.101L119.532 176.079C119.527 177.73 119.3 183.919 119.618 184.954L119.783 185.054C119.901 185.024 120.036 184.999 120.148 184.956C121.164 184.878 122.212 184.883 123.228 184.944C123.439 184.954 123.55 184.955 123.738 184.855C123.891 184.048 123.809 183.118 123.811 182.294L123.824 177.693L123.806 158.937C123.801 157.996 123.616 154.585 123.856 153.909C124.298 152.669 125.26 151.384 125.947 150.242L131.345 141.436L138.123 130.095C139.658 127.469 141.132 124.726 142.816 122.195C142.902 122.066 142.953 121.996 143.1 121.93C146.58 127.884 149.873 133.963 153.269 139.968C155.379 143.635 157.448 147.324 159.476 151.036C160.1 152.164 160.789 153.268 161.383 154.411C160.63 154.421 159.875 154.442 159.122 154.421C157.672 152.157 156.44 149.724 155.105 147.389L147.441 133.912C146.509 132.212 145.569 130.516 144.621 128.824C144.228 128.117 143.897 127.322 143.405 126.681L143.248 126.676C143.063 126.857 143.074 126.849 143.06 127.108C143.537 128.078 144.126 129.013 144.649 129.962C145.801 132.092 146.982 134.205 148.192 136.302L153.958 146.493C154.87 148.069 155.767 149.653 156.649 151.246C157.245 152.297 157.911 153.36 158.402 154.463C158.577 154.856 158.648 155.224 158.669 155.652C158.784 157.931 158.651 160.26 158.654 162.544L158.657 178.116C158.659 180.097 158.508 182.18 158.632 184.15C158.652 184.47 158.646 184.909 158.956 185.074C159.116 184.958 159.148 184.93 159.187 184.724C159.322 184.012 159.206 183.079 159.206 182.348L159.215 176.288L173.39 176.285C175.942 176.288 178.704 176.087 181.221 176.451C181.454 176.276 181.477 175.987 181.531 175.722C182.53 173.669 183.452 171.571 184.386 169.488C184.871 168.408 185.522 167.232 185.813 166.087C185.934 166.052 185.996 166.002 186.097 165.928L186.102 165.684L185.935 165.56C185.928 165.565 172.963 165.594 171.593 165.573C172.886 165.326 174.698 165.498 176.049 165.497L186.203 165.506C187.317 163.531 188.1 161.393 189.185 159.404C190.057 161.483 190.972 163.516 191.971 165.538C194.683 165.407 197.448 165.523 200.167 165.523C203.333 165.523 206.538 165.422 209.699 165.55C207.033 165.864 193.074 165.256 192.048 165.711L192.003 165.858C192.065 165.975 192.097 166.062 192.204 166.144C196.993 166.087 201.79 166.138 206.58 166.133C208.514 166.131 210.785 166.292 212.68 166.127C212.992 166.1 213.366 166.074 213.607 165.856L213.517 165.761C212.578 165.422 211.326 165.568 210.335 165.58L210.332 134.461C211.063 134.441 212.446 134.652 213.087 134.386C213.221 134.331 213.205 134.253 213.247 134.128C213.045 133.426 212.518 132.713 212.16 132.069L196.979 105.582C198.893 99.5311 199.721 92.2944 198.756 86.0008C198.296 82.9996 197.446 80.1316 196.435 77.2748Z" fill="#212021"/>
<path d="M164.19 132.834C163.699 133.042 163.229 133.576 162.831 133.939L163.734 133.934L165.353 133.941L164.19 132.834Z" fill="#FEFEFE"/>
<path d="M155.388 132.828C154.798 132.985 154.246 133.588 153.79 133.979L155.06 133.995L156.634 133.978C156.243 133.556 155.834 133.192 155.388 132.828Z" fill="#FEFEFE"/>
<path d="M104.356 114.998C103.044 115.512 102.024 115.665 100.63 115.529L101.608 116.986L102.441 118.232L104.356 114.998Z" fill="#FEFEFE"/>
<path d="M83.7328 84.1708C81.0557 84.1908 78.2864 84.291 75.621 84.0812C73.8476 86.54 71.9669 88.9611 70.2992 91.4917C69.5323 92.6555 68.8694 93.8998 68.1763 95.1093C67.0727 97.0003 66.0059 98.9118 64.9758 100.844C64.1735 102.443 63.3119 104.009 62.4936 105.599C61.2963 107.927 60.1416 110.261 58.8188 112.521C55.2838 112.508 51.6987 112.362 48.1692 112.493C47.2363 113.915 46.3863 115.399 45.4233 116.798C45.4099 115.497 45.6211 108.465 45.2014 107.844C45.1707 107.799 45.1225 107.769 45.083 107.732C44.9184 107.855 44.8974 108.03 44.8648 108.227C44.7191 109.103 44.8123 110.107 44.8164 110.998C44.8264 113.225 44.9123 115.476 44.8371 117.699L44.3295 118.525C43.6862 117.754 40.4849 113.291 40.1096 113.056C40.0517 113.02 39.9775 113.022 39.9114 113.005L39.689 113.113C39.6327 113.372 39.7294 113.466 39.8786 113.687C40.3211 114.341 40.8609 114.946 41.3349 115.58C42.2122 116.751 43.0383 117.95 43.9625 119.087C43.2505 120.375 42.3191 122.259 41.47 123.403C39.2407 127.112 37.1269 130.941 34.7881 134.578C32.7029 134.57 30.6003 134.505 28.5175 134.598L28.5138 134.933C28.5602 134.977 28.5949 135.039 28.6535 135.066C29.0818 135.262 33.5455 135.096 34.4333 135.1C34.5862 135.26 34.4964 135.206 34.699 135.267C35.0314 135.054 35.2579 134.638 35.4681 134.31C36.9039 132.067 38.1825 129.7 39.5418 127.407L45.6626 117.31C46.5449 115.854 47.3576 114.236 48.4447 112.92C49.7875 112.908 59.3337 113.05 59.8048 112.877C59.8627 112.856 59.9191 112.831 59.9768 112.809C60.0735 112.772 60.172 112.739 60.2693 112.703C60.0692 112.634 59.8689 112.624 59.6599 112.606L59.6302 112.503C59.8629 112.528 60.108 112.567 60.3414 112.549C60.5272 112.536 60.5342 112.549 60.657 112.4L60.5659 112.156L60.948 112.025C60.7565 111.704 60.5726 111.375 60.3669 111.064C61.1176 109.675 61.7928 108.236 62.5843 106.873C63.3549 108.096 64.334 109.01 65.7974 109.337C65.8868 109.358 65.9766 109.376 66.0669 109.392C66.1572 109.408 66.2478 109.422 66.3387 109.434C66.4297 109.445 66.5209 109.454 66.6124 109.461C66.7038 109.468 66.7953 109.472 66.887 109.474C66.9786 109.476 67.0703 109.476 67.162 109.473C67.2536 109.47 67.3451 109.465 67.4366 109.458C67.5279 109.45 67.619 109.441 67.7099 109.429C67.8008 109.417 67.8913 109.402 67.9815 109.386C68.0717 109.369 68.1613 109.35 68.2504 109.329C68.3396 109.307 68.4282 109.284 68.5163 109.258C68.6042 109.232 68.6914 109.204 68.7779 109.174C68.8645 109.143 68.9502 109.111 69.035 109.076C69.1199 109.042 69.2038 109.005 69.2868 108.966C69.3697 108.927 69.4516 108.886 69.5325 108.842C69.6134 108.799 69.6931 108.754 69.7717 108.707C69.8502 108.659 69.9275 108.61 70.0034 108.559C70.6066 108.156 71.0955 107.664 71.5679 107.118C72.5616 108.397 73.5526 109.34 75.2431 109.539C76.7883 109.721 78.4002 109.218 79.589 108.225C79.9992 107.882 80.3597 107.464 80.7219 107.072C81.8285 108.32 82.9403 109.362 84.7062 109.495C86.2417 109.609 87.633 109.135 88.781 108.106C89.2055 107.726 89.5604 107.278 89.9332 106.849C90.947 108.142 91.9362 109.235 93.6677 109.468C95.3263 109.69 97.0395 109.174 98.3483 108.147C98.9853 107.648 99.518 107.049 100.059 106.45C100.793 107.719 101.641 108.914 103.132 109.345C105.055 109.902 106.831 108.992 108.46 108.074C107.58 109.508 105.925 112.867 104.889 113.891C104.355 114.42 103.679 114.747 102.951 114.915C102.057 115.122 101.159 115.062 100.263 114.906C99.7787 114.139 99.3263 113.316 98.7541 112.61C98.2674 112.01 97.7082 111.531 97.2515 110.892C96.6236 111.539 95.9972 112.309 95.1185 112.598L95.0719 112.76C95.7479 113.198 97.2684 112.5 97.8522 113.042C97.9375 113.121 98.0312 113.354 98.0937 113.463L98.4029 113.041C99.092 113.601 102.457 119.529 103.353 120.809L103.461 120.793L103.449 120.631C102.731 119.573 102.133 118.456 101.456 117.376C101.264 117.07 101.01 116.819 100.817 116.521C100.626 116.227 100.501 115.892 100.323 115.589C100.149 115.294 99.9082 115.061 99.7269 114.775C99.4 114.26 99.1638 113.666 98.807 113.172C98.6862 113.005 98.5385 112.897 98.368 112.787C98.1748 112.661 98.0555 112.616 97.9575 112.398L98.0358 112.264L98.2494 112.296C98.4331 112.441 98.5776 112.567 98.7005 112.769C98.7578 112.863 98.8053 112.948 98.8797 113.03C99.3185 113.515 99.6768 114.813 100.263 115.052C100.816 115.277 101.917 115.294 102.488 115.142C103.298 114.926 104.136 114.803 104.797 114.243C105.162 113.934 105.496 113.511 105.755 113.107C105.934 112.827 106.005 112.5 106.169 112.218C106.542 111.576 108.61 108.352 108.648 107.937C108.281 107.758 107.775 108.391 107.391 108.502C106.54 108.749 105.786 109.27 104.889 109.381C103.24 109.585 101.93 108.721 100.942 107.481C100.628 107.088 100.326 106.605 99.9238 106.303C99.8911 106.334 99.8544 106.361 99.8256 106.396C99.5169 106.771 99.2263 107.101 98.8662 107.438C97.5534 108.666 96.0208 109.472 94.1737 109.383C92.7708 109.314 91.6508 108.627 90.7605 107.578C90.5733 107.357 90.342 106.979 90.1161 106.811C90.0701 106.777 90.0224 106.734 89.9653 106.729C89.9291 106.726 89.0754 107.574 88.9452 107.698C87.984 108.616 86.8952 109.262 85.5465 109.381C83.3648 109.573 82.2618 108.258 80.762 107.008C80.7045 107.002 80.6434 106.97 80.5892 106.99C80.0471 107.193 79.018 109.031 77.1392 109.27C76.6094 109.337 76.068 109.464 75.5338 109.442C73.721 109.366 72.8235 108.23 71.6848 107.038C71.3789 107.038 70.6701 107.802 70.3921 108.029C69.1746 109.022 67.8253 109.456 66.2554 109.273C64.7597 109.098 63.8125 108.193 62.9111 107.072C62.8049 106.941 62.756 106.882 62.6161 106.779L62.4441 106.84C61.9527 107.641 60.4038 110.273 60.2349 111.056C60.3095 111.208 60.3592 111.318 60.3954 111.486L60.2329 111.415C59.7314 111.595 59.5119 112.357 59.2968 112.813C58.4114 112.815 56.5461 112.981 55.7788 112.766C56.434 112.352 58.1015 112.978 58.8407 112.641C59.1113 112.176 59.4824 111.786 59.7427 111.32C60.7584 109.498 61.6473 107.589 62.6036 105.735C64.9495 101.189 67.3484 96.6267 70.0168 92.2603C71.542 89.7643 73.4331 87.4566 75.1117 85.0599C75.2646 84.8417 75.5079 84.4393 75.7405 84.3139C75.8869 84.235 83.1145 84.2983 83.9111 84.3187C84.5805 84.3359 85.4033 84.5022 86.0549 84.3866L85.5211 84.2459L83.7328 84.1708Z" fill="black"/>
<path d="M60.5659 112.156C60.4019 111.937 60.3561 111.767 60.0765 111.714C59.8588 111.936 59.756 112.224 59.6302 112.503C59.8629 112.528 60.108 112.567 60.3414 112.549C60.5272 112.536 60.5342 112.549 60.657 112.4L60.5659 112.156Z" fill="#FEFEFE"/>
<path d="M123.22 154.464C122.198 154.441 121.174 154.431 120.153 154.393L120.148 184.956C121.164 184.878 122.212 184.883 123.228 184.944L123.22 154.464Z" fill="#007DC1"/>
<path d="M179.724 103.237C178.308 104.313 177.557 105.082 175.665 105.158C173.887 105.231 172.627 104.462 171.372 103.301C171.19 103.494 171.003 103.682 170.81 103.864C169.402 105.179 167.991 105.175 166.183 105.118C166.173 106.709 166.179 108.301 166.201 109.892C167.074 109.38 167.781 108.751 168.433 107.982C168.879 108.402 169.268 108.875 169.743 109.265C170.794 110.129 171.89 110.353 173.216 110.236C174.72 109.821 175.64 109.135 176.678 107.986C177.258 108.635 177.803 109.235 178.553 109.689C179.722 110.398 181.098 110.487 182.399 110.146C185.077 109.445 186.291 106.425 187.542 104.221C186.598 104.631 185.682 104.998 184.646 105.091C182.605 105.274 181.237 104.503 179.724 103.237Z" fill="#FEFEFE"/>
<path d="M186.439 95.4106C186.488 93.8993 186.692 83.2074 186.37 82.6687C186.177 82.6294 186.192 82.601 186.003 82.6957C185.754 83.4158 185.964 93.5986 185.859 95.3373C184.772 94.4595 182.863 92.2363 181.831 91.1031C181.4 90.6306 180.979 90.0836 180.488 89.6757L180.292 89.7218L180.178 89.9381C180.258 90.4604 185.165 95.4702 185.859 96.0597L185.826 97.2486C181.443 97.352 177.034 97.2882 172.648 97.272C171.315 97.2592 169.983 97.2551 168.65 97.2598C168.625 97.2756 168.602 97.2947 168.576 97.3071C168.095 97.5298 166.859 97.3479 166.284 97.4017C170.481 97.5294 174.713 97.3984 178.916 97.4091L183.425 97.4234C184.214 97.4262 185.069 97.5016 185.846 97.3713C185.935 97.0342 186.112 96.3896 185.998 96.055C185.81 95.5012 180.358 90.5179 180.46 89.9225C181.424 90.7224 185.1 95.359 185.991 95.3592C186.165 93.6186 185.853 83.3927 186.208 82.8042C186.485 83.7586 186.309 85.4874 186.308 86.5062L186.297 93.1679C186.293 93.9069 186.135 94.7799 186.321 95.4915L186.567 95.4642L186.602 95.5526C186.27 96.1357 186.028 96.5701 186.227 97.2624C186.238 97.2999 186.252 97.336 186.265 97.3728C187.245 97.4975 191.494 97.1965 192.017 97.468C192.15 97.5368 192.306 97.7151 192.397 97.8322C193.293 98.9822 193.994 100.658 194.718 101.954L199.525 110.381L210.161 129.106C211.103 130.799 212.369 132.391 213.14 134.171C212.81 134.485 211.498 134.356 211.035 134.345C210.696 134.337 210.423 134.305 210.096 134.201C209.964 134.159 210.022 134.168 209.869 134.204C209.921 134.55 210.17 134.658 210.214 134.994C210.373 136.193 210.244 137.574 210.241 138.79L210.139 148.686L210.144 161.824C210.145 163.109 210.265 164.418 210.237 165.693C210.85 165.689 212.847 165.549 213.32 165.779L213.343 165.902C212.984 166.04 193.451 166.068 192.268 165.94L192.235 165.803C192.294 165.765 192.344 165.708 192.411 165.689C192.876 165.559 195.624 165.691 196.285 165.691L209.865 165.693L209.869 142.955C209.869 141.256 210.058 135.283 209.742 134.107C209.502 133.212 208.763 132.362 208.303 131.557L206.506 128.382C205.216 126.119 192.089 103.224 192.069 102.923L192.211 102.915C192.822 103.852 193.283 104.851 193.843 105.815L196.748 110.855L205.164 125.492C206.265 127.47 207.381 129.439 208.51 131.4C208.909 132.093 209.285 132.914 209.736 133.562C209.939 133.854 210.337 134.022 210.673 134.097C211.113 134.195 211.937 133.964 212.444 133.952L212.57 133.844C212.292 132.668 209.361 128.078 208.535 126.635L197.25 106.853L193.988 101.117C193.425 100.114 192.914 98.9444 192.212 98.0448L191.992 97.9984C190.888 98.7874 181.278 115.833 179.758 118.421C177.675 121.895 175.63 125.39 173.621 128.908C172.716 130.485 171.71 132.028 170.93 133.671C170.822 133.898 170.811 134.131 170.803 134.378C170.693 137.789 170.808 141.246 170.808 144.661L170.808 165.693C172.785 165.693 185.263 165.498 185.974 165.871C183.157 166.17 179.658 165.973 176.744 165.974L159.118 165.972C159.127 169.252 159.014 172.525 159.026 175.806L173.604 175.901C174.823 175.902 180.517 175.742 181.275 175.96L181.3 176.092C181.253 176.134 181.218 176.199 181.157 176.22C180.765 176.353 178.538 176.167 177.976 176.167L159.026 176.177C159.026 177.42 159.198 184.252 158.915 184.866C158.76 184.653 158.745 184.412 158.735 184.155C158.609 180.942 158.793 177.682 158.835 174.467C158.894 169.992 158.845 165.509 158.842 161.032C158.842 159.76 159.059 155.497 158.613 154.545C157.075 151.259 155.048 148.042 153.219 144.898C152.046 142.881 150.93 140.798 149.815 138.753C148.616 136.551 147.304 134.412 146.113 132.2C145.27 130.635 144.201 129.134 143.505 127.502L143.273 126.961C143.573 127.168 143.807 127.666 143.986 127.982L157.08 151.143C157.5 151.872 158.369 153.949 158.892 154.417C159.225 154.714 160.775 154.547 161.23 154.464C161.306 154.45 161.381 154.435 161.456 154.419L161.505 154.327C160.931 152.946 159.977 151.604 159.251 150.286C157.132 146.432 154.979 142.596 152.794 138.779L146.372 127.426C145.637 126.122 144.708 124.021 143.889 122.932C143.604 122.553 143.409 122.075 143.2 121.65L143.139 121.693L143.1 121.93C146.58 127.884 149.873 133.963 153.269 139.968C155.379 143.635 157.448 147.324 159.476 151.036C160.1 152.164 160.789 153.268 161.383 154.411C160.63 154.421 159.875 154.442 159.122 154.421C157.672 152.157 156.44 149.724 155.105 147.389L147.441 133.912C146.509 132.212 145.569 130.516 144.621 128.824C144.228 128.117 143.897 127.322 143.405 126.681L143.248 126.676C143.063 126.857 143.074 126.849 143.06 127.108C143.537 128.078 144.126 129.013 144.649 129.962C145.801 132.092 146.982 134.205 148.192 136.302L153.958 146.493C154.87 148.069 155.767 149.653 156.649 151.246C157.245 152.297 157.911 153.359 158.402 154.463C158.577 154.856 158.648 155.224 158.669 155.652C158.784 157.931 158.651 160.26 158.654 162.544L158.657 178.116C158.659 180.097 158.508 182.18 158.632 184.15C158.652 184.47 158.646 184.909 158.956 185.074C159.116 184.958 159.148 184.93 159.187 184.724C159.322 184.012 159.206 183.079 159.206 182.348L159.215 176.288L173.39 176.285C175.942 176.288 178.704 176.087 181.221 176.451C181.454 176.276 181.477 175.987 181.531 175.722C174.09 175.758 166.649 175.754 159.208 175.708L159.219 166.117C162.206 166.05 165.206 166.108 168.195 166.108L185.813 166.087C185.934 166.052 185.996 166.002 186.097 165.928L186.102 165.684L185.935 165.56C185.928 165.565 172.963 165.594 171.593 165.573C171.393 165.589 171.252 165.578 171.056 165.528C171.022 165.423 171.013 165.41 170.996 165.284C170.874 164.401 170.985 163.344 170.986 162.442L170.995 155.827L170.971 134.832C170.974 134.509 170.964 134.117 171.057 133.808C171.392 132.706 172.706 130.819 173.325 129.754C175.198 126.475 177.103 123.213 179.039 119.97L187.106 106.116C188.693 103.42 190.261 100.634 192.064 98.0769C193.852 101.017 195.483 104.085 197.189 107.076C202.209 116.052 207.312 124.98 212.499 133.86C211.706 133.874 210.912 133.865 210.119 133.865C208.286 130.928 206.667 127.809 204.962 124.792L196.458 109.983C195.264 107.929 193.956 105.218 192.671 103.347C192.48 103.069 192.296 102.858 191.994 102.705L191.871 102.778C191.874 103.025 191.973 103.24 192.085 103.456C192.469 104.206 192.962 104.931 193.38 105.669C194.584 107.809 195.802 109.941 197.034 112.066L206.601 128.898C207.34 130.217 209.248 132.99 209.582 134.267C209.895 135.465 209.717 137.046 209.714 138.287L209.726 143.213C209.755 150.659 209.746 158.105 209.699 165.55C207.033 165.864 193.074 165.256 192.048 165.711L192.003 165.858C192.065 165.975 192.097 166.062 192.204 166.144C196.993 166.087 201.79 166.138 206.58 166.133C208.514 166.131 210.785 166.292 212.68 166.127C212.992 166.1 213.366 166.074 213.607 165.856L213.517 165.761C212.578 165.422 211.326 165.568 210.335 165.58L210.332 134.461C211.063 134.441 212.446 134.652 213.087 134.386C213.221 134.331 213.205 134.253 213.247 134.128C213.045 133.426 212.518 132.713 212.16 132.069L196.979 105.582C195.457 102.792 193.85 100.043 192.302 97.2657L186.402 97.2661L186.386 96.048C187.502 95.0091 188.515 93.8561 189.55 92.7389C190.234 92.001 190.997 91.2783 191.606 90.4773C191.786 90.24 191.916 90.0628 191.88 89.7605L191.705 89.6856C191.107 89.8709 187.087 94.6284 186.439 95.4106Z" fill="black"/>
<path d="M158.702 97.9124L141.524 97.9454C140.51 99.5379 139.55 101.163 138.645 102.819L140.086 102.516C140.75 103.428 141.662 103.919 142.689 104.311C143.279 104.444 143.857 104.55 144.464 104.536C146.147 104.498 147.278 103.543 148.379 102.4C149.424 103.509 150.371 104.49 152.016 104.556C153.856 104.63 155.09 103.684 156.356 102.499C157.075 103.292 157.715 103.924 158.668 104.436C158.718 102.264 158.696 100.085 158.702 97.9124Z" fill="#FEFEFE"/>
<path d="M139.809 103.238C139.293 103.236 138.807 103.35 138.305 103.457C137.408 104.969 136.583 106.532 135.692 108.051C136.227 108.327 136.529 108.77 136.939 109.186C137.715 109.974 138.829 110.337 139.921 110.323C141.812 110.297 142.932 109.261 144.171 108.012C144.501 108.366 144.83 108.733 145.187 109.061C146.111 109.907 147.27 110.363 148.528 110.285C150.216 110.181 151.322 109.242 152.403 108.057C152.948 108.647 153.487 109.212 154.132 109.694C154.515 109.928 154.923 110.117 155.366 110.202C156.607 110.442 157.654 109.965 158.657 109.289C158.699 107.929 158.673 106.56 158.679 105.198C157.799 104.669 157.076 104.049 156.319 103.356C155.035 104.424 153.882 105.186 152.136 105.161C150.482 105.137 149.502 104.395 148.397 103.27C147.403 104.217 146.337 104.951 144.931 105.105C142.893 105.328 141.345 104.474 139.809 103.238Z" fill="#FEFEFE"/>
<path d="M102.565 89.4539C102.31 89.7736 102.046 90.0888 101.743 90.3642C101.674 90.4262 101.604 90.4865 101.532 90.5451C101.46 90.6037 101.387 90.6604 101.313 90.7152C101.238 90.7701 101.162 90.8231 101.085 90.8742C101.008 90.9253 100.929 90.9744 100.85 91.0215C100.77 91.0688 100.689 91.1139 100.607 91.157C100.525 91.2 100.442 91.241 100.358 91.28C100.274 91.319 100.189 91.3558 100.103 91.3904C100.018 91.4252 99.9309 91.4577 99.8434 91.488C99.7559 91.5183 99.6677 91.5465 99.5788 91.5724C99.49 91.5983 99.4005 91.6219 99.3103 91.6433C99.2203 91.6647 99.1297 91.6839 99.0387 91.7008C98.9476 91.7177 98.8562 91.7322 98.7644 91.7446C98.6727 91.7569 98.5806 91.7668 98.4884 91.7745C98.3961 91.7823 98.3037 91.7877 98.2111 91.7906C98.1186 91.7937 98.026 91.7945 97.9334 91.7929C97.8409 91.7913 97.7484 91.7874 97.656 91.7812C96.1933 91.6854 95.1324 91.0325 94.1742 89.968L94.1627 97.0544C94.6932 97.0218 95.2476 97.0097 95.7653 96.8822C97.4389 96.4705 97.9367 95.2982 98.7288 93.9537C98.8281 94.2721 98.9266 94.5946 99.0498 94.9047C99.4055 95.7999 100.149 96.507 101.034 96.8724C103.097 97.7242 105.343 96.7726 106.783 95.2283C107.052 94.9403 107.412 94.3159 107.764 94.1731L107.903 94.2972C108.338 95.2511 108.749 96.0671 109.708 96.6002C110.664 97.1318 111.83 97.1991 112.868 96.8861C115.907 95.9697 116.936 93.0752 118.328 90.538C116.838 91.3566 115.473 92.0196 113.712 91.6389C112.438 91.3631 111.58 90.6391 110.881 89.5778C110.472 90.017 110.053 90.4417 109.558 90.7848C109.486 90.8349 109.414 90.8831 109.34 90.9295C109.267 90.9759 109.192 91.0204 109.116 91.0629C109.04 91.1055 108.963 91.146 108.885 91.1846C108.808 91.2234 108.729 91.26 108.649 91.2947C108.569 91.3292 108.488 91.3617 108.407 91.3923C108.325 91.4227 108.243 91.4511 108.16 91.4774C108.077 91.5038 107.994 91.528 107.91 91.55C107.825 91.572 107.741 91.5919 107.656 91.6097C107.57 91.6274 107.485 91.6429 107.399 91.6563C107.313 91.6697 107.227 91.6808 107.14 91.6897C107.054 91.6987 106.967 91.7055 106.88 91.7099C106.793 91.7145 106.706 91.7168 106.619 91.717C106.532 91.7171 106.445 91.7149 106.358 91.7105C106.271 91.7061 106.185 91.6996 106.098 91.6908C106.012 91.6822 105.925 91.6712 105.839 91.658C105.753 91.6449 105.668 91.6295 105.583 91.6119C104.229 91.3449 103.319 90.5629 102.565 89.4539Z" fill="#FEFEFE"/>
<path d="M167.202 126.788C166.859 126.962 166.506 127.327 166.197 127.571C165.288 128.291 164.066 128.729 162.903 128.734C161.194 128.742 160.018 127.86 158.857 126.735C157.589 127.747 156.396 128.703 154.68 128.708C153.02 128.712 151.854 127.841 150.735 126.74C149.726 127.676 148.917 128.301 147.592 128.735C148.507 130.508 149.566 132.24 150.596 133.949C151.508 133.928 152.599 134.048 153.399 133.561C154.065 133.096 154.656 132.556 155.258 132.013C156.11 132.553 156.783 133.359 157.606 133.953C158.98 133.979 160.354 133.979 161.728 133.955C162.608 133.406 163.379 132.714 164.135 132.009C164.257 132.109 164.37 132.215 164.485 132.324C166.697 134.423 167.363 134.005 170.26 133.927C171.071 132.009 172.417 130.209 173.403 128.36C172.777 128.573 172.159 128.73 171.495 128.748C169.663 128.799 168.476 127.98 167.202 126.788Z" fill="#FEFEFE"/>
<path d="M191.303 97.9157C188.273 97.8215 185.218 97.8903 182.186 97.8946L166.168 97.8859C166.164 99.5743 165.965 102.817 166.271 104.349C166.337 104.41 166.367 104.447 166.458 104.485C167.319 104.84 168.956 104.328 169.73 103.924C170.339 103.491 170.852 102.982 171.343 102.422C171.593 102.674 171.836 102.935 172.09 103.184C172.148 103.24 172.208 103.295 172.269 103.349C172.33 103.403 172.392 103.455 172.456 103.506C172.52 103.556 172.585 103.605 172.651 103.652C172.717 103.7 172.784 103.745 172.853 103.789C172.921 103.833 172.99 103.875 173.061 103.916C173.132 103.957 173.203 103.995 173.276 104.032C173.348 104.069 173.421 104.104 173.496 104.137C173.57 104.17 173.645 104.202 173.721 104.231C173.797 104.261 173.873 104.288 173.95 104.314C174.027 104.34 174.105 104.363 174.183 104.385C174.262 104.407 174.341 104.426 174.42 104.444C174.499 104.462 174.579 104.478 174.659 104.492C174.74 104.505 174.82 104.517 174.901 104.527C174.981 104.537 175.062 104.544 175.144 104.55C175.225 104.556 175.306 104.559 175.387 104.561C175.469 104.563 175.55 104.562 175.631 104.56C177.372 104.515 178.578 103.554 179.707 102.345C180.538 103.14 181.333 103.909 182.445 104.295C183.887 104.796 185.467 104.572 186.818 103.916C188.569 103.066 189.046 101.696 190.013 100.148C190.459 99.4341 191.026 98.7152 191.303 97.9157Z" fill="#FEFEFE"/>
<path d="M103.844 84.8383C100.625 84.7457 97.3885 84.7632 94.1681 84.7823L94.1705 89.027C94.4292 89.4048 94.6839 89.7755 95.022 90.0887C95.9646 90.9619 97.171 91.3145 98.4398 91.2215C99.5074 91.1434 100.863 90.6771 101.563 89.8216C101.947 89.3523 102.244 88.8215 102.641 88.3591C102.935 88.8706 103.218 89.421 103.598 89.8744C104.277 90.6844 105.265 91.1467 106.316 91.2044C107.745 91.2826 108.96 90.6535 110.002 89.7371C110.379 89.3575 110.68 88.8652 110.995 88.4313C111.576 88.9213 111.394 89.9039 112.482 90.5853C113.45 91.1913 114.773 91.3412 115.872 91.0736C119.04 90.3017 119.872 87.4438 121.415 84.9792L103.844 84.8383Z" fill="#FEFEFE"/>
<path d="M145.222 120.572C144.764 120.805 144.169 121.567 143.759 121.937C144.108 122.666 144.578 123.357 144.98 124.06L147.286 128.157C148.798 127.805 149.681 126.882 150.756 125.854C151.703 126.833 152.641 127.848 154.062 128.062C156.063 128.364 157.505 127.092 158.964 125.969C159.584 126.62 160.198 127.251 160.998 127.681C162.561 128.521 164.337 128.236 165.694 127.14C166.075 126.832 166.615 126.221 167.092 126.106C167.503 126.008 168.386 127.155 168.796 127.405C168.867 127.45 168.939 127.492 169.013 127.532C169.086 127.573 169.16 127.611 169.236 127.648C169.311 127.685 169.387 127.72 169.464 127.753C169.541 127.786 169.619 127.817 169.698 127.845C169.776 127.874 169.856 127.901 169.936 127.926C170.016 127.951 170.096 127.974 170.177 127.995C170.259 128.016 170.34 128.035 170.422 128.052C170.504 128.069 170.587 128.083 170.67 128.096C170.753 128.109 170.836 128.119 170.919 128.127C171.003 128.136 171.086 128.142 171.17 128.147C171.253 128.151 171.337 128.153 171.421 128.153C171.505 128.153 171.589 128.151 171.672 128.147C171.756 128.143 171.839 128.136 171.923 128.128C172.006 128.119 172.089 128.109 172.172 128.096C172.255 128.084 172.338 128.069 172.42 128.052C172.502 128.035 172.583 128.017 172.665 127.996C173.357 127.816 173.895 127.526 174.263 126.907C175.219 125.379 176.159 123.774 176.977 122.168C176.237 122.488 175.487 122.695 174.679 122.725C172.825 122.795 171.723 121.941 170.441 120.746C169.311 121.911 168.021 122.682 166.351 122.722C164.514 122.766 163.343 121.876 162.084 120.688L161.955 120.812C160.737 121.98 159.393 122.79 157.634 122.724C155.97 122.662 154.845 121.866 153.738 120.713C152.507 121.923 151.202 122.767 149.419 122.759C147.531 122.751 146.472 121.846 145.222 120.572Z" fill="#FEFEFE"/>
<path d="M100.059 106.45C99.518 107.049 98.9853 107.648 98.3483 108.147C97.0394 109.174 95.3263 109.69 93.6677 109.467C91.9361 109.235 90.947 108.142 89.9332 106.849C89.5604 107.278 89.2055 107.726 88.7809 108.106C87.633 109.135 86.2417 109.609 84.7061 109.495C82.9403 109.362 81.8285 108.32 80.7219 107.071C80.3597 107.464 79.9992 107.882 79.5889 108.225C78.4001 109.218 76.7883 109.721 75.2431 109.539C73.5525 109.34 72.5615 108.397 71.5679 107.117C71.0955 107.664 70.6066 108.155 70.0034 108.559C69.9274 108.61 69.8502 108.659 69.7717 108.707C69.6931 108.754 69.6134 108.799 69.5325 108.842C69.4516 108.886 69.3697 108.927 69.2868 108.966C69.2038 109.005 69.1199 109.041 69.035 109.076C68.9502 109.111 68.8644 109.143 68.7779 109.174C68.6914 109.204 68.6042 109.232 68.5162 109.258C68.4282 109.284 68.3395 109.307 68.2503 109.329C68.1612 109.35 68.0715 109.369 67.9815 109.386C67.8913 109.402 67.8008 109.417 67.7099 109.429C67.6189 109.441 67.5278 109.45 67.4365 109.458C67.3451 109.465 67.2536 109.47 67.1619 109.473C67.0703 109.476 66.9786 109.476 66.887 109.474C66.7953 109.472 66.7038 109.467 66.6123 109.461C66.5209 109.454 66.4297 109.445 66.3387 109.433C66.2477 109.422 66.1571 109.408 66.0668 109.392C65.9765 109.376 65.8867 109.358 65.7974 109.337C64.334 109.01 63.3549 108.096 62.5843 106.873C61.7928 108.236 61.1176 109.675 60.3668 111.064C60.5726 111.375 60.7565 111.704 60.948 112.024C61.4118 112.503 61.7315 112.515 62.3793 112.526C64.1921 112.557 66.0221 112.486 67.8355 112.446C68.4867 111.956 68.9857 111.367 69.5245 110.762C69.8945 111.336 70.229 111.965 70.6404 112.507C71.8568 112.542 76.1754 112.738 77.0551 112.396C77.8121 112.102 78.4417 111.428 79.0264 110.88C79.4049 111.507 79.7283 112.067 80.3224 112.518C81.7261 112.537 84.8143 112.772 86.04 112.45C86.5091 112.327 86.9794 112.06 87.3327 111.729C87.6242 111.455 87.8849 111.142 88.1215 110.821C88.5065 111.376 88.8898 111.992 89.3595 112.478C90.7594 112.562 94.0191 112.343 95.1185 112.598C95.9972 112.309 96.6236 111.539 97.2515 110.892C97.7081 111.531 98.2674 112.01 98.7541 112.61C99.3263 113.316 99.7787 114.139 100.263 114.906C101.159 115.062 102.057 115.121 102.951 114.915C103.679 114.747 104.355 114.42 104.889 113.891C105.925 112.866 107.58 109.508 108.46 108.074C106.831 108.992 105.055 109.901 103.132 109.345C101.641 108.914 100.793 107.719 100.059 106.45Z" fill="#FEFEFE"/>
<path d="M185.813 166.087L168.195 166.108C165.206 166.108 162.206 166.05 159.219 166.117L159.208 175.708C166.649 175.754 174.09 175.758 181.531 175.722C182.53 173.669 183.452 171.571 184.386 169.488C184.871 168.407 185.522 167.232 185.813 166.087Z" fill="#FEFEFE"/>
<path d="M132.04 114.873C130.695 116.385 129.393 119.233 128.199 121.033C130.589 121.072 133.016 121.111 135.403 120.991L136.099 120.035C136.529 120.382 136.953 120.716 137.419 121.015C139.297 121.127 141.97 120.805 143.698 121.171C144.245 120.709 144.724 120.207 145.207 119.68C146.369 120.9 147.562 122.123 149.373 122.152C151.269 122.181 152.49 121.132 153.747 119.881C153.934 120.091 154.125 120.298 154.317 120.502C155.243 121.48 156.374 122.138 157.755 122.153C159.608 122.173 160.872 121.037 162.129 119.85C162.574 120.336 163.024 120.818 163.556 121.209C164.59 121.967 165.743 122.307 167.022 122.084C168.467 121.832 169.511 121.002 170.354 119.849C171.198 120.654 172.002 121.513 173.128 121.92C174.546 122.433 175.83 122.043 177.129 121.434C178.176 120.869 179.97 117.253 180.649 116.065C179.726 116.531 178.796 116.861 177.753 116.894C175.915 116.951 174.745 116.122 173.46 114.933C172.342 115.995 171.149 116.813 169.554 116.901C167.685 117.005 166.499 116.107 165.21 114.914C164.016 115.995 162.859 116.868 161.161 116.919C159.358 116.973 158.138 116.093 156.912 114.908C156.843 114.976 156.774 115.043 156.704 115.11C155.528 116.236 154.196 116.957 152.52 116.909C150.973 116.865 149.708 116.096 148.665 114.994C147.479 116.105 146.169 116.857 144.504 116.874C142.826 116.891 141.697 116.051 140.55 114.944C140.392 115.105 140.229 115.261 140.061 115.413C138.91 116.458 137.46 116.973 135.91 116.886C134.303 116.796 133.093 116.059 132.04 114.873Z" fill="#FEFEFE"/>
<path d="M144.055 108.882C143.62 109.311 143.193 109.753 142.677 110.086C141.11 111.097 138.856 111.239 137.284 110.155C136.753 109.789 136.174 109.083 135.544 108.946C134.93 109.241 132.669 113.531 132.292 114.347C133.34 115.337 134.28 116.122 135.789 116.267C137.057 116.39 138.455 116.088 139.403 115.192C139.757 114.857 140.073 114.446 140.457 114.149C140.484 114.128 140.514 114.109 140.543 114.089C141.66 115.201 142.699 116.253 144.395 116.309C146.253 116.37 147.468 115.268 148.747 114.109C149.815 115.26 150.829 116.268 152.516 116.323C154.417 116.385 155.667 115.254 156.972 114.072C157.241 114.335 157.485 114.625 157.753 114.891C158.652 115.782 159.816 116.354 161.099 116.318C162.899 116.269 164.041 115.221 165.215 114.01C165.436 114.218 165.636 114.453 165.849 114.669C166.798 115.631 167.915 116.303 169.31 116.289C171.112 116.272 172.257 115.234 173.454 114.045C174.066 114.653 174.653 115.278 175.402 115.721C176.48 116.357 177.826 116.502 179.026 116.164C179.761 115.957 180.52 115.566 181.06 115.024C182.089 113.99 183.36 111.351 184.132 109.996C183.106 110.526 182.132 110.912 180.962 110.924C179.094 110.944 177.927 110.144 176.634 108.894C176.374 109.021 176.089 109.373 175.876 109.58C174.986 110.445 173.646 110.853 172.416 110.824C170.709 110.784 169.582 110.038 168.45 108.846C168.002 109.294 167.564 109.729 167.034 110.081C166.581 110.382 166.098 110.592 165.571 110.726C164.289 111.05 161.088 111.111 159.812 110.815C159.223 110.678 159.016 110.482 158.697 109.978C157.874 110.495 157.067 110.852 156.072 110.856C154.517 110.862 153.484 110.018 152.456 108.973C151.394 110.058 150.121 110.778 148.586 110.875C146.661 110.997 145.413 110.099 144.055 108.882Z" fill="#FEFEFE"/>
<path d="M146.767 82.8268C145.34 79.7139 144.02 76.5533 142.616 73.4298C142.13 72.3462 141.695 71.2136 141.151 70.1586L133.3 87.3769L130.561 93.4484C130.057 94.5665 129.588 95.7596 128.994 96.8298C129.75 98.3598 130.652 99.8359 131.489 101.324C132.744 103.542 133.963 105.78 135.146 108.038C136.784 104.848 138.69 101.794 140.411 98.6482C139.639 97.6243 136.134 92.8964 136.253 91.9577C136.257 91.9306 136.266 91.9045 136.273 91.8779C136.493 91.8846 136.409 91.844 136.567 92.0071C137.13 92.5904 137.565 93.5132 138.011 94.2045C138.864 95.5314 139.751 96.8351 140.673 98.1155C140.669 96.5259 140.454 87.476 140.806 86.6086L141.086 86.647C141.474 87.2291 141.231 96.1034 141.265 97.657C142.468 96.2043 145.869 91.8182 147.431 91.2835L147.639 91.3278C147.689 91.4527 147.744 91.4853 147.673 91.6163C147.493 91.9449 146.992 92.2785 146.704 92.5283C145.051 93.9585 143.596 95.5818 142.267 97.3137L153.299 97.2916C155.09 97.2887 156.957 97.402 158.738 97.2558C156.899 97.171 155.023 97.238 153.181 97.2349C152.031 95.2399 151.239 93.0541 150.314 90.9504C149.124 88.2472 147.839 85.5801 146.767 82.8268Z" fill="#9498FB"/>
<path d="M170.343 134.538C163.866 134.357 157.34 134.514 150.859 134.522C151.708 135.93 152.461 137.386 153.278 138.811C155.468 142.579 157.595 146.382 159.657 150.221C160.367 151.544 161.247 152.794 161.924 154.128C162.052 154.379 162.16 154.598 162.16 154.888C161.588 155.2 160.229 155.031 159.559 155.025C159.402 155.028 159.373 155.043 159.24 155.114C159.112 156.214 159.211 157.422 159.212 158.532L159.219 165.562C162.926 165.683 166.677 165.567 170.39 165.564L170.406 149.654C170.409 144.62 170.467 139.571 170.343 134.538Z" fill="#E6EBF1"/>
<path d="M178.264 72.065C169.727 70.4995 158.285 74.4249 151.316 79.2191C149.696 80.3329 148.285 81.5932 146.767 82.8269C147.839 85.5802 149.124 88.2472 150.314 90.9505C151.239 93.0542 152.03 95.2399 153.181 97.2349C155.023 97.2381 156.899 97.1711 158.738 97.2559L158.753 96.1744C158.009 95.9793 157.512 95.8472 157.074 95.1553C156.603 94.41 156.558 93.3368 156.754 92.4981C156.895 91.8982 157.195 91.3409 157.74 91.0214C158.565 90.5367 165.154 90.5612 166.294 90.8455C166.816 90.9755 167.144 91.208 167.406 91.6828C167.806 92.4089 167.827 94.0357 167.572 94.8217C167.343 95.5268 166.712 95.8059 166.093 96.0966L166.138 97.2633C166.975 97.2571 167.812 97.256 168.65 97.2598C169.983 97.2551 171.315 97.2592 172.648 97.2721C172.442 96.392 172.138 95.5708 171.997 94.666C171.123 89.0664 172.847 81.8997 175.324 76.8404C176.153 75.1476 177.158 73.5872 178.264 72.065Z" fill="#D7D8E1"/>
<path d="M121.956 85.1688C120.994 86.3157 119.853 88.8831 119.072 90.3424C118.051 92.2487 116.952 94.1315 115.9 96.022C111.605 103.638 107.232 111.21 102.78 118.735C103.187 119.512 103.687 120.261 104.14 121.013C107.441 121.114 110.757 121.054 114.061 121.057C118.591 121.076 123.121 121.072 127.651 121.043C129.536 117.773 131.443 114.482 133.403 111.257C133.049 110.544 132.659 109.846 132.283 109.144C129.726 104.386 127.009 99.7196 124.439 94.9677C123.836 93.8541 123.121 92.785 122.561 91.6535C122.443 91.4154 122.33 91.2041 122.416 90.9447L122.637 90.8992C123.09 91.1366 132.64 108.578 133.708 110.622C134.16 109.974 134.53 109.231 134.85 108.51C133.764 106.974 132.443 104.211 131.477 102.455C129.676 99.1793 127.799 95.942 126.02 92.656C124.675 90.1721 123.431 87.5756 121.956 85.1688Z" fill="#FEFEFE"/>
<path d="M119.839 104.587C119.778 104.587 119.718 104.586 119.657 104.587C118.262 104.605 116.963 105.326 116.021 106.32C114.5 107.928 113.982 110.036 114.027 112.194C115.732 112.315 117.47 112.249 119.179 112.249C121.15 112.252 123.173 112.354 125.136 112.202C125.216 110.284 124.789 108.189 123.59 106.651C122.616 105.4 121.404 104.772 119.839 104.587Z" fill="#212021"/>
<path d="M196.435 77.2748C195.488 75.0586 194.02 72.4696 192.279 70.7923C190.474 69.0537 188.15 67.756 185.588 67.8319C182.46 67.9243 180.274 69.9113 178.264 72.065C177.158 73.5872 176.153 75.1476 175.324 76.8404C172.847 81.8997 171.123 89.0664 171.997 94.6661C172.138 95.5708 172.442 96.392 172.648 97.2721C177.034 97.2882 181.443 97.352 185.826 97.2487L185.859 96.0597C185.165 95.4702 180.258 90.4605 180.178 89.9381L180.292 89.7218L180.488 89.6758C180.979 90.0836 181.4 90.6306 181.831 91.1032C182.863 92.2363 184.772 94.4595 185.859 95.3374C185.964 93.5986 185.754 83.4158 186.003 82.6957C186.192 82.6011 186.177 82.6294 186.37 82.6688C186.692 83.2074 186.488 93.8994 186.439 95.4107C187.087 94.6284 191.107 89.871 191.705 89.6856L191.88 89.7606C191.916 90.0628 191.786 90.24 191.606 90.4773C190.997 91.2783 190.234 92.001 189.55 92.739C188.515 93.8561 187.502 95.0091 186.386 96.048L186.402 97.2661L192.302 97.2658C193.85 100.043 195.457 102.792 196.979 105.582C198.893 99.5311 199.721 92.2944 198.756 86.0008C198.296 82.9996 197.446 80.1316 196.435 77.2748Z" fill="#9498FB"/>
<path d="M82.469 84.7147C82.5042 84.711 82.5395 84.7069 82.5747 84.7034C83.544 84.6104 84.6193 84.8186 85.5561 84.642C84.0354 84.5216 82.461 84.6154 80.9336 84.6069C79.2378 84.5975 77.5494 84.5032 75.8516 84.5166C75.1707 85.1754 73.0419 87.8798 72.7983 88.7253C72.8875 89.5328 73.3948 90.1368 74.0104 90.6377C74.6504 91.1584 75.6598 91.5994 76.5014 91.4727C77.4267 91.3332 78.1403 90.7877 79.0042 90.5257C78.0897 91.3287 77.1718 91.7349 75.9372 91.656C73.877 91.5243 73.1501 89.2669 72.3899 89.3202C71.8368 90.0321 69.7239 92.7773 69.5879 93.4844C69.5683 93.5874 69.5859 93.7815 69.6017 93.8906C69.633 94.1088 70.4019 95.7022 70.5316 95.8755C70.6921 96.0902 70.9131 96.2704 71.1372 96.4146C71.204 96.4566 71.2718 96.4969 71.3404 96.5355C71.4092 96.5741 71.4789 96.6109 71.5495 96.6459C71.6202 96.6811 71.6917 96.7144 71.764 96.7459C71.8363 96.7774 71.9093 96.807 71.9832 96.8348C72.057 96.8627 72.1315 96.8886 72.2066 96.9126C72.2816 96.9367 72.3573 96.9588 72.4335 96.979C72.5097 96.9993 72.5864 97.0176 72.6636 97.0339C72.7406 97.0504 72.8181 97.0648 72.896 97.0773C72.9738 97.0898 73.052 97.1003 73.1304 97.1089C73.2088 97.1174 73.2874 97.124 73.366 97.1285C73.4448 97.1331 73.5236 97.1357 73.6024 97.1363C73.6813 97.1368 73.7602 97.1354 73.839 97.1321C73.9178 97.1287 73.9965 97.1234 74.075 97.1161C74.1534 97.1088 74.2317 97.0995 74.3097 97.0883C74.3878 97.077 74.4655 97.0638 74.5429 97.0486C74.6203 97.0334 74.6972 97.0162 74.7738 96.9972C75.7045 96.7639 76.8725 96.1047 77.3362 95.228C77.4202 95.069 77.4893 94.902 77.5616 94.7374C77.6297 94.5827 77.5919 94.6433 77.6841 94.5301L77.7512 94.6251L77.8019 94.4797C78.152 94.9155 78.5788 95.371 78.8463 95.8601C79.2004 96.5071 80.1031 96.925 80.7818 97.1161C81.4917 97.3158 82.5979 97.3916 83.2531 96.9842C83.3167 96.9447 83.3536 96.9135 83.4139 96.8686C83.9181 96.494 84.7004 96.1811 85.0115 95.6241C85.1295 95.4128 85.3134 95.2818 85.4975 95.13C84.9655 96.2429 83.5696 97.0571 82.4363 97.4744C81.7021 97.7447 80.8864 97.4609 80.2274 97.1183C79.1139 96.54 78.6213 95.4612 77.8058 95.0178C77.5115 95.19 77.3395 95.5787 77.092 95.821C75.9177 96.9708 74.0212 97.6633 72.3988 97.2517C71.1975 96.9469 70.4741 95.9635 69.7824 95.0187C69.5996 94.7689 69.4996 94.5815 69.4194 94.2824C69.2079 94.2836 69.1129 94.2871 68.963 94.4693C68.7723 94.7009 68.7134 95.0706 68.5685 95.336C68.0906 96.211 65.1474 100.773 65.3077 101.447C65.4129 101.89 65.8406 102.555 66.2544 102.761C67.1292 103.195 68.2444 103.318 69.1636 102.987C70.7819 102.404 71.5341 100.963 72.2756 100.64C73.4438 101.425 73.8021 102.642 75.3566 103.045C75.8208 103.165 76.299 103.226 76.7723 103.128C77.9518 102.883 78.8087 102.62 79.6644 101.736C79.9138 101.478 80.7124 100.425 80.9965 100.431C82.2921 102 82.7003 102.822 84.8731 103.025C86.633 103.189 86.5079 102.336 87.7379 101.856C87.6108 102.245 86.9649 102.626 86.6131 102.803C85.6431 103.289 84.6003 103.393 83.5756 103.011C82.0867 102.457 81.5381 101.036 81.0072 100.76C80.9677 100.739 80.7658 100.834 80.7621 100.836C80.4678 100.998 80.1869 101.448 79.9433 101.691C78.9313 102.701 77.3744 103.538 75.9069 103.389C73.7249 103.169 73.5818 101.713 72.3702 100.974L72.3053 101.101L72.2468 101.028C70.8467 102.104 69.4844 103.66 67.5334 103.387C67.0777 103.323 66.5943 103.191 66.2043 102.939C65.8764 102.728 65.3118 101.773 64.9554 101.942C64.1631 103.335 63.451 104.772 62.6858 106.179C63.3435 107.47 64.0371 108.406 65.4875 108.873C65.5671 108.899 65.6472 108.923 65.728 108.945C65.8088 108.967 65.89 108.987 65.9716 109.004C66.0534 109.022 66.1355 109.038 66.218 109.052C66.3007 109.066 66.3835 109.077 66.4667 109.087C66.5498 109.096 66.6331 109.104 66.7166 109.109C66.8001 109.114 66.8836 109.118 66.9673 109.119C67.0509 109.12 67.1345 109.119 67.2181 109.116C67.3017 109.113 67.3852 109.108 67.4686 109.101C67.552 109.093 67.6351 109.084 67.718 109.073C67.8009 109.061 67.8834 109.048 67.9655 109.032C68.0478 109.016 68.1295 108.999 68.2108 108.979C68.2922 108.959 68.373 108.938 68.4531 108.914C68.5334 108.89 68.613 108.864 68.6919 108.837C68.7708 108.809 68.849 108.779 68.9265 108.747C69.0039 108.716 69.0805 108.682 69.1563 108.647C69.232 108.611 69.3068 108.574 69.3807 108.534C70.25 108.069 70.9103 107.303 71.5022 106.528C72.6916 107.889 73.4894 109.04 75.4735 109.167C76.8467 109.255 78.6159 108.781 79.6082 107.78C79.9548 107.43 80.3348 106.559 80.7411 106.362C80.7614 106.4 80.7809 106.438 80.802 106.476C81.4301 107.599 82.6773 108.663 83.9259 108.995C85.2026 109.334 86.638 109.136 87.7574 108.432C88.6412 107.876 89.2752 107.062 89.8984 106.242C90.9442 107.601 91.9092 108.868 93.7491 109.107C95.3242 109.311 96.9201 108.815 98.1584 107.838C98.868 107.278 99.443 106.587 100.03 105.905L100.05 105.968L100.119 105.872C101.132 107.166 101.569 108.808 103.467 109.059C104.652 109.215 106.117 109.022 107.171 108.437C107.46 108.277 107.699 108.049 107.975 107.869C108.279 107.671 108.623 107.525 108.913 107.306C109.253 107.048 111.954 102.437 112.007 102.053L111.915 101.961C111.436 102.074 111.085 102.407 110.644 102.611C109.361 103.203 107.433 103.491 106.181 102.693C105.696 102.384 104.738 101.421 104.595 100.839C104.588 100.813 104.588 100.786 104.585 100.76C104.463 100.758 104.398 100.724 104.304 100.814C104.072 101.035 103.951 101.394 103.752 101.652C103.019 102.603 101.499 103.22 100.346 103.262C99.3823 103.296 98.138 103.076 97.4005 102.411C97.183 102.215 97.0372 101.978 96.9075 101.72C96.677 101.261 95.7905 100.773 95.9306 100.252L96.1764 100.107C96.6349 100.537 96.6058 101.308 97.134 101.789C98.0436 102.619 98.9719 103.141 100.246 103.114C101.491 103.087 102.646 102.515 103.467 101.588C103.725 101.298 104.363 100.131 104.625 100.103C105.238 101.321 105.416 102.258 106.865 102.747C108.196 103.195 109.677 102.873 110.888 102.235C111.458 101.934 112.065 101.549 112.503 101.071C112.676 100.883 115.218 96.563 115.257 96.3543C115.276 96.2554 115.265 96.2357 115.25 96.1496C114.681 96.0769 114.012 96.8602 113.481 97.0775C111.687 97.8121 109.566 97.4688 108.349 95.8971C108.074 95.5416 107.897 95.1729 107.732 94.7584C106.328 96.1845 104.858 97.5885 102.705 97.5883C101.516 97.5883 100.458 97.0929 99.607 96.2851C99.356 96.0464 99.0782 95.7017 98.7826 95.526C98.6052 95.4204 98.529 95.4211 98.3718 95.5638C97.8499 96.0383 97.2838 96.725 96.6366 97.0354C96.1464 97.2705 94.795 97.2497 94.4841 97.5074C93.3372 97.664 87.7986 97.7473 86.8664 97.4388C86.5144 96.6322 86.7896 93.2777 86.7931 92.198C86.7942 91.8991 86.7905 91.6462 86.5721 91.4287L86.2036 91.52C86.0662 91.3011 85.9938 91.2348 85.7546 91.1358L86.7504 90.7914C86.7704 88.7935 86.7733 86.7957 86.7592 84.7978C85.3399 84.7973 83.8812 84.8518 82.469 84.7147Z" fill="black"/>
<path d="M82.469 84.7148C80.2903 84.7346 78.1124 84.703 75.9353 84.62C74.8254 85.8825 73.7395 87.3644 72.8699 88.8044C73.4623 89.85 74.1559 90.8772 75.3842 91.2175C76.3387 91.4819 77.379 91.2162 78.2123 90.7213C79.2774 90.0888 79.8606 89.1429 80.6424 88.2228C81.3119 89.3975 81.9717 90.8271 83.3934 91.2058C84.1658 91.4116 84.9839 91.2759 85.7546 91.1358L86.7505 90.7915C86.7704 88.7936 86.7733 86.7958 86.7592 84.7979C85.3399 84.7974 83.8812 84.8519 82.469 84.7148Z" fill="#FEFEFE"/>
<path d="M88.8232 101.036C88.4183 101.559 87.9799 102.044 87.4533 102.448C86.5538 103.137 85.4513 103.55 84.3089 103.372C82.756 103.13 81.8036 102.051 80.9274 100.856C80.5361 101.312 80.1474 101.767 79.6878 102.157C78.6309 103.053 77.3805 103.62 75.9652 103.483C74.2637 103.319 73.2874 102.292 72.2795 101.041C71.9104 101.462 71.5228 101.875 71.0912 102.234C70.083 103.07 68.8207 103.694 67.4764 103.535C66.3874 103.407 65.7224 102.831 65.0918 101.993C64.3884 103.403 63.5981 104.767 62.899 106.179C63.1081 106.677 63.3521 107.137 63.7156 107.542C64.5257 108.445 65.6521 108.909 66.855 108.952C68.3583 109.007 69.4994 108.392 70.5715 107.405L71.5276 106.23C72.2617 106.986 72.7068 107.926 73.6592 108.469C74.7799 109.107 76.101 109.185 77.3303 108.835C78.931 108.379 79.8899 107.323 80.6842 105.932C81.3279 106.922 81.961 107.833 83.0145 108.431C84.0933 109.043 85.4229 109.156 86.6048 108.794C88.1064 108.334 89.1064 107.2 89.7983 105.851C90.4096 106.467 90.8306 107.247 91.4704 107.846C92.3471 108.666 93.4511 109.08 94.6516 109.019C97.1775 108.891 98.6166 107.23 100.165 105.462C100.854 106.643 101.304 107.844 102.562 108.565C103.508 109.107 104.612 109.096 105.638 108.813C106.714 108.517 108.166 107.835 108.929 107.01C109.857 106.007 111.081 103.434 111.801 102.148L111.478 102.327C110.057 103.102 108.429 103.639 106.813 103.127C105.629 102.752 105.012 101.951 104.466 100.895C103.963 101.638 103.423 102.277 102.651 102.75C102.583 102.792 102.515 102.831 102.445 102.87C102.375 102.908 102.305 102.944 102.233 102.979C102.162 103.013 102.09 103.046 102.017 103.077C101.944 103.108 101.87 103.137 101.795 103.164C101.721 103.192 101.645 103.217 101.57 103.241C101.494 103.264 101.417 103.286 101.341 103.306C101.264 103.325 101.186 103.343 101.108 103.359C101.031 103.375 100.953 103.389 100.874 103.401C100.796 103.413 100.717 103.423 100.638 103.431C100.559 103.439 100.48 103.445 100.4 103.449C100.321 103.453 100.242 103.455 100.162 103.456C100.083 103.456 100.004 103.454 99.9243 103.45C99.845 103.446 99.7658 103.44 99.6868 103.433C99.6079 103.425 99.5291 103.415 99.4506 103.403C99.372 103.392 99.2939 103.378 99.2161 103.362C99.1381 103.347 99.0607 103.329 98.9838 103.31C97.5833 102.96 96.8038 102.083 96.1048 100.889C95.6769 101.537 95.1626 102.124 94.5327 102.584C93.6836 103.202 92.7164 103.502 91.6708 103.303C90.2931 103.04 89.5485 102.137 88.8232 101.036Z" fill="#FEFEFE"/>
<path d="M80.6083 89.1061C79.4639 90.4405 78.3471 91.6744 76.4608 91.8026C75.4306 91.8728 74.4921 91.528 73.7368 90.8281C73.282 90.4069 72.9343 89.8941 72.6127 89.3683C71.554 90.7328 70.4535 92.0999 69.6894 93.6581C70.1015 94.9068 70.6773 96.0463 71.924 96.6478C72.887 97.1124 74.065 97.1243 75.0618 96.7571C76.3576 96.2797 77.1282 95.2601 77.8205 94.1281C78.715 95.3913 79.5999 96.8603 81.2794 97.1163C82.1673 97.2516 83.159 96.9469 83.8576 96.3981C84.2883 96.0598 85.1277 95.0618 85.6012 94.956C85.706 95.138 85.7092 95.0625 85.6615 95.2432C85.4628 95.9993 84.0578 96.8909 83.3871 97.2414C82.5005 97.7047 81.542 97.7752 80.5963 97.4498C79.3455 97.0195 78.6115 96.1383 77.8858 95.0914C77.0569 96.2674 75.8097 97.1891 74.3749 97.4382C73.1944 97.6433 71.9921 97.4177 71.0154 96.7089C70.1806 96.1031 69.6969 95.292 69.2881 94.3684C67.9642 96.6701 66.5407 98.9618 65.3844 101.353C65.8358 102.135 66.3017 102.753 67.2306 102.995C68.1782 103.242 69.1764 102.879 69.9787 102.378C70.5415 102.027 71.9793 100.513 72.2574 100.416C72.8345 100.568 73.2493 101.376 73.6464 101.799C74.9818 103.222 76.7912 103.373 78.4478 102.408C79.4544 101.823 80.1773 100.935 80.9351 100.073C81.8847 101.289 82.8796 102.671 84.5347 102.903C85.5244 103.042 86.4219 102.644 87.1861 102.042C87.8539 101.516 88.3816 100.874 88.9156 100.218C89.6348 101.375 90.3486 102.548 91.7955 102.855C92.5995 103.026 93.3793 102.81 94.0482 102.35C95.0502 101.661 95.6788 100.701 96.2607 99.6559C96.7552 100.937 97.2278 102.023 98.5644 102.627C99.5373 103.066 100.73 103.045 101.714 102.65C102.203 102.454 102.714 102.149 103.096 101.779C103.3 101.581 104.428 99.8804 104.564 99.8758C104.627 99.8737 104.684 99.9181 104.744 99.9391C104.866 100.141 104.917 100.307 104.977 100.536C105.182 101.307 105.646 101.901 106.335 102.307C107.336 102.896 108.526 102.908 109.621 102.603C112.742 101.734 113.551 98.72 115.159 96.2942C113.616 97.2076 112.172 97.9288 110.315 97.4355C109.004 97.0868 108.292 96.2205 107.637 95.1074C106.357 96.4818 104.857 97.6466 102.9 97.703C101.561 97.7416 100.297 97.2609 99.3376 96.3239C99.076 96.0682 98.8422 95.7654 98.6305 95.4685C97.8375 96.5142 96.8255 97.2959 95.486 97.4704C95.1509 97.514 94.8208 97.5247 94.4841 97.5075C93.3372 97.6641 87.7986 97.7474 86.8664 97.4388C86.5145 96.6322 86.7896 93.2777 86.7932 92.198C86.7943 91.8991 86.7905 91.6462 86.5722 91.4288L86.2037 91.52C85.1093 91.8622 83.7702 92.0418 82.7113 91.5028C81.7197 90.9981 81.1625 90.0219 80.6083 89.1061Z" fill="#FEFEFE"/>
<path d="M192.064 98.0769C190.261 100.634 188.693 103.42 187.106 106.116L179.039 119.97C177.103 123.213 175.198 126.475 173.325 129.754C172.706 130.819 171.392 132.706 171.057 133.808C170.964 134.117 170.974 134.509 170.971 134.832L170.995 155.827L170.986 162.442C170.985 163.344 170.874 164.401 170.996 165.284C171.013 165.41 171.022 165.423 171.056 165.528C171.252 165.578 171.393 165.589 171.593 165.573C172.886 165.326 174.698 165.498 176.049 165.497L186.203 165.506C187.317 163.531 188.1 161.393 189.185 159.403C190.057 161.483 190.972 163.516 191.971 165.538C194.683 165.407 197.448 165.523 200.167 165.523C203.333 165.523 206.538 165.422 209.699 165.55C209.746 158.104 209.755 150.659 209.726 143.213L209.714 138.287C209.717 137.046 209.895 135.465 209.582 134.267C209.248 132.99 207.34 130.217 206.601 128.898L197.034 112.066C195.802 109.942 194.584 107.809 193.38 105.669C192.962 104.931 192.469 104.206 192.085 103.456C191.973 103.24 191.874 103.025 191.871 102.778L191.994 102.705C192.296 102.858 192.48 103.068 192.671 103.347C193.956 105.218 195.264 107.929 196.458 109.983L204.962 124.792C206.667 127.809 208.286 130.928 210.119 133.865C210.912 133.865 211.706 133.874 212.499 133.86C207.312 124.98 202.209 116.052 197.189 107.076C195.483 104.085 193.852 101.017 192.064 98.0769Z" fill="#FEFEFE"/>
<path d="M191.605 121.379C191.368 121.354 191.126 121.351 190.888 121.352C189.401 121.355 187.887 122.129 186.864 123.183C185.377 124.714 185.058 126.432 185.103 128.496C186.759 128.517 188.415 128.526 190.071 128.524L196.762 128.519C196.822 126.796 196.495 124.994 195.438 123.589C194.478 122.312 193.175 121.606 191.605 121.379Z" fill="black"/>
<path d="M195.045 124.016C193.871 125.269 192.723 126.604 191.651 127.945L192.606 127.929C193.797 127.927 194.988 127.933 196.179 127.882C196.109 126.436 195.834 125.239 195.045 124.016Z" fill="#FDBE50"/>
<path d="M186.876 124.094C186.83 124.127 186.779 124.155 186.737 124.194C185.827 125.062 185.671 126.754 185.643 127.925C186.797 127.941 187.953 127.928 189.107 127.929L190.311 127.921C189.253 126.591 187.976 125.401 186.876 124.094Z" fill="#FDBE50"/>
<path d="M190.516 121.938C189.214 122.11 188.151 122.757 187.189 123.619C187.732 124.287 188.332 124.917 188.909 125.556L190.573 127.381C190.587 125.868 190.787 123.32 190.516 121.938Z" fill="#FDBE50"/>
<path d="M191.723 122.009L191.311 122.002C191.045 122.327 191.205 126.682 191.208 127.47L192.619 125.865C193.318 125.097 194.089 124.312 194.669 123.451C193.748 122.662 192.9 122.282 191.723 122.009Z" fill="#FDBE50"/>
<path d="M204.562 139.922L195.016 139.909L195.008 152.34C195.002 154.457 194.855 156.682 195.009 158.788C195.019 158.938 195.049 159.016 195.136 159.137C196.585 159.281 198.111 159.19 199.569 159.191C201.166 159.193 202.803 159.278 204.395 159.176C204.555 158.954 204.563 158.754 204.584 158.49C204.673 157.366 204.628 156.206 204.629 155.079C204.638 153.029 204.628 150.979 204.6 148.93C204.569 145.932 204.677 142.917 204.562 139.922Z" fill="black"/>
<path d="M204.005 140.47L200.13 140.473L200.112 148.913C201.406 148.937 202.703 148.918 203.997 148.916L204.005 140.47Z" fill="#FEFEFE"/>
<path d="M199.528 140.487C198.218 140.464 196.907 140.468 195.596 140.499C195.587 143.293 195.527 146.099 195.605 148.892C196.905 148.929 198.21 148.906 199.511 148.904L199.528 140.487Z" fill="#FEFEFE"/>
<path d="M204.019 149.535C202.718 149.511 201.412 149.535 200.111 149.536L200.118 158.593L204.024 158.578C204.072 155.566 204.024 152.548 204.019 149.535Z" fill="#FEFEFE"/>
<path d="M199.519 149.529L195.575 149.508L195.569 158.551C196.879 158.581 198.194 158.568 199.505 158.574C199.515 155.559 199.545 152.544 199.519 149.529Z" fill="#FEFEFE"/>
<path d="M186.215 139.937C184.614 139.884 182.998 139.92 181.395 139.92C179.811 139.92 178.214 139.882 176.632 139.97C176.552 141.396 176.599 142.847 176.595 144.276L176.569 151.87L176.555 156.506C176.553 157.378 176.484 158.318 176.609 159.18C179.689 159.19 183.14 159.359 186.163 159.141C186.37 157.429 186.439 140.608 186.215 139.937Z" fill="black"/>
<path d="M185.732 140.487C184.417 140.462 183.101 140.464 181.785 140.493C181.694 143.271 181.782 146.08 181.795 148.861C183.106 148.882 184.416 148.883 185.727 148.864C185.763 146.074 185.745 143.278 185.732 140.487Z" fill="#FEFEFE"/>
<path d="M181.198 140.495C179.842 140.486 178.487 140.471 177.131 140.525C177.127 143.297 177.074 146.079 177.157 148.85C178.5 148.917 179.854 148.882 181.198 148.877C181.223 146.083 181.223 143.289 181.198 140.495Z" fill="#FEFEFE"/>
<path d="M185.732 149.485C184.409 149.447 183.077 149.478 181.752 149.477L181.753 158.564L185.675 158.563C185.812 155.552 185.733 152.5 185.732 149.485Z" fill="#FEFEFE"/>
<path d="M181.195 149.474L177.132 149.473L177.13 158.563L181.202 158.573L181.195 149.474Z" fill="#FEFEFE"/>
<path d="M192.888 49.4157C191.912 49.4123 186.641 49.2116 186.11 49.516C185.995 49.5821 185.997 49.8018 185.971 49.9241C186.946 49.9831 192.399 50.1612 192.867 49.792L192.888 49.4157Z" fill="black"/>
<path d="M175.552 41.4126C174.143 41.3646 172.721 41.3996 171.311 41.395C170.067 41.3909 168.789 41.3306 167.55 41.4408C167.356 41.6041 167.401 41.7049 167.376 41.945C168.391 41.9906 175.01 42.1234 175.471 41.824L175.552 41.4126Z" fill="black"/>
<path d="M80.0018 67.7075C78.9583 67.6856 72.2383 67.5609 71.8357 67.7513C71.7713 67.7817 71.727 67.843 71.6726 67.8888L71.6685 68.2502L71.8513 68.2545C72.8454 68.2712 79.5613 68.372 79.9018 68.1898C79.9591 68.159 79.9949 68.0987 80.0415 68.0532L80.0018 67.7075Z" fill="black"/>
<path d="M97.0513 57.4765C95.9391 57.4622 84.5432 57.357 84.188 57.5722C84.0756 57.6401 84.0691 57.8941 84.0442 58.0197C85.3826 58.0622 96.4978 58.2025 96.9928 57.8951L97.0513 57.4765Z" fill="black"/>
<path d="M52.2931 89.0078C52.1705 89.0425 51.9844 89.052 51.9113 89.165C51.6858 89.5134 51.7882 93.3266 51.9526 93.861C52.2402 94.7954 52.9013 95.6517 53.7793 96.0968C53.8699 96.1438 53.9625 96.1861 54.0573 96.2235C54.152 96.261 54.2485 96.2936 54.3467 96.3213C54.4448 96.349 54.5441 96.3717 54.6445 96.3892C54.7449 96.4068 54.8459 96.4192 54.9475 96.4265C55.0493 96.4338 55.1511 96.4359 55.253 96.4328C55.3549 96.4297 55.4564 96.4215 55.5574 96.4082C55.6585 96.3947 55.7586 96.3761 55.8578 96.3525C55.957 96.3289 56.0548 96.3003 56.151 96.2668C57.2461 95.8866 57.9152 95.0767 58.4156 94.0775C58.5464 93.6804 58.6204 93.5302 58.4442 93.1336C57.7608 93.4248 57.6094 95.1843 55.9712 95.7252C55.2413 95.966 54.5495 95.8363 53.8844 95.4745C51.3312 94.0855 52.9563 91.1112 52.3469 89.1659C52.3304 89.1128 52.3111 89.0605 52.2931 89.0078Z" fill="black"/>
<path d="M152.717 20.2128C159.925 19.3389 168.34 21.1913 174.36 25.1316C180.244 28.9838 183.625 34.3036 185 40.9782C177.813 41.0123 170.627 41.0064 163.44 40.9604C152.314 40.6568 141.133 40.8616 130 40.853C130.633 36.4754 131.876 32.6226 134.761 29.111C139.191 23.7222 145.772 20.951 152.717 20.2128Z" fill="#FEAD44"/>
</g>
<path d="M1.43856 185.664C3.33869 185.576 5.30911 185.638 7.2167 185.637L18.1129 185.634C19.7776 185.634 21.6924 185.774 23.3324 185.636C23.6491 185.61 23.8596 185.499 24.1056 185.371L24.1331 185.216C23.7384 185.081 23.3212 185.061 22.8888 185.048C20.4451 184.976 17.9395 185.065 15.4884 185.066L-9.53674e-06 185.09C0.148766 185.391 0.12335 185.502 0.53051 185.665L1.43856 185.664Z" fill="black"/>
<path d="M12.6113 159.403C11.5267 161.393 10.7439 163.531 9.62971 165.506V165.56C7.52104 170.14 10.1026 167.727 8.81049 167.974C10.1804 167.995 9.62285 165.511 9.62971 165.506L9.57662 165.675L9.38509 165.867C9.28415 165.941 9.36086 166.052 9.23951 166.087C8.94876 167.232 8.29767 168.407 7.81302 169.488C6.87879 171.571 5.95663 173.669 4.95783 175.722C4.90365 175.987 4.88083 176.276 4.64759 176.451C4.16666 177.743 3.51724 178.981 2.92145 180.224C2.15366 181.834 1.40015 183.45 0.660934 185.074L8.84745 185.077C9.91156 185.076 11.6423 185.242 12.6389 184.988L12.7031 184.991C13.9368 185.148 15.2997 185.036 16.5452 185.039L24.2119 185.086C23.4399 183.014 22.467 180.955 21.5503 178.942C21.1765 178.121 20.7425 177.317 20.4266 176.473C20.6281 176.328 20.8549 176.329 21.0963 176.293L20.4639 176.294C20.1804 176.131 20.1981 176.02 20.0945 175.719C19.5986 175.02 19.2799 173.991 18.9174 173.205C17.8361 170.858 16.8261 168.432 15.6307 166.144C15.524 166.062 15.4917 165.975 15.4293 165.858L15.5141 166.25C15.9371 166.789 15.8972 166.662 15.8972 166.662L15.5141 165.867L15.3974 165.538C14.3985 163.516 13.4837 161.483 12.6113 159.403Z" fill="#9498FB"/>
<path d="M12.9841 183.356C12.9898 181.897 13.1817 172.52 12.8739 172.087C12.6752 172 12.6915 171.992 12.4904 172.07C12.2193 173.013 12.3994 175.07 12.4039 176.137C12.4234 178.657 12.4286 181.177 12.4195 183.697L12.3119 183.61C11.4014 182.875 7.38818 178.447 6.57271 178.447L6.49422 178.594C6.70778 179.099 7.30673 179.549 7.69452 179.934C8.58719 180.82 12.3774 184.226 12.639 184.988L12.7032 184.991C12.7091 184.96 12.7147 184.93 12.7212 184.9C13.068 183.293 18.0937 179.495 18.1963 178.685C18.2052 178.615 18.1421 178.555 18.115 178.489L17.9308 178.388C17.3114 178.609 13.6075 182.64 12.9841 183.356Z" fill="black"/>
<defs>
<clipPath id="clip0_10965_3400">
<rect width="190" height="190" fill="white" transform="matrix(-1 0 0 1 214.133 0)"/>
</clipPath>
</defs>
</svg>
