<svg width="423" height="423" viewBox="0 0 423 423" fill="none" xmlns="http://www.w3.org/2000/svg">
<path d="M243.151 215.053C245.115 214.817 247.087 214.905 248.68 216.23C250.41 217.67 250.733 219.684 250.915 221.786C249.375 221.934 247.812 221.899 246.265 221.907C244.634 221.918 240.59 222.354 239.223 221.9C238.675 221.718 238.632 221.534 238.382 221.058C238.367 220.57 238.427 220.228 238.61 219.77C239.499 217.539 240.997 216.017 243.151 215.053Z" fill="#FEE5A3"/>
<path d="M204.695 31.5103C206.507 31.3891 214.322 30.8736 215.516 31.6925C215.22 32.1193 214.948 32.2871 214.42 32.3652C213.481 32.5039 212.36 32.355 211.395 32.3539C209.193 32.3592 206.99 32.3942 204.789 32.459C183.839 33.2407 161.373 38.8683 142.758 48.5512C141.645 49.121 140.54 49.7045 139.442 50.3019C138.344 50.8992 137.254 51.51 136.171 52.1343C135.088 52.7586 134.013 53.3963 132.946 54.0473C131.879 54.6983 130.82 55.3624 129.77 56.0396C128.72 56.7168 127.678 57.4069 126.644 58.11C125.611 58.8131 124.587 59.529 123.571 60.2577C122.555 60.9861 121.549 61.727 120.552 62.4805C119.555 63.2342 118.567 64.0001 117.589 64.7781C116.61 65.556 115.642 66.346 114.683 67.1479C113.725 67.9501 112.776 68.7639 111.838 69.5893C110.899 70.4149 109.971 71.2521 109.053 72.1008C108.136 72.9493 107.229 73.8091 106.332 74.6801C105.436 75.5512 104.551 76.4333 103.676 77.3264C102.802 78.2195 101.939 79.1233 101.087 80.0379C100.235 80.9524 99.3944 81.8773 98.5652 82.8126C97.7363 83.7478 96.9189 84.6933 96.1131 85.6492C95.3076 86.6048 94.5141 87.5702 93.7325 88.5454C92.9507 89.5208 92.1812 90.5057 91.4242 91.5002C90.6669 92.4946 89.9221 93.4983 89.1898 94.5112C88.4576 95.5238 87.738 96.5455 87.031 97.5762C86.3241 98.607 85.63 99.6465 84.9487 100.695C84.2676 101.743 83.5997 102.799 82.9448 103.863C82.2896 104.928 81.648 106 81.0198 107.081C80.3914 108.161 79.7764 109.249 79.175 110.345C78.5738 111.441 77.9862 112.544 77.4123 113.654C76.8381 114.764 76.278 115.882 75.7319 117.006C75.1855 118.13 74.6532 119.261 74.1349 120.398C73.6169 121.535 73.1129 122.679 72.623 123.829C72.1331 124.979 71.6576 126.135 71.1966 127.297C70.7353 128.458 70.2887 129.625 69.8566 130.798C69.4245 131.971 69.0069 133.149 68.6037 134.332C68.2008 135.515 67.8126 136.703 67.4392 137.896C66.7741 139.885 66.026 144.204 64.895 145.644L64.698 145.643C64.593 145.262 64.5819 145.322 64.5691 145.002C64.4703 142.486 66.0227 138.971 66.7849 136.538C73.0097 116.656 84.7681 96.123 98.8911 80.7942C99.7294 79.8686 100.579 78.9536 101.44 78.0493C102.301 77.1449 103.174 76.2514 104.057 75.3688C104.94 74.4861 105.835 73.6146 106.74 72.7543C107.645 71.894 108.56 71.0451 109.487 70.2077C110.413 69.3702 111.349 68.5444 112.296 67.7304C113.243 66.916 114.2 66.1138 115.167 65.3237C116.134 64.5334 117.11 63.7553 118.097 62.9894C119.083 62.2233 120.079 61.4696 121.084 60.7286C122.089 59.9875 123.103 59.2591 124.126 58.5433C125.149 57.8276 126.181 57.1247 127.222 56.4345C128.263 55.7444 129.312 55.0674 130.37 54.4034C131.427 53.7394 132.493 53.0888 133.567 52.4516C134.641 51.814 135.722 51.1901 136.812 50.5799C137.901 49.9693 138.998 49.3726 140.102 48.7896C141.206 48.2066 142.318 47.6375 143.436 47.0823C144.555 46.5268 145.68 45.9854 146.812 45.458C147.944 44.9309 149.082 44.4179 150.227 43.9189C151.372 43.4201 152.522 42.9356 153.679 42.4652C154.836 41.9951 155.999 41.5394 157.167 41.0982C158.335 40.657 159.509 40.2304 160.688 39.8184C161.866 39.4065 163.05 39.0093 164.239 38.6269C165.428 38.2445 166.621 37.8769 167.819 37.5242C169.017 37.1715 170.219 36.8338 171.425 36.5111C172.632 36.1884 173.842 35.8808 175.056 35.5883C176.27 35.2958 177.487 35.0184 178.708 34.7562C179.929 34.4941 181.153 34.2471 182.38 34.0155C183.607 33.7838 184.837 33.5675 186.069 33.3665C187.302 33.1655 188.537 32.9799 189.774 32.8097C191.011 32.6395 192.25 32.4848 193.491 32.3454C194.732 32.2061 195.974 32.0823 197.218 31.974C198.462 31.8657 199.708 31.7728 200.954 31.6956C202.2 31.6183 203.447 31.5565 204.695 31.5103Z" fill="black"/>
<path d="M146.277 239.445C146.766 239.435 147.253 239.462 147.737 239.527C148.222 239.591 148.699 239.692 149.169 239.829C151.565 240.543 153.018 242.368 154.112 244.502C155.498 244.985 156.838 245.444 157.932 246.473C159.594 248.035 159.711 250.07 159.784 252.203L147.833 252.161C143.333 252.127 138.81 252.183 134.315 251.955C134.279 250.313 134.168 248.474 135.165 247.063C136.059 245.799 137.56 245.28 139.031 245.078C139.469 244.28 139.897 243.42 140.439 242.688C141.946 240.656 143.835 239.827 146.277 239.445Z" fill="#FEE5A3"/>
<path d="M79.0754 147.268C79.5166 147.339 79.9648 147.41 80.3927 147.541C81.8315 147.979 82.9063 149.315 83.5813 150.599C86.1689 155.527 87.4296 163.274 88.1534 168.812C91.9145 197.602 88.4859 227.314 84.0233 255.844C83.3379 260.318 82.5851 264.78 81.765 269.23C81.3478 271.479 81.0276 273.844 80.3403 276.027L79.8293 275.796L79.6083 275.143C85.8099 241.925 91.9984 199.933 86.8046 166.467C86.0735 161.755 84.6157 154.022 82.0732 150.106C81.5927 149.367 81.0103 148.741 80.1242 148.54C79.3687 148.368 78.5557 148.742 77.9778 149.199C76.0276 150.739 74.8619 153.825 73.8986 156.059C67.1587 171.681 63.6156 192.549 62.15 209.435C60.7497 225.565 61.1553 241.929 62.4896 258.05C62.9787 263.962 63.7986 269.841 64.3125 275.744C64.0225 276.068 63.7974 276.245 63.4116 276.445C62.5664 271.414 62.2364 266.159 61.7563 261.072C58.7706 229.435 59.8516 195.001 69.674 164.602C71.2168 159.827 73.5636 152.19 77.0269 148.616C77.611 148.013 78.338 147.646 79.0754 147.268Z" fill="black"/>
<path d="M251.328 36.1289C253.943 36.6026 256.566 37.5553 259.091 38.3749C261.841 39.2536 264.561 40.2168 267.252 41.2645C269.942 42.3123 272.597 43.4425 275.217 44.655C277.837 45.8678 280.417 47.1608 282.957 48.5339C285.496 49.907 287.991 51.3576 290.441 52.8857C325.057 74.3365 349.169 106.938 358.485 146.662C358.707 147.636 358.92 148.613 359.122 149.591C359.325 150.57 359.518 151.55 359.7 152.533C359.883 153.515 360.055 154.5 360.218 155.486C360.38 156.472 360.532 157.46 360.674 158.449C360.816 159.438 360.948 160.429 361.069 161.421C361.191 162.412 361.302 163.406 361.404 164.4C361.505 165.394 361.596 166.389 361.677 167.385C361.758 168.381 361.828 169.378 361.888 170.376C361.949 171.373 361.999 172.371 362.038 173.37C362.078 174.368 362.108 175.367 362.127 176.366C362.146 177.366 362.155 178.365 362.154 179.364C362.153 180.363 362.142 181.363 362.12 182.362C362.098 183.361 362.066 184.36 362.024 185.358C361.981 186.357 361.929 187.354 361.866 188.352C361.803 189.349 361.73 190.346 361.647 191.342C361.564 192.338 361.47 193.333 361.366 194.327C361.263 195.321 361.148 196.313 361.024 197.305C360.9 198.297 360.766 199.287 360.622 200.276C360.477 201.265 360.323 202.252 360.158 203.237C359.993 204.223 359.818 205.207 359.633 206.189C359.448 207.171 359.253 208.151 359.048 209.129C358.843 210.107 358.628 211.083 358.403 212.057C358.178 213.031 357.942 214.002 357.697 214.971C357.452 215.94 357.197 216.906 356.932 217.869C356.667 218.833 356.393 219.794 356.108 220.751C355.823 221.71 355.528 222.664 355.224 223.616C354.92 224.568 354.606 225.517 354.282 226.462C353.958 227.408 353.625 228.35 353.282 229.288C352.939 230.227 352.586 231.162 352.223 232.093C351.861 233.025 351.489 233.952 351.108 234.876C350.726 235.8 350.335 236.719 349.935 237.635C349.535 238.551 349.125 239.462 348.706 240.369C345.399 247.491 341.353 254.095 337.226 260.756L336.597 260.37C336.5 259.9 336.506 259.947 336.76 259.538C343.742 248.33 349.648 237.018 353.896 224.479C354.387 222.987 354.852 221.488 355.294 219.981C355.735 218.474 356.152 216.96 356.544 215.439C356.935 213.919 357.302 212.392 357.644 210.86C357.987 209.327 358.304 207.789 358.596 206.246C358.888 204.703 359.155 203.156 359.396 201.605C359.638 200.053 359.854 198.498 360.045 196.939C360.236 195.38 360.401 193.819 360.541 192.255C360.681 190.691 360.795 189.125 360.884 187.558C360.973 185.99 361.037 184.421 361.074 182.851C361.112 181.281 361.125 179.711 361.111 178.141C361.098 176.571 361.059 175.001 360.994 173.432C360.929 171.863 360.839 170.296 360.724 168.729C360.608 167.164 360.467 165.6 360.3 164.038C360.134 162.477 359.941 160.919 359.724 159.364C359.506 157.808 359.264 156.257 358.996 154.71C358.728 153.163 358.435 151.62 358.116 150.082C357.837 148.751 357.54 147.425 357.224 146.102C356.909 144.779 356.575 143.461 356.223 142.147C355.871 140.834 355.502 139.525 355.114 138.222C354.726 136.918 354.32 135.621 353.896 134.329C353.473 133.036 353.032 131.75 352.573 130.47C352.114 129.19 351.638 127.916 351.144 126.649C350.65 125.382 350.139 124.123 349.61 122.87C349.081 121.616 348.536 120.371 347.973 119.133C347.41 117.895 346.83 116.665 346.233 115.443C345.637 114.222 345.024 113.008 344.393 111.803C343.763 110.598 343.117 109.402 342.454 108.214C341.791 107.027 341.112 105.849 340.416 104.681C339.721 103.512 339.01 102.353 338.282 101.204C337.555 100.055 336.812 98.9159 336.054 97.7874C335.295 96.6588 334.521 95.5409 333.732 94.4335C332.942 93.3262 332.138 92.23 331.318 91.1449C330.499 90.0596 329.665 88.9859 328.816 87.9237C327.967 86.8615 327.103 85.8112 326.225 84.7727C325.347 83.7342 324.455 82.7079 323.549 81.6939C322.643 80.68 321.723 79.6786 320.789 78.69C319.855 77.7013 318.908 76.7258 317.948 75.7633C316.987 74.8005 316.013 73.8512 315.027 72.9155C314.04 71.9797 313.041 71.0577 312.029 70.1494C311.017 69.2412 309.992 68.347 308.956 67.4668C307.919 66.5867 306.871 65.7209 305.81 64.8694C304.75 64.0181 303.678 63.1816 302.594 62.3599C301.511 61.5381 300.416 60.7313 299.311 59.9396C298.205 59.1478 297.089 58.3715 295.962 57.6106C294.835 56.8497 293.697 56.1044 292.55 55.3746C291.402 54.6448 290.245 53.931 289.078 53.2331C287.911 52.5353 286.734 51.8537 285.548 51.1884C284.362 50.5227 283.168 49.8737 281.964 49.2411C275.716 45.9806 269.198 42.8812 262.521 40.6011C260.988 40.0775 252.35 37.5663 251.623 37.0093C251.338 36.7897 251.384 36.4617 251.328 36.1289Z" fill="black"/>
<path d="M292.262 229.743C293.247 229.738 294.212 229.765 295.187 229.914C298.616 230.437 301.675 232.443 303.7 235.232C306.443 239.009 306.515 242.58 305.776 247.066C308.128 246.126 310.479 245.59 312.997 246.207C315.275 246.765 317.125 248.142 318.345 250.137C319.147 251.448 320.255 253.38 319.892 254.938C319.841 254.956 319.793 254.992 319.739 254.992C319.636 254.994 319.534 254.961 319.431 254.946L319.518 255.61L319.397 255.13C316.076 255.487 312.553 255.28 309.209 255.276L291.174 255.268C281.968 255.365 272.764 255.299 263.561 255.072C263.802 253.978 264.062 252.901 264.477 251.857C264.544 251.683 264.616 251.512 264.692 251.342C264.769 251.172 264.849 251.004 264.933 250.838C265.018 250.673 265.107 250.509 265.2 250.348C265.293 250.187 265.39 250.028 265.492 249.872C265.593 249.715 265.698 249.562 265.807 249.411C265.916 249.26 266.029 249.112 266.145 248.967C266.262 248.822 266.382 248.68 266.506 248.541C266.63 248.402 266.757 248.266 266.888 248.134C267.019 248.001 267.153 247.872 267.29 247.747C267.428 247.621 267.568 247.499 267.711 247.381C267.855 247.262 268.002 247.147 268.151 247.036C268.301 246.925 268.453 246.818 268.608 246.715C268.763 246.612 268.92 246.513 269.08 246.418C269.24 246.322 269.402 246.231 269.567 246.145C269.732 246.058 269.899 245.975 270.067 245.897C270.236 245.819 270.407 245.745 270.58 245.675C274.017 244.251 277.077 244.846 280.354 246.266C279.853 242.226 280.642 238.206 283.146 234.907C285.361 231.989 288.666 230.238 292.262 229.743Z" fill="#FEE5A3"/>
<path d="M34.3743 296.416C33.2627 294.154 32.7918 291.367 32.2339 288.912C31.5678 285.944 30.9702 282.962 30.441 279.966C29.9118 276.97 29.4516 273.964 29.0605 270.948C28.6694 267.931 28.3476 264.906 28.0954 261.875C27.8431 258.843 27.6605 255.808 27.5476 252.768C27.356 247.546 27.2894 242.177 27.6358 236.963C28.2164 228.225 31.2156 206.884 37.1596 200.757C37.9492 199.943 38.9356 199.261 40.1145 199.291C41.2681 199.32 42.2922 200.057 43.0696 200.851C45.1755 202.998 46.3487 206.309 47.4541 209.057C50.1007 215.633 51.4842 222.569 52.6615 229.532C55.1185 244.066 55.9719 258.581 55.9029 273.31C55.8798 278.257 55.646 283.198 55.5531 288.143C54.9661 290.881 55.0664 296.92 56.1719 299.415C57.0802 301.466 58.4298 303.296 59.2845 305.389C60.1416 307.487 60.513 309.556 61.0054 311.748C60.4229 311.092 60.3246 309.276 60.0293 308.379C59.2097 305.888 58.2472 303.581 56.8407 301.361C56.2119 300.368 54.3547 298.303 54.2266 297.212L54.3427 297.068C53.5252 296.457 52.7094 295.843 51.8146 295.348C47.7453 293.097 42.925 292.529 38.5268 294.158C37.4361 294.561 36.3938 295.489 35.2937 295.74C35.2204 295.757 35.1448 295.761 35.0702 295.771L34.3743 296.416Z" fill="#FEFEFE"/>
<path d="M34.3743 296.416C33.2627 294.154 32.7918 291.367 32.2339 288.912C31.5678 285.944 30.9702 282.962 30.441 279.966C29.9118 276.97 29.4516 273.964 29.0605 270.948C28.6694 267.931 28.3476 264.906 28.0954 261.875C27.8431 258.843 27.6605 255.808 27.5476 252.768C27.356 247.546 27.2894 242.177 27.6358 236.963C28.2164 228.225 31.2156 206.884 37.1596 200.757C37.9492 199.943 38.9356 199.261 40.1145 199.291C41.2681 199.32 42.2922 200.057 43.0696 200.851C45.1755 202.998 46.3487 206.309 47.4541 209.057C50.1007 215.633 51.4842 222.569 52.6615 229.532C55.1185 244.066 55.9719 258.581 55.9029 273.31C55.8798 278.257 55.646 283.198 55.5531 288.143C54.9661 290.881 55.0664 296.92 56.1719 299.415C57.0802 301.466 58.4298 303.296 59.2845 305.389C60.1416 307.487 60.513 309.556 61.0054 311.748C60.4229 311.092 60.3246 309.276 60.0293 308.379C59.2097 305.888 58.2472 303.581 56.8407 301.361C56.2119 300.368 54.3547 298.303 54.2266 297.212L54.3427 297.068C54.6806 294.586 54.2386 291.516 54.3733 288.926C55.5403 266.481 55.1049 243.367 50.0627 221.377C49.0176 216.819 45.4002 203.14 41.4722 200.866C40.8169 200.487 40.0129 200.305 39.2789 200.555C37.8046 201.058 36.7538 202.841 36.0547 204.147C33.9814 208.021 32.7845 212.334 31.7464 216.584C26.9164 236.356 27.7801 257.432 31.0307 277.38C32.0324 283.526 33.227 289.817 35.0702 295.771L34.3743 296.416Z" fill="black"/>
<path d="M64.3125 275.744C63.7986 269.841 62.9786 263.962 62.4895 258.05C61.1553 241.929 60.7496 225.565 62.15 209.435C63.6156 192.549 67.1587 171.681 73.8986 156.058C74.8619 153.825 76.0276 150.739 77.9778 149.199C78.5557 148.742 79.3686 148.368 80.1242 148.539C81.0103 148.741 81.5927 149.366 82.0731 150.106C84.6157 154.022 86.0734 161.755 86.8046 166.467C91.9983 199.933 85.8099 241.925 79.6082 275.143C75.8153 273.797 71.4564 273.271 67.5465 274.544C66.5803 274.858 65.2866 275.692 64.3125 275.744Z" fill="#FEFEFE"/>
<path d="M298.487 364.507C298.572 364.544 298.656 364.583 298.742 364.619C299.988 365.145 301.787 365.182 303.158 365.462C308.106 366.47 319.64 368.691 321.735 373.571C322.055 374.317 322.142 375.059 321.801 375.816C320.502 378.701 314.417 380.683 311.656 381.607C301.299 385.072 289.339 386.569 278.508 387.835C255.874 390.481 233.142 391.114 210.369 391.056C189.392 391.003 169.387 390.278 148.523 387.891C141.603 387.099 134.725 386.26 127.866 385.026C120.334 383.671 111.585 382.333 104.709 378.822C103.248 378.076 100.997 376.785 100.582 375.094C100.398 374.345 100.674 373.644 101.13 373.063C105.398 367.617 119.012 366.308 125.582 364.883C127.318 366.743 128.454 369.741 130.723 370.989C132.01 371.696 133.543 371.633 134.916 371.218C137.434 370.457 138.435 368.367 139.557 366.203L172.684 366.171C179.607 366.173 186.577 366.016 193.489 366.391C193.263 366.632 193.037 366.874 192.827 367.129C192.269 367.808 192.031 368.571 192.166 369.442C192.284 370.203 192.638 370.911 193.303 371.332C196.085 373.096 203.78 369.255 206.85 368.554L207.123 368.493C211.891 370.056 217.416 373.472 222.304 374.11C223.579 374.276 224.944 374.149 225.972 373.304C226.911 372.533 227.363 371.251 227.401 370.063C227.454 368.397 226.519 367.191 225.471 366.014C244.444 366.554 263.492 366.13 282.476 366.246C282.669 366.573 282.865 366.899 283.063 367.223C283.477 367.916 283.877 368.561 284.422 369.161C285.601 370.458 287.145 371.598 288.971 371.618C293.07 371.662 295.94 367.164 298.487 364.507Z" fill="#7FBEE0"/>
<path d="M82.2995 276.171C84.1655 260.732 91.8088 235.339 100.221 222.244C101.355 220.478 102.576 218.447 104.234 217.117C105.052 216.461 106.068 215.959 107.143 216.149C108.259 216.346 109.149 217.241 109.751 218.149C111.352 220.564 112.114 223.953 112.734 226.742C116.74 244.775 113.946 268.751 109.875 286.688C106.127 303.2 99.9714 319.736 92.3189 334.826C89.6383 340.108 86.8398 345.326 83.9234 350.481C82.5098 352.983 80.9707 355.414 79.5947 357.935C93.1901 358.028 106.786 358.049 120.382 357.998C116.104 352.118 111.494 346.492 107.239 340.591C105.705 338.464 103.814 336.292 102.837 333.838C102.239 332.336 102.134 330.955 102.389 329.358C102.736 327.186 103.64 325.19 105.47 323.9C109.779 320.863 114.446 318.21 118.888 315.362C122.219 313.225 126.415 309.981 129.982 308.48C131.344 307.907 133.044 307.718 134.497 307.996C138.96 308.851 143.377 315.441 146.679 318.566L146.729 307.59C146.74 301.977 146.059 295.87 150.365 291.525C150.556 291.336 150.754 291.153 150.958 290.978C151.162 290.802 151.372 290.634 151.588 290.473C151.804 290.312 152.025 290.159 152.252 290.014C152.479 289.869 152.71 289.731 152.947 289.602C153.183 289.473 153.423 289.353 153.668 289.241C153.913 289.129 154.161 289.025 154.413 288.93C154.665 288.836 154.921 288.75 155.179 288.673C155.437 288.596 155.697 288.529 155.96 288.47C158.711 287.829 161.741 288.075 164.557 288.077L180.962 288.083C184.017 288.094 187.413 288.393 190.428 287.894C192.295 287.585 194.179 286.228 195.958 285.557C199.276 284.305 203.149 283.189 206.644 282.572L206.783 279.521C204.355 277.355 204.426 275.926 202.854 273.449C201.871 271.9 199.831 271.389 199.579 269.246C199.466 268.287 200.07 266.656 200.735 265.991C200.949 265.776 201.178 265.58 201.424 265.403C200.571 263.762 199.713 262.008 200.322 260.116C200.626 259.175 201.322 258.437 202.197 257.992C202.964 257.602 203.866 257.482 204.713 257.394C206.193 254.82 207.646 251.83 210.779 251.021C212.118 250.675 213.652 250.9 214.818 251.646C216.096 252.462 217.089 253.111 218.527 253.61C219.934 254.098 221.381 254.712 222.035 256.152C223.257 258.847 221.369 261.712 221.662 264.497C221.875 266.536 224.703 268.02 223.594 270.449C223.038 271.67 221.792 272.492 220.605 272.987C220.518 273.023 220.431 273.062 220.343 273.1C219.744 275.712 218.582 277.409 216.963 279.481C216.978 280.52 216.974 281.563 217.016 282.601C219.455 283.135 221.837 283.727 224.199 284.552C226.567 285.379 231.436 288.075 233.579 288.096C240.604 288.128 247.629 288.123 254.655 288.081C258.324 288.073 263.257 287.577 266.79 288.455C268.972 288.998 270.896 290.206 272.447 291.816C273.875 293.298 275.006 295.14 275.489 297.152C276.191 300.077 275.918 303.459 275.923 306.46C275.929 310.865 275.878 315.279 275.962 319.683C278.997 317.351 281.768 314.783 284.584 312.197C286.331 310.593 288.304 308.385 290.362 307.236C290.52 307.148 290.681 307.066 290.846 306.991C291.011 306.916 291.178 306.847 291.349 306.786C291.519 306.724 291.691 306.67 291.866 306.622C292.041 306.575 292.217 306.534 292.395 306.501C292.573 306.468 292.752 306.442 292.932 306.424C293.112 306.405 293.293 306.394 293.474 306.39C293.655 306.386 293.836 306.389 294.016 306.4C294.197 306.411 294.377 306.429 294.556 306.454C295.526 306.587 296.487 306.895 297.305 307.439C299.192 308.695 300.857 310.599 302.484 312.173C305.834 315.414 309.157 318.785 312.712 321.798C312.939 308.432 312.693 295.023 312.704 281.653C312.709 275.774 312.324 269.563 312.9 263.722L356.732 263.665C366.531 263.537 376.329 263.564 386.126 263.746C386.528 271.399 386.235 279.208 386.237 286.881L386.209 331.56C386.205 340.178 386.016 348.876 386.345 357.486C387.984 357.494 393.938 357.136 395.058 358.042C394.45 358.602 393.221 358.57 392.411 358.592C389.256 358.678 386.079 358.529 382.921 358.542L348.659 358.508L321.722 358.653C316.562 358.676 311.409 358.826 306.251 358.615C305.486 358.583 304.72 358.547 303.955 358.506C302.049 360.431 300.275 362.473 298.487 364.507C295.94 367.164 293.07 371.662 288.971 371.618C287.145 371.598 285.601 370.458 284.422 369.161C283.877 368.561 283.477 367.916 283.063 367.223C282.865 366.899 282.669 366.573 282.476 366.246C263.492 366.13 244.444 366.554 225.471 366.014C226.519 367.191 227.454 368.397 227.401 370.063C227.363 371.251 226.911 372.533 225.972 373.304C224.944 374.149 223.579 374.276 222.304 374.11C217.416 373.472 211.891 370.056 207.123 368.493L206.85 368.554C203.78 369.255 196.085 373.096 193.303 371.332C192.638 370.911 192.285 370.203 192.166 369.442C192.031 368.57 192.269 367.808 192.827 367.129C193.037 366.874 193.264 366.632 193.489 366.391C186.577 366.016 179.607 366.173 172.684 366.17L139.557 366.203C138.435 368.367 137.434 370.457 134.916 371.218C133.543 371.633 132.01 371.696 130.723 370.989C128.454 369.741 127.318 366.743 125.582 364.883C124 363.102 122.639 361.096 121.228 359.177C100.849 359.008 80.4697 358.972 60.09 359.069L39.036 359.093C36.3397 359.097 33.5186 359.333 30.8453 359.207C29.9039 359.162 28.8607 358.994 28.1082 358.393C28.2191 358.296 28.3055 358.16 28.4409 358.102C29.0646 357.836 58.398 358.062 61.3222 358.088C60.0181 357.406 58.7375 356.684 57.5834 355.764C54.1758 353.048 52.3818 349.555 51.915 345.263C54.2828 345.017 56.7328 345.136 59.113 345.134C58.8561 339.821 58.7483 331.773 57.7907 326.726C53.9635 327.027 50.0619 327.425 46.2355 326.952C40.4095 326.23 35.1806 323.774 31.5477 319.06C28.7625 315.447 27.7423 311.132 28.3714 306.626C28.4063 306.375 28.4474 306.125 28.4946 305.876C28.5418 305.627 28.5951 305.38 28.6545 305.134C28.7139 304.888 28.7792 304.643 28.8507 304.4C28.9221 304.157 28.9994 303.916 29.0826 303.677C29.1659 303.437 29.255 303.2 29.3499 302.966C29.4448 302.731 29.5454 302.498 29.6517 302.269C29.758 302.039 29.8699 301.812 29.9874 301.587C30.1049 301.363 30.2278 301.142 30.3562 300.923C30.4845 300.705 30.6182 300.49 30.7571 300.278C30.8961 300.067 31.0401 299.858 31.1893 299.654C31.3385 299.449 31.4926 299.248 31.6517 299.051C31.8107 298.854 31.9745 298.661 32.143 298.472C32.3116 298.283 32.4847 298.098 32.6623 297.918C32.8399 297.737 33.0219 297.561 33.2081 297.389C33.3944 297.218 33.5848 297.051 33.7793 296.889C33.9737 296.726 34.1721 296.569 34.3743 296.416L35.0702 295.771C35.1448 295.761 35.2204 295.757 35.2937 295.74C36.3938 295.489 37.4361 294.561 38.5268 294.158C42.925 292.529 47.7453 293.097 51.8146 295.348C52.7094 295.843 53.5252 296.457 54.3427 297.068L54.2266 297.212C54.3547 298.303 56.2119 300.368 56.8407 301.361C58.2472 303.581 59.2097 305.888 60.0293 308.379C60.3246 309.276 60.4229 311.092 61.0054 311.748C60.513 309.556 60.1416 307.487 59.2845 305.389C58.4298 303.296 57.0802 301.466 56.1719 299.415C55.0665 296.92 54.9661 290.881 55.5531 288.143C55.7642 287.802 55.7154 287.927 55.8278 287.603C57.4838 282.84 59.3559 279.506 63.4116 276.444C63.7974 276.245 64.0226 276.068 64.3126 275.744C65.2866 275.692 66.5804 274.858 67.5466 274.544C71.4565 273.271 75.8153 273.797 79.6083 275.143L79.8293 275.796L80.3403 276.027C80.8286 276.214 81.6878 276.72 82.1529 276.564L82.2995 276.171Z" fill="black"/>
<path d="M136.178 329.575C136.985 330.958 139.478 333.81 139.514 335.337L138.887 335.665C138.134 335.295 137.338 334.935 136.662 334.436C135.925 333.892 135.234 333.153 135.117 332.208C134.978 331.094 135.536 330.408 136.178 329.575Z" fill="#B16A40"/>
<path d="M312.6 348.803C312.618 348.873 312.642 348.942 312.656 349.013C312.902 350.267 312.864 354.276 312.047 355.214C311.25 356.129 307.983 355.658 306.777 355.661L306.598 355.432C308.697 353.312 310.526 350.95 312.6 348.803Z" fill="#FEFEFE"/>
<path d="M198.136 366.24C200.521 366.496 202.948 367.169 205.275 367.752L199.304 369.788C197.762 370.247 195.83 370.934 194.244 370.371C193.617 370.149 193.344 369.806 193.06 369.23C193.073 368.84 193.108 368.636 193.314 368.29C194.202 366.798 196.621 366.555 198.136 366.24Z" fill="#FEFEFE"/>
<path d="M127.261 365.168C131.112 365.288 134.98 365.23 138.833 365.307C138.293 366.462 137.734 367.494 136.996 368.535C136.721 368.815 136.45 369.081 136.135 369.318C135.138 370.07 133.907 370.559 132.645 370.339C130.099 369.896 128.569 367.131 127.261 365.168Z" fill="#FEFEFE"/>
<path d="M338.919 355.658C337.985 354.533 336.985 353.39 336.228 352.137C334.593 349.431 333.759 345.103 334.57 342.021C334.912 340.721 335.628 339.359 336.853 338.7C338.092 338.034 339.257 338.07 340.57 338.443L340.341 338.669C338.134 340.808 336.612 341.352 336.573 344.909C336.539 348.126 337.925 351.737 340.245 353.994C340.801 354.535 341.45 354.995 342.072 355.456C341.02 355.493 339.969 355.585 338.919 355.658Z" fill="#FEFEFE"/>
<path d="M361.492 272.141C361.893 272.584 362.357 273.128 362.488 273.726C362.991 276.024 357.103 289.879 355.551 292.451C354.954 292.765 354.209 292.662 353.55 292.657C353.2 292.614 353.401 292.664 352.968 292.438C352.98 291.708 360.701 273.368 361.492 272.141Z" fill="#FEFEFE"/>
<path d="M356.657 273.119C356.941 273.156 357.228 273.192 357.509 273.247C358.189 273.379 358.502 273.614 358.887 274.176C358.868 276.59 352.961 289.634 351.712 292.604L349.095 292.553C351.271 285.996 353.958 279.479 356.657 273.119Z" fill="#FEFEFE"/>
<path d="M337.806 270.568C339.306 272.676 345.962 289.581 346.765 292.554C345.902 292.609 345.027 292.605 344.162 292.629C342.853 290.801 341.984 287.943 341.104 285.86L335.291 272.015L337.806 270.568Z" fill="#FEFEFE"/>
<path d="M335.247 274.848C336.158 275.815 341.904 290.239 342.82 292.602L335.298 292.603L335.247 274.848Z" fill="#FEFEFE"/>
<path d="M369.237 301.336C369.3 301.347 369.371 301.338 369.428 301.369C370.547 301.964 377.408 319.79 378.261 322.129C377.485 322.635 376.64 323.058 375.828 323.506L375.5 323.405C373.689 321.31 368.106 305.844 366.85 302.608C367.628 302.155 368.44 301.754 369.237 301.336Z" fill="#FEFEFE"/>
<path d="M350.524 302.383C351.597 302.662 352.654 303.005 353.713 303.332C352.75 305.908 345.529 323.594 344.872 324.234C343.692 324.242 342.509 324.166 341.33 324.117C344.438 316.888 347.344 309.582 350.524 302.383Z" fill="#FEFEFE"/>
<path d="M330.613 270.183C331.676 270.152 332.736 270.07 333.785 270.277C334.718 271.262 334.386 289.568 334.374 292.603L330.545 292.529C330.41 285.088 330.563 277.625 330.613 270.183Z" fill="#007DC1"/>
<path d="M354.748 303.363C355.39 304.081 355.044 321.608 355.041 324.11L346.448 324.119L346.333 324.009C346.329 323.342 353.78 305.99 354.748 303.363Z" fill="#FEFEFE"/>
<path d="M365.184 301.897C366.051 302.601 373.2 321.34 374.389 324.106C371.347 324.144 368.301 324.106 365.259 324.099C365.053 316.718 365.12 309.28 365.184 301.897Z" fill="#FEFEFE"/>
<path d="M283.329 329.089L283.883 329.408C284.939 331.133 284.79 333.391 285.182 335.325C285.677 335.722 285.874 335.64 286.494 335.652C287.428 334.959 286.217 331.187 286.556 329.768C286.882 329.366 286.782 329.34 287.332 329.25C287.381 329.288 287.436 329.32 287.478 329.365C288.535 330.468 288.031 333.212 288.309 334.615C288.41 335.129 288.667 335.214 289.072 335.467C290.051 335.054 289.517 331.976 290.615 330.959C291.08 330.878 291.535 330.847 291.934 331.178C292.339 331.514 292.464 331.886 292.452 332.395C292.421 333.743 291.658 335.061 290.742 336.003C288.059 338.764 284.898 338.95 281.291 338.959L274.837 338.9C274.481 337.069 273.113 331.875 273.835 330.398C274.094 329.868 274.217 329.872 274.745 329.727C277.859 330.54 277.396 334.127 279.241 335.532C279.475 335.71 279.629 335.607 279.894 335.563C281.003 334.385 279.898 331.1 280.098 329.534C281.774 330.251 281.103 334.237 282.229 335.512C282.74 335.641 282.769 335.68 283.246 335.47C284.153 333.991 282.96 331.067 283.294 329.258C283.305 329.202 283.318 329.145 283.329 329.089Z" fill="#B16A40"/>
<path d="M140.545 328.737C141.939 329 143.144 331.748 144.291 332.751C145.88 332.456 147.488 332.233 149.085 331.98C149.582 334.429 149.885 336.884 150.167 339.364C148.353 339.934 146.558 340.377 144.661 340.551C140.482 340.935 135.022 340.492 131.711 337.636C130.251 336.376 129.36 334.774 129.184 332.856C131.425 333.578 132.174 335.955 134.199 336.966C134.688 336.898 134.716 336.913 135.057 336.564C134.808 335.684 133.553 334.774 132.914 334.073C132.121 333.203 131.296 331.979 131.423 330.738C131.459 330.387 131.572 330.388 131.818 330.18C133.967 330.926 134.34 335.344 137.905 336.506C140.174 337.245 142.219 336.214 144.193 335.2C143.257 333.251 140.97 330.676 140.545 328.737Z" fill="#B16A40"/>
<path d="M59.0886 326.632C60.85 324.851 62.0393 321.996 63.3409 319.844L64.232 320.478C64.3303 323.531 64.2357 326.587 64.3365 329.641C64.5075 334.813 64.9028 339.995 65.3014 345.153L60.2073 345.154C59.9969 341.392 59.7648 337.631 59.5112 333.872C59.3414 331.57 58.8804 328.924 59.0886 326.632Z" fill="#FEFEFE"/>
<path d="M207.744 280.307C207.963 280.45 208.166 280.579 208.407 280.683C211.031 281.815 213.47 281.39 216.004 280.328C215.976 281.261 215.857 282.194 215.762 283.121C217.054 283.833 218.298 284.092 219.734 284.316C219.689 284.815 219.63 285.311 219.529 285.803C219.006 288.339 217.868 289.872 215.711 291.247C213.639 292.088 211.799 292.48 209.598 291.74C207.337 290.981 205.252 289.119 204.244 286.942C203.915 286.23 203.724 285.494 204.067 284.748C204.428 283.965 206.714 283.703 207.552 283.448C207.676 282.409 207.695 281.353 207.744 280.307Z" fill="#B16A40"/>
<path d="M68.4103 314.927C69.0771 318.434 71.3775 321.496 71.7435 324.967C70.413 331.252 70.8385 338.739 70.8447 345.172L66.3362 345.193C65.5943 337.87 64.7041 327.574 65.5774 320.344C66.1929 319.85 66.563 319.522 66.8047 318.752C66.8233 318.694 66.8386 318.634 66.8555 318.575C67.5743 317.474 67.9617 316.157 68.4103 314.927Z" fill="#FEFEFE"/>
<path d="M323.023 268.762L329.384 268.773C329.457 276.707 329.368 284.648 329.327 292.583C327.211 292.586 325.094 292.577 322.978 292.557L323.023 268.762Z" fill="#007DC1"/>
<path d="M365.537 269.685L372.319 269.752L372.482 292.615L365.423 292.595C365.415 284.958 365.453 277.322 365.537 269.685Z" fill="#007DC1"/>
<path d="M233.609 317.83C234.58 319.514 235.288 321.349 236.282 323.031C239.727 328.863 244.959 332.91 251.085 335.593L246.747 338.05C245.759 338.307 244.741 338.318 243.752 338.547C240.445 339.313 237.485 340.788 234.578 342.5C233.727 334.288 233.525 326.079 233.609 317.83Z" fill="#FEFEFE"/>
<path d="M189.516 317.8C190.555 321.055 189.24 338.387 188.766 342.824C184.892 340.659 181.256 339.12 176.997 337.871C175.008 337.358 173.103 336.627 171.198 335.87C179.573 332.156 186.079 326.451 189.516 317.8Z" fill="#FEFEFE"/>
<path d="M356.017 300.728L364.071 300.731C364.378 308.448 364.098 316.227 364.244 323.955C362.588 324.516 357.998 324.1 356.097 324.075C356.141 316.293 356.115 308.511 356.017 300.728Z" fill="#007DC1"/>
<path d="M251.177 359.486C256.25 359.243 282.974 358.9 285.838 360.218C286.512 360.529 287.169 361.089 287.371 361.832C287.552 362.493 287.326 363.019 286.951 363.547C284.524 365.074 274.458 364.364 271.088 364.336C263.897 364.283 256.707 364.277 249.517 364.317C244.42 364.343 239.269 364.488 234.178 364.228C237.714 363.747 241.266 362.79 244.642 361.637C246.742 360.92 248.985 359.812 251.177 359.486Z" fill="#FEFEFE"/>
<path d="M244.433 339.199C241.485 341.446 237.952 343.005 234.736 344.829C231.267 346.796 227.92 349.006 224.548 351.136C223.658 351.697 222.566 352.583 221.568 352.892C219.424 353.557 216.25 353.284 213.988 353.317C210.935 353.362 205.734 353.643 202.853 352.995C200.533 352.473 196.622 349.486 194.353 348.191C189.095 345.188 183.803 342.189 178.459 339.345C180.252 339.758 182.115 340.521 183.763 341.336C185.637 342.262 187.714 343.955 189.772 344.182C199.281 348.351 223.294 348.52 232.907 344.563C233.235 344.428 233.457 344.311 233.687 344.033C235.672 343.766 238.133 341.827 239.964 340.927C241.414 340.215 242.895 339.686 244.433 339.199Z" fill="#FEE5A3"/>
<path d="M206.07 357.184C207.648 357.041 209.248 356.938 210.83 357.103C212.307 357.258 213.93 357.63 214.876 358.878C216.281 360.734 215.272 362.713 215.059 364.741C217.308 366.554 220.59 365.256 223.185 365.976C224.407 366.315 225.366 367.139 225.962 368.257C226.429 369.134 226.264 370.384 225.932 371.277C225.654 372.024 225.118 372.628 224.359 372.902C221.908 373.788 217.66 371.47 215.353 370.501C212.204 369.144 208.894 367.558 205.597 366.625C202.476 365.741 199.248 365.318 196.158 364.283C194.579 363.754 192.951 363.08 192.213 361.473C191.864 360.711 191.698 359.643 192.104 358.866C192.432 358.242 192.9 357.857 193.569 357.659C195.5 357.088 197.112 357.942 198.789 358.778C201.19 358.137 203.607 357.534 206.07 357.184Z" fill="#FEFEFE"/>
<path d="M210.295 258.961C211.833 258.961 213.734 260.105 215.29 260.458C216.246 260.674 217.32 260.618 218.298 260.619C218.514 268.755 221.162 265.412 222.481 267.714C222.788 268.25 222.891 269.565 222.631 270.13C222.236 270.989 221.588 271.105 220.792 271.405C219.174 272.015 218.702 274.451 218.016 275.945C217.143 277.843 215.689 278.713 213.793 279.403C213.472 279.456 213.15 279.5 212.827 279.535C208.38 279.991 206.369 278.059 204.547 274.262C204.248 273.64 203.902 272.654 203.434 272.151C203.006 271.689 202.022 271.489 201.51 270.987C200.973 270.461 200.682 269.474 200.667 268.728C200.655 268.133 200.87 267.641 201.311 267.242C202.125 266.505 202.929 266.644 203.95 266.689C204.654 264.927 205.008 262.992 205.597 261.178C207.649 260.917 208.695 260.192 210.295 258.961Z" fill="#B26539"/>
<path d="M206.942 265.005C207.181 264.998 207.421 264.998 207.662 265.006C208.232 265.029 208.862 265.206 209.205 265.705C209.503 266.14 209.456 266.408 209.393 266.888L209.065 267.028L208.671 266.802C207.519 265.979 207.171 266.843 206.002 266.58C205.987 266.243 206.06 266.21 206.226 265.93L206.418 266.664L206.1 266.102C206.344 265.711 206.651 265.364 206.942 265.005Z" fill="black"/>
<path d="M214.942 265.005C215.181 264.998 215.421 264.998 215.662 265.006C216.232 265.029 216.862 265.206 217.205 265.705C217.503 266.14 217.456 266.408 217.393 266.888L217.065 267.028L216.671 266.802C215.519 265.979 215.171 266.843 214.002 266.58C213.987 266.243 214.06 266.21 214.226 265.93L214.418 266.664L214.1 266.102C214.344 265.711 214.651 265.364 214.942 265.005Z" fill="black"/>
<path d="M154.61 339.607L155.221 339.502C155.303 339.56 155.424 339.587 155.467 339.679C155.511 339.771 155.686 344.909 156.655 347.141C159.045 352.653 165.898 356.066 171.138 358.182C163.56 357.989 155.981 357.923 148.401 357.984C145.286 357.965 140.739 358.529 137.837 357.726C137.705 357.689 137.573 357.648 137.443 357.604C137.312 357.559 137.183 357.512 137.055 357.461C136.927 357.411 136.8 357.357 136.674 357.3C136.549 357.243 136.425 357.182 136.303 357.119C136.181 357.055 136.06 356.989 135.941 356.919C135.823 356.85 135.705 356.777 135.59 356.701C135.475 356.626 135.362 356.548 135.251 356.466C135.139 356.385 135.03 356.301 134.923 356.214C134.816 356.128 134.711 356.038 134.609 355.946C134.507 355.854 134.407 355.759 134.309 355.662C134.211 355.565 134.116 355.465 134.024 355.363C133.931 355.261 133.841 355.156 133.754 355.05C133.667 354.943 133.582 354.835 133.5 354.724C133.419 354.613 133.34 354.5 133.264 354.385C133.188 354.27 133.115 354.153 133.045 354.035C132.974 353.916 132.907 353.796 132.843 353.674C132.776 353.545 132.712 353.415 132.651 353.283C132.59 353.151 132.533 353.017 132.479 352.882C132.424 352.748 132.374 352.612 132.326 352.474C132.279 352.337 132.235 352.198 132.194 352.059C132.153 351.919 132.116 351.779 132.083 351.638C132.049 351.496 132.019 351.354 131.993 351.211C131.966 351.068 131.943 350.925 131.924 350.781C131.904 350.637 131.888 350.493 131.876 350.348C131.864 350.203 131.855 350.058 131.85 349.913C131.845 349.767 131.844 349.622 131.846 349.477C131.848 349.332 131.854 349.186 131.863 349.041C131.873 348.896 131.886 348.752 131.902 348.607C131.919 348.463 131.939 348.319 131.963 348.176C131.987 348.032 132.014 347.89 132.045 347.748C132.076 347.606 132.11 347.464 132.148 347.324C132.186 347.184 132.227 347.045 132.272 346.906C133.15 344.187 135.011 342.596 137.449 341.31C139.509 341.451 141.633 341.763 143.696 341.668C147.282 341.503 151.078 340.306 154.61 339.607Z" fill="#FEFEFE"/>
<path d="M267.914 339.499C273.889 340.379 280.268 340.25 286.287 339.996C286.619 340.279 286.944 340.569 287.263 340.866C289.361 342.833 290.202 345.814 290.261 348.619C290.318 351.382 289.412 353.942 287.436 355.909C284.261 359.071 280.056 358.368 275.973 358.305C268.355 358.226 260.736 358.261 253.119 358.407C256.678 356.739 260.243 354.813 263.005 351.965C266.568 348.293 267.99 344.585 267.914 339.499Z" fill="#FEFEFE"/>
<path d="M233.683 289.185C234.155 289.153 234.627 289.131 235.099 289.116C241.351 288.946 247.645 289.118 253.903 289.122C257.732 289.124 262.384 288.546 266.104 289.387C266.351 289.444 266.596 289.509 266.839 289.583C267.081 289.657 267.321 289.739 267.558 289.829C267.795 289.919 268.029 290.017 268.259 290.123C268.489 290.229 268.715 290.343 268.938 290.465C269.16 290.586 269.379 290.715 269.592 290.851C269.806 290.988 270.015 291.132 270.219 291.282C270.423 291.433 270.621 291.59 270.815 291.755C271.008 291.919 271.195 292.089 271.376 292.267C271.556 292.442 271.73 292.624 271.898 292.811C272.066 292.999 272.227 293.192 272.382 293.391C272.536 293.59 272.684 293.793 272.825 294.002C272.966 294.21 273.099 294.424 273.225 294.641C273.351 294.859 273.47 295.081 273.581 295.307C273.692 295.533 273.796 295.762 273.891 295.995C273.987 296.228 274.074 296.463 274.154 296.702C274.233 296.941 274.304 297.182 274.367 297.426C275.247 300.823 274.883 304.676 274.883 308.16L274.888 320.308C273.426 321.234 271.866 321.947 270.304 322.683C267.557 323.945 265.387 325.73 263.164 327.746C251.353 323.101 246.34 312.326 241.594 301.402C239.5 296.584 237.969 292.49 233.683 289.185Z" fill="#FEFEFE"/>
<path d="M157.57 289.219C161.133 288.856 164.92 289.079 168.51 289.076L189.213 289.12C184.251 293.285 183.283 297.288 180.595 302.87C177.869 308.533 175.013 314.498 170.977 319.359C167.857 322.858 164.034 325.922 159.622 327.625C155.441 326.142 150.98 322.54 147.826 319.491L147.747 306.424C147.744 303.729 147.548 300.826 148.049 298.171C148.126 297.765 148.225 297.363 148.345 296.967C148.465 296.571 148.605 296.183 148.766 295.802C148.927 295.421 149.108 295.049 149.309 294.687C149.509 294.325 149.729 293.975 149.966 293.636C151.824 291.006 154.488 289.731 157.57 289.219Z" fill="#FEFEFE"/>
<path d="M313.938 264.853C323.005 264.43 332.231 264.732 341.316 264.733L385.191 264.777L385.207 292.606L373.48 292.593L373.317 268.767C370.399 268.604 367.469 268.649 364.547 268.648C364.448 276.634 364.392 284.62 364.38 292.607C361.905 292.626 359.431 292.615 356.957 292.576L358.039 289.729C359.04 287.19 360.064 284.655 361.118 282.137C361.953 280.141 362.934 278.253 363.371 276.111C363.704 274.48 363.613 272.554 362.663 271.138C362.162 270.884 362.177 270.905 361.629 271.049C360.883 271.639 360.54 272.362 360.096 273.181C358.826 272.602 357.557 271.88 356.149 272.337C354.512 274.278 349.351 288.739 347.857 292.538C347.107 289.652 339.531 270.554 338.03 269.176C337.006 269.792 336 270.343 334.91 270.835L334.21 269.074C333.341 269.096 332.093 269.262 331.282 268.928C330.691 268.684 330.677 268.5 330.477 267.943C328.962 267.15 323.946 267.625 321.907 267.6C321.639 270.462 321.81 273.472 321.808 276.352L321.803 292.521L313.774 292.509C313.766 283.313 313.532 274.038 313.938 264.853Z" fill="#FEFEFE"/>
<path d="M313.752 296.063C322.292 295.832 330.9 296.083 339.446 296.134L385.201 296.322C385.312 305.566 385.173 314.828 385.184 324.075L376.557 324.079L379.611 322.841C378.117 318.242 376.1 313.656 374.253 309.184C372.908 306.031 371.525 302.888 370.315 299.681C368.881 300.239 367.618 300.989 366.299 301.771C365.864 301.054 365.314 300.401 364.801 299.739C361.599 299.61 358.362 299.697 355.156 299.694L354.852 302.475C353.485 302.092 351.33 301.205 349.926 301.444C348.508 303.639 347.548 306.55 346.523 308.973L340.223 324.1C331.439 324.095 322.508 323.751 313.743 324.201C313.789 314.834 313.466 305.421 313.752 296.063Z" fill="#FEFEFE"/>
<path d="M292.342 307.583C292.768 307.542 293.189 307.507 293.618 307.501C294.67 307.487 295.521 307.628 296.424 308.191C298.69 309.603 300.684 311.951 302.61 313.807L312.684 323.478L312.634 347.137L300.365 360.738C297.784 363.594 295.134 367.455 291.893 369.524C290.697 370.287 289.36 370.629 287.956 370.272C285.819 369.729 284.628 367.828 283.538 366.08C284.372 365.935 285.297 365.865 286.093 365.582C287.052 365.241 288.03 364.238 288.393 363.294C288.683 362.538 288.694 361.784 288.321 361.055C287.685 359.813 286.529 359.368 285.275 358.964C287.01 357.722 288.412 356.515 289.737 354.837C289.989 354.407 290.213 353.963 290.409 353.505C290.605 353.047 290.772 352.578 290.909 352.099C291.046 351.62 291.153 351.135 291.229 350.642C291.305 350.15 291.351 349.655 291.365 349.156C291.504 345.322 290.009 342.352 287.469 339.585C287.969 339.351 288.462 339.106 288.931 338.815C290.851 337.626 293.184 335.434 293.652 333.164C293.819 332.349 293.681 331.615 293.21 330.93C291.587 328.564 290.834 330.656 289.278 330.377C288.714 329.291 288.165 328.336 287.116 327.663C286.813 327.636 286.635 327.541 286.376 327.741C285.624 328.321 285.586 329.392 285.554 330.262C285.552 330.322 285.553 330.382 285.552 330.441L285.421 330.391L285.363 330.17L285.275 329.856C285.242 329.736 285.218 329.614 285.18 329.496C284.968 328.84 284.463 328.175 283.781 327.954C283.251 327.781 283 327.923 282.533 328.134C282.12 328.599 282.024 328.952 281.891 329.54C281.875 329.61 281.861 329.681 281.845 329.752C281.736 329.313 281.571 328.893 281.225 328.578C280.889 328.272 280.316 328.083 279.865 328.198C279.518 328.286 279.237 328.465 279.035 328.756C278.183 329.983 278.851 332.082 279.15 333.429C278.702 332.426 278.215 331.383 277.563 330.494C276.979 329.7 276.144 328.769 275.083 328.715C274.03 328.661 273.243 329.464 272.488 330.085C269.704 330.041 266.831 329.166 264.238 328.212C268.299 324.538 272.925 323.243 277.166 320.091C281.606 316.791 287.861 309.519 292.342 307.583Z" fill="#FEFEFE"/>
<path d="M131.904 309.035C133.663 308.874 135.313 309.071 136.817 310.047C139.262 311.633 141.047 314.385 143.054 316.473C147.599 321.205 152.556 325.1 158.294 328.288C156.094 329.075 153.857 329.741 151.585 330.287C149.313 330.833 147.018 331.255 144.7 331.554C143.851 330.473 142.947 329.171 141.819 328.372C141.362 328.049 140.917 327.904 140.355 328.029C139.829 328.146 139.605 328.373 139.314 328.797C139.197 330.969 141.66 332.345 142.088 334.306C142.169 334.678 142.082 334.676 141.902 334.982L141.296 335.126C140.491 334.758 138.329 330.473 137.734 329.517C137.413 329.002 137.041 328.741 136.437 328.637C135.886 328.543 135.159 328.685 134.759 329.09C134.286 329.567 134.341 329.872 134.328 330.496L133.883 330.727L134.154 330.813C133.744 330.186 133.291 329.437 132.629 329.043C132.198 328.786 131.722 328.691 131.239 328.888C129.894 329.439 130.452 330.804 129.98 331.857C129.76 331.825 129.428 331.749 129.198 331.767C128.73 331.803 128.461 331.97 128.216 332.384C127.815 333.061 128.071 334.028 128.341 334.704C129.676 338.047 132.382 339.577 135.507 340.939C135.057 341.324 134.616 341.72 134.184 342.125C132.145 344.066 130.895 346.573 130.868 349.424C130.843 352.171 131.815 354.744 133.78 356.697C134.925 357.835 136.216 358.556 137.796 358.872C141.483 359.609 145.946 359.127 149.721 359.122C156.906 359.099 164.091 359.121 171.276 359.187C176.733 359.464 182.599 362.351 187.751 364.251C167.371 364.366 146.991 364.32 126.611 364.113C123.28 360.856 119.838 355.522 116.952 351.681C112.94 346.341 108.598 341.132 104.925 335.552C104.338 334.66 103.797 333.788 103.532 332.741C103.044 330.815 103.377 328.211 104.457 326.516C104.934 325.768 105.643 325.148 106.349 324.622C109.597 322.202 113.34 320.194 116.766 318.015C120.954 315.35 125.07 312.378 129.424 310C130.23 309.559 131.003 309.241 131.904 309.035Z" fill="#FEFEFE"/>
<path d="M313.717 327.739L385.087 327.735C385.36 330.931 385.182 334.268 385.187 337.48L385.206 355.513C375.979 355.575 366.753 355.574 357.526 355.508C352.396 355.648 347.205 355.546 342.072 355.456C341.45 354.995 340.801 354.535 340.245 353.994C337.925 351.737 336.539 348.127 336.573 344.909C336.612 341.352 338.134 340.808 340.341 338.669L340.57 338.443C341.04 338.504 341.397 338.534 341.863 338.441C340.94 337.547 339.659 336.984 338.348 337.017C337.112 337.048 336.014 337.841 335.223 338.732C333.519 340.652 333.008 343.183 333.215 345.685C333.549 349.7 335.123 352.482 337.659 355.509C329.704 355.822 321.596 355.734 313.634 355.577C313.783 346.298 313.578 337.018 313.717 327.739Z" fill="#FEFEFE"/>
<path d="M352.027 338.531C354.046 335.145 356.306 331.602 360.325 330.399C360.369 330.386 360.416 330.379 360.462 330.369L361.013 330.969L361.1 330.885C360.415 333.65 356.696 336.539 354.697 338.489C353.87 338.655 352.849 338.718 352.027 338.531Z" fill="black"/>
<path d="M352.027 338.531C352.849 338.718 353.87 338.655 354.698 338.489C354.776 338.495 354.854 338.502 354.932 338.508C356.453 338.621 363.315 338.094 364.009 338.81C364.863 339.689 364.548 342.161 364.45 343.335C364.007 348.58 361.414 352.159 357.526 355.508C352.396 355.648 347.205 355.546 342.072 355.456C341.45 354.995 340.801 354.535 340.245 353.994C337.925 351.737 336.539 348.127 336.573 344.909C336.612 341.352 338.134 340.808 340.341 338.669L340.57 338.443C341.04 338.504 341.397 338.534 341.863 338.441C344.414 338.908 349.313 338.692 352.027 338.531Z" fill="#FEE5A3"/>
<path d="M64.3125 275.744C65.2866 275.692 66.5804 274.858 67.5466 274.544C71.4564 273.271 75.8153 273.797 79.6083 275.143L79.8293 275.796L80.3403 276.027C80.8285 276.215 81.6878 276.72 82.1529 276.564L82.2995 276.171C82.4813 276.865 82.5375 276.95 83.0547 277.449C86.304 279.85 88.2042 282.784 88.8189 286.805C89.7115 292.643 87.3834 297.182 84.7516 302.196C88.635 302.021 91.9864 302.26 95.0127 305C97.2012 306.98 98.395 309.886 98.4822 312.814C98.6131 317.221 96.8278 321.812 93.804 325.005C90.56 328.43 86.5093 329.811 81.8596 329.898C78.6198 329.958 76.0372 329.267 73.0353 328.143C75.2829 326.612 77.4198 321.408 80.7876 318.982C82.7895 317.54 86.9389 317.001 88.2025 314.975C88.6078 314.325 88.6615 313.535 88.4347 312.813C88.3986 312.701 88.3572 312.592 88.3103 312.484C88.2635 312.377 88.2116 312.272 88.1546 312.17C88.0976 312.067 88.0356 311.968 87.9687 311.872C87.9018 311.776 87.8303 311.683 87.7543 311.594C87.6783 311.504 87.5982 311.419 87.5139 311.338C87.4296 311.257 87.3415 311.18 87.2495 311.107C87.1576 311.034 87.0623 310.966 86.9637 310.903C86.8651 310.84 86.7636 310.782 86.6592 310.728C85.534 310.154 84.2501 310.332 83.1129 310.772C76.9261 313.161 74.7301 319.446 72.3347 325.003L71.7435 324.967C71.3775 321.496 69.0771 318.434 68.4103 314.927C67.9617 316.157 67.5743 317.474 66.8555 318.575C66.5515 316.701 66.6597 314.551 66.8943 312.673C67.0344 308.935 67.977 305.245 69.2155 301.728C69.6335 300.541 70.0842 299.364 70.6303 298.23C71.8534 295.69 75.786 289.515 73.1517 287.014C72.6928 286.578 72.1678 286.373 71.53 286.448C70.2593 286.598 69.1836 287.59 68.4583 288.577C65.0123 293.269 63.7743 302.976 63.8077 308.642C63.8309 312.582 64.3795 316.546 64.232 320.478L63.341 319.844C62.0393 321.996 60.8501 324.851 59.0887 326.632L59.1841 324.526C59.175 320.729 54.0787 311.88 51.2706 309.064C49.5823 307.37 47.3182 305.967 44.8529 306.024C43.7363 306.05 42.6119 306.389 41.8638 307.26C41.3995 307.799 41.1748 308.401 41.2509 309.121C41.3611 310.163 41.8419 310.922 42.6606 311.557C43.9999 312.597 45.6807 313.161 47.1079 314.08C51.4408 316.871 56.3144 321.637 57.7907 326.726C53.9635 327.027 50.0619 327.426 46.2355 326.952C40.4095 326.23 35.1806 323.774 31.5477 319.061C28.7625 315.447 27.7423 311.132 28.3714 306.626C28.4063 306.375 28.4474 306.125 28.4946 305.877C28.5418 305.628 28.5951 305.38 28.6545 305.134C28.7138 304.888 28.7792 304.643 28.8506 304.4C28.922 304.157 28.9994 303.916 29.0826 303.677C29.1659 303.438 29.2549 303.201 29.3498 302.966C29.4447 302.731 29.5453 302.499 29.6516 302.269C29.758 302.039 29.8699 301.812 29.9874 301.587C30.1049 301.363 30.2278 301.142 30.3562 300.923C30.4845 300.705 30.6182 300.49 30.7571 300.278C30.8961 300.067 31.0401 299.858 31.1893 299.654C31.3385 299.449 31.4926 299.248 31.6516 299.051C31.8107 298.854 31.9745 298.661 32.143 298.472C32.3115 298.283 32.4846 298.098 32.6623 297.918C32.8399 297.737 33.0218 297.561 33.2081 297.389C33.3944 297.218 33.5848 297.051 33.7792 296.889C33.9737 296.726 34.1721 296.569 34.3743 296.416L35.0702 295.771C35.1447 295.761 35.2204 295.757 35.2937 295.74C36.3938 295.49 37.4361 294.561 38.5268 294.158C42.925 292.529 47.7453 293.097 51.8146 295.348C52.7094 295.844 53.5252 296.457 54.3427 297.068L54.2266 297.213C54.3547 298.303 56.2119 300.368 56.8406 301.361C58.2472 303.581 59.2097 305.888 60.0292 308.379C60.3246 309.276 60.4229 311.092 61.0054 311.749C60.513 309.556 60.1416 307.487 59.2845 305.389C58.4298 303.296 57.0802 301.466 56.1719 299.415C55.0664 296.92 54.9661 290.882 55.553 288.144C55.7641 287.802 55.7154 287.927 55.8277 287.603C57.4838 282.84 59.3559 279.506 63.4116 276.445C63.7974 276.245 64.0225 276.068 64.3125 275.744Z" fill="#FEE5A3"/>
<path d="M67.1694 318.197C67.7564 313.505 69.241 310.217 73.0406 307.235C76.0334 304.886 80.6471 302.746 84.424 302.272L84.5182 302.517C83.2248 303.35 81.313 303.498 79.8586 304.072C75.2717 305.883 70.2923 310.317 68.4103 314.927C67.9617 316.157 67.5742 317.473 66.8554 318.575C66.5514 316.701 66.6597 314.551 66.8943 312.673C66.936 314.512 66.9166 316.373 67.1694 318.197Z" fill="#03100D"/>
<path d="M83.0547 277.449C85.8079 260.819 91.7291 237.718 100.752 223.425C101.964 221.505 103.272 219.12 105.136 217.779C105.687 217.383 106.325 217.091 107.022 217.188C107.969 217.319 108.607 218.102 109.057 218.877C110.99 222.208 111.815 226.746 112.425 230.52C115.802 251.371 112.21 275.637 106.413 295.753C100.934 314.768 94.0209 329.935 84.5062 347.2C82.5879 350.681 80.6584 355.025 77.9997 357.964C76.0975 357.987 74.1617 357.934 72.2649 358.055C76.3767 355.941 81.2197 351.496 82.8076 347.058C82.9642 346.621 82.9654 346.283 82.8812 345.834C82.5317 345.404 82.3743 345.216 81.8026 345.152C78.6801 344.802 75.2895 345.26 72.1273 345.182C72.0992 342.82 71.7163 329.79 72.8378 328.236L73.0353 328.143C76.0372 329.267 78.6198 329.958 81.8596 329.897C86.5093 329.811 90.56 328.43 93.804 325.004C96.8278 321.812 98.6131 317.221 98.4822 312.813C98.395 309.886 97.2012 306.98 95.0127 304.999C91.9864 302.26 88.635 302.021 84.7516 302.195C87.3834 297.181 89.7115 292.643 88.8189 286.805C88.2042 282.784 86.304 279.85 83.0547 277.449Z" fill="#FEFEFE"/>
<path d="M150.252 331.811C161.311 329.171 169.31 324.878 175.402 314.947C178.172 310.433 180.583 305.538 182.823 300.739C183.863 298.511 184.673 296.065 186.015 294.002C189.24 289.04 196.215 286.194 201.716 284.87C201.989 284.802 202.263 284.739 202.539 284.681C203.482 287.916 204.708 290.568 207.831 292.262C209.951 293.412 212.442 293.591 214.737 292.879C214.871 292.838 215.004 292.794 215.136 292.746C215.267 292.699 215.398 292.648 215.527 292.593C215.656 292.539 215.783 292.482 215.91 292.421C216.036 292.36 216.16 292.297 216.283 292.23C216.406 292.163 216.528 292.093 216.647 292.02C216.767 291.947 216.884 291.871 216.999 291.792C217.115 291.713 217.229 291.631 217.34 291.547C217.452 291.462 217.561 291.375 217.668 291.285C217.775 291.195 217.88 291.102 217.983 291.006C218.085 290.911 218.185 290.813 218.283 290.713C218.38 290.612 218.475 290.509 218.568 290.404C218.66 290.299 218.75 290.192 218.837 290.082C218.924 289.972 219.008 289.86 219.089 289.746C219.17 289.632 219.249 289.516 219.324 289.398C219.4 289.281 219.473 289.161 219.542 289.04C219.611 288.918 219.678 288.795 219.741 288.67C220.381 287.435 220.715 286.036 220.892 284.662C227.202 286.579 234.528 289.254 237.805 295.453C239.165 298.027 240.169 300.848 241.35 303.51C246.636 315.424 251.922 325.434 265.121 329.657C267.522 330.425 269.977 330.872 272.446 331.351C272.789 333.849 273.22 336.332 273.739 338.799C266.227 338.149 255.854 336.82 249.097 333.452C248.65 333.226 248.209 332.99 247.774 332.742C247.339 332.494 246.911 332.235 246.489 331.965C246.068 331.695 245.653 331.414 245.246 331.123C244.839 330.831 244.44 330.529 244.048 330.217C243.657 329.905 243.273 329.583 242.898 329.251C242.523 328.92 242.157 328.578 241.8 328.228C241.443 327.877 241.095 327.517 240.756 327.148C240.417 326.78 240.088 326.403 239.769 326.017C237.717 323.58 235.972 320.665 234.691 317.751C234.133 316.483 233.872 314.866 233.083 313.749C232.734 313.982 232.727 314.08 232.634 314.479C232.225 316.234 232.541 318.443 232.546 320.255C232.571 328.219 232.65 336.116 233.687 344.033C233.457 344.31 233.235 344.428 232.907 344.563C223.294 348.52 199.281 348.35 189.772 344.182C190.099 339.763 190.584 335.339 190.761 330.912C190.928 326.727 190.791 322.521 190.766 318.333C190.759 317.16 191.146 314.783 190.571 313.83C190.312 313.814 190.168 313.732 189.959 313.927C189.278 314.563 189.003 316.175 188.681 317.074C187.994 318.994 186.995 320.898 185.886 322.608C177.583 335.411 164.9 336.778 151.278 339.057C150.969 336.637 150.627 334.222 150.252 331.811Z" fill="#FEFEFE"/>
</svg>
