<svg width="360" height="360" viewBox="0 0 360 360" fill="none" xmlns="http://www.w3.org/2000/svg">
<path d="M206.937 183.024C208.609 182.823 210.287 182.898 211.642 184.025C213.115 185.251 213.39 186.966 213.545 188.754C212.234 188.88 210.904 188.85 209.587 188.857C208.199 188.866 204.758 189.238 203.594 188.851C203.128 188.696 203.091 188.54 202.878 188.135C202.866 187.719 202.916 187.428 203.072 187.038C203.829 185.14 205.104 183.844 206.937 183.024Z" fill="#FEE5A3"/>
<path d="M174.209 26.8173C175.751 26.7142 182.401 26.2754 183.418 26.9723C183.166 27.3356 182.935 27.4784 182.485 27.5448C181.686 27.6628 180.732 27.5362 179.911 27.5352C178.036 27.5397 176.162 27.5696 174.288 27.6246C156.459 28.29 137.339 33.0794 121.496 41.3202C120.549 41.8051 119.609 42.3017 118.674 42.8101C117.74 43.3185 116.812 43.8383 115.89 44.3696C114.969 44.901 114.054 45.4436 113.146 45.9977C112.238 46.5518 111.337 47.117 110.443 47.6933C109.549 48.2696 108.662 48.857 107.782 49.4553C106.903 50.0537 106.031 50.6629 105.167 51.2831C104.302 51.903 103.446 52.5336 102.597 53.1749C101.749 53.8163 100.908 54.4681 100.075 55.1303C99.2429 55.7924 98.4187 56.4647 97.6029 57.1472C96.787 57.8299 95.9797 58.5225 95.181 59.2249C94.3822 59.9276 93.5924 60.6401 92.8114 61.3624C92.0305 62.0845 91.2586 62.8162 90.4957 63.5576C89.733 64.2989 88.9795 65.0496 88.2351 65.8097C87.491 66.5697 86.7564 67.339 86.0312 68.1173C85.3063 68.8957 84.591 69.6828 83.8853 70.4788C83.1798 71.2747 82.4842 72.0794 81.7984 72.8929C81.1128 73.7062 80.4375 74.5278 79.7723 75.3578C79.1069 76.1879 78.4521 77.0262 77.8078 77.8725C77.1633 78.7188 76.5294 79.573 75.9062 80.435C75.283 81.2968 74.6706 82.1663 74.0689 83.0436C73.4673 83.9209 72.8765 84.8055 72.2967 85.6976C71.7171 86.5894 71.1486 87.4882 70.5913 88.394C70.0337 89.3001 69.4876 90.2129 68.953 91.1324C68.4181 92.0521 67.8948 92.9781 67.3829 93.9104C66.8713 94.843 66.3712 95.7818 65.8828 96.7268C65.3941 97.6718 64.9174 98.6226 64.4526 99.5794C63.9876 100.536 63.5346 101.498 63.0935 102.466C62.6526 103.434 62.2237 104.408 61.8068 105.386C61.3898 106.365 60.9852 107.349 60.5928 108.337C60.2003 109.326 59.8201 110.319 59.4524 111.318C59.0846 112.316 58.7292 113.318 58.3861 114.325C58.0432 115.332 57.7128 116.343 57.395 117.358C56.829 119.051 56.1923 122.727 55.2298 123.952L55.0621 123.951C54.9728 123.627 54.9633 123.678 54.9524 123.406C54.8683 121.264 56.1895 118.273 56.8382 116.202C62.1358 99.2816 72.1431 81.8068 84.1626 68.761C84.8761 67.9733 85.5992 67.1946 86.3321 66.4249C87.065 65.6552 87.8073 64.8948 88.5589 64.1436C89.3108 63.3924 90.0719 62.6508 90.8423 61.9186C91.6125 61.1864 92.3918 60.4639 93.1802 59.7512C93.9684 59.0385 94.7654 58.3357 95.5712 57.6429C96.3772 56.9498 97.1917 56.2671 98.0146 55.5947C98.8372 54.922 99.6683 54.2598 100.508 53.608C101.347 52.956 102.195 52.3146 103.05 51.6839C103.905 51.0532 104.768 50.4333 105.639 49.8241C106.51 49.215 107.388 48.6167 108.274 48.0294C109.16 47.4421 110.053 46.8658 110.953 46.3008C111.853 45.7357 112.76 45.182 113.674 44.6396C114.588 44.097 115.508 43.5661 116.435 43.0467C117.363 42.5271 118.296 42.0192 119.236 41.523C120.176 41.0269 121.121 40.5425 122.073 40.07C123.025 39.5973 123.983 39.1365 124.946 38.6877C125.91 38.2391 126.878 37.8024 127.853 37.3778C128.827 36.9533 129.806 36.5409 130.791 36.1406C131.775 35.7405 132.765 35.3527 133.759 34.9772C134.753 34.6017 135.752 34.2386 136.755 33.888C137.758 33.5374 138.766 33.1994 139.778 32.874C140.79 32.5485 141.805 32.2357 142.825 31.9355C143.844 31.6354 144.867 31.348 145.894 31.0733C146.92 30.7986 147.95 30.5368 148.984 30.2879C150.017 30.0389 151.053 29.8029 152.092 29.5798C153.131 29.3567 154.173 29.1465 155.217 28.9493C156.261 28.7522 157.308 28.5681 158.357 28.397C159.406 28.226 160.457 28.068 161.51 27.9231C162.562 27.7783 163.617 27.6466 164.673 27.528C165.729 27.4095 166.786 27.3041 167.845 27.2119C168.904 27.1197 169.964 27.0407 171.025 26.9749C172.085 26.9092 173.147 26.8566 174.209 26.8173Z" fill="black"/>
<path d="M124.491 203.783C124.907 203.775 125.321 203.798 125.734 203.852C126.147 203.907 126.553 203.993 126.952 204.109C128.991 204.717 130.228 206.271 131.159 208.087C132.339 208.498 133.479 208.889 134.41 209.764C135.825 211.094 135.924 212.826 135.986 214.641L125.815 214.605C121.986 214.576 118.136 214.624 114.311 214.43C114.28 213.032 114.186 211.467 115.034 210.267C115.795 209.191 117.072 208.749 118.324 208.577C118.697 207.898 119.061 207.166 119.523 206.543C120.805 204.814 122.413 204.108 124.491 203.783Z" fill="#FEE5A3"/>
<path d="M67.2982 125.334C67.6737 125.395 68.0551 125.455 68.4193 125.567C69.6438 125.94 70.5586 127.076 71.133 128.169C73.3352 132.364 74.4082 138.956 75.0241 143.67C78.2251 168.172 75.3071 193.458 71.5092 217.74C70.9259 221.547 70.2852 225.345 69.5872 229.132C69.2321 231.046 68.9597 233.058 68.3747 234.917L67.9398 234.72L67.7517 234.164C73.0297 205.893 78.2965 170.156 73.8763 141.674C73.254 137.663 72.0134 131.083 69.8495 127.75C69.4406 127.12 68.9449 126.588 68.1908 126.417C67.5478 126.271 66.8559 126.589 66.3641 126.978C64.7044 128.289 63.7123 130.915 62.8924 132.816C57.1563 146.111 54.141 163.872 52.8936 178.242C51.7018 191.97 52.0471 205.897 53.1826 219.617C53.5989 224.649 54.2967 229.652 54.7341 234.676C54.4873 234.952 54.2957 235.102 53.9673 235.272C53.248 230.991 52.9671 226.518 52.5586 222.189C50.0175 195.264 50.9375 165.958 59.297 140.087C60.6101 136.023 62.6073 129.523 65.5548 126.481C66.0519 125.968 66.6707 125.656 67.2982 125.334Z" fill="black"/>
<path d="M213.896 30.748C216.121 31.1512 218.354 31.962 220.503 32.6595C222.843 33.4073 225.158 34.2271 227.448 35.1187C229.738 36.0105 231.998 36.9723 234.227 38.0043C236.457 39.0365 238.653 40.1369 240.814 41.3055C242.976 42.4741 245.099 43.7086 247.184 45.0092C276.645 63.2651 297.165 91.0115 305.093 124.819C305.283 125.648 305.464 126.479 305.636 127.312C305.809 128.145 305.973 128.979 306.128 129.815C306.283 130.651 306.43 131.489 306.568 132.329C306.706 133.168 306.836 134.008 306.957 134.85C307.077 135.692 307.189 136.535 307.293 137.379C307.397 138.223 307.491 139.069 307.577 139.915C307.664 140.761 307.741 141.608 307.81 142.456C307.879 143.303 307.939 144.152 307.99 145.001C308.041 145.849 308.084 146.699 308.118 147.549C308.152 148.399 308.177 149.249 308.193 150.099C308.21 150.949 308.217 151.8 308.216 152.65C308.215 153.501 308.206 154.351 308.187 155.202C308.169 156.052 308.141 156.902 308.105 157.752C308.069 158.601 308.024 159.451 307.971 160.3C307.917 161.148 307.855 161.997 307.785 162.844C307.714 163.692 307.634 164.538 307.546 165.385C307.457 166.23 307.36 167.075 307.255 167.919C307.149 168.763 307.035 169.606 306.912 170.447C306.789 171.289 306.658 172.129 306.517 172.968C306.377 173.807 306.228 174.644 306.071 175.48C305.913 176.316 305.747 177.15 305.573 177.982C305.398 178.815 305.215 179.645 305.024 180.474C304.832 181.303 304.632 182.129 304.423 182.954C304.215 183.778 303.998 184.601 303.772 185.421C303.547 186.241 303.313 187.058 303.07 187.874C302.828 188.689 302.577 189.502 302.318 190.312C302.059 191.122 301.792 191.929 301.516 192.734C301.241 193.539 300.957 194.34 300.665 195.139C300.373 195.938 300.073 196.733 299.765 197.526C299.456 198.319 299.14 199.108 298.815 199.894C298.49 200.681 298.158 201.463 297.817 202.243C297.476 203.022 297.128 203.798 296.771 204.57C293.957 210.631 290.513 216.251 287.001 221.92L286.466 221.591C286.383 221.192 286.388 221.232 286.604 220.884C292.546 211.345 297.573 201.717 301.188 191.046C301.606 189.777 302.002 188.5 302.377 187.218C302.753 185.935 303.108 184.647 303.441 183.353C303.775 182.059 304.087 180.759 304.378 179.455C304.67 178.151 304.939 176.842 305.188 175.529C305.436 174.216 305.663 172.899 305.869 171.578C306.075 170.258 306.259 168.934 306.421 167.608C306.584 166.281 306.724 164.952 306.843 163.621C306.962 162.29 307.06 160.958 307.136 159.623C307.211 158.289 307.265 156.954 307.297 155.618C307.33 154.282 307.34 152.946 307.329 151.609C307.317 150.273 307.284 148.937 307.229 147.602C307.174 146.267 307.097 144.933 306.999 143.6C306.9 142.267 306.78 140.936 306.638 139.607C306.497 138.278 306.333 136.952 306.148 135.629C305.963 134.305 305.756 132.985 305.528 131.668C305.3 130.351 305.051 129.038 304.78 127.73C304.542 126.597 304.289 125.468 304.021 124.342C303.752 123.216 303.468 122.095 303.168 120.977C302.869 119.859 302.555 118.745 302.225 117.636C301.894 116.526 301.549 115.422 301.188 114.322C300.828 113.223 300.453 112.128 300.062 111.038C299.672 109.949 299.266 108.865 298.846 107.787C298.425 106.709 297.99 105.636 297.54 104.57C297.091 103.503 296.626 102.443 296.147 101.39C295.668 100.336 295.175 99.2897 294.667 98.2498C294.159 97.2099 293.637 96.1771 293.101 95.1515C292.565 94.1259 292.014 93.1079 291.45 92.0975C290.886 91.0868 290.308 90.0843 289.716 89.0898C289.124 88.0952 288.519 87.1089 287.9 86.1311C287.281 85.153 286.649 84.1838 286.003 83.2233C285.357 82.2629 284.699 81.3114 284.027 80.369C283.355 79.4266 282.67 78.4936 281.973 77.5702C281.276 76.6465 280.566 75.7327 279.843 74.8287C279.12 73.9247 278.386 73.0308 277.638 72.147C276.891 71.2632 276.132 70.3898 275.361 69.5268C274.59 68.6638 273.807 67.8116 273.012 66.9702C272.217 66.1288 271.411 65.2986 270.594 64.4794C269.776 63.66 268.948 62.8521 268.108 62.0557C267.268 61.2593 266.418 60.4746 265.556 59.7017C264.695 58.9287 263.823 58.1677 262.941 57.4186C262.059 56.6696 261.166 55.9327 260.264 55.208C259.361 54.4836 258.449 53.7716 257.527 53.0723C256.605 52.3729 255.673 51.6863 254.732 51.0125C253.791 50.3386 252.841 49.6779 251.882 49.0304C250.923 48.3828 249.955 47.7484 248.979 47.1273C248.002 46.5062 247.017 45.8988 246.024 45.3048C245.03 44.7109 244.029 44.1309 243.02 43.5646C242.01 42.9981 240.994 42.4457 239.969 41.9073C234.652 39.1325 229.104 36.4947 223.422 34.5541C222.118 34.1086 214.766 31.9714 214.148 31.4973C213.904 31.3104 213.944 31.0313 213.896 30.748Z" fill="black"/>
<path d="M248.734 195.526C249.572 195.522 250.393 195.545 251.223 195.672C254.141 196.117 256.745 197.824 258.468 200.197C260.802 203.412 260.864 206.451 260.235 210.269C262.237 209.469 264.237 209.013 266.38 209.538C268.32 210.013 269.894 211.185 270.932 212.883C271.614 213.999 272.558 215.643 272.248 216.968C272.205 216.984 272.165 217.014 272.119 217.015C272.03 217.016 271.944 216.988 271.856 216.975L271.93 217.541L271.827 217.132C269.001 217.436 266.002 217.26 263.156 217.256L247.808 217.25C239.973 217.332 232.14 217.276 224.307 217.083C224.513 216.151 224.734 215.235 225.087 214.346C225.144 214.199 225.205 214.053 225.27 213.908C225.335 213.763 225.403 213.62 225.475 213.479C225.547 213.339 225.623 213.199 225.702 213.062C225.782 212.925 225.864 212.79 225.95 212.657C226.037 212.524 226.126 212.393 226.219 212.265C226.311 212.136 226.407 212.01 226.507 211.887C226.606 211.763 226.708 211.642 226.814 211.524C226.919 211.406 227.027 211.29 227.139 211.178C227.25 211.065 227.364 210.955 227.481 210.848C227.598 210.741 227.717 210.638 227.84 210.537C227.962 210.436 228.087 210.338 228.214 210.244C228.341 210.149 228.471 210.058 228.602 209.97C228.734 209.883 228.868 209.798 229.004 209.717C229.14 209.636 229.279 209.559 229.419 209.485C229.559 209.411 229.701 209.341 229.845 209.274C229.988 209.207 230.134 209.145 230.28 209.085C233.206 207.873 235.81 208.38 238.599 209.588C238.173 206.15 238.845 202.729 240.976 199.921C242.86 197.438 245.673 195.947 248.734 195.526Z" fill="#FEE5A3"/>
<path d="M29.2547 252.269C28.3087 250.344 27.9079 247.972 27.4331 245.882C26.8662 243.356 26.3576 240.819 25.9072 238.269C25.4568 235.719 25.0652 233.161 24.7323 230.594C24.3995 228.026 24.1257 225.452 23.9109 222.872C23.6962 220.292 23.5408 217.709 23.4447 215.121C23.2817 210.678 23.2251 206.108 23.5199 201.671C24.014 194.234 26.5665 176.071 31.6252 170.857C32.2972 170.164 33.1367 169.584 34.14 169.609C35.1218 169.634 35.9933 170.262 36.655 170.937C38.4472 172.764 39.4457 175.582 40.3865 177.921C42.6389 183.518 43.8163 189.42 44.8183 195.346C46.9094 207.715 47.6357 220.069 47.577 232.605C47.5573 236.815 47.3583 241.02 47.2792 245.229C46.7796 247.559 46.8651 252.698 47.8058 254.822C48.5789 256.567 49.7275 258.124 50.4549 259.906C51.1844 261.691 51.5004 263.452 51.9195 265.318C51.4238 264.759 51.3401 263.214 51.0887 262.451C50.3912 260.33 49.5721 258.367 48.375 256.477C47.8399 255.633 46.2593 253.875 46.1503 252.947L46.2491 252.824C45.5534 252.304 44.859 251.782 44.0976 251.36C40.6343 249.444 36.5319 248.961 32.7887 250.347C31.8605 250.69 30.9735 251.48 30.0372 251.694C29.9748 251.708 29.9104 251.711 29.847 251.72L29.2547 252.269Z" fill="#FEFEFE"/>
<path d="M29.2547 252.269C28.3087 250.344 27.9079 247.972 27.4331 245.882C26.8662 243.356 26.3576 240.819 25.9072 238.269C25.4568 235.719 25.0652 233.161 24.7323 230.594C24.3995 228.026 24.1257 225.452 23.9109 222.872C23.6962 220.292 23.5408 217.709 23.4447 215.121C23.2817 210.678 23.2251 206.108 23.5199 201.671C24.014 194.234 26.5665 176.071 31.6252 170.857C32.2972 170.164 33.1367 169.584 34.14 169.609C35.1218 169.634 35.9933 170.262 36.655 170.937C38.4472 172.764 39.4457 175.582 40.3865 177.921C42.6389 183.518 43.8163 189.42 44.8183 195.346C46.9094 207.715 47.6357 220.069 47.577 232.605C47.5573 236.815 47.3583 241.02 47.2792 245.229C46.7796 247.559 46.8651 252.698 47.8058 254.822C48.5789 256.567 49.7275 258.124 50.4549 259.906C51.1844 261.691 51.5004 263.452 51.9195 265.318C51.4238 264.759 51.3401 263.214 51.0887 262.451C50.3912 260.33 49.5721 258.367 48.375 256.477C47.8399 255.633 46.2593 253.875 46.1503 252.947L46.2491 252.824C46.5367 250.711 46.1605 248.099 46.2751 245.894C47.2683 226.792 46.8978 207.121 42.6066 188.406C41.7171 184.527 38.6385 172.885 35.2955 170.95C34.7378 170.627 34.0536 170.473 33.4288 170.685C32.1741 171.113 31.2798 172.631 30.6848 173.742C28.9204 177.039 27.9017 180.71 27.0182 184.327C22.9076 201.154 23.6426 219.091 26.4091 236.068C27.2616 241.299 28.2783 246.653 29.847 251.72L29.2547 252.269Z" fill="black"/>
<path d="M54.7341 234.676C54.2967 229.652 53.5989 224.649 53.1826 219.617C52.0471 205.897 51.7019 191.97 52.8937 178.242C54.141 163.872 57.1563 146.111 62.8924 132.816C63.7123 130.915 64.7044 128.289 66.3641 126.978C66.856 126.589 67.5478 126.271 68.1908 126.417C68.9449 126.588 69.4406 127.121 69.8495 127.75C72.0134 131.083 73.254 137.664 73.8763 141.674C78.2965 170.156 73.0297 205.893 67.7517 234.164C64.5237 233.019 60.814 232.571 57.4865 233.655C56.6642 233.922 55.5631 234.632 54.7341 234.676Z" fill="#FEFEFE"/>
<path d="M254.032 310.218C254.104 310.25 254.175 310.284 254.248 310.314C255.309 310.762 256.84 310.793 258.007 311.031C262.218 311.889 272.034 313.78 273.817 317.933C274.089 318.568 274.163 319.199 273.873 319.844C272.768 322.299 267.589 323.986 265.239 324.772C256.424 327.721 246.246 328.995 237.028 330.072C217.765 332.324 198.419 332.863 179.037 332.814C161.185 332.768 144.159 332.152 126.403 330.12C120.513 329.446 114.66 328.732 108.822 327.681C102.412 326.528 94.9658 325.39 89.1137 322.401C87.8709 321.766 85.9553 320.668 85.6019 319.228C85.4451 318.591 85.68 317.994 86.0678 317.5C89.7008 312.865 101.287 311.752 106.878 310.539C108.356 312.122 109.323 314.673 111.254 315.735C112.349 316.337 113.653 316.283 114.822 315.93C116.965 315.283 117.817 313.504 118.772 311.662L146.965 311.634C152.857 311.636 158.789 311.503 164.672 311.822C164.48 312.027 164.287 312.233 164.108 312.45C163.633 313.028 163.431 313.677 163.546 314.419C163.646 315.067 163.947 315.669 164.513 316.027C166.881 317.529 173.43 314.259 176.042 313.663L176.275 313.611C180.333 314.942 185.035 317.849 189.195 318.391C190.28 318.532 191.442 318.425 192.317 317.705C193.116 317.049 193.5 315.958 193.533 314.947C193.578 313.529 192.782 312.503 191.89 311.501C208.038 311.961 224.248 311.6 240.405 311.699C240.569 311.977 240.736 312.254 240.904 312.53C241.257 313.12 241.597 313.668 242.062 314.18C243.065 315.283 244.379 316.254 245.932 316.27C249.422 316.308 251.864 312.48 254.032 310.218Z" fill="#7FBEE0"/>
<path d="M70.0422 235.039C71.6302 221.9 78.1351 200.288 85.2944 189.144C86.2597 187.641 87.299 185.913 88.7094 184.781C89.4062 184.222 90.2704 183.795 91.1858 183.956C92.1354 184.125 92.8927 184.886 93.4049 185.659C94.7676 187.714 95.4162 190.599 95.9435 192.972C99.3533 208.319 96.9757 228.724 93.5107 243.99C90.321 258.043 85.082 272.116 78.5693 284.958C76.2879 289.453 73.9062 293.895 71.4242 298.282C70.2211 300.411 68.9112 302.48 67.7401 304.626C79.3108 304.704 90.8816 304.722 102.453 304.68C98.8116 299.675 94.8888 294.887 91.267 289.865C89.9613 288.054 88.3522 286.206 87.5208 284.117C87.0117 282.839 86.9224 281.664 87.1397 280.305C87.435 278.456 88.2039 276.757 89.7617 275.659C93.4288 273.075 97.4011 270.817 101.181 268.393C104.016 266.575 107.587 263.814 110.623 262.536C111.782 262.049 113.229 261.888 114.465 262.124C118.264 262.852 122.023 268.46 124.834 271.12L124.875 261.779C124.885 257.001 124.305 251.805 127.97 248.106C128.133 247.945 128.301 247.79 128.475 247.641C128.649 247.491 128.827 247.348 129.011 247.211C129.195 247.074 129.383 246.944 129.576 246.82C129.769 246.697 129.966 246.58 130.167 246.47C130.369 246.36 130.573 246.258 130.781 246.162C130.99 246.067 131.201 245.979 131.415 245.898C131.63 245.818 131.847 245.745 132.067 245.679C132.287 245.614 132.508 245.556 132.732 245.507C135.073 244.961 137.652 245.171 140.048 245.172L154.01 245.177C156.611 245.186 159.5 245.441 162.066 245.017C163.656 244.754 165.259 243.598 166.772 243.027C169.597 241.962 172.893 241.012 175.867 240.487L175.986 237.89C173.919 236.047 173.98 234.831 172.642 232.723C171.805 231.404 170.069 230.969 169.855 229.146C169.759 228.33 170.273 226.941 170.838 226.375C171.02 226.193 171.216 226.026 171.424 225.875C170.698 224.478 169.968 222.986 170.487 221.375C170.745 220.575 171.338 219.946 172.082 219.568C172.735 219.235 173.503 219.133 174.223 219.059C175.483 216.868 176.72 214.324 179.387 213.635C180.526 213.341 181.831 213.532 182.823 214.167C183.911 214.862 184.756 215.414 185.98 215.838C187.178 216.253 188.409 216.776 188.966 218.002C190.006 220.295 188.4 222.734 188.648 225.104C188.83 226.839 191.237 228.102 190.293 230.169C189.819 231.208 188.759 231.909 187.749 232.329C187.675 232.36 187.6 232.393 187.526 232.425C187.017 234.649 186.027 236.093 184.649 237.856C184.662 238.74 184.659 239.628 184.694 240.512C186.77 240.966 188.798 241.47 190.808 242.172C192.823 242.876 196.967 245.171 198.791 245.188C204.77 245.215 210.748 245.211 216.727 245.175C219.85 245.168 224.048 244.747 227.056 245.494C228.912 245.956 230.549 246.984 231.87 248.354C233.085 249.616 234.047 251.183 234.458 252.895C235.056 255.384 234.824 258.263 234.828 260.817C234.834 264.566 234.79 268.322 234.861 272.07C237.444 270.086 239.803 267.9 242.199 265.7C243.686 264.335 245.365 262.455 247.116 261.477C247.251 261.402 247.388 261.333 247.529 261.269C247.669 261.205 247.811 261.147 247.956 261.095C248.101 261.042 248.248 260.996 248.396 260.955C248.545 260.915 248.695 260.88 248.847 260.852C248.998 260.824 249.151 260.802 249.304 260.786C249.457 260.77 249.611 260.761 249.765 260.757C249.919 260.754 250.073 260.757 250.227 260.766C250.38 260.775 250.534 260.791 250.686 260.812C251.512 260.925 252.329 261.187 253.025 261.65C254.632 262.719 256.049 264.339 257.433 265.679C260.285 268.437 263.112 271.307 266.138 273.871C266.331 262.495 266.122 251.084 266.131 239.704C266.135 234.702 265.808 229.415 266.298 224.445L303.602 224.396C311.941 224.287 320.28 224.31 328.618 224.465C328.96 230.978 328.71 237.624 328.713 244.154L328.689 282.179C328.685 289.513 328.524 296.916 328.804 304.244C330.199 304.251 335.266 303.946 336.219 304.717C335.702 305.193 334.657 305.166 333.967 305.185C331.282 305.258 328.578 305.131 325.89 305.143L296.731 305.113L273.806 305.236C269.415 305.256 265.029 305.384 260.639 305.204C259.988 305.177 259.336 305.146 258.685 305.112C257.063 306.75 255.554 308.487 254.032 310.218C251.864 312.48 249.422 316.309 245.932 316.271C244.379 316.254 243.065 315.283 242.062 314.18C241.597 313.669 241.257 313.12 240.904 312.531C240.736 312.255 240.569 311.977 240.405 311.699C224.248 311.6 208.038 311.961 191.89 311.501C192.782 312.503 193.578 313.529 193.533 314.948C193.5 315.958 193.116 317.049 192.317 317.706C191.442 318.425 190.28 318.532 189.195 318.391C185.035 317.849 180.333 314.942 176.275 313.611L176.042 313.663C173.43 314.26 166.881 317.529 164.513 316.028C163.947 315.669 163.646 315.067 163.546 314.419C163.431 313.677 163.633 313.028 164.108 312.45C164.287 312.233 164.48 312.027 164.672 311.822C158.789 311.503 152.857 311.637 146.965 311.634L118.772 311.662C117.817 313.504 116.965 315.283 114.822 315.93C113.653 316.283 112.349 316.337 111.254 315.735C109.323 314.673 108.356 312.122 106.879 310.539C105.532 309.023 104.374 307.316 103.173 305.683C85.829 305.539 68.4849 305.509 51.1404 305.591L33.2221 305.611C30.9274 305.614 28.5265 305.815 26.2513 305.708C25.4501 305.67 24.5623 305.527 23.9219 305.015C24.0163 304.933 24.0898 304.817 24.205 304.768C24.7358 304.541 49.7004 304.734 52.1891 304.756C51.0792 304.175 49.9894 303.561 49.0071 302.778C46.1071 300.466 44.5802 297.494 44.183 293.841C46.1981 293.631 48.2833 293.733 50.309 293.731C50.0903 289.21 49.9985 282.36 49.1836 278.064C45.9264 278.321 42.6059 278.66 39.3494 278.257C34.3911 277.643 29.9409 275.552 26.8491 271.541C24.4787 268.465 23.6105 264.793 24.1459 260.958C24.1756 260.745 24.2105 260.532 24.2507 260.32C24.2909 260.109 24.3362 259.898 24.3868 259.688C24.4373 259.479 24.493 259.271 24.5537 259.064C24.6145 258.857 24.6803 258.652 24.7511 258.448C24.822 258.245 24.8978 258.043 24.9786 257.843C25.0594 257.643 25.145 257.446 25.2355 257.25C25.3259 257.054 25.4212 256.861 25.5212 256.67C25.6212 256.479 25.7258 256.291 25.835 256.105C25.9443 255.919 26.058 255.736 26.1763 255.556C26.2945 255.376 26.4171 255.199 26.5441 255.024C26.671 254.85 26.8022 254.679 26.9376 254.512C27.0729 254.344 27.2123 254.179 27.3558 254.019C27.4992 253.858 27.6465 253.7 27.7977 253.547C27.9488 253.393 28.1037 253.243 28.2622 253.097C28.4208 252.951 28.5828 252.809 28.7483 252.671C28.9138 252.533 29.0826 252.399 29.2547 252.269L29.847 251.72C29.9104 251.711 29.9748 251.708 30.0372 251.694C30.9734 251.48 31.8605 250.69 32.7887 250.347C36.5319 248.961 40.6343 249.444 44.0976 251.36C44.859 251.782 45.5534 252.304 46.2491 252.824L46.1503 252.947C46.2593 253.875 47.8399 255.633 48.375 256.477C49.5721 258.367 50.3912 260.33 51.0887 262.451C51.3401 263.214 51.4238 264.759 51.9195 265.318C51.5004 263.452 51.1844 261.691 50.4549 259.906C49.7275 258.124 48.5789 256.567 47.8058 254.822C46.8651 252.698 46.7796 247.559 47.2792 245.229C47.4588 244.938 47.4174 245.044 47.513 244.769C48.9224 240.715 50.5157 237.878 53.9673 235.272C54.2957 235.102 54.4873 234.952 54.7341 234.676C55.5631 234.632 56.6642 233.922 57.4865 233.654C60.814 232.571 64.5237 233.019 67.7517 234.164L67.9398 234.72L68.3747 234.917C68.7903 235.076 69.5215 235.506 69.9174 235.374L70.0422 235.039Z" fill="black"/>
<path d="M115.896 280.49C116.583 281.667 118.705 284.093 118.736 285.393L118.202 285.672C117.561 285.357 116.884 285.051 116.308 284.626C115.681 284.163 115.093 283.534 114.993 282.73C114.875 281.782 115.35 281.198 115.896 280.49Z" fill="#B16A40"/>
<path d="M266.042 296.854C266.058 296.914 266.079 296.972 266.09 297.033C266.299 298.1 266.267 301.512 265.572 302.31C264.894 303.088 262.113 302.687 261.086 302.69L260.934 302.495C262.721 300.691 264.277 298.681 266.042 296.854Z" fill="#FEFEFE"/>
<path d="M168.627 311.694C170.656 311.911 172.722 312.485 174.702 312.981L169.621 314.714C168.308 315.103 166.664 315.689 165.314 315.21C164.781 315.02 164.549 314.728 164.306 314.239C164.318 313.906 164.347 313.733 164.522 313.438C165.278 312.169 167.337 311.961 168.627 311.694Z" fill="#FEFEFE"/>
<path d="M108.308 310.781C111.585 310.884 114.876 310.834 118.156 310.9C117.696 311.882 117.221 312.761 116.592 313.646C116.358 313.885 116.127 314.112 115.86 314.313C115.011 314.954 113.964 315.369 112.89 315.182C110.723 314.805 109.42 312.452 108.308 310.781Z" fill="#FEFEFE"/>
<path d="M288.442 302.688C287.647 301.73 286.796 300.758 286.151 299.692C284.76 297.388 284.05 293.705 284.741 291.081C285.032 289.975 285.641 288.816 286.684 288.255C287.738 287.689 288.729 287.719 289.847 288.037L289.652 288.229C287.774 290.049 286.478 290.512 286.445 293.54C286.416 296.278 287.596 299.351 289.57 301.271C290.043 301.732 290.596 302.124 291.125 302.516C290.23 302.547 289.335 302.626 288.442 302.688Z" fill="#FEFEFE"/>
<path d="M307.653 231.609C307.994 231.986 308.389 232.449 308.5 232.958C308.929 234.914 303.917 246.706 302.597 248.894C302.088 249.161 301.455 249.074 300.894 249.069C300.595 249.034 300.767 249.076 300.399 248.883C300.408 248.262 306.98 232.653 307.653 231.609Z" fill="#FEFEFE"/>
<path d="M303.538 232.442C303.78 232.474 304.024 232.504 304.263 232.551C304.842 232.663 305.108 232.863 305.436 233.341C305.42 235.396 300.393 246.497 299.33 249.024L297.102 248.981C298.954 243.401 301.241 237.854 303.538 232.442Z" fill="#FEFEFE"/>
<path d="M287.495 230.271C288.771 232.065 294.435 246.452 295.119 248.983C294.384 249.029 293.64 249.026 292.904 249.046C291.789 247.491 291.05 245.058 290.301 243.285L285.354 231.502L287.495 230.271Z" fill="#FEFEFE"/>
<path d="M285.317 233.913C286.092 234.736 290.982 247.012 291.761 249.023L285.36 249.024L285.317 233.913Z" fill="#FEFEFE"/>
<path d="M314.244 256.456C314.298 256.465 314.358 256.458 314.407 256.484C315.359 256.991 321.198 272.161 321.924 274.152C321.264 274.583 320.545 274.943 319.854 275.324L319.574 275.238C318.033 273.455 313.282 260.292 312.213 257.539C312.875 257.153 313.566 256.812 314.244 256.456Z" fill="#FEFEFE"/>
<path d="M298.318 257.347C299.231 257.585 300.131 257.877 301.032 258.155C300.213 260.347 294.068 275.399 293.508 275.944C292.504 275.951 291.497 275.886 290.493 275.844C293.138 269.692 295.612 263.474 298.318 257.347Z" fill="#FEFEFE"/>
<path d="M281.373 229.943C282.277 229.917 283.18 229.847 284.072 230.023C284.867 230.861 284.584 246.441 284.574 249.024L281.315 248.961C281.2 242.628 281.33 236.276 281.373 229.943Z" fill="#007DC1"/>
<path d="M301.913 258.181C302.46 258.792 302.165 273.709 302.162 275.839L294.849 275.846L294.751 275.753C294.748 275.185 301.09 260.417 301.913 258.181Z" fill="#FEFEFE"/>
<path d="M310.795 256.934C311.533 257.533 317.617 273.481 318.629 275.835C316.04 275.867 313.448 275.835 310.859 275.829C310.683 269.547 310.74 263.217 310.795 256.934Z" fill="#FEFEFE"/>
<path d="M241.131 280.076L241.603 280.347C242.501 281.815 242.374 283.737 242.708 285.383C243.129 285.721 243.297 285.651 243.825 285.661C244.619 285.072 243.588 281.861 243.878 280.654C244.155 280.312 244.07 280.289 244.538 280.212C244.579 280.245 244.626 280.273 244.662 280.311C245.561 281.249 245.133 283.585 245.369 284.779C245.456 285.216 245.674 285.288 246.019 285.504C246.852 285.153 246.397 282.533 247.332 281.667C247.727 281.598 248.115 281.572 248.454 281.853C248.799 282.139 248.905 282.456 248.895 282.89C248.869 284.037 248.22 285.158 247.44 285.96C245.156 288.31 242.466 288.468 239.397 288.475L233.904 288.426C233.601 286.867 232.437 282.447 233.051 281.189C233.272 280.738 233.376 280.742 233.826 280.619C236.475 281.31 236.082 284.363 237.652 285.559C237.851 285.711 237.982 285.623 238.208 285.585C239.152 284.583 238.211 281.787 238.381 280.454C239.807 281.065 239.237 284.457 240.194 285.542C240.63 285.652 240.655 285.685 241.061 285.507C241.832 284.248 240.817 281.759 241.102 280.22C241.111 280.172 241.122 280.123 241.131 280.076Z" fill="#B16A40"/>
<path d="M119.613 279.776C120.799 280 121.825 282.339 122.8 283.192C124.153 282.942 125.522 282.751 126.881 282.536C127.304 284.62 127.562 286.71 127.802 288.821C126.258 289.305 124.73 289.682 123.116 289.831C119.559 290.157 114.912 289.78 112.094 287.35C110.852 286.277 110.094 284.914 109.943 283.282C111.851 283.896 112.488 285.919 114.212 286.78C114.628 286.722 114.652 286.735 114.942 286.438C114.73 285.689 113.662 284.914 113.118 284.318C112.443 283.577 111.741 282.536 111.85 281.479C111.88 281.181 111.977 281.182 112.186 281.005C114.015 281.64 114.332 285.399 117.366 286.388C119.297 287.017 121.037 286.14 122.717 285.277C121.921 283.618 119.975 281.427 119.613 279.776Z" fill="#B16A40"/>
<path d="M50.2882 277.985C51.7873 276.469 52.7994 274.039 53.9072 272.208L54.6655 272.747C54.7492 275.346 54.6687 277.947 54.7544 280.545C54.9 284.947 55.2364 289.357 55.5757 293.747L51.2402 293.748C51.0612 290.546 50.8637 287.346 50.6478 284.146C50.5034 282.188 50.111 279.935 50.2882 277.985Z" fill="#FEFEFE"/>
<path d="M176.804 238.559C176.99 238.681 177.163 238.791 177.368 238.879C179.601 239.843 181.676 239.48 183.833 238.577C183.809 239.371 183.708 240.165 183.627 240.954C184.726 241.56 185.786 241.78 187.008 241.971C186.969 242.396 186.919 242.818 186.833 243.236C186.388 245.395 185.42 246.699 183.584 247.87C181.82 248.585 180.254 248.919 178.381 248.29C176.457 247.643 174.683 246.058 173.825 244.205C173.545 243.6 173.382 242.973 173.674 242.338C173.981 241.672 175.927 241.449 176.64 241.232C176.746 240.348 176.761 239.449 176.804 238.559Z" fill="#B16A40"/>
<path d="M58.2216 268.023C58.789 271.007 60.7468 273.613 61.0583 276.568C59.9259 281.917 60.288 288.289 60.2933 293.764L56.4564 293.781C55.825 287.549 55.0673 278.787 55.8105 272.634C56.3344 272.213 56.6494 271.934 56.855 271.278C56.8709 271.229 56.8839 271.178 56.8983 271.128C57.51 270.19 57.8398 269.07 58.2216 268.023Z" fill="#FEFEFE"/>
<path d="M274.913 228.734L280.326 228.743C280.389 235.495 280.313 242.254 280.278 249.006C278.477 249.009 276.676 249.002 274.875 248.985L274.913 228.734Z" fill="#007DC1"/>
<path d="M311.095 229.519L316.867 229.576L317.006 249.034L310.998 249.017C310.992 242.517 311.024 236.018 311.095 229.519Z" fill="#007DC1"/>
<path d="M198.816 270.494C199.642 271.927 200.245 273.488 201.091 274.92C204.023 279.884 208.476 283.328 213.69 285.611L209.997 287.703C209.156 287.92 208.291 287.93 207.449 288.125C204.634 288.777 202.115 290.032 199.641 291.49C198.916 284.501 198.744 277.514 198.816 270.494Z" fill="#FEFEFE"/>
<path d="M161.291 270.468C162.175 273.238 161.056 287.989 160.652 291.765C157.355 289.923 154.26 288.612 150.636 287.549C148.943 287.113 147.322 286.491 145.701 285.847C152.828 282.686 158.365 277.83 161.291 270.468Z" fill="#FEFEFE"/>
<path d="M302.993 255.939L309.847 255.941C310.109 262.509 309.87 269.129 309.995 275.707C308.585 276.184 304.679 275.83 303.061 275.809C303.099 269.185 303.076 262.562 302.993 255.939Z" fill="#007DC1"/>
<path d="M213.767 305.945C218.085 305.738 240.829 305.447 243.266 306.569C243.84 306.833 244.399 307.31 244.571 307.942C244.725 308.505 244.532 308.952 244.213 309.402C242.148 310.701 233.581 310.097 230.713 310.073C224.594 310.028 218.474 310.023 212.355 310.057C208.017 310.079 203.633 310.203 199.301 309.981C202.309 309.572 205.333 308.757 208.206 307.776C209.993 307.166 211.902 306.223 213.767 305.945Z" fill="#FEFEFE"/>
<path d="M208.028 288.68C205.519 290.592 202.513 291.919 199.776 293.471C196.823 295.146 193.975 297.026 191.104 298.839C190.347 299.317 189.418 300.07 188.568 300.334C186.744 300.9 184.043 300.667 182.118 300.695C179.519 300.733 175.093 300.973 172.641 300.421C170.666 299.977 167.338 297.435 165.407 296.332C160.932 293.777 156.428 291.225 151.88 288.804C153.406 289.156 154.991 289.805 156.394 290.499C157.989 291.287 159.757 292.727 161.508 292.921C169.601 296.468 190.037 296.613 198.218 293.245C198.497 293.13 198.687 293.03 198.883 292.794C200.572 292.567 202.666 290.916 204.224 290.151C205.459 289.544 206.719 289.094 208.028 288.68Z" fill="#FEE5A3"/>
<path d="M175.378 303.986C176.722 303.865 178.084 303.777 179.43 303.918C180.687 304.049 182.068 304.365 182.873 305.428C184.069 307.007 183.21 308.691 183.029 310.417C184.943 311.96 187.736 310.856 189.944 311.469C190.985 311.757 191.801 312.459 192.308 313.41C192.705 314.157 192.565 315.22 192.282 315.98C192.046 316.616 191.59 317.13 190.944 317.363C188.858 318.117 185.242 316.145 183.279 315.319C180.599 314.165 177.782 312.815 174.976 312.021C172.32 311.269 169.573 310.909 166.943 310.028C165.599 309.578 164.213 309.004 163.586 307.636C163.288 306.988 163.147 306.079 163.493 305.418C163.771 304.887 164.17 304.559 164.74 304.391C166.383 303.905 167.755 304.632 169.182 305.343C171.226 304.798 173.282 304.284 175.378 303.986Z" fill="#FEFEFE"/>
<path d="M178.975 220.392C180.283 220.392 181.902 221.366 183.226 221.666C184.039 221.85 184.954 221.802 185.785 221.804C185.97 228.728 188.223 225.883 189.346 227.841C189.607 228.298 189.694 229.417 189.473 229.898C189.137 230.629 188.586 230.727 187.908 230.982C186.531 231.502 186.129 233.576 185.545 234.846C184.802 236.462 183.565 237.203 181.952 237.79C181.678 237.835 181.404 237.872 181.13 237.902C177.345 238.29 175.633 236.646 174.082 233.414C173.828 232.885 173.534 232.046 173.136 231.617C172.771 231.224 171.934 231.054 171.498 230.627C171.041 230.179 170.793 229.339 170.781 228.705C170.77 228.198 170.954 227.78 171.328 227.44C172.021 226.812 172.705 226.931 173.574 226.969C174.174 225.47 174.475 223.823 174.976 222.279C176.723 222.057 177.613 221.44 178.975 220.392Z" fill="#B26539"/>
<path d="M176.12 225.537C176.325 225.53 176.529 225.53 176.733 225.537C177.218 225.557 177.755 225.707 178.047 226.132C178.3 226.502 178.261 226.731 178.207 227.139L177.928 227.258L177.592 227.066C176.612 226.365 176.316 227.101 175.321 226.877C175.308 226.59 175.37 226.562 175.511 226.323L175.675 226.949L175.404 226.47C175.612 226.137 175.873 225.841 176.12 225.537Z" fill="black"/>
<path d="M182.929 225.537C183.133 225.53 183.337 225.53 183.542 225.537C184.027 225.557 184.564 225.707 184.855 226.132C185.109 226.502 185.069 226.731 185.015 227.139L184.736 227.258L184.401 227.066C183.421 226.365 183.124 227.101 182.129 226.877C182.117 226.59 182.179 226.562 182.32 226.323L182.484 226.949L182.213 226.47C182.421 226.137 182.682 225.841 182.929 225.537Z" fill="black"/>
<path d="M131.583 289.027L132.103 288.938C132.173 288.987 132.275 289.01 132.313 289.088C132.35 289.166 132.499 293.539 133.323 295.439C135.358 300.13 141.19 303.034 145.65 304.836C139.2 304.672 132.75 304.616 126.299 304.667C123.648 304.651 119.778 305.131 117.308 304.448C117.196 304.416 117.084 304.381 116.973 304.343C116.861 304.306 116.751 304.266 116.642 304.222C116.533 304.179 116.426 304.133 116.319 304.085C116.212 304.036 116.107 303.985 116.003 303.931C115.899 303.877 115.796 303.82 115.695 303.761C115.594 303.702 115.494 303.64 115.396 303.576C115.298 303.511 115.202 303.445 115.107 303.375C115.012 303.306 114.919 303.235 114.828 303.161C114.737 303.087 114.648 303.011 114.561 302.932C114.474 302.854 114.389 302.773 114.306 302.691C114.222 302.608 114.141 302.523 114.063 302.436C113.984 302.349 113.907 302.261 113.833 302.17C113.759 302.079 113.687 301.987 113.617 301.893C113.548 301.798 113.481 301.702 113.416 301.604C113.351 301.506 113.289 301.407 113.23 301.306C113.17 301.205 113.113 301.103 113.058 300.999C113.001 300.889 112.946 300.778 112.894 300.666C112.843 300.554 112.794 300.44 112.748 300.325C112.702 300.211 112.658 300.095 112.618 299.978C112.577 299.861 112.54 299.743 112.506 299.625C112.471 299.506 112.439 299.386 112.411 299.266C112.382 299.146 112.357 299.025 112.334 298.903C112.312 298.781 112.292 298.659 112.275 298.537C112.259 298.414 112.245 298.291 112.235 298.168C112.225 298.045 112.217 297.921 112.213 297.798C112.209 297.674 112.207 297.551 112.209 297.427C112.211 297.303 112.216 297.18 112.224 297.056C112.232 296.933 112.243 296.81 112.257 296.687C112.271 296.564 112.289 296.441 112.309 296.32C112.329 296.197 112.352 296.076 112.379 295.955C112.405 295.834 112.434 295.714 112.466 295.595C112.498 295.475 112.534 295.357 112.572 295.239C113.319 292.925 114.903 291.571 116.978 290.477C118.731 290.597 120.539 290.862 122.294 290.781C125.346 290.64 128.577 289.622 131.583 289.027Z" fill="#FEFEFE"/>
<path d="M228.012 288.936C233.097 289.684 238.526 289.575 243.649 289.358C243.931 289.599 244.208 289.846 244.479 290.099C246.265 291.773 246.981 294.31 247.03 296.697C247.079 299.049 246.308 301.227 244.626 302.901C241.924 305.593 238.346 304.994 234.871 304.94C228.387 304.874 221.903 304.903 215.42 305.027C218.449 303.607 221.483 301.968 223.834 299.545C226.866 296.42 228.077 293.264 228.012 288.936Z" fill="#FEFEFE"/>
<path d="M198.879 246.114C199.281 246.088 199.682 246.068 200.084 246.056C205.405 245.912 210.762 246.058 216.088 246.061C219.347 246.063 223.306 245.571 226.472 246.287C226.682 246.335 226.89 246.391 227.097 246.454C227.303 246.516 227.507 246.586 227.709 246.663C227.911 246.739 228.109 246.823 228.305 246.913C228.501 247.003 228.694 247.1 228.883 247.204C229.073 247.307 229.258 247.417 229.44 247.533C229.622 247.649 229.8 247.771 229.974 247.9C230.147 248.028 230.316 248.162 230.481 248.302C230.645 248.442 230.804 248.587 230.959 248.737C231.112 248.887 231.26 249.041 231.403 249.201C231.546 249.361 231.683 249.525 231.814 249.694C231.946 249.863 232.072 250.037 232.192 250.214C232.311 250.392 232.425 250.573 232.532 250.759C232.64 250.944 232.741 251.133 232.835 251.325C232.93 251.517 233.018 251.712 233.099 251.91C233.18 252.109 233.255 252.309 233.322 252.512C233.39 252.716 233.45 252.921 233.504 253.128C234.252 256.019 233.943 259.298 233.943 262.264L233.947 272.602C232.703 273.39 231.376 273.997 230.046 274.624C227.708 275.698 225.862 277.217 223.969 278.933C213.917 274.98 209.652 265.809 205.612 256.513C203.83 252.412 202.527 248.927 198.879 246.114Z" fill="#FEFEFE"/>
<path d="M134.102 246.144C137.135 245.835 140.357 246.024 143.413 246.022L161.033 246.059C156.809 249.604 155.985 253.011 153.698 257.762C151.378 262.581 148.947 267.658 145.512 271.795C142.857 274.773 139.603 277.381 135.849 278.83C132.291 277.568 128.493 274.502 125.809 271.907L125.742 260.786C125.74 258.493 125.573 256.022 125.999 253.763C126.065 253.417 126.149 253.075 126.251 252.738C126.353 252.401 126.473 252.07 126.61 251.746C126.747 251.422 126.901 251.106 127.071 250.798C127.242 250.49 127.429 250.192 127.631 249.903C129.212 247.664 131.479 246.58 134.102 246.144Z" fill="#FEFEFE"/>
<path d="M267.182 225.407C274.898 225.047 282.75 225.304 290.482 225.305L327.822 225.342L327.836 249.027L317.855 249.015L317.717 228.738C315.233 228.6 312.74 228.637 310.253 228.636C310.169 235.433 310.121 242.23 310.111 249.027C308.005 249.043 305.899 249.034 303.793 249.001L304.714 246.578C305.566 244.417 306.437 242.259 307.334 240.116C308.045 238.418 308.88 236.811 309.252 234.988C309.535 233.6 309.458 231.961 308.649 230.756C308.223 230.54 308.236 230.558 307.77 230.68C307.134 231.182 306.842 231.797 306.464 232.495C305.384 232.002 304.304 231.387 303.105 231.776C301.712 233.428 297.32 245.735 296.049 248.968C295.411 246.513 288.963 230.259 287.685 229.086C286.814 229.61 285.957 230.079 285.03 230.498L284.434 228.999C283.694 229.018 282.633 229.159 281.942 228.874C281.439 228.667 281.427 228.511 281.257 228.036C279.968 227.361 275.699 227.766 273.963 227.745C273.736 230.181 273.881 232.742 273.879 235.193L273.875 248.954L267.042 248.944C267.035 241.118 266.836 233.224 267.182 225.407Z" fill="#FEFEFE"/>
<path d="M267.023 251.969C274.291 251.772 281.617 251.985 288.89 252.029L327.831 252.189C327.925 260.056 327.807 267.939 327.817 275.808L320.474 275.812L323.073 274.758C321.802 270.844 320.085 266.941 318.514 263.135C317.369 260.452 316.191 257.777 315.162 255.048C313.941 255.523 312.867 256.16 311.743 256.826C311.373 256.216 310.905 255.66 310.469 255.096C307.743 254.987 304.989 255.061 302.26 255.058L302.002 257.425C300.839 257.099 299.005 256.344 297.81 256.548C296.602 258.416 295.786 260.893 294.913 262.956L289.551 275.83C282.076 275.825 274.475 275.532 267.016 275.915C267.055 267.944 266.779 259.933 267.023 251.969Z" fill="#FEFEFE"/>
<path d="M248.802 261.773C249.164 261.738 249.523 261.708 249.888 261.703C250.783 261.691 251.507 261.811 252.276 262.29C254.204 263.492 255.901 265.49 257.54 267.069L266.114 275.301L266.071 295.436L255.63 307.011C253.433 309.442 251.178 312.728 248.419 314.488C247.402 315.138 246.264 315.429 245.069 315.125C243.25 314.663 242.237 313.045 241.309 311.558C242.019 311.434 242.806 311.375 243.484 311.134C244.299 310.843 245.132 309.99 245.441 309.187C245.688 308.543 245.697 307.901 245.379 307.281C244.838 306.224 243.854 305.845 242.787 305.502C244.264 304.444 245.457 303.417 246.585 301.989C246.799 301.623 246.99 301.245 247.157 300.855C247.323 300.466 247.465 300.067 247.582 299.659C247.699 299.251 247.789 298.838 247.854 298.419C247.92 298 247.958 297.578 247.97 297.154C248.088 293.892 246.816 291.363 244.655 289.008C245.08 288.809 245.499 288.601 245.899 288.353C247.532 287.341 249.519 285.476 249.916 283.544C250.059 282.85 249.941 282.226 249.541 281.642C248.159 279.629 247.518 281.41 246.194 281.172C245.714 280.248 245.247 279.435 244.354 278.862C244.097 278.839 243.945 278.759 243.724 278.929C243.084 279.422 243.052 280.334 243.025 281.074C243.023 281.125 243.024 281.176 243.023 281.226L242.912 281.184L242.862 280.996L242.787 280.728C242.759 280.626 242.738 280.523 242.706 280.422C242.526 279.864 242.096 279.298 241.516 279.11C241.065 278.963 240.851 279.083 240.454 279.263C240.102 279.659 240.021 279.959 239.907 280.459C239.894 280.519 239.881 280.58 239.868 280.64C239.775 280.266 239.635 279.909 239.341 279.641C239.054 279.38 238.567 279.219 238.183 279.317C237.887 279.393 237.648 279.545 237.476 279.793C236.751 280.837 237.32 282.623 237.575 283.769C237.193 282.915 236.779 282.028 236.224 281.272C235.727 280.595 235.016 279.803 234.113 279.757C233.217 279.711 232.547 280.395 231.905 280.923C229.535 280.886 227.09 280.141 224.884 279.33C228.339 276.203 232.276 275.101 235.886 272.418C239.665 269.609 244.988 263.42 248.802 261.773Z" fill="#FEFEFE"/>
<path d="M112.259 263.008C113.756 262.871 115.16 263.039 116.44 263.869C118.521 265.219 120.04 267.561 121.748 269.339C125.616 273.366 129.835 276.681 134.718 279.394C132.846 280.064 130.942 280.631 129.009 281.095C127.075 281.56 125.122 281.919 123.149 282.173C122.427 281.254 121.657 280.145 120.697 279.466C120.308 279.191 119.929 279.067 119.451 279.174C119.003 279.273 118.813 279.467 118.565 279.827C118.465 281.675 120.561 282.847 120.926 284.516C120.995 284.832 120.921 284.831 120.767 285.091L120.252 285.213C119.567 284.9 117.727 281.253 117.22 280.44C116.947 280.002 116.631 279.779 116.116 279.691C115.648 279.611 115.029 279.732 114.688 280.076C114.286 280.483 114.333 280.742 114.322 281.273L113.943 281.47L114.174 281.543C113.825 281.01 113.439 280.372 112.876 280.036C112.509 279.818 112.104 279.737 111.693 279.905C110.548 280.373 111.023 281.535 110.621 282.431C110.434 282.404 110.151 282.34 109.955 282.355C109.558 282.385 109.329 282.527 109.12 282.879C108.779 283.456 108.997 284.279 109.226 284.855C110.362 287.699 112.666 289.001 115.325 290.161C114.942 290.489 114.567 290.825 114.199 291.17C112.464 292.822 111.4 294.956 111.377 297.382C111.356 299.72 112.183 301.91 113.855 303.572C114.83 304.54 115.928 305.154 117.273 305.423C120.411 306.05 124.209 305.64 127.422 305.635C133.537 305.616 139.652 305.635 145.767 305.691C150.411 305.927 155.404 308.384 159.788 310.001C142.443 310.099 125.098 310.059 107.754 309.883C104.919 307.111 101.99 302.572 99.5337 299.303C96.1189 294.758 92.424 290.325 89.2976 285.576C88.798 284.817 88.3378 284.075 88.1121 283.184C87.6969 281.544 87.9803 279.329 88.9 277.886C89.3053 277.249 89.9089 276.722 90.5101 276.274C93.2737 274.214 96.4599 272.506 99.3751 270.651C102.94 268.383 106.443 265.854 110.148 263.829C110.834 263.454 111.492 263.184 112.259 263.008Z" fill="#FEFEFE"/>
<path d="M266.993 278.927L327.734 278.923C327.966 281.643 327.815 284.483 327.818 287.217L327.835 302.564C319.982 302.617 312.13 302.616 304.277 302.56C299.912 302.679 295.494 302.592 291.125 302.516C290.596 302.124 290.043 301.732 289.57 301.272C287.596 299.351 286.416 296.278 286.445 293.54C286.478 290.512 287.774 290.049 289.652 288.229L289.847 288.037C290.247 288.088 290.55 288.114 290.947 288.035C290.162 287.274 289.071 286.795 287.956 286.823C286.904 286.849 285.969 287.524 285.296 288.282C283.846 289.917 283.411 292.07 283.588 294.2C283.871 297.617 285.211 299.985 287.369 302.561C280.599 302.828 273.698 302.753 266.922 302.619C267.05 294.722 266.875 286.824 266.993 278.927Z" fill="#FEFEFE"/>
<path d="M299.598 288.111C301.316 285.23 303.239 282.214 306.659 281.191C306.697 281.179 306.737 281.174 306.776 281.165L307.245 281.676L307.319 281.604C306.736 283.957 303.571 286.416 301.87 288.076C301.166 288.217 300.297 288.271 299.598 288.111Z" fill="black"/>
<path d="M299.598 288.111C300.297 288.271 301.166 288.217 301.87 288.075C301.937 288.081 302.003 288.087 302.07 288.092C303.364 288.188 309.204 287.74 309.795 288.349C310.522 289.097 310.254 291.201 310.17 292.2C309.793 296.663 307.586 299.71 304.277 302.56C299.912 302.679 295.494 302.592 291.125 302.516C290.596 302.124 290.043 301.732 289.57 301.271C287.596 299.35 286.416 296.278 286.445 293.539C286.478 290.512 287.774 290.049 289.652 288.229L289.847 288.036C290.247 288.088 290.55 288.114 290.947 288.035C293.118 288.432 297.288 288.248 299.598 288.111Z" fill="#FEE5A3"/>
<path d="M54.7341 234.676C55.563 234.632 56.6641 233.922 57.4864 233.655C60.814 232.571 64.5237 233.019 67.7517 234.164L67.9398 234.72L68.3747 234.917C68.7902 235.076 69.5215 235.507 69.9173 235.374L70.0421 235.039C70.1968 235.63 70.2446 235.702 70.6848 236.127C73.4502 238.17 75.0674 240.667 75.5905 244.089C76.3502 249.058 74.3688 252.921 72.129 257.188C75.4341 257.039 78.2863 257.243 80.8618 259.574C82.7244 261.26 83.7404 263.733 83.8146 266.224C83.9261 269.976 82.4066 273.883 79.8332 276.6C77.0723 279.515 73.6249 280.69 69.6677 280.764C66.9104 280.815 64.7125 280.227 62.1577 279.27C64.0705 277.968 65.8891 273.539 68.7554 271.474C70.4591 270.247 73.9905 269.788 75.066 268.064C75.4109 267.511 75.4566 266.839 75.2635 266.224C75.2328 266.129 75.1976 266.036 75.1577 265.944C75.1179 265.853 75.0737 265.763 75.0252 265.676C74.9767 265.589 74.9239 265.505 74.867 265.423C74.81 265.341 74.7492 265.262 74.6845 265.186C74.6198 265.11 74.5516 265.038 74.4799 264.969C74.4082 264.899 74.3332 264.834 74.2549 264.772C74.1766 264.71 74.0955 264.652 74.0116 264.598C73.9277 264.545 73.8414 264.495 73.7525 264.45C72.7949 263.961 71.7022 264.113 70.7344 264.487C65.469 266.52 63.6001 271.869 61.5614 276.598L61.0583 276.568C60.7468 273.613 58.789 271.007 58.2216 268.023C57.8398 269.07 57.51 270.19 56.8983 271.128C56.6395 269.533 56.7316 267.703 56.9313 266.105C57.0505 262.924 57.8528 259.783 58.9068 256.79C59.2625 255.78 59.6461 254.778 60.1109 253.813C61.1518 251.651 64.4987 246.396 62.2568 244.268C61.8662 243.897 61.4194 243.722 60.8766 243.786C59.7952 243.913 58.8797 244.757 58.2623 245.597C55.3296 249.591 54.276 257.852 54.3044 262.674C54.3241 266.027 54.791 269.401 54.6655 272.747L53.9072 272.208C52.7994 274.04 51.7873 276.469 50.2882 277.985L50.3694 276.193C50.3617 272.961 46.0244 265.43 43.6345 263.033C42.1977 261.592 40.2708 260.397 38.1726 260.446C37.2224 260.468 36.2654 260.757 35.6287 261.498C35.2336 261.957 35.0424 262.469 35.1072 263.082C35.2009 263.968 35.6101 264.614 36.3069 265.155C37.4467 266.04 38.8772 266.52 40.0918 267.303C43.7794 269.677 47.9271 273.733 49.1836 278.065C45.9264 278.321 42.6059 278.66 39.3493 278.257C34.391 277.643 29.9409 275.552 26.8491 271.541C24.4787 268.466 23.6104 264.793 24.1458 260.958C24.1756 260.745 24.2105 260.532 24.2507 260.321C24.2909 260.109 24.3362 259.898 24.3868 259.688C24.4373 259.479 24.4929 259.271 24.5537 259.064C24.6145 258.857 24.6803 258.652 24.7511 258.448C24.822 258.245 24.8978 258.043 24.9786 257.843C25.0593 257.644 25.145 257.446 25.2354 257.25C25.3259 257.055 25.4212 256.861 25.5212 256.67C25.6212 256.479 25.7258 256.291 25.835 256.105C25.9443 255.919 26.058 255.736 26.1762 255.556C26.2945 255.376 26.4171 255.199 26.544 255.025C26.671 254.85 26.8022 254.679 26.9376 254.512C27.0729 254.344 27.2123 254.18 27.3557 254.019C27.4992 253.858 27.6465 253.701 27.7977 253.547C27.9488 253.393 28.1037 253.243 28.2622 253.097C28.4207 252.951 28.5828 252.809 28.7483 252.671C28.9138 252.533 29.0826 252.399 29.2547 252.269L29.847 251.72C29.9104 251.712 29.9748 251.708 30.0372 251.694C30.9734 251.481 31.8605 250.691 32.7887 250.347C36.5319 248.961 40.6343 249.444 44.0975 251.36C44.859 251.782 45.5534 252.304 46.2491 252.824L46.1503 252.947C46.2593 253.875 47.8399 255.633 48.375 256.477C49.5721 258.367 50.3912 260.33 51.0887 262.451C51.3401 263.214 51.4237 264.759 51.9195 265.318C51.5004 263.452 51.1843 261.691 50.4548 259.906C49.7275 258.124 48.5789 256.567 47.8058 254.822C46.865 252.698 46.7796 247.559 47.2792 245.229C47.4588 244.938 47.4173 245.044 47.513 244.769C48.9224 240.715 50.5157 237.878 53.9673 235.272C54.2957 235.102 54.4873 234.952 54.7341 234.676Z" fill="#FEE5A3"/>
<path d="M57.1655 270.806C57.665 266.813 58.9285 264.015 62.1622 261.477C64.7093 259.478 68.6359 257.657 71.8502 257.253L71.9304 257.461C70.8296 258.171 69.2026 258.296 67.9648 258.785C64.061 260.326 59.8233 264.1 58.2215 268.023C57.8398 269.07 57.51 270.19 56.8983 271.128C56.6395 269.533 56.7316 267.703 56.9313 266.105C56.9668 267.669 56.9503 269.254 57.1655 270.806Z" fill="#03100D"/>
<path d="M70.6848 236.127C73.0279 221.974 78.0672 202.313 85.7461 190.149C86.7776 188.515 87.8913 186.485 89.4772 185.344C89.9465 185.007 90.4893 184.759 91.0828 184.841C91.8882 184.952 92.431 185.619 92.8142 186.279C94.4595 189.113 95.1613 192.976 95.6812 196.187C98.5553 213.933 95.4977 234.585 90.5646 251.705C85.9015 267.888 80.0177 280.795 71.9202 295.49C70.2875 298.452 68.6454 302.149 66.3827 304.65C64.7638 304.67 63.1163 304.625 61.502 304.728C65.0014 302.929 69.1231 299.146 70.4745 295.368C70.6078 294.997 70.6088 294.709 70.5371 294.327C70.2397 293.961 70.1058 293.801 69.6192 293.746C66.9617 293.449 64.0761 293.838 61.3849 293.772C61.361 291.762 61.0351 280.673 61.9896 279.35L62.1576 279.27C64.7124 280.227 66.9104 280.815 69.6677 280.764C73.6249 280.69 77.0723 279.515 79.8331 276.6C82.4066 273.883 83.926 269.975 83.8146 266.224C83.7404 263.733 82.7244 261.26 80.8618 259.574C78.2863 257.243 75.434 257.039 72.129 257.188C74.3688 252.92 76.3502 249.058 75.5905 244.089C75.0674 240.667 73.4502 238.17 70.6848 236.127Z" fill="#FEFEFE"/>
<path d="M127.874 282.392C137.286 280.146 144.094 276.492 149.278 268.04C151.636 264.198 153.687 260.032 155.594 255.948C156.479 254.052 157.168 251.97 158.31 250.214C161.055 245.992 166.992 243.569 171.673 242.442C171.906 242.385 172.139 242.331 172.373 242.281C173.177 245.034 174.22 247.292 176.877 248.734C178.682 249.713 180.802 249.865 182.755 249.259C182.869 249.224 182.982 249.186 183.094 249.146C183.206 249.105 183.317 249.062 183.427 249.015C183.537 248.969 183.645 248.92 183.753 248.869C183.86 248.817 183.966 248.763 184.071 248.706C184.176 248.649 184.279 248.59 184.38 248.528C184.482 248.465 184.582 248.401 184.68 248.333C184.779 248.266 184.875 248.197 184.97 248.125C185.065 248.053 185.158 247.978 185.25 247.902C185.341 247.825 185.43 247.746 185.517 247.665C185.604 247.584 185.69 247.5 185.773 247.415C185.856 247.33 185.936 247.242 186.015 247.152C186.094 247.063 186.17 246.972 186.244 246.878C186.318 246.785 186.39 246.69 186.459 246.593C186.528 246.495 186.595 246.397 186.659 246.297C186.723 246.196 186.785 246.094 186.844 245.991C186.903 245.887 186.96 245.783 187.014 245.676C187.559 244.626 187.843 243.435 187.993 242.265C193.363 243.897 199.599 246.173 202.387 251.449C203.545 253.64 204.399 256.04 205.405 258.307C209.903 268.446 214.402 276.965 225.635 280.559C227.679 281.212 229.768 281.593 231.869 282.001C232.161 284.127 232.528 286.24 232.97 288.34C226.576 287.786 217.748 286.656 211.998 283.789C211.617 283.597 211.242 283.395 210.872 283.185C210.501 282.974 210.137 282.753 209.778 282.523C209.419 282.293 209.067 282.054 208.72 281.806C208.374 281.558 208.034 281.302 207.701 281.036C207.367 280.77 207.041 280.496 206.722 280.214C206.403 279.931 206.091 279.641 205.787 279.343C205.483 279.044 205.187 278.738 204.899 278.424C204.61 278.11 204.33 277.789 204.058 277.461C202.312 275.387 200.828 272.906 199.737 270.426C199.262 269.347 199.04 267.971 198.368 267.021C198.072 267.219 198.066 267.302 197.986 267.642C197.638 269.135 197.907 271.015 197.912 272.558C197.933 279.336 198 286.056 198.883 292.794C198.687 293.03 198.497 293.13 198.218 293.245C190.037 296.612 169.601 296.468 161.508 292.921C161.787 289.16 162.199 285.395 162.35 281.627C162.492 278.065 162.375 274.486 162.354 270.922C162.348 269.923 162.677 267.9 162.188 267.09C161.967 267.076 161.845 267.006 161.667 267.172C161.088 267.713 160.854 269.085 160.58 269.85C159.995 271.484 159.144 273.105 158.201 274.56C151.135 285.456 140.34 286.619 128.747 288.559C128.484 286.5 128.193 284.444 127.874 282.392Z" fill="#FEFEFE"/>
</svg>
