<svg width="504" height="504" viewBox="0 0 504 504" fill="none" xmlns="http://www.w3.org/2000/svg">
<path d="M226.33 73.9517C226.62 74.1033 226.839 74.1564 227.019 74.4458C227.985 75.9933 228.828 80.1581 228.485 81.8887L227.978 81.6485C227.038 80.3762 226.178 75.5616 226.33 73.9517Z" fill="#080717"/>
<path d="M190.25 116.73C192.386 116.908 196.672 116.471 198.417 117.57L198.544 118.285C196.919 118.161 191.214 118.358 190.152 117.343L190.25 116.73Z" fill="#080717"/>
<path d="M200.305 88.5051C201.019 88.705 201.438 88.9791 202.004 89.4452C203.311 90.5226 206.123 92.6808 206.302 94.4099C206.257 94.3971 206.212 94.3843 206.166 94.372C205.844 94.2883 205.622 94.2386 205.337 94.0585C203.939 93.174 200.585 90.085 200.305 88.5051Z" fill="#080717"/>
<path d="M232.463 155.421C228.915 144.787 217.344 146.128 213.979 130.515C212.515 123.722 213.688 116.616 217.538 110.801C221.234 105.219 226.789 101.336 233.391 100.072C233.797 99.9926 234.205 99.9235 234.615 99.8645C235.025 99.8057 235.436 99.7572 235.848 99.7188C236.261 99.6804 236.673 99.6523 237.087 99.6346C237.501 99.6169 237.915 99.6095 238.329 99.6124C238.743 99.6154 239.156 99.6287 239.57 99.6523C239.983 99.6759 240.396 99.7097 240.807 99.7537C241.219 99.798 241.629 99.8525 242.038 99.9171C242.447 99.9818 242.854 100.057 243.259 100.142C243.664 100.227 244.067 100.322 244.468 100.427C244.868 100.532 245.266 100.647 245.661 100.772C246.055 100.897 246.447 101.031 246.835 101.176C247.223 101.32 247.607 101.474 247.987 101.638C248.368 101.801 248.744 101.974 249.115 102.157C249.487 102.339 249.854 102.531 250.216 102.731C250.578 102.932 250.935 103.141 251.287 103.36C251.639 103.579 251.985 103.806 252.325 104.042C252.591 104.227 252.854 104.418 253.113 104.613C253.372 104.809 253.627 105.01 253.879 105.215C254.13 105.42 254.377 105.631 254.62 105.846C254.864 106.061 255.102 106.28 255.337 106.505C255.572 106.729 255.802 106.958 256.028 107.191C256.254 107.424 256.475 107.662 256.692 107.903C256.908 108.145 257.12 108.391 257.327 108.641C257.534 108.891 257.737 109.144 257.934 109.402C258.132 109.66 258.324 109.921 258.511 110.187C258.699 110.452 258.881 110.72 259.057 110.992C259.234 111.265 259.406 111.54 259.572 111.819C259.738 112.098 259.899 112.38 260.055 112.665C260.21 112.95 260.36 113.238 260.504 113.529C260.648 113.819 260.787 114.113 260.919 114.409C261.052 114.705 261.179 115.004 261.301 115.305C261.422 115.606 261.538 115.909 261.647 116.214C261.757 116.52 261.861 116.828 261.958 117.137C262.056 117.447 262.148 117.758 262.234 118.071C262.319 118.384 262.399 118.699 262.472 119.015C262.546 119.331 262.614 119.649 262.675 119.967C262.736 120.286 262.791 120.606 262.84 120.927C262.889 121.248 262.932 121.57 262.968 121.892C263.005 122.215 263.035 122.538 263.059 122.861C263.083 123.185 263.101 123.509 263.113 123.834C263.124 124.158 263.129 124.483 263.128 124.808C263.127 125.132 263.12 125.456 263.106 125.781C263.093 126.105 263.073 126.429 263.047 126.753C263.021 127.076 262.988 127.399 262.95 127.721C262.911 128.044 262.867 128.365 262.815 128.686C262.764 129.007 262.707 129.326 262.644 129.644C262.581 129.963 262.511 130.28 262.436 130.595C262.36 130.911 262.278 131.225 262.191 131.538C260.495 137.583 256.782 141.539 258.02 148.171L257.655 148.686L257.232 148.66L257.069 148.457C255.886 141.127 259.218 138.449 261.173 131.917C261.266 131.615 261.353 131.312 261.433 131.007C261.514 130.701 261.589 130.395 261.658 130.087C261.727 129.779 261.789 129.47 261.846 129.16C261.903 128.85 261.954 128.538 261.999 128.226C262.043 127.913 262.082 127.6 262.115 127.286C262.147 126.973 262.174 126.658 262.194 126.343C262.215 126.028 262.229 125.713 262.237 125.398C262.245 125.082 262.247 124.767 262.243 124.451C262.239 124.136 262.228 123.821 262.212 123.505C262.196 123.19 262.173 122.876 262.145 122.561C262.116 122.247 262.081 121.934 262.04 121.621C261.999 121.308 261.952 120.996 261.899 120.684C261.846 120.373 261.787 120.064 261.722 119.755C261.657 119.446 261.586 119.139 261.509 118.833C261.432 118.527 261.349 118.222 261.261 117.919C261.172 117.617 261.077 117.316 260.977 117.017C260.876 116.717 260.77 116.42 260.658 116.125C260.546 115.83 260.428 115.538 260.305 115.247C260.181 114.957 260.052 114.669 259.918 114.384C259.783 114.099 259.643 113.816 259.497 113.536C259.352 113.256 259.201 112.979 259.044 112.705C258.888 112.431 258.726 112.16 258.559 111.892C258.393 111.624 258.221 111.36 258.044 111.099C257.866 110.837 257.684 110.58 257.497 110.326C257.31 110.072 257.118 109.822 256.921 109.575C256.724 109.328 256.522 109.086 256.316 108.847C256.11 108.608 255.899 108.374 255.683 108.143C255.467 107.913 255.248 107.686 255.024 107.464C254.799 107.243 254.571 107.025 254.338 106.812C254.105 106.599 253.869 106.39 253.628 106.187C253.387 105.983 253.142 105.783 252.894 105.589C252.645 105.395 252.393 105.205 252.137 105.021C246.922 101.299 240.481 99.6523 234.133 100.789C233.738 100.86 233.345 100.942 232.953 101.032C232.562 101.123 232.174 101.223 231.787 101.334C231.401 101.444 231.018 101.563 230.638 101.692C230.258 101.822 229.881 101.96 229.508 102.108C229.134 102.256 228.765 102.413 228.399 102.579C228.034 102.746 227.672 102.921 227.316 103.106C226.959 103.29 226.607 103.483 226.26 103.684C225.912 103.886 225.571 104.096 225.234 104.315C224.897 104.534 224.566 104.761 224.241 104.996C223.915 105.231 223.596 105.475 223.282 105.726C222.969 105.977 222.662 106.236 222.361 106.502C222.061 106.769 221.767 107.042 221.48 107.323C221.194 107.604 220.914 107.892 220.641 108.187C220.369 108.482 220.103 108.783 219.846 109.091C219.588 109.4 219.339 109.714 219.097 110.035C218.855 110.355 218.621 110.681 218.395 111.013C214.729 116.32 213.478 123.142 214.654 129.454C217.616 145.353 230.253 144.837 233.349 155.072L232.463 155.421Z" fill="#080717"/>
<path d="M258.02 148.171C259.876 148.936 263.875 145.503 264.866 148.382C265.313 149.679 266.364 152.42 265.81 153.605C262.638 155.292 258.219 155.915 254.736 156.788C254.752 159.278 254.301 161.474 252.529 163.354C250.918 165.062 248.611 165.939 246.277 165.9C243.92 165.86 241.885 164.812 240.337 163.062C239.75 162.399 239.313 161.622 238.91 160.838C235.974 161.695 232.152 163.332 229.093 163.111C227.949 162.419 227.22 161.234 226.944 159.929C226.78 159.157 226.833 158.281 227.256 157.594C228.266 155.952 230.723 155.676 232.463 155.421L233.349 155.072C236.25 154.21 256.059 149.517 257.069 148.457L257.232 148.66L257.655 148.686L258.02 148.171Z" fill="#007DC1"/>
<path d="M252.761 157.297C253.033 157.246 253.231 157.283 253.504 157.318C253.54 157.394 253.586 157.467 253.613 157.546C253.917 158.431 253.642 159.688 253.288 160.526C252.465 162.477 250.919 164.029 248.908 164.729C246.895 165.429 244.877 165.071 243.025 164.125C241.479 163.244 240.78 162.125 239.909 160.637C244.174 159.451 248.458 158.338 252.761 157.297Z" fill="#FEFEFF"/>
<path d="M21.0497 138.75C17.4764 129.923 4.15581 127.537 1.19854 121.238C0.692713 120.16 0.478724 118.926 0.911564 117.786C1.48642 116.274 2.74118 114.963 3.93467 113.901C7.10925 111.077 11.1712 108.754 14.675 106.309C18.094 103.922 21.7418 100.636 25.5116 98.9318C27.4197 98.069 29.5079 97.9321 31.4489 98.7762C35.2755 100.44 36.7486 104.737 38.0601 108.344C38.1169 108.3 38.1728 108.256 38.2303 108.213C38.326 108.142 38.4236 108.074 38.5197 108.003C38.9276 107.703 39.338 107.386 39.7922 107.158C40.7579 106.673 42.4345 106.075 43.4936 106.559C47.2369 108.272 43.2661 118.887 43.0503 122.069C42.8274 125.357 43.3721 128.526 44.2481 131.68L44.7401 132.596C45.1758 132.707 45.6045 132.796 46.048 132.869C47.7664 135.153 48.5262 138.299 49.8384 140.853C46.9781 141.963 43.9208 142.722 40.9777 143.595L28.9958 147.232C26.7416 147.899 24.398 148.455 22.2096 149.306C21.6302 146.622 20.9792 143.921 20.6436 141.193C20.5168 140.164 20.3933 139.601 21.0497 138.75Z" fill="#080717"/>
<path d="M22.0787 138.66C16.9739 128.816 5.41024 126.843 2.30304 121.45C1.73168 120.458 1.63127 119.319 1.94545 118.225C2.33887 116.857 3.27996 115.723 4.30746 114.771C7.52335 111.793 13.481 108.243 17.2327 105.636C19.8917 103.789 22.5257 101.417 25.413 99.9845C27.1237 99.1359 28.9951 98.8381 30.8172 99.5356C36.0241 101.528 36.3916 107.724 38.2919 112.092L38.5432 112.08C38.828 111.137 38.6759 110.368 38.5342 109.407C39.3336 108.552 40.4186 107.606 41.5553 107.249C42.2057 107.044 42.5283 107.186 43.1204 107.459C45.7606 110.757 42.3953 118.655 42.1253 122.636C41.9161 125.72 42.5695 129.004 43.2901 131.986C43.4345 132.632 43.6085 132.711 43.2521 133.304C40.8778 133.966 22.6635 138.798 22.0787 138.66Z" fill="#B16A40"/>
<path d="M466.061 105.649C467.202 102.115 468.615 97.8598 472.163 96.0328C473.876 95.1508 475.805 95.0627 477.613 95.6971C480.629 96.7558 496.73 108.731 499.698 111.408C500.638 112.257 501.647 113.253 502.179 114.416C502.809 115.8 502.863 117.337 502.272 118.742C499.797 124.679 486.768 128.065 484.339 136.055L484.656 136.368C485.315 139.328 484.136 144.577 483.747 147.721C478.333 145.729 472.7 144.173 467.187 142.46C463.265 141.241 459.12 139.634 455.092 138.878C456.112 135.868 457.453 132.003 459.232 129.395C459.888 129.245 460.258 129.493 460.878 129.71C461.357 125.837 461.812 121.846 461.427 117.945C461.08 114.422 456.738 106.772 460.195 104.152C460.907 103.612 461.765 103.348 462.656 103.522C463.977 103.78 465.114 104.744 466.061 105.649Z" fill="#080717"/>
<path d="M461.645 129.953C462.525 124.555 462.877 119.47 461.43 114.141C460.865 112.06 459.895 109.82 459.762 107.665C459.697 106.611 459.804 105.396 460.802 104.777C461.572 104.3 462.564 104.405 463.37 104.718C464.335 105.093 464.972 105.687 465.537 106.533C465.797 108.088 464.834 109.542 465.176 111.077L465.386 111.17C467.835 106.674 467.306 98.3677 473.364 96.4945C475.466 95.8443 477.436 96.4679 479.286 97.5049C482.476 99.2916 485.453 101.917 488.411 104.077C491.992 106.691 496.095 109.173 499.275 112.253C500.299 113.248 501.293 114.473 501.687 115.871C501.962 116.83 501.898 117.711 501.386 118.574C497.981 124.349 488.104 126.114 483.392 135.975C476.503 134.633 468.462 130.637 461.645 129.953Z" fill="#B16A40"/>
<path d="M233.349 155.072C230.253 144.837 217.616 145.353 214.654 129.454C213.478 123.142 214.729 116.32 218.395 111.013C218.621 110.681 218.855 110.355 219.097 110.034C219.339 109.714 219.588 109.399 219.846 109.091C220.103 108.783 220.369 108.482 220.641 108.187C220.914 107.892 221.194 107.604 221.48 107.323C221.767 107.042 222.061 106.768 222.361 106.502C222.662 106.236 222.969 105.977 223.282 105.726C223.596 105.474 223.915 105.231 224.241 104.996C224.566 104.761 224.897 104.534 225.234 104.315C225.571 104.096 225.912 103.886 226.26 103.684C226.607 103.482 226.959 103.289 227.316 103.105C227.672 102.921 228.034 102.746 228.399 102.579C228.765 102.413 229.134 102.256 229.508 102.108C229.881 101.96 230.258 101.822 230.638 101.692C231.018 101.563 231.401 101.444 231.787 101.333C232.174 101.223 232.562 101.123 232.953 101.032C233.345 100.941 233.738 100.86 234.133 100.789C240.481 99.6522 246.922 101.299 252.137 105.02C252.393 105.205 252.645 105.395 252.894 105.589C253.142 105.783 253.387 105.982 253.628 106.186C253.869 106.39 254.105 106.599 254.338 106.812C254.571 107.025 254.799 107.242 255.024 107.464C255.248 107.686 255.467 107.913 255.683 108.143C255.899 108.374 256.11 108.608 256.316 108.847C256.522 109.086 256.724 109.328 256.921 109.575C257.118 109.821 257.31 110.072 257.497 110.326C257.684 110.58 257.866 110.837 258.044 111.098C258.221 111.36 258.393 111.624 258.559 111.892C258.726 112.16 258.888 112.431 259.044 112.704C259.201 112.978 259.352 113.256 259.497 113.536C259.643 113.816 259.783 114.098 259.918 114.384C260.052 114.669 260.181 114.957 260.305 115.247C260.428 115.538 260.546 115.83 260.658 116.125C260.77 116.42 260.876 116.717 260.976 117.017C261.077 117.316 261.172 117.617 261.261 117.919C261.349 118.222 261.432 118.527 261.51 118.833C261.586 119.139 261.657 119.446 261.722 119.755C261.787 120.063 261.846 120.373 261.899 120.684C261.952 120.995 261.999 121.307 262.04 121.62C262.081 121.933 262.116 122.247 262.144 122.561C262.173 122.875 262.195 123.19 262.212 123.505C262.228 123.82 262.239 124.136 262.243 124.451C262.247 124.767 262.245 125.082 262.237 125.398C262.229 125.713 262.215 126.028 262.194 126.343C262.174 126.658 262.147 126.972 262.115 127.286C262.082 127.6 262.043 127.913 261.999 128.226C261.954 128.538 261.903 128.849 261.846 129.16C261.789 129.47 261.727 129.779 261.658 130.087C261.589 130.395 261.514 130.701 261.433 131.006C261.353 131.312 261.266 131.615 261.173 131.917C259.218 138.448 255.886 141.127 257.069 148.457C256.059 149.517 236.25 154.21 233.349 155.072Z" fill="#FEFEFF"/>
<path d="M39.4754 213.091C43.1037 221.827 45.9504 230.94 49.3245 239.786C55.0339 254.332 60.8665 268.829 66.8223 283.276C69.0394 288.728 71.3199 294.154 73.6637 299.553C74.8395 302.314 75.8431 305.269 77.3576 307.866C82.8839 319.496 87.3765 331.46 91.8525 343.521C83.6758 343.706 75.4961 343.131 67.5537 341.073C66.9109 340.906 66.2702 340.732 65.6317 340.55C64.9935 340.369 64.3574 340.179 63.7235 339.981C63.0896 339.784 62.4582 339.579 61.8296 339.366C61.2005 339.153 60.5743 338.933 59.9509 338.705C59.3274 338.477 58.7068 338.241 58.0889 337.998C57.4714 337.755 56.8568 337.504 56.2452 337.246C55.6336 336.988 55.0252 336.722 54.4202 336.449C53.8148 336.176 53.213 335.896 52.6148 335.608C52.0167 335.32 51.4219 335.026 50.8306 334.723C50.2397 334.421 49.6524 334.112 49.0687 333.795C48.4851 333.478 47.9055 333.155 47.3298 332.825C46.7541 332.494 46.1826 332.156 45.6152 331.812C45.0477 331.467 44.4846 331.116 43.9257 330.757C43.3668 330.399 42.8124 330.034 42.2624 329.662C41.7125 329.29 41.1671 328.911 40.6264 328.526C40.0857 328.141 39.5497 327.75 39.0185 327.351C38.4873 326.953 37.9611 326.549 37.4397 326.138C36.9184 325.727 36.4022 325.309 35.8911 324.886C35.3799 324.462 34.874 324.032 34.3734 323.596C33.8727 323.16 33.3774 322.718 32.8876 322.27C32.3977 321.822 31.9133 321.368 31.4345 320.908C30.9557 320.448 30.4826 319.983 30.0151 319.511C29.5477 319.04 29.086 318.563 28.6302 318.08C28.1743 317.597 27.7245 317.109 27.2806 316.616C26.8366 316.122 26.3988 315.623 25.9671 315.119C25.5353 314.615 25.1098 314.105 24.6905 313.59C24.2711 313.076 23.8581 312.556 23.4515 312.032C23.0448 311.507 22.6446 310.977 22.2509 310.442C21.8571 309.908 21.47 309.369 21.0894 308.825C20.7088 308.281 20.3349 307.732 19.9677 307.179C19.6004 306.626 19.24 306.069 18.8864 305.507C18.5328 304.945 18.1861 304.379 17.8463 303.809C8.27764 287.42 4.05285 266.057 9.0136 247.556C13.7862 229.758 24.5098 221.784 39.4754 213.091Z" fill="#080717"/>
<path d="M93.3301 347.866C96.2123 346.08 99.4898 344.637 102.53 343.114C118.43 335.147 140.681 326.019 158.663 329.624C157.99 333.906 157.511 338.135 157.461 342.476C157.866 356.211 164.16 369.098 167.955 382.112C175.588 408.294 180.899 435.482 180.612 462.857C174.743 460.731 168.865 458.642 163.124 456.185C160.401 455.019 157.703 453.798 155.03 452.522C152.356 451.247 149.71 449.918 147.091 448.535C144.471 447.152 141.881 445.717 139.32 444.23C136.758 442.742 134.228 441.203 131.729 439.614C129.23 438.024 126.764 436.384 124.331 434.694C121.898 433.005 119.5 431.267 117.138 429.48C114.775 427.693 112.45 425.86 110.161 423.979C107.873 422.098 105.624 420.172 103.413 418.2C96.9949 412.498 90.9361 406.383 84.8969 400.283L84.9993 399.95C86.6501 394.646 89.2739 389.319 91.7629 384.352C93.456 380.973 95.8589 377.561 96.5918 373.817C97.3645 369.873 96.7921 365.203 96.2157 361.27C95.5478 356.709 94.1884 352.367 93.3301 347.866Z" fill="#080717"/>
<path d="M49.8384 140.853C52.4618 145.306 54.5068 150.072 56.6798 154.752C60.1704 162.377 63.747 169.961 67.4095 177.505C68.8496 180.403 70.1505 184.056 72.071 186.609C73.7316 190.577 75.725 194.413 77.6204 198.273C81.551 206.244 85.55 214.181 89.6175 222.083C92.8374 228.476 95.7368 235.738 99.2201 241.882L100.391 244.611C99.8875 245.364 99.3579 245.837 98.6531 246.4C101.668 252.754 107.397 259.621 114.194 262.085C118.442 263.625 123.773 263.593 127.878 261.627C130.895 260.183 134.163 257.298 135.213 254.062C135.44 253.365 135.626 252.942 135.292 252.243C135.827 251.08 136.468 249.973 137.09 248.854C137.53 248.531 137.279 248.676 137.857 248.444C138.231 250.59 143.719 256.813 145.302 259.081C157.803 277 169.924 295.566 171.982 317.814C172.346 321.746 172.689 326.289 171.658 330.139C170.497 334.702 167.217 337.395 163.322 339.707C161.536 340.768 159.451 341.888 157.461 342.476C157.511 338.135 157.99 333.906 158.663 329.624C140.681 326.019 118.43 335.147 102.53 343.114C99.4898 344.637 96.2123 346.08 93.33 347.866C93.2424 346.641 92.9673 345.48 92.7001 344.286C97.2789 342.866 101.726 340.208 106.114 338.248C116.904 333.425 128.533 329.3 140.305 327.784C148.529 326.724 162.97 326.272 169.727 331.562L170.011 331.789L170.39 331.675L170.771 330.479C169.058 329.269 167.246 328.445 165.262 327.786C160.123 326.08 154.836 325.682 149.458 325.727C129.073 325.895 111.129 334.203 93.3187 343.251C90.9016 335.997 87.9475 328.761 85.051 321.682C83 316.67 81.0076 311.375 78.3297 306.663L77.9974 306.596L77.3576 307.866C75.8431 305.27 74.8396 302.314 73.6637 299.553C71.3199 294.154 69.0395 288.728 66.8223 283.276C60.8665 268.829 55.0339 254.332 49.3245 239.786C45.9504 230.94 43.1037 221.827 39.4754 213.091C32.1805 192.356 25.8016 171.023 22.2096 149.306C24.398 148.455 26.7416 147.899 28.9958 147.232L40.9777 143.595C43.9208 142.722 46.978 141.963 49.8384 140.853Z" fill="#7FBEE0"/>
<path d="M366.297 150.503C365.406 148.015 364.672 145.521 364.397 142.884C364.17 140.695 364.036 137.741 365.573 135.987C366.698 134.703 368.448 135.146 369.858 135.669C372.628 136.696 375.207 138.408 377.953 139.551C386.569 143.137 389.572 140.567 397.847 140.099C402.98 139.808 408.513 141.723 412.313 145.198C415.601 148.205 417.439 152.047 417.659 156.487C420.647 156.74 423.194 157.244 425.62 159.179C425.81 159.334 425.997 159.494 426.179 159.658C426.361 159.822 426.54 159.99 426.714 160.163C426.888 160.336 427.057 160.513 427.223 160.694C427.388 160.875 427.548 161.061 427.705 161.25C427.86 161.439 428.012 161.632 428.158 161.829C428.305 162.026 428.446 162.226 428.583 162.43C428.719 162.633 428.85 162.841 428.977 163.051C429.103 163.261 429.224 163.474 429.34 163.691C429.456 163.907 429.566 164.126 429.671 164.348C429.776 164.57 429.875 164.794 429.969 165.021C430.063 165.247 430.151 165.476 430.233 165.707C430.315 165.938 430.392 166.171 430.463 166.406C430.534 166.641 430.599 166.877 430.658 167.115C430.717 167.353 430.77 167.593 430.818 167.833C430.865 168.074 430.906 168.316 430.942 168.558C430.977 168.801 431.006 169.045 431.029 169.289C431.977 179.971 424.129 186.398 417.968 193.662C417.9 194.795 417.867 195.98 417.518 197.067C416.024 201.731 409.04 210.736 405.934 214.926C406.189 221.719 406.483 229.474 408.319 236.048C408.476 236.61 408.56 237.118 409.085 237.419L409.838 236.816C411.01 233.44 413.743 230.084 415.454 226.895C419.181 219.908 422.679 212.808 425.95 205.596C433.264 189.703 440.123 173.685 447.112 157.654C448.807 153.741 450.456 149.81 452.061 145.861C452.874 143.888 453.592 141.763 454.594 139.88C461.068 141.746 467.499 143.747 473.889 145.884C477.082 146.92 480.367 147.837 483.48 149.089C482.896 154.092 482.229 159.083 481.478 164.063C480.727 169.043 479.893 174.009 478.976 178.962C478.059 183.914 477.06 188.849 475.978 193.768C474.896 198.687 473.732 203.586 472.486 208.465C471.24 213.345 469.913 218.203 468.504 223.039C467.096 227.874 465.607 232.684 464.037 237.47C462.467 242.255 460.818 247.013 459.09 251.744C457.361 256.474 455.554 261.174 453.668 265.844C449.964 275.118 446.184 284.634 441.518 293.47C441.514 293.561 441.512 293.653 441.507 293.744C441.327 297.295 440.334 300.973 439.705 304.48C438.908 309.184 438.207 313.903 437.603 318.635C434.166 345.923 437.868 362.097 445.687 387.957C446.88 391.901 449.66 397.895 446.024 401.258C444.409 402.753 441.592 403.618 439.417 403.833C440.584 407.476 440.812 411.938 441.363 415.746C442.199 421.531 443.287 427.401 443.774 433.223C440.089 434.024 436.255 434.322 432.514 434.78C427.04 435.445 421.57 436.149 416.105 436.89L365.431 443.501C356.534 444.682 347.533 445.626 338.696 447.179C339.138 442.846 340.057 438.539 340.841 434.256C332.078 435.77 323.186 436.807 314.381 438.073L257.867 446.216C244.435 448.252 230.994 450.22 217.543 452.121C211.42 452.984 205.107 454.264 198.937 454.608C192.921 411.968 186.091 369.458 178.447 327.079C177.614 326.717 176.822 326.28 176.025 325.844C175.057 325.314 174.061 324.96 173.739 323.863C173.898 320.574 173.39 316.999 172.91 313.738C172.042 307.823 170.642 301.668 168.546 296.071C162.823 280.79 149.541 261.678 139.481 248.879L137.857 248.444C137.279 248.676 137.53 248.531 137.09 248.854C136.468 249.973 135.826 251.08 135.292 252.243C135.626 252.942 135.44 253.365 135.213 254.062C134.163 257.298 130.895 260.183 127.878 261.627C123.773 263.592 118.442 263.625 114.194 262.085C107.397 259.62 101.668 252.754 98.6531 246.4C99.3579 245.837 99.8875 245.364 100.391 244.611L99.22 241.882C95.7368 235.738 92.8374 228.476 89.6175 222.083C85.55 214.181 81.551 206.244 77.6204 198.273C75.725 194.413 73.7316 190.577 72.071 186.609C72.2236 177.006 74.8597 168.037 81.8704 161.224C82.0923 161.005 82.3169 160.789 82.5442 160.576C82.7713 160.363 83.0012 160.152 83.2338 159.945C83.4661 159.737 83.7011 159.532 83.9386 159.33C84.1762 159.129 84.4162 158.93 84.6587 158.734C84.9012 158.538 85.1461 158.345 85.3935 158.156C85.6406 157.966 85.8901 157.779 86.1421 157.595C86.3938 157.412 86.6479 157.231 86.9045 157.054C87.1608 156.877 87.4192 156.702 87.6797 156.532C87.9406 156.361 88.2034 156.193 88.4682 156.029C88.733 155.864 88.9998 155.703 89.2685 155.545C89.5376 155.388 89.8084 155.233 90.0811 155.082C90.3535 154.931 90.6279 154.784 90.9045 154.639C91.1808 154.495 91.4587 154.354 91.7383 154.217C92.0182 154.08 92.2997 153.946 92.5829 153.815C92.8661 153.685 93.1507 153.558 93.4368 153.435C93.7233 153.312 94.0111 153.192 94.3001 153.076C94.5895 152.96 94.8803 152.847 95.1723 152.738C95.4643 152.629 95.7577 152.524 96.0523 152.422C96.347 152.32 96.6428 152.222 96.9397 152.128C97.2367 152.034 97.5348 151.943 97.8341 151.856C98.1336 151.769 98.434 151.685 98.7352 151.606C99.0368 151.527 99.3392 151.451 99.6423 151.379C99.9455 151.307 100.25 151.239 100.554 151.174C100.86 151.11 101.165 151.049 101.472 150.992C101.778 150.935 102.085 150.882 102.393 150.833C102.701 150.783 103.009 150.738 103.318 150.696C103.627 150.655 103.937 150.617 104.246 150.583C104.556 150.549 104.866 150.519 105.177 150.493C105.487 150.466 105.798 150.444 106.109 150.425C106.421 150.407 106.732 150.392 107.043 150.381C107.355 150.37 107.666 150.363 107.978 150.36C108.29 150.357 108.601 150.358 108.913 150.362C113.161 150.429 118.082 151.077 121.681 153.473C123.174 154.467 124.516 155.797 126.142 156.567C130.975 158.857 133.765 158.123 137.917 162.514C140.232 164.961 141.834 167.956 141.749 171.41C141.658 175.065 140.202 178.678 139.71 182.303C138.14 193.87 144.448 203.872 151.981 212.041C161.116 221.947 173.972 229.015 176.286 243.457C186.094 241.504 196.153 240.413 206.03 238.785C207.483 237.991 204.817 231.15 206.355 228.796C207.277 227.386 208.954 227.205 210.51 226.965C224.739 224.773 239.037 222.88 253.292 220.852L267.624 218.801C270.518 218.385 273.47 217.835 276.388 217.655C277.437 217.59 278.712 217.501 279.581 218.194C281.66 219.853 281.546 224.597 281.817 227.066C287.611 225.763 293.712 225.207 299.596 224.373L328.942 220.113L332.002 241.029C332.532 244.661 333.267 248.384 333.564 252.036L333.774 252.206C335.024 251.728 339.546 246.84 341.083 245.566C344.336 242.872 348.185 240.411 352.093 238.79C356.713 236.873 362.786 235.926 367.554 237.897C369.601 235.04 370.869 224.128 371.527 220.053C366.134 217.019 361.955 212.283 359.193 206.769C354.167 196.737 355.438 185.491 359.592 175.419C361.052 171.881 363.034 168.441 364.194 164.806C364.226 164.706 364.256 164.605 364.286 164.504C362.716 161.897 360.845 158.84 361.536 155.658C362.098 153.073 364.2 151.776 366.297 150.503Z" fill="#080717"/>
<path d="M412.648 203.357L412.823 203.527L412.589 204.144L412.645 203.732L412.409 203.993L412.812 204.276C411.63 204.723 407.087 211.969 406.085 213.414C405.686 210.273 406.343 206.586 406.62 203.432C408.762 203.815 410.517 203.813 412.648 203.357Z" fill="#03100D"/>
<path d="M347.353 244.478C347.621 244.613 347.85 244.809 348.089 244.987C348.202 246.654 344.996 252.359 344.163 254.203C341.058 261.077 339.053 268.288 337.432 275.634L337.256 275.61C337.07 275.24 336.959 274.911 336.9 274.499C336.132 269.17 344.211 248.799 347.353 244.478Z" fill="#FEFEFF"/>
<path d="M366.018 151.521C366.125 151.527 366.648 151.647 366.738 151.701C367.063 151.892 370.882 156.167 372.187 157.194C369.905 158.426 368.144 160.087 366.461 162.031L364.954 164.032C363.565 161.691 361.766 158.648 362.367 155.819C362.822 153.68 364.33 152.666 366.018 151.521Z" fill="#03100D"/>
<path d="M410.804 242.571C411.302 242.792 411.511 242.892 411.784 243.37C411.75 243.452 411.725 243.538 411.682 243.616C409.824 247.024 399.858 251.279 396.169 252.098C385.601 254.445 371.5 253.545 362.196 247.628C361.675 247.22 361.128 246.904 360.946 246.233L361.192 245.941C361.373 245.931 361.56 245.865 361.735 245.911C362.6 246.136 364.041 247.393 364.945 247.864C366.291 248.565 367.739 249.112 369.187 249.557C375.374 251.46 382.261 252.271 388.707 251.882C396.751 251.396 405.303 248.743 410.804 242.571Z" fill="#FEFEFF"/>
<path d="M421.455 157.889C425.066 159.489 427.765 161.829 429.227 165.597C430.949 170.036 430.071 175.024 428.123 179.23C427.314 180.977 426.289 182.784 425.067 184.277C424.664 182.92 426.034 179.316 426.261 177.735C427.473 169.327 423.62 167.156 419.263 161.213L419.072 160.948C419.83 159.898 420.639 158.895 421.455 157.889Z" fill="#03100D"/>
<path d="M139.482 248.879C147.944 249.982 156.046 254.624 163.858 257.773C164.712 258.314 165.215 258.418 165.439 259.471C168.564 274.1 171.153 288.882 173.877 303.592C175.245 310.98 176.895 318.309 178.216 325.709C176.788 325.091 175.237 324.244 173.739 323.863C173.898 320.575 173.39 316.999 172.91 313.739C172.042 307.824 170.642 301.668 168.546 296.071C162.824 280.791 149.541 261.678 139.482 248.879Z" fill="#7FBEE0"/>
<path d="M441.518 293.47C441.514 293.561 441.512 293.653 441.507 293.744C441.327 297.295 440.334 300.973 439.705 304.48C438.908 309.184 438.207 313.903 437.603 318.635C434.166 345.923 437.868 362.097 445.687 387.957C446.88 391.901 449.66 397.895 446.024 401.258C444.409 402.753 441.592 403.618 439.417 403.833L438.738 404.001C419.973 407.41 401.403 410.001 382.364 411.301C373.954 411.876 365.57 412.36 357.136 412.137C356.894 411.012 356.603 409.894 356.335 408.774C360.814 408.864 365.467 408.304 369.946 408.036C390.223 406.821 410.49 405.32 430.468 401.451C434.771 400.617 439.597 399.978 443.528 397.973C443.148 392.001 438.971 380.009 437.26 373.7C432.156 354.869 430.638 336.175 433.44 316.827C433.999 312.97 434.451 308.755 435.683 305.05C437.02 301.029 439.409 297.136 441.518 293.47Z" fill="#007DC1"/>
<path d="M405.811 187.885C406.563 183.641 406.895 179.139 406.613 174.836C406.29 169.913 405.03 164.445 401.093 161.107C396.113 156.886 390.338 159.089 384.601 159.451C379.636 159.765 374.876 158.587 371.112 155.232C367.399 151.923 365.444 147.117 365.173 142.2C365.078 140.482 365.019 137.738 366.284 136.438C366.653 136.06 367.079 135.881 367.619 135.911C370.328 136.064 375.829 139.779 378.927 140.852C383.628 142.481 388.055 142.429 392.896 141.608C394.944 141.261 397.001 140.852 399.089 140.892C404.009 140.989 409.152 142.99 412.584 146.565C415.519 149.623 416.979 153.173 416.887 157.416C418.457 157.398 419.945 157.409 421.455 157.889C420.639 158.895 419.83 159.897 419.072 160.948L419.263 161.213C423.62 167.156 427.473 169.327 426.261 177.735C426.034 179.316 424.664 182.919 425.067 184.277C422.985 187.409 420.283 190.021 417.676 192.708C416.672 191.086 415.711 189.708 414.052 188.695C411.501 187.136 408.613 187.195 405.811 187.885Z" fill="#03100D"/>
<path d="M357.136 412.137C365.57 412.36 373.954 411.876 382.364 411.301C401.403 410.001 419.973 407.41 438.738 404.001C439.79 413.527 441.472 423.032 442.811 432.525C423.088 434.969 403.38 437.524 383.686 440.193C373.516 441.437 363.357 442.763 353.209 444.171C348.761 444.776 344.287 445.251 339.858 445.985C340.433 442.049 341.086 438.126 341.817 434.217C347.741 433.122 353.794 432.467 359.772 431.723C359.119 425.173 357.995 418.663 357.136 412.137Z" fill="#FEFEFF"/>
<path d="M99.3731 216.516C96.4702 216.655 94.1412 216.19 91.8673 214.203C90.1535 212.704 88.8507 210.501 88.7719 208.184C88.7109 206.368 89.5166 204.21 90.8593 202.955C92.2162 201.687 94.5753 201.874 96.2103 201.05C100.573 198.854 104.748 194.405 107.95 190.804C112.34 185.868 116.02 180.212 119.182 174.419C120.253 172.458 122.436 167.188 123.867 165.96C124.847 166.11 125.512 167.125 126.076 167.896C131.518 175.344 135.293 183.618 138.698 192.136C140.068 195.563 141.514 198.947 142.268 202.574C142.976 205.977 143.157 209.433 142.607 212.872C141.684 218.635 139.009 224.058 134.204 227.518C129.489 230.913 123.359 232.062 117.675 231.092C116.093 230.822 112.389 229.081 111.143 229.463C112.261 230.922 116.523 231.814 118.311 232.062C123.263 232.75 128.246 231.766 132.689 229.514C132.349 235.759 132.641 241.863 133.686 248.032C133.952 249.307 134.339 250.535 134.725 251.777C132.45 255.518 129.299 258.335 124.923 259.342C117.251 261.108 110.06 256.983 105.212 251.321C103.903 249.791 102.512 247.272 100.849 246.217L100.613 246.419L100.911 247.328C101.032 247.401 101.154 247.469 101.273 247.545C102.904 248.58 104.257 251.032 105.569 252.494C110.24 257.697 117.014 261.358 124.16 260.017C127.004 259.484 129.172 258.127 131.636 256.733C133.073 255.472 134.196 253.793 135.292 252.243C135.626 252.942 135.44 253.365 135.213 254.062C134.163 257.298 130.895 260.183 127.878 261.627C123.773 263.592 118.442 263.625 114.194 262.085C107.397 259.621 101.668 252.754 98.6531 246.4C99.3579 245.837 99.8875 245.364 100.391 244.611C100.761 243.107 101.079 241.652 101.247 240.111C102.803 232.47 102.078 223.815 99.3731 216.516Z" fill="#B16A40"/>
<path d="M100.911 247.328C101.032 247.4 101.154 247.469 101.274 247.545C102.904 248.58 104.257 251.032 105.569 252.494C110.24 257.697 117.014 261.358 124.16 260.017C127.004 259.484 129.172 258.127 131.636 256.733C131.602 256.828 131.574 256.926 131.532 257.019C130.637 258.997 127.259 260.581 125.237 261.196C120.962 262.494 116.186 261.781 112.315 259.635C108.491 257.516 102.12 251.561 100.911 247.328Z" fill="#007DC1"/>
<path d="M372.886 157.72C376.202 159.324 379.152 160.219 382.857 160.273C388.681 160.358 395.154 157.407 400.295 161.492C402.369 163.139 403.688 165.49 404.532 167.96C406.821 174.662 406.206 183.074 404.588 189.849C406.542 188.427 408.171 187.84 410.66 188.242C412.703 188.571 414.648 189.605 415.821 191.347C416.806 192.808 417.074 194.542 416.731 196.257C416.249 198.67 414.838 200.48 413.283 202.292C411.442 202.673 409.533 203.113 407.674 202.562C406.988 202.359 405.572 201.479 404.99 201.816C405.215 202.313 405.62 202.973 405.761 203.491C406.012 204.416 405.377 209.123 405.303 210.414C405.032 215.101 405.222 219.725 405.585 224.4C405.772 227.135 406.141 229.844 406.694 232.529C407.121 234.63 407.793 236.804 407.917 238.942C407.723 239.444 407.515 239.806 407.191 240.236C403.542 243.518 400.069 245.743 395.317 247.171C385.449 250.134 374.481 248.613 365.502 243.759L367.812 239.766C370.06 235.615 370.831 230.163 371.565 225.526C374.025 224.433 375.791 222.451 378.155 221.361C382.092 219.547 384.343 220.405 388.693 217.48C389.442 216.976 390.412 216.391 390.867 215.61C389.225 215.742 387.13 217.293 385.683 218.053C379.737 221.172 373.181 220.968 367.983 216.56C367.584 216.225 367.194 215.88 366.812 215.525C366.43 215.17 366.058 214.806 365.694 214.433C365.331 214.059 364.977 213.677 364.633 213.286C364.289 212.895 363.955 212.495 363.631 212.087C363.306 211.679 362.993 211.263 362.689 210.84C362.386 210.416 362.093 209.985 361.811 209.547C361.53 209.108 361.259 208.663 361 208.212C360.741 207.76 360.493 207.302 360.256 206.837C360.02 206.373 359.795 205.903 359.582 205.427C359.369 204.952 359.169 204.471 358.98 203.986C358.791 203.5 358.614 203.009 358.45 202.515C358.286 202.02 358.134 201.522 357.995 201.02C357.856 200.518 357.729 200.013 357.616 199.504C357.502 198.996 357.401 198.485 357.312 197.971C357.224 197.458 357.149 196.942 357.086 196.425C357.024 195.908 356.975 195.389 356.938 194.869C356.704 191.684 356.787 188.358 357.402 185.218C358.604 179.087 363.491 166.62 367.629 161.919C369.178 160.16 370.877 158.905 372.886 157.72Z" fill="#B16A40"/>
<path d="M362.913 192.849C371.011 194.184 379.102 195.758 387.245 196.791C386.356 199.721 384.672 201.937 382.781 204.291C382.48 204.618 382.165 204.928 381.833 205.222C379.368 207.448 376.166 208.962 372.78 208.731C370.295 208.561 368.127 207.359 366.522 205.474C363.631 202.081 362.63 197.198 362.913 192.849Z" fill="#080717"/>
<path d="M363.772 193.875C367.462 194.489 371.127 195.242 374.82 195.84C378.549 196.443 382.365 196.873 386.039 197.746C384.99 200.088 383.486 201.962 381.861 203.929C379.748 205.999 377.155 207.664 374.137 207.913C371.932 208.095 369.845 207.392 368.182 205.937C364.721 202.907 364.033 198.189 363.772 193.875Z" fill="#FEFEFF"/>
<path d="M206.03 238.785C207.483 237.991 204.817 231.15 206.355 228.796C207.277 227.386 208.954 227.205 210.51 226.965C224.739 224.773 239.037 222.88 253.292 220.852L267.624 218.801C270.518 218.385 273.47 217.835 276.388 217.655C277.437 217.59 278.712 217.501 279.581 218.194C281.66 219.853 281.546 224.597 281.817 227.066L282.003 227.817C297.375 225.627 312.781 223.558 328.122 221.161C329.612 231.708 331.176 242.243 332.815 252.768C333.331 257.408 334.192 262.02 334.894 266.636L337.78 286.975L348.331 361.148C350.767 377.485 353.549 393.775 355.742 410.146C357.06 416.932 357.778 423.97 358.757 430.821C351.204 432.049 343.572 432.976 335.993 434.051L293.746 440.148L250.22 446.42C233.471 448.902 216.71 451.526 199.91 453.635C198.37 446.915 197.729 439.796 196.729 432.961L191.567 398.769C186.677 366.639 181.085 334.631 174.789 302.746L168.64 270.596C167.741 265.949 167.161 261.031 165.959 256.479C165.581 253.084 164.679 249.662 163.962 246.323C167.899 245.555 171.97 245.412 175.881 244.478C180.357 243.988 184.844 243.173 189.294 242.481C194.961 241.599 200.653 240.783 206.295 239.756L206.751 239.443L206.648 239.02L206.03 238.785Z" fill="#FEFEFF"/>
<path d="M306.436 280.394C307.555 280.172 308.628 279.837 309.75 280.16L310.044 280.466C309.344 281.117 308.454 281.139 307.532 281.233C304.633 281.652 284.829 285.118 283.476 284.334C285.834 283.004 302.685 280.95 306.436 280.394Z" fill="#007DC1"/>
<path d="M224.236 305.735C224.519 305.688 224.822 305.721 225.109 305.727L225.445 306.153C224.989 306.569 224.761 306.597 224.152 306.731C221.96 307.215 219.558 307.318 217.32 307.653L200.127 310.29C199.49 310.335 199.4 310.399 198.876 310.055L198.953 309.657C200.501 308.724 220.712 306.232 224.236 305.735Z" fill="#007DC1"/>
<path d="M236.251 379.321C236.394 379.303 236.535 379.26 236.678 379.268C237.141 379.295 237.267 379.504 237.479 379.868C236.136 380.834 214.678 383.521 211.699 383.773C211.145 383.847 211.127 383.847 210.64 383.573L210.661 383.205C212.205 382.469 232.522 379.905 236.251 379.321Z" fill="#007DC1"/>
<path d="M317.418 331.109L317.683 331.237L317.776 331.654C316.656 332.49 293.574 335.399 290.201 335.854C289.845 335.813 289.832 335.709 289.584 335.467L289.695 335.155C290.497 334.66 314.756 331.412 317.418 331.109Z" fill="#007DC1"/>
<path d="M254.701 354.695C258.191 354.018 274.449 351.22 276.977 351.721C276.775 352.098 276.372 352.129 275.972 352.253C273.165 353.127 270 353.261 267.096 353.701C263.205 354.29 259.303 355.089 255.39 355.498C253.837 355.997 250.953 356.426 249.32 356.281C248.78 356.233 248.973 356.329 248.649 355.963C249.511 354.951 253.281 354.865 254.701 354.695Z" fill="#007DC1"/>
<path d="M272.697 337.494C273.425 337.344 274.049 337.302 274.714 337.622L274.678 337.88C273.343 338.568 251.899 341.472 248.378 341.974C247.771 342.13 247.275 342.213 246.641 342.227L246.38 341.935L246.581 341.48C248.702 340.604 251.732 340.51 254.015 340.157C260.224 339.198 266.449 338.16 272.697 337.494Z" fill="#007DC1"/>
<path d="M317.63 345.358C318.495 345.159 319.253 345.151 320.074 345.512L319.98 345.79C317.883 346.666 314.789 346.776 312.496 347.136C306.759 348.068 301.012 348.935 295.256 349.738C294.38 349.891 293.299 350.224 292.439 349.946L292.354 349.577C293.525 348.693 314.328 345.828 317.63 345.358Z" fill="#007DC1"/>
<path d="M279.357 372.438C279.664 372.436 279.468 372.412 279.91 372.655L279.844 372.968C278.396 373.904 256.267 377.067 253.04 377.485L252.409 377.339L252.263 376.937C253.674 375.883 275.845 372.922 279.357 372.438Z" fill="#007DC1"/>
<path d="M305.402 293.212C307.615 292.878 309.952 292.395 312.194 292.557C311.073 293.71 307.968 293.844 306.371 294.05C300.975 294.853 295.563 295.773 290.148 296.435C288.642 296.75 286.11 297.581 284.675 296.761L284.908 296.423C286.29 295.865 287.74 295.802 289.209 295.669C290.793 295.134 292.861 295.037 294.532 294.794L305.402 293.212Z" fill="#007DC1"/>
<path d="M319.363 366.364C320.546 366.16 321.669 365.864 322.857 366.16L322.997 366.466C321.963 367.301 320.54 367.324 319.267 367.483C314.002 368.354 308.731 369.181 303.453 369.966C300.918 370.376 297.899 371.177 295.334 370.962L295.213 370.649C296.832 369.389 300.764 369.335 302.82 369.044C308.336 368.218 313.887 367.426 319.363 366.364Z" fill="#007DC1"/>
<path d="M262.553 317.283C265.419 316.722 268.7 315.992 271.617 316.4L271.687 316.599L271.858 316.514L271.436 316.417L271.398 316.738C268.802 317.413 266.182 317.765 263.526 318.107C262.441 318.27 261.268 318.551 260.178 318.578L256.391 319.159C255.211 319.331 253.944 319.623 252.756 319.651C249.875 320.18 246.83 320.644 243.907 320.826L243.601 320.545L243.68 320.175C246.134 319.277 249.447 319.136 252.046 318.795C253.112 318.487 254.394 318.454 255.503 318.313C256.893 318.015 258.257 317.842 259.668 317.695C260.609 317.477 261.595 317.4 262.553 317.283Z" fill="#007DC1"/>
<path d="M310.577 310.206C311.792 310 312.944 309.712 314.164 310.004L314.491 310.306C313.97 310.946 312.918 311.01 312.146 311.092C311.766 311.131 311.385 311.165 311.004 311.196C309.896 311.388 308.799 311.583 307.677 311.684C304.526 312.222 301.369 312.722 298.207 313.184C296.964 313.368 295.618 313.673 294.37 313.731C292.686 313.998 290.971 314.34 289.274 314.497C288.298 314.587 287.618 314.745 286.83 314.106L286.49 314.354L286.915 314.523L287.349 313.923C289.231 313.286 291.445 313.138 293.408 312.9C294.545 312.561 295.995 312.514 297.185 312.361C300.368 311.629 303.933 311.166 307.182 310.808L310.577 310.206Z" fill="#007DC1"/>
<path d="M206.03 238.785C207.483 237.991 204.817 231.15 206.356 228.796C207.277 227.386 208.954 227.205 210.51 226.965C224.739 224.773 239.037 222.88 253.292 220.852L267.625 218.801C270.518 218.385 273.47 217.835 276.388 217.655C277.437 217.59 278.713 217.501 279.581 218.194C281.66 219.853 281.546 224.597 281.817 227.066L282.003 227.817C283.302 235.646 284.104 243.613 285.152 251.485C285.904 257.144 288.699 271.804 287.959 276.279C287.39 276.758 286.868 277.195 286.116 277.337C282.573 278.007 278.914 278.328 275.346 278.89C262.556 280.925 249.743 282.811 236.909 284.548C232.653 285.156 219.649 287.649 216.076 287.37C215.316 287.311 214.473 286.853 213.995 286.257C212.918 284.913 208.989 254.404 208.348 249.824C207.937 246.877 207.812 243.249 206.918 240.426C206.768 239.951 206.755 239.966 206.295 239.756L206.751 239.443L206.648 239.02L206.03 238.785Z" fill="#FEE5A3"/>
<path d="M267.301 256.958C268.911 256.881 270.048 256.845 271.48 257.635C271.774 258.084 271.782 258.381 271.805 258.91C270.964 260.187 268.685 259.596 267.274 260.016C266.924 260.456 266.947 260.433 266.989 260.996C267.789 262.003 270.035 262.07 271.202 262.909C272.157 263.596 272.811 264.523 272.974 265.703C273.126 266.807 272.743 267.927 272.066 268.795C271.058 270.087 269.805 270.378 268.249 270.57C266.834 270.494 265.555 270.294 264.176 269.976C264.396 268.972 264.665 267.978 264.921 266.983C265.848 267.313 266.993 267.759 267.98 267.774C268.793 267.786 269.55 267.464 270.114 266.89C269.582 264.778 265.031 264.479 263.9 261.956C263.61 261.31 263.604 260.678 263.861 260.02C264.544 258.268 265.628 257.639 267.301 256.958Z" fill="#03100D"/>
<path d="M235.01 256.33C235.779 256.231 236.584 255.995 237.281 256.42C237.77 257.276 237.537 258.605 237.498 259.572C235.242 259.669 232.983 259.858 230.73 260.007L231.259 264.062C232.484 263.905 233.873 263.612 235.104 263.681C235.992 263.731 236.782 263.952 237.368 264.646C237.329 265.162 237.414 265.025 237.055 265.453C235.91 266.819 233.374 266.908 231.756 267.139L232.49 271.383C232.705 272.606 232.789 273.839 232.892 275.075L229.441 275.374C228.591 269.317 227.813 263.154 227.338 257.057L235.01 256.33Z" fill="#03100D"/>
<path d="M244.001 259.902C245.684 259.855 247.335 259.826 248.608 261.117C250.019 262.549 250.025 264.685 250.077 266.56C248.197 267.103 244.581 266.995 243.12 268.062C243.236 268.798 243.389 269.619 244.101 270.032C245.219 270.682 247.096 270.019 248.189 269.605L249.544 269.096L249.955 269.338C250.018 269.999 250.204 270.944 249.946 271.568C249.697 272.173 249.016 272.529 248.439 272.744C246.729 273.38 244.619 273.548 242.938 272.738C241.487 272.038 240.506 270.703 239.983 269.207C239.287 267.216 239.254 264.778 240.212 262.864C241.061 261.168 242.253 260.465 244.001 259.902Z" fill="#03100D"/>
<path d="M244.373 262.838C244.987 262.816 245.552 262.759 246.099 263.107C246.654 263.46 246.89 263.808 247.021 264.422C246.601 264.925 246.493 264.855 245.887 265.018C244.648 265.108 243.768 265.267 242.67 264.573L242.61 264.111C243.103 263.43 243.641 263.192 244.373 262.838Z" fill="#FEE5A3"/>
<path d="M255.978 258.187C257.636 258.091 259.248 258.029 260.539 259.26C262.125 260.773 262.075 263.149 262.108 265.172C260.445 265.642 256.678 265.679 255.569 266.535C255.236 266.793 255.306 266.935 255.245 267.319C255.37 267.559 255.376 267.604 255.592 267.826C257.559 269.836 259.587 267.782 261.664 267.891C261.765 267.896 261.865 267.923 261.966 267.939C262.093 268.414 262.321 269.027 262.331 269.513C262.342 270.1 262.145 270.434 261.66 270.744C260.244 271.649 257.605 271.924 255.996 271.484C254.519 271.081 253.318 270.091 252.583 268.755C251.531 266.84 251.315 264.226 252.038 262.164C252.774 260.067 254.014 259.092 255.978 258.187Z" fill="#03100D"/>
<path d="M256.365 261.014C256.903 261.005 257.503 260.949 257.985 261.235C258.613 261.606 258.869 262.035 259.092 262.691C258.824 263.251 258.704 263.257 258.148 263.558C257.302 263.613 256.235 263.803 255.445 263.461C255.033 263.283 255.109 263.183 254.986 262.8C255.307 262.016 255.755 261.592 256.365 261.014Z" fill="#FEE5A3"/>
<path d="M255.628 235.289C256.728 235.257 257.861 235.187 258.895 235.624C260.664 236.373 261.878 237.941 262.525 239.711C263.388 242.071 263.651 245.324 262.517 247.624C261.564 249.56 260.228 250.251 258.243 250.87C256.884 251.037 255.604 251.092 254.337 250.482C252.585 249.636 251.452 248.01 250.892 246.184C250.156 243.784 250.086 240.626 251.316 238.383C252.331 236.531 253.674 235.878 255.628 235.289Z" fill="#03100D"/>
<path d="M255.723 238.431C256.157 238.407 256.599 238.383 257.03 238.464C257.797 238.609 258.34 239.072 258.787 239.691C259.897 241.227 260.157 243.301 259.831 245.132C259.596 246.453 259.111 247.011 258.037 247.771C257.78 247.786 257.523 247.795 257.266 247.792C256.461 247.78 255.868 247.443 255.328 246.858C254.253 245.689 253.933 243.959 253.988 242.419C254.05 240.655 254.41 239.608 255.723 238.431Z" fill="#FEE5A3"/>
<path d="M245.002 232.106L245.453 232.128C245.806 232.423 245.92 232.659 246.029 233.092C246.87 236.407 247.102 240.054 247.563 243.446C247.837 245.458 248.339 247.564 248.41 249.591C248.44 250.425 248.449 250.886 248.02 251.589C247.49 251.828 246.903 252.135 246.309 252.125C243.329 252.075 237.761 243.4 235.57 241.01L235.328 240.748C235.729 244.783 236.53 248.786 236.955 252.83L234.001 253.413L233.459 253.242C233.286 252.963 233.203 252.869 233.115 252.509C232.765 251.091 232.881 249.193 232.711 247.708C232.223 243.483 230.739 238.515 231.087 234.321C231.611 233.793 232.261 233.602 232.997 233.605C233.641 233.606 233.867 233.648 234.369 234.054C236.231 235.564 237.779 238.133 239.261 240.023C240.73 241.933 242.329 243.727 244.058 245.406C243.617 241.188 243.047 236.984 242.721 232.754C243.189 232.347 244.365 232.244 245.002 232.106Z" fill="#03100D"/>
<path d="M339.849 373.177C339.978 373.277 340.145 373.343 340.236 373.479C340.404 373.73 346.248 414.973 346.947 419.319L212.19 439.216L211.403 439.214C211.284 439.044 211.109 438.902 211.046 438.705C210.741 437.749 210.834 436.283 210.729 435.247C210.477 432.766 210.113 430.285 209.767 427.814L206.558 405.959C205.939 401.749 205.095 397.384 204.925 393.135C213.824 392.184 222.78 390.577 231.644 389.309L301.06 379.037C313.955 377.068 326.902 374.703 339.849 373.177Z" fill="#080717"/>
<path d="M338.755 374.412C338.936 374.405 339.09 374.553 339.247 374.642C340.198 377.944 340.545 383.118 341.076 386.687C342.559 397.299 344.112 407.901 345.736 418.493C326.618 421.548 307.418 424.17 288.264 426.984L212.929 438.187C212.553 438.277 212.456 438.248 212.093 438.159C211.515 436.921 210.869 429.033 210.574 426.907C208.941 415.953 207.378 404.988 205.886 394.014L287.248 382.046C304.391 379.508 321.544 376.398 338.755 374.412Z" fill="#FEFEFF"/>
<path d="M321.965 405.795C323.67 405.444 325.225 405.021 326.966 405.361L327.024 405.642C325.748 406.394 324.249 406.473 322.807 406.664L316.416 407.689C313.017 408.219 309.614 408.725 306.207 409.206L303.248 409.663L299.529 410.207L296.152 410.696L277.532 413.592C276.194 413.791 274.714 414.137 273.371 414.151C272.38 414.321 271.394 414.493 270.394 414.611C269.047 414.808 265.521 415.689 264.489 415.058L264.537 414.586C265.799 413.904 268.214 413.881 269.667 413.689L272.259 413.325L276.567 412.716C282.876 411.658 289.232 410.793 295.557 409.82C296.501 409.638 297.46 409.512 298.41 409.366L302.418 408.764C303.33 408.591 304.267 408.491 305.186 408.359C308.504 407.772 311.836 407.273 315.182 406.862C317.389 406.36 319.72 406.071 321.965 405.795Z" fill="#007DC1"/>
<path d="M313.537 393.613C316.973 393.119 322.146 391.77 325.464 392.283C322.884 393.78 317.581 394.01 314.495 394.451L311.607 394.895C309.439 395.222 307.27 395.579 305.097 395.875C302.886 396.216 300.673 396.546 298.458 396.865L294.86 397.415L292.079 397.844C291.034 397.992 289.983 398.177 288.93 398.252C285.835 399.068 282.433 399.364 279.26 399.816C275.16 400.441 271.056 401.04 266.948 401.612C264.213 402.034 261.476 402.508 258.73 402.845C257.098 403.142 255.446 403.625 253.84 403.002L253.985 402.674C255.201 402.185 256.423 402.107 257.713 401.98C260.298 401.134 264.559 400.828 267.351 400.583C268.744 399.865 276.264 399.171 278.279 398.922C281.501 398.205 284.911 397.871 288.179 397.388C289.132 397.227 290.092 397.11 291.049 396.979C291.896 396.793 292.775 396.693 293.633 396.561L297.298 396.016L304.099 395.007L310.707 394.034L313.537 393.613Z" fill="#007DC1"/>
</svg>
