<svg width="320" height="320" viewBox="0 0 320 320" fill="none" xmlns="http://www.w3.org/2000/svg">
<path d="M143.702 46.9535C143.886 47.0497 144.025 47.0835 144.139 47.2672C144.753 48.2497 145.288 50.8941 145.07 51.9929L144.748 51.8404C144.151 51.0326 143.605 47.9757 143.702 46.9535Z" fill="#080717"/>
<path d="M120.794 74.1144C122.15 74.2272 124.871 73.95 125.979 74.6475L126.06 75.1016C125.028 75.0228 121.406 75.1478 120.732 74.5038L120.794 74.1144Z" fill="#080717"/>
<path d="M127.178 56.1937C127.631 56.3206 127.897 56.4947 128.256 56.7906C129.086 57.4747 130.872 58.845 130.986 59.9428C130.957 59.9347 130.928 59.9265 130.899 59.9187C130.694 59.8656 130.553 59.834 130.373 59.7197C129.485 59.1581 127.355 57.1969 127.178 56.1937Z" fill="#080717"/>
<path d="M13.3649 88.0953C11.0961 82.4906 2.63861 80.9759 0.760983 76.9762C0.439821 76.2919 0.303955 75.5084 0.578774 74.785C0.943765 73.8247 1.74044 72.9925 2.49821 72.3181C4.51381 70.5253 7.09281 69.0503 9.31747 67.4975C11.4883 65.9822 13.8043 63.8959 16.1978 62.8137C17.4093 62.2659 18.7352 62.179 19.9676 62.715C22.3972 63.7712 23.3325 66.4997 24.1652 68.7897C24.2012 68.7619 24.2367 68.7337 24.2732 68.7065C24.334 68.6615 24.396 68.6181 24.4569 68.5731C24.7159 68.3828 24.9765 68.1812 25.2649 68.0365C25.8781 67.7287 26.9425 67.349 27.615 67.6565C29.9917 68.7444 27.4705 75.4837 27.3335 77.5044C27.192 79.5915 27.5378 81.604 28.0941 83.6065L28.4064 84.1878C28.6831 84.2581 28.9553 84.3147 29.2368 84.3612C30.3279 85.8112 30.8103 87.8087 31.6434 89.4303C29.8273 90.1353 27.8862 90.6169 26.0176 91.1715L18.41 93.4803C16.9788 93.904 15.4908 94.2569 14.1013 94.7975C13.7335 93.0934 13.3201 91.3781 13.107 89.6465C13.0266 88.9928 12.9481 88.6353 13.3649 88.0953Z" fill="#080717"/>
<path d="M14.0182 88.0381C10.7771 81.7878 3.43509 80.535 1.46226 77.1112C1.09949 76.4815 1.03574 75.7581 1.23522 75.0637C1.48501 74.1946 2.08253 73.475 2.73491 72.8706C4.77674 70.9796 8.55937 68.7259 10.9414 67.0706C12.6296 65.8975 14.302 64.3915 16.1352 63.4821C17.2214 62.9434 18.4096 62.7543 19.5665 63.1971C22.8725 64.4621 23.1058 68.3962 24.3123 71.1693L24.4719 71.1618C24.6527 70.5634 24.5561 70.0749 24.4662 69.4649C24.9737 68.9218 25.6626 68.3212 26.3843 68.0943C26.7973 67.9643 27.0021 68.0546 27.3781 68.2281C29.0543 70.3221 26.9176 75.3365 26.7462 77.864C26.6134 79.8221 27.0282 81.9071 27.4858 83.8003C27.5775 84.2106 27.688 84.2609 27.4616 84.6371C25.9542 85.0578 14.3896 88.1256 14.0182 88.0381Z" fill="#B16A40"/>
<path d="M295.912 67.0784C296.636 64.835 297.533 62.1331 299.786 60.9731C300.873 60.4131 302.098 60.3572 303.246 60.76C305.161 61.4322 315.384 69.0353 317.269 70.7353C317.866 71.2743 318.506 71.9068 318.844 72.6453C319.244 73.5237 319.278 74.4993 318.903 75.3918C317.331 79.1609 309.059 81.3109 307.517 86.3837L307.718 86.5828C308.136 88.4618 307.388 91.795 307.141 93.7909C303.703 92.5265 300.127 91.5381 296.627 90.4506C294.137 89.6768 291.505 88.6562 288.948 88.1762C289.595 86.2656 290.446 83.8115 291.576 82.1553C291.992 82.0603 292.228 82.2175 292.621 82.3556C292.925 79.8962 293.214 77.3625 292.97 74.8856C292.749 72.649 289.993 67.7918 292.187 66.1281C292.639 65.7853 293.184 65.6175 293.75 65.7281C294.589 65.8922 295.31 66.504 295.912 67.0784Z" fill="#080717"/>
<path d="M293.108 82.5096C293.667 79.0825 293.89 75.854 292.972 72.4706C292.613 71.1493 291.997 69.7271 291.913 68.3587C291.871 67.6893 291.939 66.9178 292.573 66.525C293.062 66.2221 293.692 66.2887 294.203 66.4878C294.816 66.7259 295.22 67.1025 295.579 67.6396C295.744 68.6271 295.133 69.5503 295.35 70.5249L295.483 70.5837C297.038 67.7296 296.702 62.4556 300.549 61.2662C301.883 60.8534 303.134 61.2493 304.309 61.9078C306.334 63.0421 308.224 64.7093 310.103 66.0803C312.376 67.74 314.981 69.3159 317 71.2718C317.65 71.9031 318.281 72.6809 318.531 73.5687C318.706 74.1778 318.666 74.7368 318.341 75.2853C316.178 78.9518 309.908 80.0724 306.916 86.3331C302.542 85.4812 297.436 82.944 293.108 82.5096Z" fill="#B16A40"/>
<path d="M25.0637 135.296C27.3674 140.843 29.1749 146.628 31.3172 152.245C34.9422 161.481 38.6454 170.685 42.4269 179.858C43.8346 183.319 45.2825 186.764 46.7706 190.192C47.5172 191.946 48.1544 193.822 49.1159 195.47C52.6247 202.855 55.4772 210.451 58.319 218.108C53.1275 218.226 47.934 217.861 42.8912 216.554C42.4831 216.448 42.0763 216.338 41.6709 216.223C41.2657 216.107 40.8619 215.987 40.4594 215.861C40.0569 215.736 39.656 215.606 39.2569 215.471C38.8575 215.335 38.4599 215.195 38.064 215.051C37.6682 214.906 37.2742 214.756 36.8819 214.602C36.4898 214.448 36.0996 214.288 35.7112 214.124C35.3229 213.96 34.9367 213.792 34.5525 213.618C34.1681 213.445 33.786 213.267 33.4062 213.084C33.0264 212.902 32.6488 212.715 32.2734 212.523C31.8982 212.331 31.5253 212.135 31.1547 211.933C30.7842 211.732 30.4162 211.527 30.0507 211.317C29.6852 211.107 29.3223 210.893 28.962 210.674C28.6017 210.455 28.2442 210.232 27.8893 210.005C27.5345 209.777 27.1825 209.545 26.8333 209.309C26.4841 209.073 26.1379 208.833 25.7945 208.588C25.4512 208.344 25.1109 208.095 24.7737 207.842C24.4364 207.589 24.1023 207.332 23.7713 207.072C23.4403 206.811 23.1125 206.546 22.788 206.277C22.4634 206.008 22.1422 205.735 21.8244 205.458C21.5065 205.181 21.192 204.901 20.881 204.616C20.5699 204.332 20.2624 204.043 19.9584 203.751C19.6544 203.459 19.354 203.164 19.0572 202.864C18.7604 202.565 18.4673 202.262 18.1779 201.956C17.8885 201.649 17.6028 201.339 17.321 201.026C17.0391 200.713 16.7611 200.396 16.487 200.076C16.2129 199.755 15.9427 199.432 15.6765 199.105C15.4102 198.778 15.148 198.448 14.8898 198.115C14.6316 197.782 14.3775 197.446 14.1275 197.106C13.8775 196.767 13.6317 196.425 13.3901 196.079C13.1484 195.734 12.911 195.386 12.6779 195.034C12.4447 194.683 12.2159 194.329 11.9914 193.973C11.7668 193.616 11.5467 193.256 11.331 192.894C5.25564 182.489 2.57324 168.925 5.72292 157.179C8.75317 145.878 15.5618 140.815 25.0637 135.296Z" fill="#080717"/>
<path d="M59.2572 220.867C61.0872 219.733 63.1681 218.817 65.0985 217.85C75.1938 212.792 89.3213 206.996 100.738 209.285C100.311 212.004 100.007 214.689 99.975 217.445C100.233 226.166 104.228 234.348 106.638 242.611C111.485 259.234 114.857 276.496 114.674 293.877C110.948 292.527 107.216 291.201 103.571 289.642C101.842 288.901 100.129 288.126 98.4316 287.316C96.7343 286.506 95.0541 285.662 93.391 284.784C91.7278 283.906 90.0831 282.995 88.4569 282.051C86.8306 281.106 85.2241 280.129 83.6372 279.12C82.0505 278.11 80.4849 277.069 78.9403 275.996C77.3955 274.924 75.8731 273.82 74.3731 272.686C72.8731 271.551 71.3967 270.387 69.9438 269.193C68.4909 267.999 67.0627 266.776 65.6594 265.524C61.5841 261.903 57.7372 258.021 53.9028 254.148L53.9678 253.936C55.016 250.569 56.6819 247.187 58.2622 244.033C59.3372 241.887 60.8628 239.722 61.3281 237.344C61.8188 234.84 61.4553 231.875 61.0894 229.378C60.6653 226.482 59.8022 223.725 59.2572 220.867Z" fill="#080717"/>
<path d="M31.6434 89.4303C33.309 92.2575 34.6075 95.2837 35.9872 98.255C38.2034 103.096 40.4742 107.912 42.7997 112.702C43.714 114.542 44.54 116.861 45.7593 118.482C46.8137 121.001 48.0793 123.437 49.2828 125.887C51.7784 130.949 54.3175 135.988 56.9 141.005C58.9444 145.064 60.7853 149.675 62.9968 153.576L63.7403 155.309C63.4206 155.787 63.0844 156.087 62.6369 156.444C64.5512 160.479 68.1884 164.838 72.504 166.403C75.2015 167.381 78.5859 167.36 81.1922 166.112C83.1078 165.196 85.1828 163.364 85.8497 161.309C85.9934 160.867 86.1119 160.598 85.9 160.154C86.239 159.416 86.6465 158.713 87.0415 158.003C87.3209 157.797 87.1615 157.889 87.5281 157.742C87.7659 159.105 91.2503 163.056 92.255 164.496C100.192 175.873 107.888 187.661 109.195 201.787C109.426 204.283 109.644 207.168 108.989 209.612C108.252 212.509 106.17 214.219 103.697 215.687C102.562 216.361 101.239 217.072 99.975 217.445C100.007 214.689 100.311 212.004 100.738 209.285C89.3212 206.996 75.1937 212.792 65.0984 217.85C63.1681 218.817 61.0872 219.733 59.2572 220.867C59.2015 220.09 59.0269 219.352 58.8572 218.594C61.7644 217.693 64.5881 216.005 67.374 214.76C74.225 211.698 81.6081 209.079 89.0828 208.117C94.3044 207.444 103.473 207.157 107.763 210.515L107.944 210.659L108.184 210.587L108.426 209.828C107.338 209.059 106.188 208.536 104.928 208.118C101.666 207.035 98.3084 206.782 94.8937 206.811C81.9512 206.917 70.5578 212.192 59.25 217.937C57.7153 213.331 55.8397 208.737 54.0006 204.242C52.6984 201.06 51.4334 197.698 49.7331 194.707L49.5222 194.664L49.1159 195.47C48.1544 193.822 47.5172 191.946 46.7706 190.192C45.2825 186.764 43.8346 183.319 42.4269 179.857C38.6454 170.685 34.9422 161.481 31.3172 152.245C29.1748 146.628 27.3674 140.842 25.0637 135.296C20.432 122.131 16.382 108.586 14.1013 94.7975C15.4908 94.2569 16.9788 93.904 18.41 93.4803L26.0176 91.1715C27.8862 90.6169 29.8273 90.1353 31.6434 89.4303Z" fill="#7FBEE0"/>
<path d="M232.569 95.5575C232.004 93.9775 231.538 92.3941 231.363 90.72C231.219 89.3303 231.134 87.4547 232.11 86.3412C232.824 85.5256 233.935 85.8072 234.83 86.1391C236.589 86.7909 238.227 87.8784 239.97 88.6041C245.441 90.8809 247.348 89.2487 252.602 88.9516C255.86 88.7672 259.373 89.9828 261.786 92.1894C263.874 94.0984 265.04 96.5378 265.18 99.3569C267.077 99.5172 268.694 99.8375 270.235 101.066C270.356 101.165 270.474 101.266 270.59 101.37C270.706 101.474 270.819 101.581 270.929 101.691C271.04 101.801 271.148 101.913 271.253 102.028C271.357 102.143 271.459 102.261 271.558 102.381C271.657 102.501 271.753 102.624 271.847 102.749C271.939 102.874 272.029 103.001 272.116 103.13C272.203 103.259 272.286 103.391 272.366 103.524C272.446 103.658 272.523 103.793 272.597 103.931C272.67 104.068 272.74 104.207 272.807 104.348C272.874 104.489 272.937 104.631 272.996 104.775C273.056 104.919 273.111 105.064 273.164 105.211C273.216 105.358 273.265 105.505 273.31 105.654C273.355 105.804 273.396 105.954 273.434 106.105C273.471 106.256 273.505 106.408 273.535 106.561C273.565 106.714 273.591 106.867 273.614 107.021C273.636 107.175 273.655 107.33 273.669 107.485C274.271 114.267 269.288 118.348 265.377 122.96C265.333 123.679 265.312 124.432 265.091 125.122C264.142 128.083 259.708 133.801 257.736 136.461C257.898 140.774 258.084 145.698 259.25 149.872C259.35 150.229 259.403 150.551 259.736 150.742L260.215 150.359C260.959 148.216 262.694 146.085 263.781 144.061C266.147 139.624 268.368 135.116 270.444 130.537C275.088 120.446 279.443 110.276 283.881 100.097C284.957 97.6135 286.004 95.1177 287.023 92.61C287.539 91.3572 287.995 90.0081 288.631 88.8128C292.741 89.9976 296.825 91.2682 300.882 92.6247C302.909 93.2825 304.995 93.8647 306.971 94.66C306.601 97.836 306.177 101.005 305.7 104.167C305.224 107.329 304.694 110.482 304.112 113.627C303.53 116.771 302.895 119.904 302.208 123.027C301.521 126.15 300.782 129.261 299.991 132.359C299.2 135.457 298.357 138.542 297.463 141.612C296.569 144.682 295.623 147.736 294.627 150.775C293.63 153.813 292.583 156.834 291.486 159.837C290.388 162.841 289.241 165.825 288.043 168.79C285.691 174.678 283.292 180.72 280.329 186.33C280.327 186.388 280.325 186.446 280.322 186.504C280.208 188.759 279.577 191.094 279.178 193.321C278.672 196.308 278.227 199.303 277.843 202.308C275.661 219.634 278.012 229.903 282.976 246.322C283.733 248.826 285.498 252.632 283.19 254.767C282.164 255.716 280.376 256.266 278.995 256.402C279.736 258.715 279.881 261.548 280.23 263.966C280.761 267.639 281.452 271.366 281.762 275.062C279.422 275.571 276.988 275.76 274.612 276.051C271.136 276.473 267.664 276.92 264.194 277.391L232.02 281.588C226.371 282.338 220.656 282.937 215.045 283.923C215.326 281.172 215.909 278.437 216.407 275.718C210.843 276.679 205.198 277.338 199.607 278.142L163.725 283.312C155.197 284.604 146.663 285.854 138.123 287.061C134.235 287.609 130.227 288.422 126.309 288.64C122.49 261.567 118.153 234.577 113.3 207.669C112.771 207.44 112.268 207.162 111.762 206.885C111.147 206.548 110.515 206.324 110.31 205.627C110.411 203.539 110.089 201.269 109.784 199.199C109.233 195.443 108.344 191.535 107.013 187.982C103.38 178.28 94.9469 166.145 88.5597 158.018L87.5282 157.742C87.1616 157.889 87.321 157.797 87.0416 158.003C86.6466 158.713 86.2391 159.416 85.9 160.154C86.1119 160.598 85.9935 160.867 85.8497 161.309C85.1828 163.364 83.1078 165.196 81.1922 166.112C78.586 167.36 75.2016 167.381 72.5041 166.403C68.1885 164.838 64.5513 160.479 62.6369 156.444C63.0844 156.087 63.4207 155.787 63.7403 155.309L62.9969 153.576C60.7853 149.675 58.9444 145.064 56.9 141.005C54.3175 135.988 51.7785 130.949 49.2828 125.887C48.0794 123.437 46.8138 121.001 45.7594 118.482C45.8563 112.385 47.53 106.69 51.9813 102.365C52.1221 102.226 52.2647 102.089 52.4091 101.953C52.5533 101.817 52.6992 101.684 52.8469 101.552C52.9944 101.42 53.1436 101.29 53.2944 101.162C53.4452 101.034 53.5976 100.908 53.7516 100.783C53.9055 100.659 54.0611 100.537 54.2182 100.416C54.375 100.296 54.5335 100.177 54.6935 100.061C54.8533 99.944 55.0146 99.8294 55.1775 99.7169C55.3402 99.6042 55.5043 99.4936 55.6697 99.3853C55.8353 99.2768 56.0022 99.1703 56.1703 99.0659C56.3385 98.9616 56.5078 98.8593 56.6785 98.7591C56.8493 98.6588 57.0213 98.5608 57.1944 98.465C57.3673 98.3692 57.5416 98.2754 57.7172 98.1837C57.8926 98.0921 58.0691 98.0027 58.2466 97.9156C58.4243 97.8283 58.603 97.7433 58.7828 97.6606C58.9626 97.5777 59.1434 97.4972 59.325 97.4191C59.5069 97.3407 59.6896 97.2647 59.8731 97.1909C60.0569 97.1172 60.2415 97.0457 60.4269 96.9766C60.6123 96.9074 60.7986 96.8405 60.9857 96.7759C61.1727 96.7114 61.3605 96.6491 61.5491 96.5891C61.7376 96.5293 61.9269 96.4718 62.1169 96.4166C62.3071 96.3611 62.4978 96.3082 62.6891 96.2578C62.8805 96.2074 63.0725 96.1593 63.265 96.1134C63.4575 96.0678 63.6505 96.0245 63.8441 95.9834C64.0378 95.9426 64.232 95.9041 64.4266 95.8678C64.6212 95.8318 64.8162 95.7981 65.0116 95.7669C65.207 95.7354 65.4027 95.7066 65.5988 95.6803C65.795 95.6538 65.9915 95.6298 66.1882 95.6081C66.3848 95.5867 66.5818 95.5676 66.7791 95.5509C66.9762 95.5341 67.1735 95.5198 67.371 95.5081C67.5687 95.4962 67.7664 95.4869 67.9641 95.48C68.1618 95.4731 68.3596 95.4686 68.5575 95.4666C68.7554 95.4647 68.9534 95.4652 69.1513 95.4681C71.8482 95.5103 74.9728 95.9219 77.2578 97.4434C78.2057 98.0744 79.0575 98.9187 80.09 99.4078C83.1591 100.862 84.93 100.396 87.5666 103.183C89.036 104.737 90.0535 106.639 89.9991 108.832C89.9416 111.152 89.0169 113.446 88.7047 115.748C87.7078 123.092 91.7128 129.442 96.4957 134.629C102.296 140.919 110.458 145.406 111.928 154.576C118.155 153.336 124.542 152.643 130.813 151.609C131.735 151.106 130.043 146.762 131.019 145.267C131.604 144.372 132.669 144.257 133.657 144.105C142.692 142.713 151.769 141.511 160.821 140.224L169.92 138.922C171.758 138.657 173.632 138.308 175.484 138.193C176.15 138.152 176.96 138.096 177.512 138.536C178.832 139.589 178.759 142.601 178.932 144.169C182.61 143.342 186.484 142.989 190.219 142.459L208.852 139.754L210.795 153.034C211.131 155.341 211.598 157.704 211.787 160.023L211.92 160.131C212.714 159.827 215.585 156.724 216.561 155.915C218.626 154.204 221.07 152.642 223.551 151.612C226.484 150.395 230.341 149.794 233.368 151.046C234.668 149.232 235.472 142.303 235.89 139.716C232.466 137.79 229.813 134.783 228.059 131.282C224.868 124.912 225.675 117.772 228.313 111.377C229.239 109.131 230.498 106.947 231.234 104.639C231.255 104.575 231.273 104.511 231.293 104.447C230.296 102.792 229.108 100.851 229.547 98.8303C229.903 97.1894 231.238 96.3656 232.569 95.5575Z" fill="#080717"/>
<path d="M261.999 129.115L262.11 129.223L261.962 129.615L261.997 129.354L261.847 129.519L262.103 129.699C261.352 129.983 258.468 134.584 257.832 135.501C257.578 133.507 257.996 131.166 258.171 129.163C259.531 129.407 260.646 129.405 261.999 129.115Z" fill="#03100D"/>
<path d="M220.542 155.224C220.712 155.31 220.857 155.434 221.009 155.547C221.081 156.606 219.045 160.228 218.516 161.399C216.545 165.763 215.272 170.342 214.243 175.006L214.131 174.991C214.013 174.756 213.942 174.547 213.905 174.285C213.417 170.902 218.547 157.967 220.542 155.224Z" fill="#FEFEFF"/>
<path d="M232.393 96.2037C232.46 96.2075 232.792 96.2841 232.849 96.3178C233.056 96.4391 235.481 99.1534 236.309 99.8056C234.86 100.588 233.742 101.642 232.674 102.877L231.717 104.147C230.835 102.661 229.693 100.729 230.074 98.9328C230.363 97.5744 231.321 96.9306 232.393 96.2037Z" fill="#03100D"/>
<path d="M260.828 154.013C261.144 154.153 261.277 154.217 261.45 154.521C261.428 154.573 261.412 154.627 261.386 154.677C260.206 156.841 253.878 159.542 251.536 160.062C244.826 161.552 235.873 160.981 229.966 157.224C229.635 156.965 229.288 156.765 229.172 156.339L229.328 156.153C229.443 156.147 229.562 156.105 229.673 156.134C230.222 156.277 231.137 157.075 231.711 157.374C232.566 157.819 233.485 158.166 234.405 158.449C238.333 159.657 242.706 160.172 246.798 159.925C251.905 159.617 257.335 157.932 260.828 154.013Z" fill="#FEFEFF"/>
<path d="M267.591 100.247C269.883 101.263 271.597 102.748 272.525 105.141C273.618 107.959 273.061 111.126 271.824 113.797C271.311 114.906 270.659 116.053 269.884 117.001C269.628 116.139 270.497 113.851 270.642 112.847C271.412 107.509 268.965 106.131 266.199 102.357L266.077 102.189C266.559 101.522 267.072 100.886 267.591 100.247Z" fill="#03100D"/>
<path d="M88.5597 158.018C93.9328 158.718 99.0766 161.666 104.037 163.665C104.579 164.009 104.898 164.075 105.041 164.743C107.025 174.032 108.668 183.417 110.398 192.757C111.267 197.447 112.314 202.101 113.153 206.799C112.246 206.407 111.262 205.869 110.31 205.627C110.411 203.539 110.089 201.269 109.784 199.199C109.233 195.443 108.344 191.535 107.013 187.982C103.38 178.28 94.9469 166.145 88.5597 158.018Z" fill="#7FBEE0"/>
<path d="M280.329 186.33C280.327 186.388 280.325 186.446 280.322 186.504C280.208 188.759 279.577 191.094 279.178 193.321C278.672 196.308 278.227 199.303 277.843 202.308C275.661 219.634 278.012 229.903 282.976 246.322C283.733 248.826 285.498 252.632 283.19 254.767C282.164 255.716 280.376 256.266 278.995 256.402L278.564 256.508C266.65 258.673 254.859 260.318 242.771 261.144C237.431 261.509 232.108 261.816 226.753 261.674C226.599 260.96 226.414 260.25 226.244 259.539C229.088 259.596 232.043 259.241 234.886 259.071C247.761 258.299 260.628 257.346 273.313 254.89C276.045 254.36 279.109 253.954 281.605 252.681C281.364 248.89 278.712 241.276 277.626 237.27C274.385 225.314 273.421 213.445 275.2 201.16C275.555 198.711 275.842 196.035 276.624 193.683C277.473 191.13 278.99 188.658 280.329 186.33Z" fill="#007DC1"/>
<path d="M257.658 119.292C258.135 116.597 258.346 113.739 258.167 111.007C257.962 107.882 257.162 104.409 254.662 102.29C251.5 99.61 247.833 101.009 244.191 101.239C241.038 101.438 238.016 100.69 235.627 98.5603C233.269 96.459 232.028 93.4078 231.856 90.2859C231.796 89.1953 231.758 87.4525 232.562 86.6275C232.795 86.3875 233.066 86.2734 233.409 86.2928C235.129 86.3896 238.622 88.7484 240.588 89.4299C243.573 90.464 246.384 90.4312 249.458 89.91C250.758 89.6893 252.064 89.43 253.39 89.4556C256.514 89.5168 259.779 90.7871 261.958 93.0575C263.822 94.999 264.749 97.2528 264.69 99.9465C265.687 99.9353 266.632 99.9421 267.591 100.247C267.073 100.886 266.559 101.522 266.077 102.189L266.199 102.357C268.965 106.131 271.412 107.509 270.642 112.847C270.498 113.851 269.628 116.139 269.884 117.001C268.562 118.99 266.847 120.648 265.191 122.355C264.554 121.324 263.944 120.45 262.89 119.806C261.271 118.817 259.437 118.854 257.658 119.292Z" fill="#03100D"/>
<path d="M226.753 261.674C232.108 261.816 237.431 261.509 242.771 261.144C254.859 260.318 266.65 258.673 278.564 256.508C279.232 262.557 280.3 268.592 281.15 274.619C268.627 276.171 256.114 277.793 243.61 279.487C237.153 280.278 230.703 281.12 224.259 282.013C221.435 282.397 218.595 282.699 215.783 283.165C216.148 280.666 216.563 278.175 217.027 275.693C220.788 274.998 224.631 274.582 228.427 274.11C228.012 269.951 227.298 265.818 226.753 261.674Z" fill="#FEFEFF"/>
<path d="M63.0941 137.471C61.251 137.558 59.7722 137.264 58.3285 136.002C57.2403 135.05 56.4131 133.651 56.3631 132.181C56.3244 131.027 56.836 129.657 57.6885 128.86C58.55 128.055 60.0478 128.174 61.086 127.651C63.8556 126.256 66.5066 123.432 68.54 121.146C71.3269 118.012 73.6635 114.42 75.6713 110.742C76.351 109.497 77.7372 106.151 78.646 105.371C79.2681 105.467 79.6903 106.111 80.0485 106.601C83.5035 111.33 85.9003 116.583 88.0625 121.991C88.9322 124.167 89.85 126.315 90.3288 128.618C90.7781 130.779 90.8935 132.973 90.5441 135.157C89.9581 138.816 88.2597 142.259 85.2088 144.456C82.215 146.612 78.3235 147.341 74.7144 146.725C73.7097 146.554 71.3581 145.448 70.5672 145.691C71.2769 146.617 73.9828 147.184 75.1181 147.341C78.2622 147.777 81.4263 147.153 84.2472 145.723C84.0313 149.688 84.2166 153.564 84.88 157.48C85.0491 158.29 85.2944 159.07 85.5397 159.858C84.095 162.233 82.0947 164.022 79.316 164.662C74.445 165.783 69.8797 163.164 66.8016 159.569C65.97 158.597 65.0872 156.998 64.0313 156.328L63.8816 156.456L64.0703 157.034C64.1472 157.08 64.225 157.123 64.3006 157.171C65.3359 157.828 66.1947 159.386 67.0278 160.314C69.9938 163.617 74.2944 165.942 78.8316 165.09C80.6375 164.752 82.0141 163.89 83.5784 163.005C84.4906 162.205 85.2038 161.138 85.9 160.154C86.1119 160.598 85.9935 160.867 85.8497 161.309C85.1828 163.364 83.1078 165.196 81.1922 166.112C78.586 167.36 75.2016 167.381 72.5041 166.403C68.1885 164.838 64.5513 160.479 62.6369 156.444C63.0844 156.087 63.4206 155.787 63.7403 155.309C63.9753 154.354 64.1769 153.43 64.2841 152.451C65.2719 147.6 64.8113 142.105 63.0941 137.471Z" fill="#B16A40"/>
<path d="M64.0703 157.034C64.1472 157.08 64.225 157.123 64.3006 157.171C65.3359 157.828 66.1947 159.386 67.0278 160.314C69.9938 163.617 74.2944 165.942 78.8316 165.09C80.6375 164.752 82.0141 163.89 83.5784 163.005C83.5566 163.066 83.5388 163.128 83.5122 163.187C82.9441 164.443 80.7991 165.448 79.5156 165.838C76.8013 166.663 73.7688 166.21 71.3109 164.848C68.8834 163.502 64.8381 159.721 64.0703 157.034Z" fill="#007DC1"/>
<path d="M236.753 100.14C238.858 101.158 240.731 101.727 243.084 101.761C246.782 101.814 250.892 99.9412 254.156 102.534C255.472 103.58 256.31 105.073 256.846 106.641C258.299 110.897 257.908 116.237 256.882 120.539C258.122 119.636 259.156 119.263 260.736 119.518C262.033 119.727 263.268 120.384 264.013 121.49C264.638 122.418 264.809 123.519 264.591 124.607C264.285 126.14 263.389 127.289 262.402 128.44C261.233 128.682 260.021 128.961 258.841 128.611C258.405 128.482 257.506 127.923 257.137 128.137C257.279 128.452 257.537 128.872 257.626 129.201C257.785 129.788 257.382 132.776 257.335 133.596C257.163 136.572 257.284 139.508 257.514 142.476C257.633 144.212 257.867 145.933 258.218 147.637C258.49 148.971 258.916 150.352 258.995 151.709C258.872 152.028 258.739 152.257 258.534 152.531C256.217 154.614 254.012 156.027 250.995 156.934C244.73 158.815 237.766 157.85 232.065 154.768L233.532 152.232C234.959 149.597 235.448 146.135 235.914 143.191C237.476 142.497 238.598 141.238 240.098 140.547C242.598 139.395 244.027 139.94 246.789 138.082C247.265 137.762 247.881 137.391 248.17 136.895C247.127 136.979 245.797 137.964 244.878 138.446C241.103 140.427 236.94 140.297 233.64 137.498C233.387 137.286 233.139 137.067 232.897 136.841C232.654 136.616 232.418 136.385 232.187 136.148C231.956 135.911 231.732 135.668 231.513 135.42C231.295 135.171 231.082 134.918 230.877 134.659C230.671 134.4 230.471 134.135 230.279 133.867C230.086 133.598 229.901 133.324 229.722 133.046C229.543 132.767 229.371 132.485 229.206 132.198C229.042 131.911 228.884 131.62 228.734 131.325C228.584 131.03 228.441 130.732 228.306 130.43C228.171 130.128 228.044 129.823 227.924 129.515C227.804 129.206 227.692 128.895 227.588 128.581C227.483 128.267 227.387 127.951 227.298 127.632C227.21 127.313 227.13 126.992 227.057 126.669C226.985 126.346 226.921 126.022 226.865 125.696C226.809 125.37 226.761 125.043 226.722 124.714C226.682 124.386 226.651 124.057 226.627 123.727C226.478 121.704 226.532 119.592 226.922 117.599C227.685 113.706 230.788 105.79 233.415 102.806C234.399 101.689 235.477 100.892 236.753 100.14Z" fill="#B16A40"/>
<path d="M230.421 122.444C235.563 123.292 240.7 124.291 245.87 124.947C245.306 126.807 244.236 128.214 243.035 129.709C242.845 129.916 242.644 130.113 242.434 130.3C240.868 131.713 238.835 132.674 236.686 132.528C235.108 132.42 233.732 131.656 232.712 130.46C230.877 128.306 230.242 125.205 230.421 122.444Z" fill="#080717"/>
<path d="M230.966 123.095C233.309 123.485 235.636 123.963 237.981 124.343C240.348 124.726 242.771 124.999 245.104 125.553C244.438 127.04 243.483 128.23 242.451 129.479C241.11 130.793 239.463 131.85 237.547 132.008C236.148 132.124 234.822 131.678 233.767 130.754C231.569 128.83 231.132 125.834 230.966 123.095Z" fill="#FEFEFF"/>
<path d="M130.813 151.609C131.735 151.106 130.043 146.762 131.019 145.267C131.604 144.372 132.669 144.257 133.657 144.105C142.692 142.713 151.769 141.511 160.821 140.224L169.92 138.922C171.758 138.657 173.632 138.308 175.484 138.193C176.15 138.153 176.96 138.096 177.512 138.536C178.832 139.589 178.759 142.601 178.932 144.169L179.049 144.646C188.809 143.255 198.591 141.942 208.332 140.42C209.277 147.116 210.271 153.805 211.311 160.488C211.638 163.434 212.186 166.362 212.631 169.293L214.464 182.207L221.163 229.3C222.709 239.673 224.476 250.016 225.868 260.41C226.705 264.719 227.161 269.187 227.783 273.537C222.987 274.317 218.141 274.906 213.329 275.588L186.506 279.459L158.87 283.441C148.236 285.017 137.594 286.683 126.927 288.023C125.949 283.755 125.543 279.236 124.907 274.896L121.63 253.187C118.525 232.786 114.975 212.464 110.977 192.22L107.073 171.807C106.502 168.857 106.134 165.734 105.371 162.844C105.131 160.688 104.558 158.515 104.103 156.396C106.603 155.908 109.188 155.817 111.671 155.224C114.513 154.913 117.361 154.395 120.187 153.956C123.785 153.396 127.398 152.878 130.981 152.226L131.271 152.027L131.205 151.759L130.813 151.609Z" fill="#FEFEFF"/>
<path d="M194.563 178.028C195.273 177.887 195.954 177.674 196.667 177.879L196.853 178.074C196.409 178.487 195.844 178.501 195.258 178.56C193.417 178.827 180.844 181.027 179.985 180.529C181.482 179.685 192.181 178.381 194.563 178.028Z" fill="#007DC1"/>
<path d="M142.372 194.117C142.552 194.088 142.744 194.108 142.927 194.113L143.14 194.383C142.85 194.647 142.706 194.665 142.319 194.75C140.927 195.057 139.402 195.122 137.981 195.335L127.065 197.009C126.661 197.038 126.603 197.079 126.27 196.86L126.32 196.608C127.302 196.015 140.135 194.433 142.372 194.117Z" fill="#007DC1"/>
<path d="M150.001 240.838C150.091 240.827 150.181 240.8 150.272 240.805C150.566 240.822 150.646 240.955 150.781 241.186C149.927 241.799 136.304 243.506 134.412 243.665C134.06 243.712 134.049 243.712 133.74 243.538L133.753 243.305C134.733 242.837 147.633 241.21 150.001 240.838Z" fill="#007DC1"/>
<path d="M201.535 210.228L201.704 210.309L201.762 210.574C201.052 211.105 186.396 212.952 184.255 213.24C184.028 213.215 184.021 213.148 183.863 212.995L183.933 212.797C184.442 212.483 199.845 210.42 201.535 210.228Z" fill="#007DC1"/>
<path d="M161.715 225.203C163.931 224.773 174.253 222.997 175.858 223.315C175.73 223.554 175.474 223.574 175.22 223.653C173.438 224.207 171.429 224.292 169.585 224.572C167.114 224.946 164.637 225.453 162.152 225.713C161.167 226.03 159.335 226.302 158.298 226.21C157.956 226.18 158.078 226.241 157.872 226.008C158.42 225.366 160.813 225.311 161.715 225.203Z" fill="#007DC1"/>
<path d="M173.141 214.282C173.603 214.187 173.999 214.16 174.422 214.363L174.398 214.527C173.551 214.964 159.936 216.807 157.701 217.126C157.315 217.226 157 217.278 156.597 217.287L156.432 217.101L156.559 216.812C157.906 216.256 159.83 216.197 161.279 215.973C165.222 215.364 169.174 214.705 173.141 214.282Z" fill="#007DC1"/>
<path d="M201.67 219.275C202.219 219.148 202.701 219.143 203.222 219.373L203.162 219.549C201.83 220.105 199.866 220.175 198.41 220.404C194.768 220.995 191.119 221.546 187.464 222.056C186.908 222.153 186.222 222.365 185.675 222.188L185.622 221.953C186.365 221.392 199.573 219.573 201.67 219.275Z" fill="#007DC1"/>
<path d="M177.369 236.469C177.565 236.468 177.44 236.452 177.721 236.606L177.678 236.805C176.759 237.399 162.709 239.407 160.66 239.673L160.26 239.58L160.167 239.325C161.063 238.656 175.14 236.776 177.369 236.469Z" fill="#007DC1"/>
<path d="M193.906 186.167C195.311 185.954 196.795 185.648 198.218 185.75C197.507 186.483 195.535 186.568 194.522 186.698C191.095 187.208 187.659 187.793 184.221 188.213C183.265 188.413 181.657 188.94 180.746 188.419L180.894 188.205C181.771 187.851 182.692 187.811 183.625 187.727C184.63 187.387 185.944 187.325 187.005 187.171L193.906 186.167Z" fill="#007DC1"/>
<path d="M202.77 232.612C203.522 232.482 204.234 232.294 204.988 232.483L205.078 232.677C204.421 233.207 203.517 233.222 202.709 233.323C199.367 233.875 196.02 234.401 192.668 234.899C191.059 235.16 189.142 235.668 187.513 235.532L187.437 235.333C188.465 234.532 190.962 234.498 192.267 234.314C195.769 233.789 199.293 233.286 202.77 232.612Z" fill="#007DC1"/>
<path d="M166.7 201.449C168.52 201.093 170.603 200.63 172.455 200.889L172.499 201.015L172.608 200.962L172.34 200.9L172.316 201.104C170.668 201.532 169.004 201.755 167.318 201.973C166.629 202.076 165.885 202.254 165.192 202.271L162.788 202.641C162.038 202.75 161.234 202.935 160.48 202.953C158.651 203.289 156.717 203.584 154.862 203.699L154.667 203.521L154.717 203.286C156.275 202.716 158.379 202.626 160.029 202.41C160.706 202.214 161.52 202.193 162.224 202.104C163.107 201.914 163.973 201.804 164.869 201.711C165.466 201.573 166.092 201.524 166.7 201.449Z" fill="#007DC1"/>
<path d="M197.192 196.956C197.963 196.825 198.695 196.642 199.469 196.828L199.677 197.02C199.346 197.426 198.678 197.467 198.188 197.518C197.946 197.543 197.705 197.565 197.463 197.585C196.759 197.707 196.063 197.831 195.351 197.895C193.35 198.236 191.346 198.554 189.337 198.847C188.548 198.964 187.694 199.157 186.902 199.194C185.832 199.364 184.744 199.581 183.666 199.681C183.047 199.737 182.614 199.838 182.114 199.432L181.898 199.59L182.168 199.697L182.444 199.316C183.638 198.912 185.045 198.818 186.291 198.667C187.012 198.451 187.933 198.422 188.689 198.324C190.71 197.86 192.973 197.566 195.036 197.338L197.192 196.956Z" fill="#007DC1"/>
<path d="M130.812 151.609C131.735 151.106 130.042 146.762 131.019 145.267C131.604 144.372 132.669 144.257 133.657 144.105C142.692 142.713 151.769 141.511 160.821 140.224L169.92 138.922C171.757 138.657 173.632 138.308 175.484 138.193C176.15 138.153 176.96 138.096 177.512 138.536C178.832 139.589 178.759 142.601 178.932 144.169L179.049 144.646C179.874 149.617 180.384 154.675 181.049 159.673C181.527 163.266 183.301 172.574 182.831 175.415C182.47 175.72 182.138 175.997 181.661 176.087C179.412 176.513 177.088 176.716 174.823 177.073C166.702 178.365 158.567 179.563 150.418 180.665C147.716 181.051 139.46 182.634 137.191 182.457C136.709 182.42 136.173 182.129 135.87 181.75C135.186 180.897 132.691 161.526 132.285 158.618C132.023 156.747 131.944 154.444 131.377 152.651C131.281 152.35 131.273 152.36 130.981 152.226L131.271 152.027L131.205 151.759L130.812 151.609Z" fill="#FEE5A3"/>
<path d="M169.715 163.148C170.737 163.099 171.459 163.076 172.368 163.578C172.555 163.863 172.56 164.052 172.574 164.387C172.041 165.198 170.593 164.823 169.697 165.089C169.476 165.369 169.49 165.354 169.517 165.712C170.025 166.351 171.451 166.393 172.192 166.927C172.798 167.363 173.213 167.951 173.317 168.7C173.413 169.401 173.17 170.113 172.74 170.664C172.1 171.484 171.305 171.669 170.317 171.791C169.418 171.743 168.607 171.615 167.731 171.413C167.871 170.776 168.042 170.145 168.204 169.513C168.792 169.723 169.519 170.006 170.146 170.015C170.662 170.023 171.143 169.818 171.501 169.454C171.163 168.113 168.273 167.923 167.555 166.322C167.371 165.911 167.368 165.51 167.531 165.092C167.964 163.98 168.653 163.58 169.715 163.148Z" fill="#03100D"/>
<path d="M149.213 162.749C149.701 162.687 150.212 162.537 150.654 162.806C150.965 163.35 150.817 164.194 150.792 164.808C149.36 164.869 147.926 164.989 146.495 165.084L146.831 167.658C147.609 167.558 148.491 167.372 149.272 167.416C149.836 167.448 150.337 167.589 150.71 168.029C150.685 168.357 150.739 168.27 150.511 168.542C149.784 169.409 148.174 169.465 147.147 169.612L147.613 172.307C147.749 173.083 147.802 173.866 147.868 174.651L145.677 174.841C145.137 170.995 144.643 167.082 144.342 163.211L149.213 162.749Z" fill="#03100D"/>
<path d="M154.922 165.017C155.99 164.987 157.038 164.969 157.846 165.789C158.743 166.698 158.746 168.054 158.779 169.244C157.585 169.589 155.289 169.521 154.362 170.198C154.435 170.665 154.533 171.187 154.985 171.449C155.694 171.862 156.886 171.44 157.58 171.178L158.441 170.854L158.702 171.008C158.742 171.428 158.859 172.028 158.696 172.424C158.538 172.808 158.106 173.034 157.739 173.171C156.653 173.575 155.313 173.682 154.247 173.167C153.325 172.722 152.702 171.875 152.37 170.925C151.928 169.661 151.907 168.113 152.515 166.898C153.055 165.821 153.812 165.374 154.922 165.017Z" fill="#03100D"/>
<path d="M155.157 166.881C155.547 166.867 155.906 166.831 156.253 167.052C156.606 167.276 156.756 167.497 156.838 167.887C156.572 168.206 156.504 168.162 156.119 168.265C155.332 168.322 154.773 168.424 154.076 167.983L154.038 167.689C154.351 167.257 154.693 167.106 155.157 166.881Z" fill="#FEE5A3"/>
<path d="M162.526 163.928C163.578 163.868 164.602 163.828 165.422 164.61C166.428 165.57 166.397 167.079 166.418 168.363C165.362 168.662 162.97 168.685 162.266 169.229C162.055 169.392 162.099 169.483 162.06 169.726C162.14 169.878 162.143 169.908 162.281 170.048C163.53 171.325 164.817 170.021 166.136 170.089C166.2 170.093 166.263 170.11 166.328 170.12C166.408 170.422 166.553 170.811 166.559 171.119C166.566 171.492 166.441 171.704 166.133 171.901C165.234 172.475 163.558 172.65 162.537 172.371C161.599 172.115 160.837 171.487 160.37 170.638C159.703 169.422 159.565 167.763 160.024 166.453C160.491 165.122 161.279 164.503 162.526 163.928Z" fill="#03100D"/>
<path d="M162.771 165.723C163.113 165.718 163.494 165.682 163.8 165.863C164.198 166.099 164.362 166.371 164.503 166.788C164.333 167.144 164.256 167.147 163.903 167.338C163.367 167.373 162.689 167.494 162.187 167.277C161.926 167.164 161.974 167.1 161.896 166.857C162.1 166.359 162.384 166.09 162.771 165.723Z" fill="#FEE5A3"/>
<path d="M162.304 149.39C163.002 149.37 163.721 149.325 164.378 149.603C165.501 150.078 166.272 151.073 166.683 152.197C167.231 153.696 167.397 155.761 166.678 157.222C166.073 158.451 165.224 158.889 163.964 159.283C163.101 159.388 162.288 159.424 161.484 159.036C160.372 158.499 159.652 157.467 159.297 156.307C158.829 154.783 158.785 152.778 159.566 151.354C160.21 150.178 161.063 149.764 162.304 149.39Z" fill="#03100D"/>
<path d="M162.364 151.385C162.639 151.37 162.92 151.354 163.193 151.406C163.681 151.498 164.025 151.792 164.309 152.185C165.014 153.16 165.179 154.477 164.972 155.64C164.823 156.478 164.515 156.833 163.833 157.315C163.67 157.325 163.507 157.33 163.344 157.328C162.832 157.321 162.456 157.107 162.113 156.735C161.431 155.993 161.228 154.894 161.262 153.917C161.302 152.797 161.53 152.132 162.364 151.385Z" fill="#FEE5A3"/>
<path d="M155.557 147.369L155.843 147.383C156.067 147.57 156.139 147.72 156.209 147.995C156.743 150.1 156.89 152.415 157.183 154.569C157.357 155.846 157.675 157.184 157.721 158.471C157.739 159 157.746 159.293 157.473 159.739C157.136 159.891 156.764 160.086 156.387 160.079C154.495 160.047 150.959 154.54 149.568 153.022L149.414 152.856C149.669 155.418 150.178 157.959 150.448 160.527L148.572 160.897L148.228 160.788C148.118 160.612 148.066 160.552 148.009 160.323C147.787 159.423 147.861 158.218 147.753 157.275C147.443 154.592 146.501 151.438 146.722 148.775C147.055 148.44 147.468 148.319 147.934 148.321C148.343 148.322 148.487 148.348 148.806 148.606C149.988 149.565 150.971 151.195 151.912 152.396C152.845 153.608 153.86 154.747 154.957 155.813C154.677 153.135 154.316 150.466 154.109 147.781C154.406 147.522 155.153 147.456 155.557 147.369Z" fill="#03100D"/>
<path d="M215.777 236.938C215.859 237.001 215.965 237.043 216.023 237.129C216.129 237.289 219.84 263.475 220.284 266.234L134.724 278.867L134.224 278.866C134.149 278.758 134.038 278.668 133.998 278.543C133.804 277.936 133.863 277.005 133.796 276.347C133.636 274.772 133.405 273.197 133.186 271.628L131.148 257.751C130.755 255.079 130.219 252.307 130.111 249.61C135.761 249.006 141.448 247.986 147.076 247.18L191.149 240.659C199.336 239.408 207.557 237.907 215.777 236.938Z" fill="#080717"/>
<path d="M215.083 237.722C215.197 237.717 215.295 237.811 215.395 237.868C215.998 239.964 216.219 243.25 216.556 245.515C217.497 252.253 218.484 258.985 219.515 265.71C207.377 267.65 195.186 269.314 183.025 271.101L135.193 278.214C134.954 278.271 134.893 278.253 134.662 278.196C134.295 277.41 133.885 272.402 133.697 271.052C132.661 264.097 131.669 257.136 130.722 250.168L182.38 242.569C193.264 240.957 204.155 238.983 215.083 237.722Z" fill="#FEFEFF"/>
<path d="M204.422 257.648C205.505 257.425 206.492 257.156 207.597 257.372L207.634 257.551C206.824 258.028 205.872 258.078 204.957 258.199L200.899 258.85C198.741 259.187 196.58 259.508 194.417 259.813L192.538 260.103L190.177 260.449L188.033 260.759L176.211 262.598C175.362 262.724 174.422 262.944 173.569 262.953C172.94 263.061 172.313 263.17 171.679 263.245C170.823 263.37 168.585 263.929 167.93 263.529L167.96 263.229C168.761 262.796 170.295 262.782 171.217 262.66L172.863 262.429L175.598 262.042C179.604 261.37 183.639 260.821 187.655 260.203C188.254 260.088 188.863 260.008 189.467 259.915L192.012 259.533C192.59 259.423 193.185 259.359 193.769 259.276C195.876 258.903 197.991 258.586 200.115 258.325C201.517 258.006 202.997 257.823 204.422 257.648Z" fill="#007DC1"/>
<path d="M199.071 249.913C201.253 249.599 204.537 248.743 206.644 249.069C205.006 250.019 201.639 250.165 199.68 250.445L197.846 250.727C196.469 250.935 195.092 251.161 193.713 251.349C192.309 251.566 190.903 251.775 189.497 251.978L187.213 252.327L185.447 252.599C184.783 252.694 184.116 252.811 183.448 252.859C181.483 253.376 179.323 253.564 177.308 253.851C174.705 254.248 172.099 254.628 169.491 254.992C167.754 255.26 166.017 255.561 164.273 255.775C163.237 255.964 162.188 256.27 161.168 255.874L161.261 255.666C162.033 255.355 162.808 255.306 163.628 255.226C165.268 254.688 167.974 254.494 169.747 254.338C170.631 253.883 175.406 253.442 176.685 253.284C178.731 252.828 180.896 252.617 182.971 252.31C183.576 252.208 184.185 252.133 184.793 252.05C185.331 251.932 185.889 251.869 186.433 251.785L188.761 251.439L193.079 250.798L197.274 250.18L199.071 249.913Z" fill="#007DC1"/>
</svg>
