<svg width="20" height="20" viewBox="0 0 20 20" fill="none" xmlns="http://www.w3.org/2000/svg">
<path d="M18.3334 7.44313C18.3334 6.93829 18.3334 6.68586 18.2335 6.56898C18.1469 6.46756 18.017 6.41373 17.884 6.4242C17.7308 6.43626 17.5523 6.61475 17.1953 6.97173L14.1667 10.0003L17.1953 13.0289C17.5523 13.3859 17.7308 13.5644 17.884 13.5765C18.017 13.5869 18.1469 13.5331 18.2335 13.4317C18.3334 13.3148 18.3334 13.0624 18.3334 12.5575V7.44313Z" stroke="#007DC1" stroke-width="1.3" stroke-linecap="round" stroke-linejoin="round"/>
<path d="M1.66669 8.16699C1.66669 6.76686 1.66669 6.0668 1.93917 5.53202C2.17885 5.06161 2.56131 4.67916 3.03171 4.43948C3.56649 4.16699 4.26656 4.16699 5.66669 4.16699H10.1667C11.5668 4.16699 12.2669 4.16699 12.8017 4.43948C13.2721 4.67916 13.6545 5.06161 13.8942 5.53202C14.1667 6.0668 14.1667 6.76686 14.1667 8.16699V11.8337C14.1667 13.2338 14.1667 13.9339 13.8942 14.4686C13.6545 14.939 13.2721 15.3215 12.8017 15.5612C12.2669 15.8337 11.5668 15.8337 10.1667 15.8337H5.66669C4.26656 15.8337 3.56649 15.8337 3.03171 15.5612C2.56131 15.3215 2.17885 14.939 1.93917 14.4686C1.66669 13.9339 1.66669 13.2338 1.66669 11.8337V8.16699Z" stroke="#007DC1" stroke-width="1.3" stroke-linecap="round" stroke-linejoin="round"/>
</svg>
